<svg width="85" height="31" viewBox="0 0 85 31" fill="none" xmlns="http://www.w3.org/2000/svg">
<path d="M45.6445 10.7793C63.3841 11.1155 77.208 13.6865 77.208 16.8112C77.208 20.1732 61.3669 22.8826 41.8078 22.8826C22.2487 22.8826 6.42741 20.1732 6.42741 16.8112C6.42741 13.6865 20.2513 11.0957 37.9909 10.7793C14.3183 11.1946 0 14.2995 0 19.5206C0 25.0185 16.3553 30.6746 41.8276 30.6746C67.2999 30.6746 85 26.2249 85 20.7072C85 15.4861 69.3171 11.1946 45.6445 10.7793Z" fill="black"/>
<path d="M81.9156 19.3627C81.9156 17.4444 79.048 15.6843 73.9654 14.2801C76.0222 15.0514 77.2088 15.9018 77.2088 16.8115C77.2088 20.1736 61.3677 22.883 41.8086 22.883C22.2495 22.883 6.42819 20.1736 6.42819 16.8115C6.42819 15.1899 10.1066 13.7264 16.099 12.6387C7.75323 13.8846 3.08594 15.8227 3.08594 18.3739C3.08594 22.9423 18.2546 27.6096 41.8679 27.6096C65.4812 27.6294 81.9156 23.9311 81.9156 19.3627Z" fill="black"/>
<path d="M33.3411 4.53056C33.3411 5.71716 32.9851 6.70599 32.2732 7.53661C31.5612 8.36723 30.5526 8.94075 29.2671 9.2374V9.3165C30.7899 9.51427 31.9568 9.96913 32.728 10.7009C33.5191 11.4326 33.8949 12.4214 33.8949 13.6871C33.8949 15.5066 33.2422 16.9305 31.9172 17.9391C30.5922 18.9477 28.7134 19.4619 26.2611 19.4619C24.2043 19.4619 22.3849 19.1257 20.8027 18.4335V15.032C21.5345 15.4077 22.3453 15.7044 23.2155 15.9417C24.0857 16.179 24.9558 16.2977 25.826 16.2977C27.151 16.2977 28.1201 16.0801 28.7529 15.6253C29.3858 15.1704 29.7022 14.4584 29.7022 13.4696C29.7022 12.5796 29.3462 11.9468 28.6145 11.5908C27.8828 11.2151 26.7357 11.0371 25.1536 11.0371H23.7099V7.95192H25.1734C26.6368 7.95192 27.7048 7.75415 28.3772 7.37839C29.0496 7.00264 29.3858 6.33023 29.3858 5.40073C29.3858 3.97681 28.4958 3.24508 26.6962 3.24508C26.0831 3.24508 25.4502 3.34396 24.7976 3.5615C24.1648 3.75927 23.433 4.13503 22.6617 4.62944L20.8225 1.88049C22.5431 0.63456 24.5998 0.0214844 26.9928 0.0214844C28.9507 0.0214844 30.4933 0.417017 31.6206 1.20808C32.7676 2.01893 33.3411 3.10664 33.3411 4.53056Z" fill="black"/>
<path d="M35.832 11.1709C35.832 7.43308 36.6231 4.64458 38.2052 2.82512C39.7874 1.00567 42.1606 0.0761719 45.305 0.0761719C46.373 0.0761719 47.2234 0.135502 47.8365 0.273938V3.45798C47.0652 3.27999 46.3137 3.20088 45.5621 3.20088C44.1975 3.20088 43.0703 3.39865 42.2001 3.81396C41.3299 4.22927 40.6773 4.84234 40.262 5.65318C39.8269 6.46403 39.5698 7.61107 39.4907 9.1141H39.6687C40.5191 7.65063 41.8837 6.91889 43.7625 6.91889C45.4435 6.91889 46.7685 7.45286 47.7376 8.50102C48.6868 9.56896 49.1813 11.0324 49.1813 12.8914C49.1813 14.9087 48.6077 16.5106 47.4805 17.6774C46.3334 18.8442 44.7711 19.4375 42.7539 19.4375C41.3497 19.4375 40.1433 19.1211 39.0952 18.4684C38.047 17.8158 37.2559 16.8863 36.6824 15.6404C36.1287 14.4142 35.832 12.9112 35.832 11.1709ZM42.655 16.2535C43.5054 16.2535 44.158 15.9766 44.6129 15.4031C45.0677 14.8295 45.305 14.0187 45.305 12.9508C45.305 12.0213 45.0875 11.3093 44.6722 10.7753C44.2371 10.2414 43.6043 9.98427 42.7341 9.98427C41.9232 9.98427 41.2311 10.2414 40.6575 10.7753C40.084 11.3093 39.8071 11.9224 39.8071 12.6146C39.8071 13.6429 40.084 14.5131 40.618 15.2053C41.1519 15.8975 41.8441 16.2535 42.655 16.2535Z" fill="black"/>
<path d="M64.1932 9.74988C64.1932 13.0526 63.6592 15.4851 62.5715 17.087C61.4838 18.6691 59.8226 19.4602 57.568 19.4602C55.3926 19.4602 53.7512 18.6494 52.6437 17.0079C51.5362 15.3664 50.9824 12.9537 50.9824 9.74988C50.9824 6.40763 51.5164 3.95533 52.6041 2.3732C53.672 0.791066 55.3333 0 57.568 0C59.7435 0 61.4047 0.830619 62.5122 2.49186C63.6395 4.13332 64.1932 6.56584 64.1932 9.74988ZM54.9377 9.74988C54.9377 12.0637 55.1355 13.725 55.531 14.7336C55.9266 15.7422 56.599 16.2366 57.5483 16.2366C58.4778 16.2366 59.1502 15.7224 59.5655 14.7138C59.9808 13.7052 60.1786 12.044 60.1786 9.74988C60.1786 7.43602 59.961 5.77478 59.5457 4.74639C59.1304 3.73778 58.458 3.22359 57.5285 3.22359C56.5792 3.22359 55.9266 3.73778 55.5113 4.74639C55.1553 5.755 54.9377 7.43602 54.9377 9.74988Z" fill="black"/>
<path d="M69.654 0C67.5775 0 65.8965 1.68101 65.8965 3.75756C65.8965 5.83411 67.5775 7.51512 69.654 7.51512C71.7306 7.51512 73.4116 5.83411 73.4116 3.75756C73.4116 1.68101 71.7108 0 69.654 0ZM69.654 5.69567C68.5861 5.69567 67.7159 4.8255 67.7159 3.75756C67.7159 2.68962 68.5861 1.81945 69.654 1.81945C70.722 1.81945 71.5922 2.68962 71.5922 3.75756C71.5922 4.8255 70.722 5.69567 69.654 5.69567Z" fill="black"/>
</svg>
