<svg width="23" height="22" viewBox="0 0 23 22" fill="none" xmlns="http://www.w3.org/2000/svg">
<path d="M21.9442 18.8513C21.8475 18.3867 21.3923 18.0885 20.9277 18.1852C20.463 18.282 20.1648 18.737 20.2616 19.2017C20.3173 19.4693 20.2509 19.7437 20.0795 19.9544C19.9802 20.0765 19.7589 20.2812 19.3921 20.2812H15.5117C15.0371 20.2812 14.6523 20.666 14.6523 21.1406C14.6523 21.6152 15.0371 22 15.5117 22H19.3921C20.1797 22 20.9162 21.6497 21.413 21.0388C21.9122 20.4249 22.1059 19.6276 21.9442 18.8513Z" fill="black"/>
<path d="M11.8725 11.7205C14.6958 11.9806 17.264 13.4938 18.8636 15.8794C19.1279 16.2735 19.6618 16.3789 20.0559 16.1146C20.4502 15.8502 20.5554 15.3164 20.2911 14.9222C18.881 12.819 16.8332 11.29 14.4985 10.5217C15.9214 9.45481 16.8437 7.75498 16.8437 5.84373C16.8437 2.62147 14.2222 0 11 0C7.77773 0 5.15622 2.62147 5.15622 5.84373C5.15622 7.75622 6.0797 9.45705 7.50415 10.5237C6.19915 10.9533 4.97455 11.6215 3.90282 12.503C1.93778 14.1193 0.571509 16.3739 0.0557567 18.8513C-0.105891 19.6276 0.0877683 20.4249 0.586978 21.0388C1.0837 21.6496 1.82031 21.9999 2.60788 21.9999H6.35934C6.83397 21.9999 7.21871 21.6152 7.21871 21.1406C7.21871 20.6659 6.83397 20.2812 6.35934 20.2812H2.60779C2.24093 20.2812 2.01964 20.0764 1.92034 19.9544C1.74894 19.7436 1.68259 19.4693 1.73832 19.2016C2.57982 15.1596 5.99136 12.1461 10.0393 11.73L8.39872 19.194C8.33585 19.4803 8.42317 19.7789 8.6304 19.9862L10.3492 21.7052C10.5104 21.8664 10.729 21.957 10.957 21.957C11.1849 21.957 11.4035 21.8664 11.5647 21.7052L13.2833 19.9862C13.4906 19.7789 13.5779 19.4803 13.515 19.1941L11.8725 11.7205ZM6.87496 5.84373C6.87496 3.56919 8.72541 1.71874 11 1.71874C13.2745 1.71874 15.1249 3.56919 15.1249 5.84373C15.1249 8.04961 13.3845 9.85653 11.2047 9.96365C11.1365 9.9624 11.0683 9.96159 11 9.96159C10.9329 9.96159 10.8659 9.96257 10.7989 9.96378C8.61738 9.85855 6.87496 8.05086 6.87496 5.84373ZM10.9569 19.8821L10.1785 19.1035L10.9569 15.5619L11.7353 19.1036L10.9569 19.8821Z" fill="black"/>
</svg>
