<svg width="515" height="573" viewBox="0 0 515 573" fill="none" xmlns="http://www.w3.org/2000/svg">
<rect opacity="0.2" x="18" width="479" height="573" fill="black"/>
<g filter="url(#filter0_d)">
<path d="M18.0002 440.765C18.0002 458.027 27.9929 472.95 42.5119 480.042L44.4465 480.928C44.5104 480.955 44.5742 480.983 44.6381 481.01L82.446 498.318L86.1419 500.009L105.999 509.165L106.045 509.184C109.011 510.308 112.132 511.112 115.362 511.56C106.136 503.564 100.305 491.739 100.305 478.561C100.305 472.649 101.446 467.001 103.581 461.856C103.663 461.637 103.891 461.116 103.891 461.116L132.966 397.422L168.812 318.878L195.185 261.097L244.72 152.57L255.908 128.71C256.428 127.97 256.966 127.248 257.505 126.526C258.198 125.594 258.919 124.671 259.658 123.766C275.939 103.634 300.067 90.1369 327.389 87.9254C330.009 87.7152 332.655 87.6056 335.329 87.6056C336.588 87.6056 337.838 87.633 339.08 87.6878L340.074 87.8158L338.924 85.8602C336.232 80.4411 331.98 76.0456 327.389 72.1892C324.588 69.8315 321.476 67.8302 318.136 66.231C312.46 63.517 306.099 62 299.383 62L288.286 62.1005H217.68C210.243 62.1005 203.207 63.782 196.91 66.7885C193.214 68.543 189.774 70.7636 186.671 73.3681C181.77 77.4712 177.691 82.5429 174.725 88.2727L172.754 92.586L112.917 223.712L23.7768 419.025C23.7676 419.034 23.7585 419.052 23.7494 419.071L20.4458 426.308C18.858 430.832 18.0002 435.702 18.0002 440.765Z" fill="white"/>
</g>
<g filter="url(#filter1_d)">
<path d="M24.7238 464.077C28.7026 470.382 34.2419 475.591 40.8033 479.164L40.8581 479.191L83.3474 498.327L83.4022 498.391L103.095 507.52L104.866 508.343C105.541 508.635 106.216 508.909 106.901 509.174L106.947 509.193C109.584 510.189 112.34 510.938 115.187 511.404C115.543 511.468 115.899 511.523 116.264 511.569C118.253 511.852 120.288 511.998 122.351 511.998C131.823 511.998 140.593 508.973 147.748 503.837L152.812 499.579L160.825 492.853L205.541 455.313L209.237 452.206L235.044 430.548L257.932 411.221L258.087 411.349L277.178 395.375L219.22 325.905L178.082 360.311L176.539 361.6L133.867 397.431L132.398 398.665L125.609 404.367L114.941 413.322L66.8207 456.062C66.4922 456.364 66.1546 456.665 65.8169 456.949C58.708 463.081 49.4453 466.782 39.3249 466.782C34.178 466.782 29.2501 465.822 24.7238 464.077Z" fill="white"/>
</g>
<g filter="url(#filter2_d)">
<path d="M161.363 374.359C168.673 368.611 177.872 365.184 187.883 365.184C198.222 365.184 207.704 368.839 215.114 374.925C215.415 375.181 215.725 375.437 216.026 375.693L283.292 432.615L310.341 455.315L315.022 459.244L355.057 492.855L363.069 499.581L368.134 503.839C375.288 508.975 384.058 512 393.531 512C395.593 512 397.628 511.854 399.617 511.571C402.848 511.123 405.969 510.319 408.935 509.195L408.98 509.176C409.665 508.911 410.34 508.637 411.015 508.345L412.786 507.522L432.479 498.393L432.534 498.329L461.289 463.978L400.941 413.324L382.014 397.433L337.8 360.313L333.219 356.448L305.778 333.273L286.267 316.806C286.267 316.796 286.249 316.778 286.23 316.769L284.551 315.353C284.232 315.078 283.912 314.804 283.593 314.548C276.603 308.837 267.669 305.419 257.941 305.419C248.222 305.419 239.288 308.837 232.297 314.548C231.969 314.804 231.649 315.078 231.339 315.353L229.66 316.769C229.642 316.778 229.624 316.796 229.624 316.806L210.113 333.273L187.974 351.961L178.091 360.313L161.363 374.359Z" fill="white"/>
</g>
<g filter="url(#filter3_d)">
<path d="M226.714 62.1003L243.205 94.8429L270.281 152.57L382.034 397.422L411.109 461.116C411.109 461.116 411.337 461.637 411.428 461.856C413.554 467.001 414.704 472.648 414.704 478.57C414.704 491.748 408.873 503.573 399.647 511.569C402.877 511.121 405.998 510.317 408.964 509.193L409.01 509.174L428.867 500.018L432.563 498.327L470.371 481.019C470.435 480.992 470.499 480.964 470.563 480.937L472.488 480.041C487.007 472.95 497 458.027 497 440.765C497 435.702 496.142 430.832 494.554 426.308L491.251 419.07C491.242 419.052 491.233 419.034 491.223 419.025L342.246 92.5858L340.275 88.2725C337.309 82.5428 333.23 77.471 328.329 73.3679C325.227 70.7635 321.786 68.5429 318.09 66.7883C311.794 63.7818 304.758 62.1003 297.32 62.1003H226.714Z" fill="white"/>
</g>
<g filter="url(#filter4_d)">
<path d="M168.812 318.878L195.185 261.097L244.72 152.57L255.908 128.71C256.428 127.97 256.966 127.248 257.505 126.526C258.198 125.594 258.919 124.671 259.658 123.766C275.939 103.634 300.067 90.1369 327.389 87.9254C330.009 87.7152 332.655 87.6056 335.329 87.6056C336.588 87.6056 337.838 87.633 339.08 87.6878L340.074 87.8158L338.924 85.8601C336.232 80.4411 331.98 76.0456 327.389 72.1892C324.588 69.8315 321.476 67.8302 318.136 66.231C312.46 63.517 306.099 62 299.383 62L288.286 62.1005H217.68C210.243 62.1005 203.207 63.782 196.91 66.7885C193.214 68.543 189.774 70.7636 186.671 73.3681C181.77 77.4712 177.691 82.5429 174.725 88.2727L172.754 92.586L112.917 223.712L81.5618 292.413C168.812 318.878 81.5618 292.413 168.812 318.878Z" fill="white"/>
</g>
<path d="M70.967 315.716L83.743 287.844L172.719 310.233L151.73 356.381L70.967 315.716Z" fill="white"/>
<defs>
<filter id="filter0_d" x="0.557693" y="44.5577" width="356.959" height="484.444" filterUnits="userSpaceOnUse" color-interpolation-filters="sRGB">
<feFlood flood-opacity="0" result="BackgroundImageFix"/>
<feColorMatrix in="SourceAlpha" type="matrix" values="0 0 0 0 0 0 0 0 0 0 0 0 0 0 0 0 0 0 127 0"/>
<feOffset/>
<feGaussianBlur stdDeviation="8.72115"/>
<feColorMatrix type="matrix" values="0 0 0 0 0 0 0 0 0 0 0 0 0 0 0 0 0 0 0.1 0"/>
<feBlend mode="normal" in2="BackgroundImageFix" result="effect1_dropShadow"/>
<feBlend mode="normal" in="SourceGraphic" in2="effect1_dropShadow" result="shape"/>
</filter>
<filter id="filter1_d" x="7.2823" y="308.463" width="287.339" height="220.977" filterUnits="userSpaceOnUse" color-interpolation-filters="sRGB">
<feFlood flood-opacity="0" result="BackgroundImageFix"/>
<feColorMatrix in="SourceAlpha" type="matrix" values="0 0 0 0 0 0 0 0 0 0 0 0 0 0 0 0 0 0 127 0"/>
<feOffset/>
<feGaussianBlur stdDeviation="8.72115"/>
<feColorMatrix type="matrix" values="0 0 0 0 0 0 0 0 0 0 0 0 0 0 0 0 0 0 0.1 0"/>
<feBlend mode="normal" in2="BackgroundImageFix" result="effect1_dropShadow"/>
<feBlend mode="normal" in="SourceGraphic" in2="effect1_dropShadow" result="shape"/>
</filter>
<filter id="filter2_d" x="143.921" y="287.977" width="334.811" height="241.465" filterUnits="userSpaceOnUse" color-interpolation-filters="sRGB">
<feFlood flood-opacity="0" result="BackgroundImageFix"/>
<feColorMatrix in="SourceAlpha" type="matrix" values="0 0 0 0 0 0 0 0 0 0 0 0 0 0 0 0 0 0 127 0"/>
<feOffset/>
<feGaussianBlur stdDeviation="8.72115"/>
<feColorMatrix type="matrix" values="0 0 0 0 0 0 0 0 0 0 0 0 0 0 0 0 0 0 0.1 0"/>
<feBlend mode="normal" in2="BackgroundImageFix" result="effect1_dropShadow"/>
<feBlend mode="normal" in="SourceGraphic" in2="effect1_dropShadow" result="shape"/>
</filter>
<filter id="filter3_d" x="209.273" y="44.658" width="305.17" height="484.353" filterUnits="userSpaceOnUse" color-interpolation-filters="sRGB">
<feFlood flood-opacity="0" result="BackgroundImageFix"/>
<feColorMatrix in="SourceAlpha" type="matrix" values="0 0 0 0 0 0 0 0 0 0 0 0 0 0 0 0 0 0 127 0"/>
<feOffset/>
<feGaussianBlur stdDeviation="8.72115"/>
<feColorMatrix type="matrix" values="0 0 0 0 0 0 0 0 0 0 0 0 0 0 0 0 0 0 0.1 0"/>
<feBlend mode="normal" in2="BackgroundImageFix" result="effect1_dropShadow"/>
<feBlend mode="normal" in="SourceGraphic" in2="effect1_dropShadow" result="shape"/>
</filter>
<filter id="filter4_d" x="64.1202" y="44.5577" width="293.397" height="291.763" filterUnits="userSpaceOnUse" color-interpolation-filters="sRGB">
<feFlood flood-opacity="0" result="BackgroundImageFix"/>
<feColorMatrix in="SourceAlpha" type="matrix" values="0 0 0 0 0 0 0 0 0 0 0 0 0 0 0 0 0 0 127 0"/>
<feOffset/>
<feGaussianBlur stdDeviation="8.72115"/>
<feColorMatrix type="matrix" values="0 0 0 0 0 0 0 0 0 0 0 0 0 0 0 0 0 0 0.1 0"/>
<feBlend mode="normal" in2="BackgroundImageFix" result="effect1_dropShadow"/>
<feBlend mode="normal" in="SourceGraphic" in2="effect1_dropShadow" result="shape"/>
</filter>
</defs>
</svg>
