<svg width="26" height="26" viewBox="0 0 26 26" fill="none" xmlns="http://www.w3.org/2000/svg">
<path d="M24.5 24H1.50002C1.22402 24 1 24.224 1 24.5C1 24.776 1.22402 25 1.50002 25H24.5C24.776 25 25 24.776 25 24.5C25 24.224 24.776 24 24.5 24Z" fill="black" stroke="black" stroke-width="0.5"/>
<path d="M5.50002 18H2.50002C2.22402 18 2 18.224 2 18.5V24.5C2 24.776 2.22402 25 2.50002 25H5.50002C5.77602 25 6.00003 24.776 6.00003 24.5V18.5C6.00003 18.224 5.77602 18 5.50002 18ZM5 24H3.00003V19H5.00005V24H5Z" fill="black" stroke="black" stroke-width="0.5"/>
<path d="M11.5 13H8.50002C8.22402 13 8 13.224 8 13.5V24.5C8 24.776 8.22402 25 8.50002 25H11.5C11.776 25 12 24.776 12 24.5V13.5C12 13.224 11.776 13 11.5 13ZM11 24H8.99998V14H11V24Z" fill="black" stroke="black" stroke-width="0.5"/>
<path d="M17.5 15H14.5C14.224 15 14 15.224 14 15.5V24.5C14 24.776 14.224 25 14.5 25H17.5C17.776 25 18 24.776 18 24.5V15.5C18 15.224 17.776 15 17.5 15ZM17 24H15V16H17V24Z" fill="black" stroke="black" stroke-width="0.5"/>
<path d="M23.5 9H20.5C20.224 9 20 9.22402 20 9.50002V24.5C20 24.776 20.224 25 20.5 25H23.5C23.776 25 24 24.776 24 24.5V9.50002C24 9.22397 23.776 9 23.5 9ZM23 24H21V9.99998H23V24Z" fill="black" stroke="black" stroke-width="0.5"/>
<path d="M4.00002 10C2.897 10 2 10.897 2 12C2 13.103 2.897 14 4.00002 14C5.10303 14 6.00003 13.103 6.00003 12C6.00003 10.897 5.10303 10 4.00002 10ZM4.00002 13C3.44802 13 3.00003 12.551 3.00003 12C3.00003 11.449 3.44802 11 4.00002 11C4.55202 11 5 11.449 5 12C5 12.551 4.55202 13 4.00002 13Z" fill="black" stroke="black" stroke-width="0.5"/>
<path d="M10 5C8.897 5 8 5.897 8 7.00001C8 8.10303 8.897 9.00002 10 9.00002C11.103 9.00002 12 8.10303 12 7.00001C12 5.897 11.103 5 10 5ZM10 7.99999C9.44802 7.99999 9.00003 7.55098 9.00003 7.00001C9.00003 6.449 9.44802 6.00003 10 6.00003C10.552 6.00003 11 6.44904 11 7.00001C11 7.55103 10.552 7.99999 10 7.99999Z" fill="black" stroke="black" stroke-width="0.5"/>
<path d="M16 7C14.897 7 14 7.897 14 9.00002C14 10.103 14.897 11 16 11C17.103 11 18 10.103 18 9.00002C18 7.897 17.103 7 16 7ZM16 10C15.448 10 15 9.55098 15 9.00002C15 8.449 15.448 8.00003 16 8.00003C16.552 8.00003 17 8.44905 17 9.00002C17 9.55098 16.552 10 16 10Z" fill="black" stroke="black" stroke-width="0.5"/>
<path d="M22 1C20.897 1 20 1.897 20 3.00002C20 4.10303 20.897 5.00003 22 5.00003C23.103 5.00003 24 4.10303 24 3.00002C24 1.897 23.103 1 22 1ZM22 4C21.448 4 21 3.55098 21 3.00002C21 2.449 21.448 2.00003 22 2.00003C22.552 2.00003 23 2.44905 23 3.00002C23 3.55098 22.552 4 22 4Z" fill="black" stroke="black" stroke-width="0.5"/>
<path d="M21.2919 3.70631C21.0969 3.51131 20.7798 3.51131 20.5848 3.70631L16.7048 7.58629C16.5098 7.78129 16.5098 8.09831 16.7048 8.29331C16.8029 8.39029 16.9308 8.43932 17.0588 8.43932C17.1858 8.43932 17.3138 8.39132 17.4119 8.29331L21.2919 4.41332C21.4869 4.21832 21.4869 3.90131 21.2919 3.70631Z" fill="black" stroke="black" stroke-width="0.5"/>
<path d="M14.7898 7.84626L11.5778 6.93027C11.3088 6.85227 11.0358 7.00827 10.9608 7.27429C10.8848 7.5403 11.0388 7.8163 11.3038 7.89229L14.5158 8.80827C14.5618 8.82126 14.6078 8.82726 14.6528 8.82726C14.8708 8.82726 15.0708 8.68424 15.1338 8.46426C15.2098 8.19927 15.0559 7.92224 14.7898 7.84626Z" fill="black" stroke="black" stroke-width="0.5"/>
<path d="M9.21916 7.6229C9.04718 7.4069 8.73316 7.37188 8.51716 7.54288L4.74714 10.5489C4.53114 10.7219 4.49514 11.0359 4.66816 11.2519C4.76716 11.3759 4.91317 11.4399 5.05914 11.4399C5.16813 11.4399 5.27814 11.4039 5.37016 11.3319L9.14018 8.32588C9.35618 8.15287 9.39218 7.8389 9.21916 7.6229Z" fill="black" stroke="black" stroke-width="0.5"/>
</svg>
