<svg width="40" height="20" viewBox="0 0 40 20" fill="none" xmlns="http://www.w3.org/2000/svg">
<path d="M38.4375 8.43749H5.34706L10.8286 2.98249C11.4403 2.37374 11.4426 1.38445 10.8339 0.772807C10.2251 0.161088 9.23573 0.158823 8.62409 0.767495L0.459717 8.89249C0.45917 8.89296 0.45878 8.89351 0.458311 8.89397C-0.151767 9.50272 -0.15372 10.4952 0.458155 11.106C0.458701 11.1065 0.459092 11.107 0.459561 11.1075L8.62394 19.2325C9.2355 19.8411 10.2249 19.839 10.8337 19.2272C11.4425 18.6155 11.4401 17.6262 10.8285 17.0175L5.34706 11.5625H38.4375C39.3005 11.5625 40 10.863 40 9.99999C40 9.13702 39.3005 8.43749 38.4375 8.43749Z" fill="white"/>
</svg>
