<svg width="428" height="590" viewBox="0 0 428 590" fill="none" xmlns="http://www.w3.org/2000/svg">
<path fill-rule="evenodd" clip-rule="evenodd" d="M40 294V549.42H81.0156H109.385H241.66C271.055 549.42 296.803 543.837 318.906 532.672C341.009 521.507 357.985 505.67 369.834 485.162C381.683 464.654 387.607 440.956 387.607 414.068V413.043C387.607 393.447 383.734 375.217 375.986 358.355C368.239 341.493 357.074 327.48 342.49 316.314C327.907 304.921 310.589 297.743 290.537 294.781C291.885 294.536 293.217 294.276 294.535 294H109.385H81.0156H40ZM109.385 325.885V484.82H215.684C251.003 484.82 276.751 478.098 292.93 464.654C309.108 451.21 317.197 432.298 317.197 407.916V406.891C317.197 390.029 314.235 375.559 308.311 363.482C302.614 351.406 293.499 342.177 280.967 335.797C268.434 329.189 252.37 325.885 232.773 325.885H109.385Z"/>
<path d="M40 549.42H0V589.42H40V549.42ZM40 294V254H0V294H40ZM342.49 316.314L317.864 347.835L318.019 347.956L318.174 348.075L342.49 316.314ZM290.537 294.781L283.382 255.426L284.691 334.352L290.537 294.781ZM294.535 294L302.731 333.151L294.535 254V294ZM109.385 325.885V285.885H69.3848V325.885H109.385ZM109.385 484.82H69.3848V524.82H109.385V484.82ZM292.93 464.654L318.494 495.419L318.494 495.419L292.93 464.654ZM308.311 363.482L272.133 380.547L272.264 380.824L272.399 381.099L308.311 363.482ZM280.967 335.797L262.31 371.18L262.564 371.313L262.819 371.443L280.967 335.797ZM80 549.42V294H0V549.42H80ZM81.0156 509.42H40V589.42H81.0156V509.42ZM109.385 509.42H81.0156V589.42H109.385V509.42ZM241.66 509.42H109.385V589.42H241.66V509.42ZM300.871 496.969C285.314 504.827 265.954 509.42 241.66 509.42V589.42C276.156 589.42 308.292 582.847 336.942 568.375L300.871 496.969ZM335.199 465.151C327.423 478.61 316.366 489.141 300.871 496.969L336.942 568.375C365.652 553.872 388.547 532.73 404.469 505.173L335.199 465.151ZM347.607 414.068C347.607 434.898 343.079 451.513 335.199 465.151L404.469 505.173C420.287 477.796 427.607 447.015 427.607 414.068H347.607ZM347.607 413.043V414.068H427.607V413.043H347.607ZM339.639 375.055C344.846 386.387 347.607 398.882 347.607 413.043H427.607C427.607 388.012 422.622 364.048 412.333 341.655L339.639 375.055ZM318.174 348.075C327.524 355.233 334.585 364.055 339.639 375.055L412.333 341.655C401.893 318.932 386.623 299.726 366.807 284.554L318.174 348.075ZM284.691 334.352C298.563 336.401 309.249 341.105 317.864 347.835L367.116 284.793C346.565 268.738 322.616 259.086 296.383 255.211L284.691 334.352ZM286.338 254.849C285.372 255.051 284.387 255.244 283.382 255.426L297.693 334.136C299.382 333.829 301.062 333.501 302.731 333.151L286.338 254.849ZM294.535 254H109.385V334H294.535V254ZM109.385 254H81.0156V334H109.385V254ZM81.0156 254H40V334H81.0156V254ZM69.3848 325.885V484.82H149.385V325.885H69.3848ZM109.385 524.82H215.684V444.82H109.385V524.82ZM215.684 524.82C254.516 524.82 291.66 517.718 318.494 495.419L267.365 433.89C261.843 438.479 247.489 444.82 215.684 444.82V524.82ZM318.494 495.419C345.326 473.122 357.197 442.078 357.197 407.916H277.197C277.197 422.517 272.89 429.298 267.365 433.89L318.494 495.419ZM357.197 407.916V406.891H277.197V407.916H357.197ZM357.197 406.891C357.197 385.43 353.43 364.636 344.222 345.865L272.399 381.099C275.04 386.482 277.197 394.627 277.197 406.891H357.197ZM344.488 346.418C334.797 325.874 319.1 310.325 299.114 300.15L262.819 371.443C267.899 374.029 270.431 376.938 272.133 380.547L344.488 346.418ZM299.623 300.414C279.563 289.837 256.511 285.885 232.773 285.885V365.885C248.228 365.885 257.306 368.541 262.31 371.18L299.623 300.414ZM232.773 285.885H109.385V365.885H232.773V285.885Z"/>
<path fill-rule="evenodd" clip-rule="evenodd" d="M40 295.42V40H81.0156H109.385H241.66C271.055 40 296.803 45.5827 318.906 56.748C341.009 67.9134 357.985 83.75 369.834 104.258C381.683 124.766 387.607 148.464 387.607 175.352V176.377C387.607 195.973 383.734 214.202 375.986 231.064C368.239 247.926 357.074 261.94 342.49 273.105C327.907 284.499 310.589 291.676 290.537 294.639C291.885 294.884 293.217 295.144 294.535 295.42H109.385H81.0156H40ZM109.385 263.535V104.6H215.684C251.003 104.6 276.751 111.322 292.93 124.766C309.108 138.21 317.197 157.122 317.197 181.504V182.529C317.197 199.391 314.235 213.861 308.311 225.938C302.614 238.014 293.499 247.243 280.967 253.623C268.434 260.231 252.37 263.535 232.773 263.535H109.385Z"/>
<path d="M40 40H0V0H40V40ZM40 295.42V335.42H0V295.42H40ZM342.49 273.105L317.864 241.584L318.019 241.464L318.174 241.345L342.49 273.105ZM290.537 294.639L283.382 333.993L284.691 255.068L290.537 294.639ZM294.535 295.42L302.731 256.269L294.535 335.42V295.42ZM109.385 263.535V303.535H69.3848V263.535H109.385ZM109.385 104.6H69.3848V64.5996H109.385V104.6ZM292.93 124.766L318.494 94.0013L318.494 94.0013L292.93 124.766ZM308.311 225.938L272.133 208.873L272.264 208.596L272.399 208.321L308.311 225.938ZM280.967 253.623L262.31 218.24L262.564 218.107L262.819 217.977L280.967 253.623ZM80 40V295.42H0V40H80ZM81.0156 80H40V0H81.0156V80ZM109.385 80H81.0156V0H109.385V80ZM241.66 80H109.385V0H241.66V80ZM300.871 92.4512C285.314 84.5929 265.954 80 241.66 80V0C276.156 0 308.292 6.57246 336.942 21.0449L300.871 92.4512ZM335.199 124.269C327.423 110.81 316.366 100.279 300.871 92.4512L336.942 21.0449C365.652 35.5481 388.547 56.6901 404.469 84.2467L335.199 124.269ZM347.607 175.352C347.607 154.522 343.079 137.907 335.199 124.269L404.469 84.2467C420.287 111.624 427.607 142.405 427.607 175.352H347.607ZM347.607 176.377V175.352H427.607V176.377H347.607ZM339.639 214.364C344.846 203.033 347.607 190.538 347.607 176.377H427.607C427.607 201.408 422.622 225.372 412.333 247.764L339.639 214.364ZM318.174 241.345C327.524 234.187 334.585 225.365 339.639 214.364L412.333 247.764C401.893 270.488 386.623 289.693 366.807 304.866L318.174 241.345ZM284.691 255.068C298.563 253.019 309.249 248.315 317.864 241.584L367.116 304.626C346.565 320.682 322.616 330.334 296.383 334.209L284.691 255.068ZM286.338 334.571C285.372 334.369 284.387 334.176 283.382 333.993L297.693 255.284C299.382 255.591 301.062 255.919 302.731 256.269L286.338 334.571ZM294.535 335.42H109.385V255.42H294.535V335.42ZM109.385 335.42H81.0156V255.42H109.385V335.42ZM81.0156 335.42H40V255.42H81.0156V335.42ZM69.3848 263.535V104.6H149.385V263.535H69.3848ZM109.385 64.5996H215.684V144.6H109.385V64.5996ZM215.684 64.5996C254.516 64.5996 291.66 71.7021 318.494 94.0013L267.365 155.53C261.843 150.941 247.489 144.6 215.684 144.6V64.5996ZM318.494 94.0013C345.326 116.298 357.197 147.342 357.197 181.504H277.197C277.197 166.903 272.89 160.121 267.365 155.53L318.494 94.0013ZM357.197 181.504V182.529H277.197V181.504H357.197ZM357.197 182.529C357.197 203.989 353.43 224.784 344.222 243.554L272.399 208.321C275.04 202.938 277.197 194.793 277.197 182.529H357.197ZM344.488 243.002C334.797 263.546 319.1 279.095 299.114 289.27L262.819 217.977C267.899 215.391 270.431 212.482 272.133 208.873L344.488 243.002ZM299.623 289.006C279.563 299.583 256.511 303.535 232.773 303.535V223.535C248.228 223.535 257.306 220.879 262.31 218.24L299.623 289.006ZM232.773 303.535H109.385V223.535H232.773V303.535Z"/>
</svg>
