<svg width="25" height="29" viewBox="0 0 25 29" fill="none" xmlns="http://www.w3.org/2000/svg">
<path d="M22.5 0H2.5C1.1215 0 0 1.1215 0 2.5V25.9444C0 27.3229 1.1215 28.4444 2.5 28.4444H22.5C23.8785 28.4444 25 27.3229 25 25.9444V2.5C25 1.1215 23.8785 0 22.5 0ZM2.5 1.66667H22.5C22.9595 1.66667 23.3333 2.0405 23.3333 2.5V10.0556H1.66667V2.5C1.66667 2.0405 2.0405 1.66667 2.5 1.66667ZM22.5 26.7778H2.5C2.0405 26.7778 1.66667 26.4039 1.66667 25.9444V11.7222H23.3333V25.9444C23.3333 26.4039 22.9595 26.7778 22.5 26.7778Z" fill="black"/>
<path d="M7.50004 13.3889H4.16671C3.70649 13.3889 3.33337 13.762 3.33337 14.2222V17.5556C3.33337 18.0158 3.70649 18.3889 4.16671 18.3889H7.50004C7.96026 18.3889 8.33337 18.0158 8.33337 17.5556V14.2222C8.33337 13.762 7.96026 13.3889 7.50004 13.3889ZM6.66671 16.7222H5.00004V15.0556H6.66671V16.7222Z" fill="black"/>
<path d="M7.50004 20.0557H4.16671C3.70649 20.0557 3.33337 20.4288 3.33337 20.889V24.2223C3.33337 24.6826 3.70649 25.0557 4.16671 25.0557H7.50004C7.96026 25.0557 8.33337 24.6826 8.33337 24.2223V20.889C8.33337 20.4288 7.96026 20.0557 7.50004 20.0557ZM6.66671 23.389H5.00004V21.7223H6.66671V23.389Z" fill="black"/>
<path d="M14.1667 20.0557H10.8334C10.3732 20.0557 10.0001 20.4288 10.0001 20.889V24.2223C10.0001 24.6826 10.3732 25.0557 10.8334 25.0557H14.1667C14.6269 25.0557 15.0001 24.6826 15.0001 24.2223V20.889C15.0001 20.4288 14.6269 20.0557 14.1667 20.0557ZM13.3334 23.389H11.6667V21.7223H13.3334V23.389Z" fill="black"/>
<path d="M14.1667 13.3889H10.8334C10.3732 13.3889 10.0001 13.762 10.0001 14.2222V17.5556C10.0001 18.0158 10.3732 18.3889 10.8334 18.3889H14.1667C14.6269 18.3889 15.0001 18.0158 15.0001 17.5556V14.2222C15.0001 13.762 14.6269 13.3889 14.1667 13.3889ZM13.3334 16.7222H11.6667V15.0556H13.3334V16.7222Z" fill="black"/>
<path d="M20.8333 13.3889H17.5C17.0397 13.3889 16.6666 13.762 16.6666 14.2222V24.2222C16.6666 24.6825 17.0397 25.0556 17.5 25.0556H20.8333C21.2935 25.0556 21.6666 24.6825 21.6666 24.2222V14.2222C21.6666 13.762 21.2935 13.3889 20.8333 13.3889ZM20 23.3889H18.3333V15.0556H20V23.3889Z" fill="black"/>
<path d="M20.8333 8.38892C21.2936 8.38892 21.6667 8.0158 21.6667 7.55558V4.22225C21.6667 3.76203 21.2936 3.38892 20.8333 3.38892C20.3731 3.38892 20 3.76203 20 4.22225V7.55558C20 8.0158 20.3731 8.38892 20.8333 8.38892Z" fill="black"/>
</svg>
