<svg width="65" height="65" viewBox="0 0 65 65" fill="none" xmlns="http://www.w3.org/2000/svg">
<circle cx="32.5" cy="32.5" r="32.5" fill="white"/>
<circle cx="32.5" cy="32.5" r="32.25" stroke="#262E3A" stroke-opacity="0.2" stroke-width="0.5"/>
<path d="M44.7886 38.8788C43.9113 37.29 40.676 35.473 40.676 35.473C39.944 35.073 39.0606 35.0283 38.6433 35.7413C38.6433 35.7413 37.592 36.9494 37.3246 37.1232C36.1033 37.916 34.9719 37.8854 33.8299 36.791L31.1759 34.2476L28.5219 31.7042C27.3799 30.6098 27.3479 29.5257 28.1753 28.3552C28.3566 28.099 29.6173 27.0915 29.6173 27.0915C30.3613 26.691 30.3146 25.8451 29.8973 25.1436C29.8973 25.1436 28.0013 22.0431 26.3433 21.2023C25.6379 20.8446 24.7719 20.9698 24.2079 21.5103L23.0359 22.6334C19.3179 26.1965 21.1486 30.2188 24.8666 33.7819L28.2646 37.0382L31.6626 40.2946C35.3806 43.8576 39.578 45.612 43.296 42.049L44.468 40.9258C45.032 40.384 45.162 39.5541 44.7886 38.8788Z" fill="#262E3A"/>
</svg>
