<svg width="71" height="55" viewBox="0 0 71 55" fill="none" xmlns="http://www.w3.org/2000/svg">
<path d="M51.6941 0.568359H17.9855L0.800781 17.8196L34.5094 54.9997L70.2008 17.8196L51.6941 0.568359Z" fill="#033603"/>
<path d="M7.61086 18.9149L21.133 5.63247H48.7716L63.3416 18.9219L34.6835 48.1332L7.61086 18.9149Z" stroke="white" stroke-width="1.96415"/>
<path d="M30.5625 30C30.5859 29.0859 30.7822 28.251 31.1514 27.4951C31.5088 26.6455 32.3525 25.7461 33.6826 24.7969C34.8369 23.9707 35.584 23.3789 35.9238 23.0215C36.4453 22.4648 36.7061 21.8555 36.7061 21.1934C36.7061 20.6543 36.5566 20.2061 36.2578 19.8486C35.959 19.4912 35.5312 19.3125 34.9746 19.3125C34.2129 19.3125 33.6943 19.5967 33.4189 20.165C33.2607 20.4932 33.167 21.0146 33.1377 21.7295H30.7031C30.7441 20.6455 30.9404 19.7695 31.292 19.1016C31.96 17.8301 33.1465 17.1943 34.8516 17.1943C36.1992 17.1943 37.2715 17.5693 38.0684 18.3193C38.8652 19.0635 39.2637 20.0508 39.2637 21.2812C39.2637 22.2246 38.9824 23.0625 38.4199 23.7949C38.0508 24.2812 37.4443 24.8232 36.6006 25.4209L35.5986 26.1328C34.9717 26.5781 34.541 26.9004 34.3066 27.0996C34.0781 27.2988 33.8848 27.5303 33.7266 27.7939H39.29V30H30.5625Z" fill="white"/>
</svg>
