<svg width="561" height="592" viewBox="0 0 561 592" fill="none" xmlns="http://www.w3.org/2000/svg">
<path d="M295.36 566.81C218.68 566.81 154.543 541.96 102.95 492.26C51.3567 442.087 25.56 377.477 25.56 298.43C25.56 218.91 51.5933 153.59 103.66 102.47C155.727 50.8766 219.863 25.08 296.07 25.08C342.457 25.08 385.293 34.31 424.58 52.77C464.34 71.23 496.527 96.5533 521.14 128.74L436.65 217.49C395.943 173.943 351.923 152.17 304.59 152.17C264.357 152.17 230.513 165.897 203.06 193.35C176.08 221.277 162.59 256.067 162.59 297.72C162.59 338.427 176.08 372.507 203.06 399.96C230.513 426.94 264.12 440.43 303.88 440.43C355.947 440.43 400.913 417.947 438.78 372.98L526.82 457.47C502.68 489.183 470.257 515.453 429.55 536.28C389.317 556.633 344.587 566.81 295.36 566.81Z" fill="black"/>
<path d="M102.95 492.26L85.5207 510.183L85.5631 510.224L85.6058 510.265L102.95 492.26ZM103.66 102.47L121.175 120.309L121.216 120.269L121.257 120.228L103.66 102.47ZM424.58 52.77L413.948 75.3966L414 75.421L414.052 75.4452L424.58 52.77ZM521.14 128.74L539.247 145.978L553.968 130.514L540.999 113.554L521.14 128.74ZM436.65 217.49L418.387 234.562L436.484 253.922L454.757 234.728L436.65 217.49ZM203.06 193.35L185.382 175.672L185.23 175.825L185.08 175.98L203.06 193.35ZM203.06 399.96L185.229 417.483L185.382 417.638L185.537 417.791L203.06 399.96ZM438.78 372.98L456.09 354.942L436.842 336.47L419.657 356.877L438.78 372.98ZM526.82 457.47L546.713 472.612L560.217 454.871L544.13 439.432L526.82 457.47ZM429.55 536.28L440.835 558.588L440.886 558.562L440.937 558.536L429.55 536.28ZM295.36 541.81C224.648 541.81 166.88 519.131 120.294 474.255L85.6058 510.265C142.207 564.789 212.712 591.81 295.36 591.81V541.81ZM120.379 474.337C74.1276 429.359 50.56 371.459 50.56 298.43H0.560002C0.560002 383.495 28.5857 454.815 85.5207 510.183L120.379 474.337ZM50.56 298.43C50.56 224.954 74.3511 166.281 121.175 120.309L86.1453 84.6309C28.8356 140.899 0.560002 212.866 0.560002 298.43H50.56ZM121.257 120.228C168.439 73.475 226.163 50.08 296.07 50.08V0.079976C213.564 0.079976 143.014 28.2783 86.0632 84.7118L121.257 120.228ZM296.07 50.08C339.039 50.08 378.213 58.6054 413.948 75.3966L435.212 30.1433C392.374 10.0145 345.875 0.079976 296.07 0.079976V50.08ZM414.052 75.4452C450.449 92.3438 479.324 115.213 501.281 143.926L540.999 113.554C513.729 77.8932 478.231 50.1161 435.108 30.0947L414.052 75.4452ZM503.033 111.502L418.543 200.252L454.757 234.728L539.247 145.978L503.033 111.502ZM454.913 200.418C410.785 153.211 360.551 127.17 304.59 127.17V177.17C343.296 177.17 381.102 194.676 418.387 234.562L454.913 200.418ZM304.59 127.17C257.995 127.17 217.711 143.344 185.382 175.672L220.738 211.028C243.316 188.449 270.718 177.17 304.59 177.17V127.17ZM185.08 175.98C153.249 208.928 137.59 250.104 137.59 297.72H187.59C187.59 262.029 198.911 233.626 221.04 210.72L185.08 175.98ZM137.59 297.72C137.59 344.564 153.37 385.065 185.229 417.483L220.891 382.437C198.79 359.948 187.59 332.289 187.59 297.72H137.59ZM185.537 417.791C217.834 449.531 257.806 465.43 303.88 465.43V415.43C270.434 415.43 243.192 404.349 220.583 382.129L185.537 417.791ZM303.88 465.43C364.326 465.43 415.974 438.874 457.903 389.083L419.657 356.877C385.853 397.019 347.567 415.43 303.88 415.43V465.43ZM421.47 391.018L509.51 475.508L544.13 439.432L456.09 354.942L421.47 391.018ZM506.927 442.328C485.366 470.653 456.029 494.651 418.163 514.024L440.937 558.536C484.485 536.256 519.994 507.713 546.713 472.612L506.927 442.328ZM418.265 513.972C381.843 532.397 341.032 541.81 295.36 541.81V591.81C348.141 591.81 396.79 580.869 440.835 558.588L418.265 513.972Z" fill="black"/>
</svg>
