<svg width="28" height="28" viewBox="0 0 28 28" fill="none" xmlns="http://www.w3.org/2000/svg">
<g clip-path="url(#clip0)">
<path d="M27.7208 11.2365C26.9825 7.57047 24.8619 4.41189 21.7488 2.34266C18.7745 0.365637 15.1995 -0.396036 11.6758 0.195289C11.6524 0.198789 11.6291 0.202288 11.6058 0.205788C4.00088 1.52734 -1.11028 8.78937 0.211217 16.3919C0.316215 17.0008 0.464306 17.6085 0.64745 18.1917C1.41842 20.6959 1.22833 23.3798 0.113219 25.7499C-0.0815745 26.1605 -0.0174273 26.6481 0.275364 26.9968C0.568155 27.3456 1.03233 27.4891 1.47557 27.3713L6.70337 25.9436C8.91719 27.2989 11.4168 28 13.9689 28C14.8962 28 15.8305 27.9078 16.7612 27.72C20.4273 26.9817 23.5858 24.8612 25.6551 21.748C27.7243 18.6349 28.458 14.9024 27.7208 11.2365ZM23.7119 20.4557C21.9868 23.0509 19.3542 24.8192 16.3006 25.4339C13.2493 26.0451 10.1361 25.4363 7.54089 23.7111C7.34725 23.5828 7.12216 23.5163 6.89472 23.5163C6.79207 23.5163 6.68828 23.5303 6.58798 23.5572L3.02697 24.5288C3.62885 22.2345 3.58449 19.8049 2.87532 17.4965C2.72018 17.0043 2.59653 16.5004 2.50909 15.9931C1.41147 9.67349 5.64431 3.63851 11.9511 2.5141C11.9721 2.51175 11.9931 2.50825 12.0141 2.50475C14.9662 1.99502 17.9639 2.6284 20.4577 4.28469C23.0529 6.00977 24.82 8.64237 25.4347 11.696C26.0494 14.7509 25.437 17.8616 23.7119 20.4557Z" fill="black"/>
<path d="M18.6628 10.4993H9.33157C8.68654 10.4993 8.16516 11.0206 8.16516 11.6657C8.16516 12.3107 8.68654 12.8321 9.33157 12.8321H18.6628C19.3067 12.8321 19.8292 12.3107 19.8292 11.6657C19.8292 11.0206 19.3078 10.4993 18.6628 10.4993Z" fill="black"/>
<path d="M18.6628 15.1648H9.33157C8.68654 15.1648 8.16516 15.6862 8.16516 16.3312C8.16516 16.9762 8.68654 17.4976 9.33157 17.4976H18.6628C19.3067 17.4976 19.8292 16.9762 19.8292 16.3312C19.8292 15.6862 19.3078 15.1648 18.6628 15.1648Z" fill="black"/>
</g>
<defs>
<clipPath id="clip0">
<rect width="28" height="28" fill="white"/>
</clipPath>
</defs>
</svg>
