<svg width="65" height="65" viewBox="0 0 65 65" fill="none" xmlns="http://www.w3.org/2000/svg">
<circle cx="32.5" cy="32.5" r="32.5" fill="white"/>
<circle cx="32.5" cy="32.5" r="32.25" stroke="#262E3A" stroke-opacity="0.2" stroke-width="0.5"/>
<path d="M30.189 23.0688C37.2262 23.0688 42.931 28.7737 42.931 35.8109C42.931 42.8482 37.2262 48.553 30.189 48.553C28.0477 48.553 26.0317 48.0228 24.2607 47.0893L17 48.9999L19.2301 42.3102C18.099 40.4068 17.4474 38.1855 17.4474 35.8109C17.4469 28.7737 23.1517 23.0688 30.189 23.0688ZM24.1724 34.1033C23.2583 34.1033 22.5172 34.8444 22.5172 35.7585C22.5172 36.6726 23.2583 37.4137 24.1724 37.4137C25.0865 37.4137 25.8276 36.6726 25.8276 35.7585C25.8276 34.8444 25.0865 34.1033 24.1724 34.1033ZM30.2414 34.1033C29.3273 34.1033 28.5862 34.8444 28.5862 35.7585C28.5862 36.6726 29.3273 37.4137 30.2414 37.4137C31.1555 37.4137 31.8966 36.6726 31.8966 35.7585C31.8966 34.8444 31.1555 34.1033 30.2414 34.1033ZM36.3103 34.1033C35.3962 34.1033 34.6552 34.8444 34.6552 35.7585C34.6552 36.6726 35.3962 37.4137 36.3103 37.4137C37.2245 37.4137 37.9655 36.6726 37.9655 35.7585C37.9655 34.8444 37.2245 34.1033 36.3103 34.1033Z" fill="#262E3A"/>
<path d="M30.1894 23.069C37.2266 23.069 42.9315 28.7738 42.9315 35.811C42.9315 37.6748 42.5282 39.443 41.8093 41.0386L49.0004 42.931L46.7704 36.2414C47.9014 34.3379 48.553 32.1167 48.553 29.7421C48.5535 22.7048 42.8487 17 35.8115 17C30.6109 17 26.1408 20.1172 24.1602 24.584C25.9555 23.6179 28.0079 23.069 30.1894 23.069Z" fill="#262E3A"/>
</svg>
