<svg width="1920" height="350" viewBox="0 0 1920 350" fill="none" xmlns="http://www.w3.org/2000/svg">
<mask id="mask0" mask-type="alpha" maskUnits="userSpaceOnUse" x="0" y="0" width="1920" height="350">
<rect width="1920" height="350" fill="white"/>
</mask>
<g mask="url(#mask0)">
<path fill-rule="evenodd" clip-rule="evenodd" d="M86 240C105.574 240 124.053 235.314 140.376 227.002C160.665 264.517 200.356 290 246 290C282.47 290 315.141 273.73 337.149 248.053C358.794 279.433 394.995 300 436 300C469.52 300 499.83 286.256 521.602 264.097C543.573 292.048 577.69 310 616 310C654.662 310 689.054 291.716 711 263.324C732.946 291.716 767.338 310 806 310C834.457 310 860.6 300.095 881.17 283.544C903.124 311.811 937.438 330 976 330C1024.85 330 1066.88 300.812 1085.61 258.926C1107.6 284.098 1139.94 300 1176 300C1205.39 300 1232.31 289.435 1253.17 271.896C1274.18 306.716 1312.37 330 1356 330C1384.46 330 1410.6 320.095 1431.17 303.544C1453.12 331.811 1487.44 350 1526 350C1572.45 350 1612.74 323.609 1632.68 285.003C1652.96 300.675 1678.39 310 1706 310C1752.45 310 1792.74 283.609 1812.68 245.003C1832.96 260.675 1858.39 270 1886 270C1952.27 270 2006 216.274 2006 150C2006 83.7258 1952.27 30 1886 30C1839.55 30 1799.26 56.3912 1779.32 94.9968C1759.04 79.3248 1733.61 70 1706 70C1659.55 70 1619.26 96.3912 1599.32 134.997C1579.04 119.325 1553.61 110 1526 110C1497.54 110 1471.4 119.905 1450.83 136.456C1428.88 108.189 1394.56 90 1356 90C1326.61 90 1299.69 100.565 1278.83 118.104C1257.82 83.2842 1219.63 60 1176 60C1127.15 60 1085.12 89.1876 1066.39 131.074C1044.4 105.902 1012.06 90 976 90C947.543 90 921.4 99.9053 900.83 116.456C878.876 88.1893 844.562 70 806 70C767.338 70 732.946 88.2837 711 116.676C689.054 88.2837 654.662 70 616 70C582.48 70 552.17 83.7437 530.398 105.903C508.427 77.9523 474.31 60 436 60C399.53 60 366.859 76.2696 344.851 101.947C323.206 70.5665 287.005 50 246 50C226.426 50 207.947 54.6864 191.624 62.9983C171.335 25.4832 131.644 0 86 0C19.7258 0 -34 53.7258 -34 120C-34 186.274 19.7258 240 86 240Z" fill="#212529"/>
</g>
</svg>
