<svg width="477" height="573" viewBox="0 0 477 573" fill="none" xmlns="http://www.w3.org/2000/svg">
<path d="M215.203 548H25V25H217.118C290.306 25 347.75 47.644 389.45 92.932C431.15 138.677 452 216.574 452 294.799C452 373.024 430.937 434.78 388.812 480.068C347.537 525.356 289.668 548 215.203 548ZM137.356 105V468H231.948C266.414 468 287.092 454.683 311.093 430.26C349.144 391.539 339.176 294.113 339.176 294.113C339.176 294.113 340.826 174.882 311.093 142.74C287.84 117.603 266.414 105 231.948 105C197.481 105 137.356 105 137.356 105Z" fill="black" stroke="black" stroke-width="50"/>
</svg>
