<svg width="24" height="24" viewBox="0 0 24 24" fill="none" xmlns="http://www.w3.org/2000/svg">
<path d="M19.9687 23.2092H4.03125C2.84231 23.2092 1.875 22.2419 1.875 21.0529V9.70825C1.875 9.29406 2.21077 8.95825 2.625 8.95825C3.03923 8.95825 3.375 9.29406 3.375 9.70825V21.0529C3.375 21.4148 3.66937 21.7092 4.03125 21.7092H19.9687C20.3306 21.7092 20.625 21.4148 20.625 21.0529V9.70825C20.625 9.29406 20.9608 8.95825 21.375 8.95825C21.7892 8.95825 22.125 9.29406 22.125 9.70825V21.0529C22.125 22.2419 21.1577 23.2092 19.9687 23.2092Z" fill="#182442"/>
<path d="M23.25 12.3329C23.058 12.3329 22.8661 12.2597 22.7197 12.1132L13.3921 2.78571C12.6245 2.01808 11.3755 2.01808 10.6079 2.78571L1.28033 12.1133C0.987457 12.4062 0.512566 12.4062 0.219691 12.1133C-0.0732305 11.8204 -0.0732305 11.3455 0.219691 11.0526L9.54725 1.72502C10.8997 0.372584 13.1003 0.372584 14.4527 1.72502L23.7803 11.0526C24.0732 11.3455 24.0732 11.8203 23.7803 12.1132C23.6339 12.2597 23.4419 12.3329 23.25 12.3329Z" fill="#182442"/>
<path d="M15 23.2092H9C8.58577 23.2092 8.25 22.8734 8.25 22.4592V15.803C8.25 14.5106 9.30141 13.4592 10.5938 13.4592H13.4063C14.6986 13.4592 15.75 14.5106 15.75 15.803V22.4592C15.75 22.8734 15.4142 23.2092 15 23.2092ZM9.75 21.7092H14.25V15.803C14.25 15.3377 13.8715 14.9592 13.4063 14.9592H10.5938C10.1285 14.9592 9.75 15.3377 9.75 15.803V21.7092Z" fill="#182442"/>
</svg>
