<svg width="60" height="60" viewBox="0 0 60 60" fill="none" xmlns="http://www.w3.org/2000/svg">
<path d="M58.1865 20.1728L58.1866 20.173C58.6645 20.9106 58.5896 21.8904 58.0044 22.5474L31.4657 52.3402C31.0937 52.7579 30.5579 52.9981 29.9985 52.9981C29.4392 52.9981 28.9039 52.758 28.5316 52.3401C28.5315 52.3401 28.5315 52.3401 28.5315 52.3401L1.99583 22.549L1.99568 22.5489C1.40978 21.8913 1.33526 20.9108 1.81505 20.1722L1.81511 20.1721L10.1141 7.39452L10.1141 7.3945C10.4789 6.83275 11.0917 6.5 11.7617 6.5H48.2642C48.9353 6.5 49.5485 6.8335 49.9132 7.39678L49.9133 7.39682L58.1865 20.1728Z" stroke="#033603" stroke-width="3"/>
<path d="M33.2519 32.4491C32.8101 33.0279 32.2594 33.4254 31.5948 33.6458V26.7918C32.3185 27.2116 32.8921 27.6603 33.3213 28.1354C33.7986 28.6639 34.043 29.3318 34.043 30.1579C34.043 30.9998 33.7813 31.7608 33.2525 32.4483L33.2519 32.4491ZM27.5175 36.3707C28.218 36.6509 28.9428 36.8127 29.6909 36.8559V39.2833V39.5333H29.9409H31.3448H31.5948V39.2833V36.8312C32.2836 36.7135 32.9461 36.4591 33.581 36.0711C34.2791 35.6445 34.89 35.111 35.413 34.4718C35.9349 33.8339 36.3416 33.137 36.6322 32.3816L36.6329 32.3797C36.9235 31.6048 37.07 30.8263 37.07 30.0456C37.07 29.1922 36.9149 28.4092 36.6004 27.7005C36.3074 26.9983 35.8966 26.382 35.3682 25.8537C34.8485 25.334 34.2622 24.8728 33.6101 24.47C33.0031 24.0951 32.3312 23.7465 31.5948 23.4236V17.3371C32.0433 17.5038 32.4207 17.7154 32.7308 17.969L32.7307 17.9691L32.7362 17.9734C33.1146 18.2657 33.439 18.6659 33.7059 19.182L33.8255 19.4132L34.0517 19.2843L36.2699 18.0208L36.4805 17.9009L36.3671 17.6866C35.8443 16.6991 35.1534 15.9091 34.2934 15.3227C33.493 14.777 32.5921 14.4439 31.5948 14.3216V12.0195V11.7695H31.3448H29.9409H29.6909V12.0195V14.3208C29.0497 14.3994 28.4393 14.5879 27.8609 14.8859L27.8609 14.8859L27.8581 14.8873C27.2327 15.2196 26.6765 15.6589 26.19 16.2034C25.7025 16.7303 25.3219 17.3259 25.0487 17.9892C24.7742 18.656 24.6368 19.3529 24.6368 20.0779C24.6368 21.3799 24.9976 22.447 25.7422 23.252C26.4613 24.0295 27.49 24.7567 28.8157 25.4385L28.8157 25.4385L28.8183 25.4398L29.6909 25.8761V33.8565C28.6713 33.6896 27.9145 33.3369 27.3953 32.8183C26.8233 32.2283 26.4086 31.3438 26.171 30.1377L26.122 29.8891L25.8741 29.9414L23.347 30.4749L23.1136 30.5242L23.1519 30.7597C23.2872 31.5908 23.5484 32.3747 23.9356 33.1103L23.9355 33.1103L23.938 33.1147C24.3435 33.8485 24.8462 34.4965 25.4461 35.0576L25.446 35.0577L25.4522 35.0632C26.0706 35.6043 26.7569 36.0393 27.5105 36.3677L27.5104 36.3679L27.5175 36.3707ZM29.6909 17.2943V22.5368C29.0718 22.257 28.5799 21.9293 28.2083 21.5578C27.7948 21.1442 27.5796 20.594 27.5796 19.8814C27.5796 19.2157 27.8076 18.6398 28.2707 18.1424C28.6698 17.7137 29.1416 17.432 29.6909 17.2943Z" fill="#033603" stroke="#033603" stroke-width="0.5"/>
</svg>
