<svg xmlns="http://www.w3.org/2000/svg" xmlns:xlink="http://www.w3.org/1999/xlink" viewBox="0 0 476 476" xml:space="preserve"> <g> <animateTransform attributeName="transform" type="rotate" dur="35s" repeatCount="indefinite" keyTimes="0;1" values="360 238 238;0 238 238"/> <path fill="##F5FBF5"  d="M237.9,170.9c2,0,3.9,0.1,5.9,0.3l-8.6,5.6l-0.7-5.8C235.6,170.9,236.7,170.9,237.9,170.9 M223.1,172.5 l0.8,5.8l-9.8-3.1C217,174.1,220,173.2,223.1,172.5 M265.6,176.7c3.2,1.4,6.2,3,9,4.8l-3.9,5.1L265.6,176.7 M253.5,178.4l7.6,14.7 l-12,2.4l-9.2-8.3L253.5,178.4 M206.5,184.8l15.6,4.9l-6.6,10.7l-12.5,0.3L206.5,184.8 M194.3,186.6l-2.2,10.1l-4.7-3.6 C189.6,190.7,191.9,188.6,194.3,186.6 M283.7,188.3c2.6,2.4,5.1,4.9,7.3,7.6l-11.2-2.4L283.7,188.3 M231.9,195.4l2.7,2.5l-4.7,0.7 L231.9,195.4 M180.5,202.1l4.6,3.5l-9.2,4.6C177.3,207.5,178.8,204.8,180.5,202.1 M265.2,204l0.1,4l-4-3.2L265.2,204 M276.7,204.5 l15.9,3.4l-5,15.5l-10.6-6.5L276.7,204.5 M246.5,207.6l19.6,15.6l3.7,24.8l-15.6,19.6l-24.8,3.7l-19.6-15.6l-3.7-24.8l15.6-19.6 L246.5,207.6 M206.6,212.1l-3,3.7l-0.8-3.6L206.6,212.1 M191.7,215.1l2.6,12.1l-8.1,9.2l-9-14L191.7,215.1 M302.2,215.3 c1.2,3.3,2.2,6.6,2.9,10.1l-6.4,0.8L302.2,215.3 M278.8,231.4l3.5,2.2l-2.8,3.1L278.8,231.4 M169.8,231.9l6.1,9.4l-6.4,0.8 C169.3,238.7,169.4,235.3,169.8,231.9 M306.6,236.8c0.1,3.4,0,6.8-0.4,10.2l-6-9.4L306.6,236.8 M196.3,242.4l0.8,5.1l-3.4-2.1 L196.3,242.4 M289.7,242.5l9,14l-14.5,7.3l-2.6-12.1L289.7,242.5 M177.3,252.7l-3.6,10.9c-1.2-3.2-2.2-6.6-2.9-10.1L177.3,252.7 M188.4,255.5l10.6,6.5l0.3,12.4l-15.9-3.4L188.4,255.5 M272.4,263.1l0.8,3.6l-3.8,0.1L272.4,263.1 M300.1,268.7 c-1.3,2.8-2.8,5.6-4.6,8.2l-4.6-3.5L300.1,268.7 M210.6,270.9l4.2,3.3l-4.1,0.8L210.6,270.9 M273.1,278.1l-3.6,16.1l-15.6-5 l6.6-10.8L273.1,278.1 M246,280.4l-2,3.2l-2.8-2.5L246,280.4 M283.9,282.3l4.7,3.6c-2.1,2.3-4.4,4.5-6.9,6.5L283.9,282.3 M185,283 l11.2,2.4l-3.9,5.2C189.6,288.2,187.2,285.7,185,283 M226.8,283.4l9.1,8.3l-13.5,8.8l-7.6-14.7L226.8,283.4 M205.3,292.4l5.1,9.9 c-3.1-1.4-6.1-3-9-4.8L205.3,292.4 M252.2,300.6l9.8,3.1c-2.9,1.1-6,2-9.1,2.7L252.2,300.6 M240.8,302.2l0.7,5.8 c-1.2,0.1-2.5,0.1-3.7,0.1c-1.9,0-3.8-0.1-5.7-0.2L240.8,302.2 M237.9,167.9c-2.3,0-4.5,0.1-6.8,0.3l1.8,13.7l19.2-12.6 C247.4,168.4,242.7,167.9,237.9,167.9L237.9,167.9z M225.6,168.9c-6.8,1.2-13.6,3.4-20.1,6.7l21.9,6.9L225.6,168.9L225.6,168.9z M259.3,171.1l10.9,21.1l8.7-11.5C272.9,176.5,266.3,173.3,259.3,171.1L259.3,171.1z M254.7,174L235,186.9l13.2,11.9l17.4-3.5 L254.7,174L254.7,174z M199,179.5c-6.2,4-11.4,8.7-15.9,14l11,8.4L199,179.5L199,179.5z M204.3,181l-5.1,22.9l18-0.5l9.4-15.4 L204.3,181L204.3,181z M283.2,184l-8.7,11.5l23.5,4.9C293.9,194.1,288.8,188.5,283.2,184L283.2,184z M231.3,190.7l-7.2,11.8 l17.3-2.6L231.3,190.7L231.3,190.7z M179.8,197.8c-4.1,5.7-7.3,12-9.6,18.7l20.5-10.4L179.8,197.8L179.8,197.8z M268.1,200.4 l-13.7,2.8l14.1,11.3L268.1,200.4L268.1,200.4z M273.6,200.8l0.5,17.8l15.2,9.3l7.2-22.2L273.6,200.8L273.6,200.8z M247.3,204.5 l-27.2,4.1L203,230.1l4.1,27.2l21.5,17.2l27.2-4.1l17.2-21.5l-4.1-27.2L247.3,204.5L247.3,204.5z M301.8,207l-7.4,22.9l14.3-1.8 C307.5,220.9,305.3,213.7,301.8,207L301.8,207z M213,208.9l-13.8,0.4l2.9,13.4L213,208.9L213,208.9z M193.8,210.6L173,221.2 l12.9,20.1l11.7-13.3L193.8,210.6L193.8,210.6z M168.1,223.8c-1.6,7.1-2.1,14.4-1.5,21.8l14.3-1.8L168.1,223.8L168.1,223.8z M274.9,225.5l2.7,18l9.4-10.6L274.9,225.5L274.9,225.5z M309.4,233.4l-14.3,1.8l12.8,19.9C309.5,248.1,310,240.7,309.4,233.4 L309.4,233.4z M198.3,235.5l-9.2,10.5l12,7.4L198.3,235.5L198.3,235.5z M290.1,237.6l-11.7,13.3l3.7,17.4l20.9-10.6L290.1,237.6 L290.1,237.6z M181.6,249.2l-14.3,1.7c1.2,7.2,3.4,14.3,6.9,21.1L181.6,249.2L181.6,249.2z M186.7,251l-7.2,22.2l22.9,4.9 l-0.5-17.8L186.7,251L186.7,251z M274,256.2l-11,13.7l13.8-0.4L274,256.2L274,256.2z M305.8,262.4l-20.5,10.4l11,8.4 C300.4,275.4,303.6,269.1,305.8,262.4L305.8,262.4z M207.4,264.5l0.4,14.2l13.9-2.8L207.4,264.5L207.4,264.5z M276.9,275l-18,0.5 l-9.5,15.4l22.4,7.1L276.9,275L276.9,275z M251.9,276.4l-17.4,2.6l10.1,9.1L251.9,276.4L251.9,276.4z M281.9,277l-4.9,22.4 c6.2-4,11.4-8.7,15.9-14L281.9,277L281.9,277z M177.9,278.5c4.1,6.4,9.2,11.9,14.8,16.5l8.7-11.5L177.9,278.5L177.9,278.5z M227.6,280.2l-17.4,3.5l11,21.2l19.6-12.8L227.6,280.2L227.6,280.2z M205.8,286.8l-8.7,11.5c6,4.2,12.6,7.4,19.6,9.5L205.8,286.8 L205.8,286.8z M248.6,296.3l1.8,13.7c6.9-1.2,13.6-3.4,20.1-6.7L248.6,296.3L248.6,296.3z M243.2,297.1L224,309.7 c4.6,1,9.2,1.4,13.9,1.4c2.4,0,4.7-0.1,7.1-0.4L243.2,297.1L243.2,297.1z"/> </g> <g> <g> <animateTransform attributeName="transform" type="rotate" dur="35s" repeatCount="indefinite" keyTimes="0;1" values="0 238 238;360 238 238"/> <path  fill="##F5FBF5" d="M304.3,310.3l-1.5,6.3l-5-0.9L304.3,310.3 M314.1,311l13.7,25.6l-16-16L314.1,311 M288.1,323.8l9.4,1.7 l-12.1,14.6l-2.7-11.9L288.1,323.8 M308.5,334.2l16.8,26.3l-19.6-14.9L308.5,334.2 M296.9,341.2l-0.5,2.3l-1.5,0.3L296.9,341.2 M277.3,347.6l0.4,1.9l-1.3,1.6L277.3,347.6 M294,353.5l-1.9,7.9l-2.7-7L294,353.5 M303.4,355.7l25.2,19.3l-29.4-1.9L303.4,355.7 M334.3,356.7l8.9,8.8l7.4,13.9l-3-2L334.3,356.7 M281.4,360.2l6.1,15.9l-12.7,11.4l-3-15.2L281.4,360.2 M296.7,384l27,11.6 l-31.2,5.8L296.7,384 M321,384.1l21.5,1.4l10.4,6.2l-12.1,0.8L321,384.1 M285,391.3l-1.9,7.9l-3.7-2.8L285,391.3 M266.3,393.4 l0.4,2l-1.3,1.5L266.3,393.4 M345.4,401.6l-12.9,9l-11.9,3.9l21.3-12.5L345.4,401.6 M314.3,407.1l-26.9,15.8l2.7-11.3 L314.3,407.1 M269.4,407.3l4.1,18.7l-9.2-2.8l-2.8-6.4L269.4,407.3 M279.5,408.4l1.1,0.9l-0.5,2L279.5,408.4 M305.6,429.5 l-23.8,16.7l2.3-9.7L305.6,429.5 M269.4,434.7l4.9,1.4l-1.5,6.3L269.4,434.7 M309.3,302.3l-18.4,15.1l14.2,2.6L309.3,302.3 L309.3,302.3z M313,302.6l-4.5,19l31.4,31.4L313,302.6L313,302.6z M287.3,320.6l-7.8,6.5l4.4,19.6l19.2-23.3L287.3,320.6 L287.3,320.6z M307.3,326.7l-4.8,20.1l34.7,26.4L307.3,326.7L307.3,326.7z M302.9,329.3l-15.5,18.9l11.5-2L302.9,329.3 L302.9,329.3z M277.4,334.3l-7,29.3l10.6-13.3L277.4,334.3L277.4,334.3z M316.8,335.1l28.6,44.5l13.6,9.2l-13.4-25L316.8,335.1 L316.8,335.1z M298,349.7l-12.7,2.3l7.5,19.4L298,349.7L298,349.7z M301.6,350.6l-6,25.3l42.8,2.8L301.6,350.6L301.6,350.6z M282.3,354.2l-13.6,17.4l4.3,21.7l18.1-16.3L282.3,354.2L282.3,354.2z M266.6,379.5l-7,29.3l10.4-12.6L266.6,379.5L266.6,379.5z M294.6,379.9l-6.1,25.3l45.5-8.5L294.6,379.9L294.6,379.9z M303.7,379.9l36.7,15.6l22.4-1.5l-19.3-11.5L303.7,379.9L303.7,379.9 z M290.1,382.6l-15.5,13.9l10.3,7.8L290.1,382.6L290.1,382.6z M357,397.1l-16.2,2.1l-45.7,26.8l38.7-12.6L357,397.1L357,397.1z M271,400.6l-12.9,15.7l4,9.4l15.4,4.6L271,400.6L271,400.6z M274.7,401l5.4,23.7l3.9-16.5L274.7,401L274.7,401z M330.5,401.1 l-42.9,7.9l-4.8,20.1L330.5,401.1L330.5,401.1z M323.8,420.3l-42.2,13.8l-4.5,19L323.8,420.3L323.8,420.3z M264,430l9.6,21.8 l4.2-17.7L264,430L264,430z"/> </g> <g> <animateTransform attributeName="transform" type="rotate" dur="35s" repeatCount="indefinite" keyTimes="0;1" values="0 238 238;360 238 238"/> <path fill="##F5FBF5"  d="M59.6,258.4l9.3,8l-18.8,3.6l3-9.1L59.6,258.4 M79.4,262.8l3.5,0.9l-2,0.4L79.4,262.8 M41.6,265.6l-1.6,4.9 l-6.2-1.7L41.6,265.6 M103.8,269.8l11.9,9.9l-16.1,5.7l-11.1-13L103.8,269.8 M124.9,275l3.5,0.9l-1.9,0.4L124.9,275 M67.5,276.5 l-0.9,1.1l-2-0.5L67.5,276.5 M79.6,276.7l4.9,5.7l-7.8-2.1L79.6,276.7 M29.8,277.8l9.6,2.6l6.4,21.6L29.8,277.8 M147.6,282 l4.3,5.5l-1.9,9.3l-14.3-12.5L147.6,282 M52.8,284l11.3,3l3.8,24.3L52.8,284 M121.4,287.9l0.7,4.6l-7.8-2.1L121.4,287.9 M74.2,289.7l17.3,4.6L79.1,321L74.2,289.7 M131.8,293.6l2.5,2.2l-2.3-0.6L131.8,293.6 M102.3,297.2l17.3,4.6l-20,24.7 L102.3,297.2 M159.8,297.3l5.2,6.7l-6.2-1.7L159.8,297.3 M129.7,304.5l11.3,3l-26.7,16.1L129.7,304.5 M154.4,311.2l9.6,2.6 l-26,12.9L154.4,311.2 M60.3,317.3l11.9,21.6l0.4,3.6l-8.7-13.2L60.3,317.3 M90.7,318.7l-2,21.4l-6.5,10.2l-0.5-12.1L90.7,318.7 M117.7,332.7l-9.1,8.6l-14.1,7.1l2.1-2.9L117.7,332.7 M60.2,254.9l-9.5,3.8L45.7,274l29.9-5.8L60.2,254.9L60.2,254.9z M67.7,256.6L80,267.3l16.8-3L67.7,256.6L67.7,256.6z M46.4,260.4l-22.1,9l17.6,4.7L46.4,260.4L46.4,260.4z M104.7,266.7 l-21.8,3.7l15.8,18.6l23-8.2L104.7,266.7L104.7,266.7z M112.6,268.6l13.1,10.9l16.1-3.1L112.6,268.6L112.6,268.6z M75.1,271.9 l-23.8,4.7l16.4,4.4L75.1,271.9L75.1,271.9z M79.6,272L71.5,282l21.6,5.8L79.6,272L79.6,272z M22.9,272.8l31.5,47.6l-12.7-42.6 L22.9,272.8L22.9,272.8z M148.8,278.7l-19.7,3.9l22.8,19.9l3.3-15.7L148.8,278.7L148.8,278.7z M46.8,279.2l26.7,48.4l-6.8-43.1 L46.8,279.2L46.8,279.2z M123.8,283.8l-19.6,7l21.6,5.8L123.8,283.8L123.8,283.8z M70.5,285.6l7.2,45.7l17.9-38.9L70.5,285.6 L70.5,285.6z M127.6,286l1.7,11.5L146,302L127.6,286L127.6,286z M158.2,290.4l-3,14.1l17.6,4.7L158.2,290.4L158.2,290.4z M49.6,291.6l11.5,39l15.6,23.7L75.1,338L49.6,291.6L49.6,291.6z M99.6,293.4l-3.9,42.7l29.1-35.9L99.6,293.4L99.6,293.4z M128.6,301.1l-27.4,33.9l47.3-28.6L128.6,301.1L128.6,301.1z M95.4,301.4l-16.6,36.2l0.9,22.4l12-18.9L95.4,301.4L95.4,301.4z M153.5,307.8l-32.3,30.5l51.1-25.5L153.5,307.8L153.5,307.8z M139.8,315.8l-45.3,27.4L85,356.5l25.4-12.7L139.8,315.8 L139.8,315.8z"/> </g> <g> <animateTransform attributeName="transform" type="rotate" dur="35s" repeatCount="indefinite" keyTimes="0;1" values="0 238 238;360 238 238"/> <path fill="##F5FBF5"  d="M70.5,118.1l7.9,3l-4.5,2.5L70.5,118.1 M61.4,121.9l5.2,8.5l-10.1,20.2L61.4,121.9 M90,125.7l6.5,2.6 l1.2,12.2l-16.1-10.2L90,125.7 M74,142.2l6.1,9.9l-13.9,20.3L74,142.2 M107.8,145l1.9,3.1L108,147L107.8,145 M87.2,145.2l2.5,1.6 l-1.4,0.2L87.2,145.2 M98.5,155.2l-0.4,7.5l-4.3-6.9L98.5,155.2 M107.9,158.3l12.9,8.6l1.9,15.3l-15.6-6.9L107.9,158.3 M85.6,161 l9.4,15.2l-27.3,11L85.6,161 M56.5,171.6l-6.2,23.9l-2.2,2.9l2.7-15.5L56.5,171.6 M132.6,185.1l1.9,3.1l-1.7-1.1L132.6,185.1 M100.9,185.7l9.4,15.2l-31.4,4.3L100.9,185.7 M114.3,189l6.9,3l-2.6,3.9L114.3,189 M77.8,193.4l-16.2,14.2l-11.7,3l7.9-9.2 L77.8,193.4 M134,199.3l10.3,6.5l-0.6,6.9l-7.8,5.5L134,199.3 M124.8,203.3l0.3,3.3l-1.2-2L124.8,203.3 M115.8,209.8l6.1,9.9 l-30.5-6.6L115.8,209.8 M63.7,217l24.1,5.2l-12.5,0.1l-15.1-4.5L63.7,217 M142.7,225.2l-0.8,8.4l-3.4-5.5L142.7,225.2 M129.2,231.6l5.2,8.5l-27.8-8.4L129.2,231.6 M63.2,112.1l9.6,15.5l12.6-6.9L63.2,112.1L63.2,112.1z M59.8,113.5l-9.7,56.3 l20-39.7L59.8,113.5L59.8,113.5z M89.8,122.4L75.6,130l25.7,16.3l-2-20.2L89.8,122.4L89.8,122.4z M103.6,132.4l1.6,16.3l14.2,9.4 L103.6,132.4L103.6,132.4z M72.8,134.6L59,188.1l24.6-36L72.8,134.6L72.8,134.6z M77.9,135.8l8.9,14.4l11.6-1.5L77.9,135.8 L77.9,135.8z M66.4,145.6L48,181.8l-4.9,27.9l10-13L66.4,145.6L66.4,145.6z M101.6,151.8l-12.8,1.8l11.7,19L101.6,151.8 L101.6,151.8z M105.1,152.9l-1.2,24.4l22.3,9.8l-2.7-21.9L105.1,152.9L105.1,152.9z M85.7,155.5l-26.1,38.2l39.8-16L85.7,155.5 L85.7,155.5z M128,172l2,16.9l13.8,8.7L128,172L128,172z M101.6,181.1l-32.1,28.4l45.8-6.2L101.6,181.1L101.6,181.1z M106.6,182.3l11.7,19l7.3-10.6L106.6,182.3L106.6,182.3z M92.9,184l-37,15l-14.7,16.9l21.7-5.5L92.9,184L92.9,184z M130.4,193.5 l3,30.1l13.2-9.2l0.9-10.2L130.4,193.5L130.4,193.5z M127,194.9l-6.7,9.6l9.1,14.7L127,194.9L127,194.9z M117.3,206.6l-43.2,5.9 l54,11.7L117.3,206.6L117.3,206.6z M63.7,213.9l-16.1,3.1l27.2,8.2l40.7-0.2L63.7,213.9L63.7,213.9z M146.3,219.1l-11.9,8.2 l9.6,15.5L146.3,219.1L146.3,219.1z M130.9,228.6l-44.4,0.1l54.7,16.5L130.9,228.6L130.9,228.6z"/> </g> <g> <animateTransform attributeName="transform" type="rotate" dur="35s" repeatCount="indefinite" keyTimes="0;1" values="0 238 238;360 238 238"/> <path fill="##F5FBF5"  d="M201.9,30.4l-2.6,9.6l-21.7,6.4L201.9,30.4 M210.8,34.4l3.2,7.8l-4.9-1.6L210.8,34.4 M209.5,50.8l9.1,3 l2.5,6.5l-8.1,9.2L209.5,50.8 M195.6,53.4l-3.1,11.2l-24.3,3.7L195.6,53.4 M162.2,60.8l-21.6,11.8l-3.6,0.3l13.2-8.6L162.2,60.8 M202.4,65.2l0.6,2.9l-1.1-0.9L202.4,65.2 M189.8,74.8L185.1,92l-26.7-12.4L189.8,74.8 M199.1,77.3l3.6,2.9l-5.8,4.9L199.1,77.3 M216.6,80.1l-1,3.5l-0.4-2L216.6,80.1 M141.2,82.1l19.5,9.1l-21.4-2.1l-10.2-6.5L141.2,82.1 M207,89.2l2.5,15.2l-9.9,11.9 l-5.6-16.1L207,89.2 M131,94.9l2.9,2.1l12.7,21.1L138,109L131,94.9 M152.9,100l29.3,2.8l-4.7,17.2L152.9,100 M155.6,114.6 l19.1,15.5l-3.1,11.2L155.6,114.6 M188.9,114.8l2.5,7.1l-4.6,0.7L188.9,114.8 M204.3,125.5l-1,3.5l-0.4-1.9L204.3,125.5 M185.7,132.3l-2.2,2.5l0.6-2.3L185.7,132.3 M194.9,136.3l2.3,11.9l-5.5,4.3l-9.3-2L194.9,136.3 M152.5,138.4l15.5,16.5l-2.6,9.6 L152.5,138.4 M176.8,159.3l5,1.1l-6.7,5.2L176.8,159.3 M206.8,23.5l-47.7,31.4l42.6-12.5L206.8,23.5L206.8,23.5z M210.2,25 l-4.8,17.6l13.7,4.5L210.2,25L210.2,25z M205.6,46.3l5.6,29.9l13.3-15.3l-3.7-9.5L205.6,46.3L205.6,46.3z M200.3,47.4l-48.5,26.5 l43.1-6.6L200.3,47.4L200.3,47.4z M187.9,50.2l-39,11.4l-23.7,15.5l16.3-1.5L187.9,50.2L187.9,50.2z M202.9,52l-4.4,16.3l9.1,7.5 L202.9,52L202.9,52z M222.9,68.4l-10.8,12.3l2.9,16.8L222.9,68.4L222.9,68.4z M193.9,71.1l-45.7,7l38.9,18.1L193.9,71.1 L193.9,71.1z M197.4,72.1l-5.9,21.5l15.9-13.4L197.4,72.1L197.4,72.1z M141.8,79.1l-22.4,0.8L138.3,92l39.7,3.9L141.8,79.1 L141.8,79.1z M209.1,83.5l-18.6,15.8l8.1,23l14.2-17L209.1,83.5L209.1,83.5z M122.9,85.3l12.6,25.4l27.9,29.6l-27.2-45.4 L122.9,85.3L122.9,85.3z M143.3,96.1l35.8,29.2l6.8-25.1L143.3,96.1L143.3,96.1z M144.3,101.6l28.4,47.4l5.4-19.9L144.3,101.6 L144.3,101.6z M188.6,104.7l-5.9,21.5l12.8-1.9L188.6,104.7L188.6,104.7z M210.7,113.3l-11,13l3.1,16.1L210.7,113.3L210.7,113.3z M140.9,121.7l25.3,51.2l5.1-18.9L140.9,121.7L140.9,121.7z M193.3,128.2l-11.5,1.7l-4.5,16.7L193.3,128.2L193.3,128.2z M196.7,129.7l-19.9,22.7l15.7,3.3l8-6.3L196.7,129.7L196.7,129.7z M174.7,155.7l-4.8,17.6l18.9-14.5L174.7,155.7L174.7,155.7z"/> </g> <g> <animateTransform attributeName="transform" type="rotate" dur="35s" repeatCount="indefinite" keyTimes="0;1" values="0 238 238;360 238 238"/> <path fill="##F5FBF5"  d="M282.1,49.9l15.5,2.8l11.2,5.7L285,52.1L282.1,49.9 M269.8,51.5l9.1,8l8,20l-14.2-16.2L269.8,51.5 M329.9,58.4l28.6,5l-8.5,5.2L329.9,58.4 M262.7,61.8l0.7,3.6l-5.3,24.1l0-12.5L262.7,61.8 M308,68l30.2,7.9l-9.9,6.1L308,68 M293.2,69.5l26.1,18l-15.2,9.3L293.2,69.5 M362.3,72.5l-3.1,7.9l-2.4-4.5L362.3,72.5 M275.1,80.5l19.4,22.1l-15.2,9.3 L275.1,80.5 M350.1,83.5l4.5,8.4l-2.6,6.5l-12.2,1.2L350.1,83.5 M335.1,89.2l-1.6,2.5l-0.2-1.4L335.1,89.2 M267.1,93.1l3.2,24.4 l-9.9,6.1L267.1,93.1 M324.4,95.7l0.6,4.6l-7.5-0.4L324.4,95.7 M248.6,108.2l0,22.6L240,136L248.6,108.2 M304.9,108.8l17,0.9 l-8.6,12.8l-15.3,1.8L304.9,108.8 M335.2,109.8l-3.1,1.9l1.1-1.7L335.2,109.8 M291.2,116l-3.1,6.9l-3.8-2.7L291.2,116 M275.5,125.6l1.3,0.9l-3.3,0.3L275.5,125.6 M295,134.3l-3.1,1.9l1.1-1.7L295,134.3 M280.8,135.7l-6.5,10.3l-6.9-0.6l-5.4-7.8 L280.8,135.7 M251.9,140.1l2.9,4.2l-8.4-0.8L251.9,140.1 M264.5,42.9l5.5,21.8l26.2,30l-14.8-37L264.5,42.9L264.5,42.9z M270.7,44.8l12.9,10l51.2,13.4l-36.2-18.5L270.7,44.8L270.7,44.8z M263.4,49.3l-8.3,27.1l0,40.7l11.3-51.7L263.4,49.3 L263.4,49.3z M310.6,51.9l39.6,20.1l16.7-10.2L310.6,51.9L310.6,51.9z M292.3,60.8l35.9,24.8l17.6-10.8L292.3,60.8L292.3,60.8z M286.7,61.4l15.9,39.8l22.2-13.6L286.7,61.4L286.7,61.4z M368.3,65.3l-15.5,9.5l6.9,12.7L368.3,65.3L368.3,65.3z M270.9,71.1 l6,45.8l22.2-13.6L270.9,71.1L270.9,71.1z M267.8,75.8l-11.9,54l17.6-10.8L267.8,75.8L267.8,75.8z M350.3,77.6l-16.4,25.6l20.2-2 l3.8-9.5L350.3,77.6L350.3,77.6z M344.5,79.9l-14.4,8.8l1.5,11.7L344.5,79.9L344.5,79.9z M251.6,88.1l-16.7,54.6l16.7-10.2 L251.6,88.1L251.6,88.1z M326.7,90.8l-19,11.7l20.8,1.1L326.7,90.8L326.7,90.8z M347.8,105.6l-16.3,1.5l-9.4,14.2L347.8,105.6 L347.8,105.6z M303,105.7l-9.9,22.3l22-2.6l12.3-18.4L303,105.7L303,105.7z M297.9,108.4l-19,11.7l10.6,7.4L297.9,108.4 L297.9,108.4z M275.7,122l-14.8,9l24.3-2.3L275.7,122L275.7,122z M308.1,129.8l-16.9,1.9l-8.8,13.8L308.1,129.8L308.1,129.8z M286.7,132.2l-30.1,2.9l9.2,13.2l10.2,0.9L286.7,132.2L286.7,132.2z M252.8,136l-15.5,9.5l23.7,2.4L252.8,136L252.8,136z"/> </g> <g> <animateTransform attributeName="transform" type="rotate" dur="35s" repeatCount="indefinite" keyTimes="0;1" values="0 238 238;360 238 238"/> <path fill="##F5FBF5"  d="M391.5,125.1l1.2,12.1l-7.8,20.1l0.7-21.5L391.5,125.1 M379.4,127.8l-1.9,3.1l-20.3,14l8.6-9.2L379.4,127.8 M401.6,132.4l9.4,12.6l4.2,11.8L402.2,136L401.6,132.4 M375.6,150l-1,29.4l-17.5-3.6L375.6,150 M337.3,152l-15.5,16.4l-9.7-2 L337.3,152 M361.2,153.6l-14.3,20l-11.4-2.4L361.2,153.6 M396.3,154.2l6.8,31l-17.5-3.6L396.3,154.2 M408.1,163.3l16.6,26.4 l-11.4-2.4L408.1,163.3 M430.7,171.3l17.4,23.2l-9.7-2L430.7,171.3 M311.6,176.3l6.3,1.3l-0.8,5L311.6,176.3 M327,182.5l15,11.6 l-11.8,3l-4.6-5.2L327,182.5 M342.8,182.7l2.3,0.5l0.3,1.5L342.8,182.7 M355.1,185.2l7.9,1.6l-6.9,2.9L355.1,185.2 M377.9,191 l11.8,12.3l-15.1,3.5l-12.4-9.2L377.9,191 M393.2,193.1l7.9,1.6l-2.7,3.8L393.2,193.1 M411.4,196.8l2,0.4l-2.9,0.8L411.4,196.8 M351.6,201.6l1.7,1.2l-3.6-0.7L351.6,201.6 M438.3,202.4l6.3,1.3l-7.6,3.6L438.3,202.4 M428.2,203.4l-2.5,9.2l-6.3,2.9l-9.7-7.5 L428.2,203.4 M397.9,211.2l1.6,1.2l-3.6-0.7L397.9,211.2 M393.6,115.3l-10.9,19.6l-1.4,39.8l14.5-37.1L393.6,115.3L393.6,115.3z M388.4,119.1l-24.6,14.1L336,163l43.6-30L388.4,119.1L388.4,119.1z M396.8,120.9l2.6,16.2l28.2,44.8l-13.8-38.3L396.8,120.9 L396.8,120.9z M353.2,139.4l-49.6,28.4l19.1,3.9L353.2,139.4L353.2,139.4z M378.9,140.2L352,177.8l25.5,5.3L378.9,140.2 L378.9,140.2z M373.5,141.5l-45.6,31.3l20.2,4.2L373.5,141.5L373.5,141.5z M397.1,143.9l-15.6,39.9l25.5,5.3L397.1,143.9 L397.1,143.9z M401.6,147.3l9.3,42.6l20.2,4.2L401.6,147.3L401.6,147.3z M421,153.4l15.1,41.7l19.1,3.9L421,153.4L421,153.4z M303.5,171.5l15.7,17.9l2.2-14.2L303.5,171.5L303.5,171.5z M324.8,177l-2.3,15.9l6.8,7.6l19.5-5L324.8,177L324.8,177z M330.6,177.1L350,192l-2.4-11.4L330.6,177.1L330.6,177.1z M351.2,181.4l2.7,12.6l19.1-8.1L351.2,181.4L351.2,181.4z M378.7,187.4l-22.5,9.5L374,210l21.5-5L378.7,187.4L378.7,187.4z M384.4,188.2l14.4,15l7.5-10.5L384.4,188.2L384.4,188.2z M410.1,193.5l-6.9,9.5l23.5-6.1L410.1,193.5L410.1,193.5z M352.3,198.4l-15.8,4.1l29.5,6.1L352.3,198.4L352.3,198.4z M436.1,198.9l-3.6,13.9l21.5-10.3L436.1,198.9L436.1,198.9z M432.4,199.3l-29.5,7.5l16.1,12.4l9.2-4.3L432.4,199.3L432.4,199.3z M398.6,207.9l-16.6,3.9l29.5,6.1L398.6,207.9L398.6,207.9z"/> </g> <g> <animateTransform attributeName="transform" type="rotate" dur="35s" repeatCount="indefinite" keyTimes="0;1" values="0 238 238;360 238 238"/> <path fill="##F5FBF5"  d="M341.8,239.2l27.5,9.2l-22.6-0.6L341.8,239.2 M334.2,245.4l3.2,5.6l-4.3,2.8L334.2,245.4 M388,258.5 l12.5,0.3l15,5l-3.6,0.6L388,258.5 M353.8,259.9l30.3,7.5l-24.5,2.6L353.8,259.9 M339.7,261.1l1.3,18.9l-10.1-6.8l0.8-6.9 L339.7,261.1 M425.5,271.1l-8.2,8.9l-20.2,7.5l16.6-13.8L425.5,271.1 M350.1,273l1.2,2l-0.9,1.3L350.1,273 M396.4,275.7 l-22.6,18.8l-8.9-15.5L396.4,275.7 M426.8,283.5l-3.2,15.5l-6,11l6.9-23.7L426.8,283.5 M356.4,283.9l4,7l-6.8-3.2L356.4,283.9 M340.2,291.1l1.6,1.1l0.2,2.1L340.2,291.1 M407,294.1l-18.7,25.7l-8.9-15.5L407,294.1 M351.9,297.4l15.4,7.3l-1.4,17l-12.6-8.9 L351.9,297.4 M408,308.9l-8.7,30l-5.8-10.1L408,308.9 M375.9,317.6l4,7l-4.7,0.5L375.9,317.6 M417.1,331.1l-5.8,28.5l-5-8.6 L417.1,331.1 M363.8,331.9l1.7,1.2l0.1,2L363.8,331.9 M385.2,333.6l1,1.8l-2.5-1.7L385.2,333.6 M375.6,339.9l15.8,10.7l-8.5,4.3 l-6.4-2.8L375.6,339.9 M398.9,357.4l3.2,5.6l-7.8-3.3L398.9,357.4 M335.3,233.9l9.8,16.9l44.4,1.2L335.3,233.9L335.3,233.9z M332.4,236.2l-3,23.6l12.1-7.8L332.4,236.2L332.4,236.2z M360.4,254.8l51.4,12.6l16.1-2.7l-26.9-9L360.4,254.8L360.4,254.8z M347.7,255.3l10.3,17.9l43.3-4.6L347.7,255.3L347.7,255.3z M342.4,255.8l-13.4,8.8l-1.2,10.1l16.7,11.2L342.4,255.8L342.4,255.8 z M346.2,260.2l1.7,24.4l6.9-9.4L346.2,260.2L346.2,260.2z M434.2,266.1l-21.9,4.9l-30.7,25.4l37.4-13.8L434.2,266.1L434.2,266.1 z M405.9,271.7l-46,4.9l13,22.6L405.9,271.7L405.9,271.7z M432.2,272.2l-10.4,12.7l-14.8,50.8l19.4-35.7L432.2,272.2L432.2,272.2 z M356.7,278.4l-7.6,10.4l18.8,8.9L356.7,278.4L356.7,278.4z M331.2,281.3l15.1,26.1l-1.5-17L331.2,281.3L331.2,281.3z M415.2,287.8L375,302.7l13,22.6L415.2,287.8L415.2,287.8z M348.4,292.4l2.1,22l18,12.8l1.9-24.3L348.4,292.4L348.4,292.4z M415.7,293.4L390,328.6l10.3,17.9L415.7,293.4L415.7,293.4z M373.7,307.7l-1.7,20.7l12.8-1.4L373.7,307.7L373.7,307.7z M424,311.9L402.9,351l9.8,16.9L424,311.9L424,311.9z M354.4,321.6l15.1,26.1l-1.1-16.3L354.4,321.6L354.4,321.6z M386.8,330.4 l-11.7,1.2l20.1,13.5L386.8,330.4L386.8,330.4z M372.2,333.9l1.4,20.2l9.4,4l14.4-7.2L372.2,333.9L372.2,333.9z M400.1,353.5 l-12.8,6.6l22,9.2L400.1,353.5L400.1,353.5z"/> </g> <g> <animateTransform attributeName="transform" type="rotate" dur="35s" repeatCount="indefinite" keyTimes="0;1" values="0 238 238;360 238 238"/> <path fill="##F5FBF5"  d="M203.5,333.4l6.9,0.6l5.5,7.8l-18.9,1.8L203.5,333.4 M223.1,335l8.4,0.8l-5.5,3.4L223.1,335 M186,343.2 l-1.1,1.7l-2,0.2L186,343.2 M237.9,343.3l-8.4,27.8l0-22.6L237.9,343.3 M204.4,352.5l-2,1.2l-1.3-0.9L204.4,352.5 M180,355 l-6.9,15.6l-17-0.9l8.6-12.9L180,355 M217.5,355.8l-6.6,30.5l-3.3-24.4L217.5,355.8 M189.8,356.5l3.9,2.7l-6.9,4.2L189.8,356.5 M198.7,367.4l4.2,31.4l-19.4-22.1L198.7,367.4 M145.9,367.9l-1.1,1.7l-2,0.2L145.9,367.9 M153,379.1l7.5,0.4l-6.9,4.2L153,379.1 M138.2,379.9L128,396l-4.5-8.4l2.6-6.5L138.2,379.9 M173.9,382.6l11,27.3L158.7,392L173.9,382.6 M144.6,387.8l0.2,1.4l-1.8,1.1 L144.6,387.8 M219.9,389.9l0,12.5l-4.6,15.1l-0.7-3.6L219.9,389.9 M149.8,397.5l20.3,13.9l-30.2-7.8L149.8,397.5 M118.9,399.2 l2.5,4.5l-5.5,3.4L118.9,399.2 M191.2,399.9l14.2,16.2l3,11.7l-9.1-7.9L191.2,399.9 M128,410.9l20.2,10.2l-28.6-5L128,410.9 M169.3,421.1l23.9,6.2l2.9,2.2l-15.5-2.7L169.3,421.1 M202,330.2l-10.7,17l30.1-2.9l-9.2-13.2L202,330.2L202,330.2z M216.9,331.4l8.2,11.9l15.5-9.6L216.9,331.4L216.9,331.4z M195.5,333.8l-25.7,15.8l16.9-2L195.5,333.8L195.5,333.8z M243,336.6 l-16.6,10.2l0,44.4L243,336.6L243,336.6z M217,348.3l-24.3,2.4l9.6,6.7L217,348.3L217,348.3z M222,349.5l-17.6,10.8l5.8,43.2 L222,349.5L222,349.5z M184.9,351.4l-21.9,2.7l-12.3,18.4l24.4,1.2L184.9,351.4L184.9,351.4z M188.5,352l-8.4,19l19-11.7 L188.5,352L188.5,352z M155.9,358.2L130.2,374l16.3-1.6L155.9,358.2L155.9,358.2z M222.8,362.3L211.6,414l3.1,16.1l8.2-27.1 L222.8,362.3L222.8,362.3z M201.1,362.4l-22.2,13.7l28.3,32.2L201.1,362.4L201.1,362.4z M149.5,376l1.8,12.8l19-11.7L149.5,376 L149.5,376z M144.1,376.3l-20.2,2l-3.8,9.5l7.6,14.2L144.1,376.3L144.1,376.3z M175.4,378.2l-22.2,13.7l38.2,26.1L175.4,378.2 L175.4,378.2z M146.5,379.1l-12.9,20.5l14.4-8.9L146.5,379.1L146.5,379.1z M181.8,384.7l14.9,37l16.9,14.7l-5.5-21.7L181.8,384.7 L181.8,384.7z M118.4,392.1l-8.6,22.2l15.5-9.6L118.4,392.1L118.4,392.1z M149.9,393.9l-17.6,10.8l53.5,13.8L149.9,393.9 L149.9,393.9z M127.9,407.5l-16.6,10.2l56.3,9.8L127.9,407.5L127.9,407.5z M143.3,411.2l36.2,18.4l27.9,4.9l-12.9-10L143.3,411.2 L143.3,411.2z"/> </g> </g> </svg>
