<svg width="150" height="120" viewBox="0 0 150 120" fill="none" xmlns="http://www.w3.org/2000/svg">
<path d="M20.4004 110.2V41.8L75.0004 80.2001L128.4 38.8V110.2H20.4004Z" fill="#D5E8FE"/>
<path fill-rule="evenodd" clip-rule="evenodd" d="M40.1994 30.7427H19.2858C16.9188 30.7427 15 32.6615 15 35.0282V112.171C15 114.538 16.9188 116.457 19.2858 116.457H130.714C133.081 116.457 135 114.538 135 112.171V35.0282C135 32.6615 133.081 30.7427 130.714 30.7427H110.999V39.314H123.686L74.9999 76.7627L26.3143 39.314H40.1994V30.7427ZM23.5713 48.0182V107.885H126.428V48.0182L77.61 85.5696C76.0706 86.7516 73.9294 86.7516 72.39 85.5696L23.5713 48.0182Z" fill="#007AFF"/>
<path d="M39 21.3999C39 19.7431 40.3431 18.3999 42 18.3999H55.2C56.8569 18.3999 58.2 19.743 58.2 21.3999V63.9999C58.2 66.472 55.3777 67.8832 53.4 66.3999L40.2 56.4999C39.4446 55.9333 39 55.0442 39 54.0999V21.3999Z" fill="#007AFF"/>
<rect x="66.6016" y="4" width="19.2" height="73.2" rx="3" fill="#007AFF"/>
<path d="M94.1992 21.3999C94.1992 19.7431 95.5424 18.3999 97.1992 18.3999H110.399C112.056 18.3999 113.399 19.743 113.399 21.3999V51.6999C113.399 52.6442 112.955 53.5333 112.199 54.0999L98.9992 63.9999C97.0215 65.4832 94.1992 64.072 94.1992 61.5999V21.3999Z" fill="#007AFF"/>
</svg>
