<svg width="65" height="65" viewBox="0 0 65 65" fill="none" xmlns="http://www.w3.org/2000/svg">
<circle cx="32.5" cy="32.5" r="32.5" fill="white"/>
<circle cx="32.5" cy="32.5" r="32.25" stroke="#262E3A" stroke-opacity="0.2" stroke-width="0.5"/>
<path d="M46 28.5759V41.7278C46 42.2467 45.5831 42.6672 45.069 42.6672H19.931C19.4168 42.6672 19 42.2467 19 41.7279V22.9394C19 22.4206 19.4168 22 19.931 22H45.069C45.5832 22 46 22.4206 46 22.9394V28.5759Z" fill="#3F4B51"/>
<path d="M45.7679 22.3241L33.3991 32.9818C32.8801 33.4234 32.1212 33.4234 31.6022 32.9818L19.2334 22.3241C19.4081 22.1184 19.6632 22 19.9317 22H45.0696C45.3381 22 45.5932 22.1184 45.7679 22.3241Z" fill="#D4D6D7"/>
<path d="M45.67 42.4417C45.5031 42.587 45.29 42.6671 45.0695 42.6671H19.9316C19.7111 42.6671 19.498 42.587 19.3311 42.4417L29.6423 31.2954L31.6021 32.9817C32.1211 33.4233 32.8799 33.4233 33.399 32.9817L35.3541 31.2954L45.67 42.4417Z" fill="#262E3A"/>
</svg>
