<svg width="150" height="120" viewBox="0 0 150 120" fill="none" xmlns="http://www.w3.org/2000/svg">
<path d="M33 80L51 74.5C44.2 36.5 65.1667 13.6667 76.5 7C96.9 16.6 101.333 56 101 74.5L117.5 80L115 110L94 100.5L84.5 103.5V110H65V103.5L56 100.5L33 110V80Z" fill="#D5E8FE"/>
<path d="M75.4434 49.7441C67.6731 49.7441 61.3516 56.0657 61.3516 63.8359C61.3516 71.6062 67.6731 77.9277 75.4434 77.9277C83.2136 77.9277 89.5352 71.6062 89.5352 63.8359C89.5352 56.0657 83.2136 49.7441 75.4434 49.7441ZM75.4434 71.4238C71.2594 71.4238 67.8555 68.0199 67.8555 63.8359C67.8555 59.652 71.2594 56.248 75.4434 56.248C79.6273 56.248 83.0312 59.652 83.0312 63.8359C83.0312 68.0199 79.6273 71.4238 75.4434 71.4238Z" fill="#007AFF"/>
<path d="M117.359 76.4096L103.351 73.2085C107.069 39.7104 91.6455 14.3391 77.2725 4.56308C76.1688 3.81209 74.7182 3.81252 73.6142 4.56308C63.9148 11.1624 43.2373 34.3195 47.534 73.2088L33.5276 76.4093C32.0486 76.7473 31 78.0628 31 79.5798V111.748C31 112.864 31.5715 113.901 32.5143 114.497C33.4585 115.094 34.6409 115.163 35.6468 114.686L58.2687 103.943H62.4355V111.748C62.4355 113.544 63.8916 115 65.6875 115H85.1992C86.9952 115 88.4512 113.544 88.4512 111.748V103.943H92.618L115.24 114.686C116.245 115.163 117.428 115.094 118.372 114.497C119.315 113.901 119.887 112.863 119.887 111.748V79.5798C119.887 78.0628 118.838 76.7473 117.359 76.4096ZM75.4273 11.3711C78.5893 14.0466 85.2495 20.4953 90.3841 30.96C80.6382 28.8458 70.2498 28.8458 60.5039 30.9598C64.5283 22.7547 70.1663 15.8085 75.4273 11.3711ZM37.5039 106.604V82.1725L48.4508 79.671C49.5999 86.2855 51.3692 92.8365 53.4899 99.0128L37.5039 106.604ZM81.9473 108.496H68.9395V103.943H81.9473V108.496ZM91.0569 97.4395C87.1977 97.4395 63.6307 97.4395 59.8299 97.4395C53.1926 78.3657 50.7021 57.7247 57.3727 38.4799C68.9444 35.0042 81.9392 35.0042 93.511 38.479C100.158 57.6612 97.7359 78.2469 91.0569 97.4395ZM113.383 106.604L97.3969 99.0126C99.5629 92.7203 101.318 86.1045 102.436 79.6708L113.383 82.1725V106.604Z" fill="#007AFF"/>
</svg>
