<svg width="78" height="78" viewBox="0 0 78 78" fill="none" xmlns="http://www.w3.org/2000/svg">
<circle cx="39" cy="39" r="39" fill="rgba(219, 241, 220, 0.5)"/>
<g clip-path="url(#clip0)">
<path d="M50.369 32.6316L50.5882 31.38L53.3394 28.6288L49.3713 24.6606L46.6203 27.4116L45.3683 27.631C41.1233 24.5159 37.0121 23 32.8139 23C32.789 23 32.7637 23 32.7389 23.0001L32.3526 23.0018L31.2989 24.0568L32.0942 24.7129C34.2877 26.5228 36.3602 28.5303 38.5542 30.6555C39.0514 31.1372 39.5624 31.632 40.0759 32.1255L39.6873 34.3447L23 51.032L26.9681 54.9999L43.6551 38.3131L45.8745 37.9242C46.3682 38.4379 46.8632 38.9489 47.3449 39.4463C49.4701 41.6403 51.4774 43.7125 53.287 45.9059L53.9439 46.7022L54.9981 45.6467L54.9998 45.2611C55.018 41.037 53.5024 36.9019 50.369 32.6316ZM50.6879 28.6288L49.716 29.6006L48.3995 28.2841L49.3714 27.3123L50.6879 28.6288ZM25.6518 51.032L40.5595 36.1242L41.8759 37.4407L26.9681 52.3483L25.6518 51.032ZM46.5365 35.9046L43.5201 36.4331L41.567 34.48L42.0954 31.4635C42.0954 31.4635 36.8888 26.432 35.4024 25.0944C38.4182 25.6068 41.4402 27.0202 44.5695 29.3733L44.8943 29.6175L46.7553 29.2915L48.7084 31.2445L48.3824 33.1055L48.6267 33.4304C50.9799 36.5599 52.3932 39.5814 52.9055 42.5975C51.5682 41.1114 46.5365 35.9046 46.5365 35.9046Z" fill="#033603"/>
</g>
<defs>
<clipPath id="clip0">
<rect width="32" height="32" fill="white" transform="translate(23 23)"/>
</clipPath>
</defs>
</svg>
