<svg width="60" height="60" viewBox="0 0 60 60" fill="none" xmlns="http://www.w3.org/2000/svg">
<circle cx="30" cy="30" r="28.75" fill="#C7EBE3" fill-opacity="0.5" stroke="white" stroke-width="2.5"/>
<g clip-path="url(#clip0)">
<path d="M57.4375 28.4375H24.3471L29.8286 22.9825C30.4403 22.3737 30.4426 21.3844 29.8339 20.7728C29.2251 20.1611 28.2357 20.1588 27.6241 20.7675L19.4597 28.8925C19.4592 28.893 19.4588 28.8935 19.4583 28.894C18.8482 29.5027 18.8463 30.4952 19.4582 31.106C19.4587 31.1065 19.4591 31.107 19.4596 31.1075L27.6239 39.2325C28.2355 39.8411 29.2249 39.839 29.8337 39.2272C30.4425 38.6155 30.4401 37.6262 29.8285 37.0175L24.3471 31.5625H57.4375C58.3005 31.5625 59 30.863 59 30C59 29.137 58.3005 28.4375 57.4375 28.4375Z" fill="white"/>
</g>
<defs>
<clipPath id="clip0">
<rect width="40" height="40" fill="white" transform="translate(19 10)"/>
</clipPath>
</defs>
</svg>
