<svg width="179" height="30" viewBox="0 0 179 30" fill="none" xmlns="http://www.w3.org/2000/svg">
<path d="M15.767 0.959999H14.127L0.606968 27.52V29H28.327V27.52L15.767 0.959999ZM8.96697 23.4L14.807 11.96L20.167 23.4H8.96697ZM53.8121 0.959999H35.1321V29H40.7321V17.32H51.5321V11.72H40.7321V6.56H53.8121V0.959999ZM72.5147 6.56V0.959999H60.9547V6.56H63.9547V23.4H60.9547V29H72.5147V23.4H69.5547V6.56H72.5147ZM85.8445 0.959999H80.2445V28.96H96.2845V23.4H85.8445V0.959999ZM115.587 6.56V0.959999H104.027V6.56H107.027V23.4H104.027V29H115.587V23.4H112.627V6.56H115.587ZM140.196 0.959999L134.476 11.52L128.716 0.959999H122.516L131.676 18.72V29H137.276V18.72L146.396 0.959999H140.196ZM163.836 0.439998C155.836 0.439998 149.316 6.96 149.316 14.96C149.316 22.96 155.836 29.48 163.836 29.48C171.836 29.48 178.356 22.96 178.356 14.96C178.356 6.96 171.836 0.439998 163.836 0.439998ZM163.836 6.2C168.676 6.2 172.596 10.12 172.596 14.96C172.596 19.8 168.676 23.72 163.836 23.72C158.996 23.72 155.076 19.8 155.076 14.96C155.076 10.12 158.996 6.2 163.836 6.2ZM163.836 11.24C165.996 11.24 167.556 12.8 167.556 14.96C167.556 17.12 165.996 18.68 163.836 18.68C161.676 18.68 160.116 17.12 160.116 14.96C160.116 12.8 161.676 11.24 163.836 11.24Z" fill="#262E3A"/>
</svg>
