<svg width="25" height="25" viewBox="0 0 25 25" fill="none" xmlns="http://www.w3.org/2000/svg">
<g clip-path="url(#clip0)">
<path d="M24.1856 13.314H8.42459C7.97459 13.314 7.60938 12.9488 7.60938 12.4988C7.60938 12.0488 7.97459 11.6836 8.42459 11.6836H24.1856C24.6356 11.6836 25.0008 12.0488 25.0008 12.4988C25.0008 12.9488 24.6356 13.314 24.1856 13.314Z" fill="white"/>
<path d="M12.7721 17.6627C12.5634 17.6627 12.3548 17.5835 12.196 17.4237L7.84821 13.0759C7.52976 12.7573 7.52976 12.241 7.84821 11.9225L12.196 7.57477C12.5144 7.25633 13.0307 7.25633 13.3493 7.57477C13.6678 7.89322 13.6678 8.40949 13.3493 8.72794L9.57756 12.4997L13.3493 16.2715C13.6678 16.5899 13.6678 17.1062 13.3493 17.4247C13.1895 17.5835 12.9807 17.6627 12.7721 17.6627Z" fill="white"/>
<path d="M11.9566 24.4561C5.36419 24.4561 0 19.092 0 12.4996C0 5.90716 5.36419 0.542969 11.9566 0.542969C16.9032 0.542969 21.2707 3.51903 23.0848 8.12572C23.25 8.54408 23.0434 9.01697 22.6251 9.18316C22.2065 9.34636 21.7336 9.14295 21.5674 8.72241C20.0011 4.74404 16.2283 2.1734 11.9566 2.1734C6.263 2.1734 1.63043 6.80617 1.63043 12.4996C1.63043 18.1929 6.263 22.8257 11.9566 22.8257C16.2283 22.8257 20.0011 20.2551 21.5674 16.2779C21.7326 15.8572 22.2055 15.6539 22.6251 15.8169C23.0434 15.9821 23.25 16.456 23.0848 16.8746C21.2707 21.4801 16.9032 24.4561 11.9566 24.4561Z" fill="white"/>
</g>
<defs>
<clipPath id="clip0">
<rect width="25" height="25" fill="white"/>
</clipPath>
</defs>
</svg>
