<svg width="180" height="31" viewBox="0 0 180 31" fill="none" xmlns="http://www.w3.org/2000/svg">
<rect x="33.32" y="4.39062" width="4.19556" height="20.8319" transform="rotate(-43.771 33.32 4.39062)" fill="white"/>
<rect x="28.2923" y="20.8555" width="4.19556" height="12.6644" transform="rotate(-43.771 28.2923 20.8555)" fill="white"/>
<rect x="11.7867" y="2.90234" width="4.19556" height="12.057" transform="rotate(-43.771 11.7867 2.90234)" fill="white"/>
<rect y="14.6855" width="4.19556" height="19.4169" transform="rotate(-45.0168 0 14.6855)" fill="white"/>
<rect x="33.71" y="4.01172" width="4.19556" height="31.3838" transform="rotate(45 33.71 4.01172)" fill="white"/>
<rect x="46.0226" y="15.2227" width="4.19556" height="12.7547" transform="rotate(45 46.0226 15.2227)" fill="white"/>
<rect x="14.6617" y="0.0214844" width="4.19556" height="18.4908" transform="rotate(45 14.6617 0.0214844)" fill="white"/>
<path d="M65.126 13.1464C62.3697 12.5839 61.1885 11.9652 61.1885 10.6152C61.1885 9.04022 62.5385 8.14022 64.9291 8.14022C67.1228 8.14022 68.5291 9.09646 69.4291 9.96834L70.6384 7.71835C68.4728 5.72148 65.7166 5.63711 64.9853 5.63711C60.9072 5.63711 58.6854 7.85897 58.6854 10.6996C58.6854 13.0621 60.0635 14.8058 64.9291 15.6214C67.3197 16.0433 68.9228 16.9152 68.9228 18.3214C68.9228 19.9808 67.4885 21.0495 64.8447 21.0495C62.7916 21.0495 60.7947 20.0933 59.3323 18.462L58.0948 20.712C58.3479 21.0214 60.5697 23.5526 64.7885 23.5526C68.8947 23.5526 71.4259 21.2464 71.4259 18.2089C71.4259 15.2558 69.3166 13.9339 65.126 13.1464Z" fill="white"/>
<path d="M85.3409 8.30897V5.83398H73.6972V8.30897H85.3409ZM80.7566 23.3558V9.71521H78.2535V23.3558H80.7566Z" fill="white"/>
<path d="M96.0163 17.0558C98.6038 16.3527 100.094 14.1589 100.094 11.4308C100.094 8.14022 97.985 5.83398 93.4288 5.83398H88.0288V8.33709H94.3007C96.1007 8.33709 97.5913 9.29334 97.5913 11.5996C97.5913 13.8496 96.0725 14.8058 94.2444 14.8058H88.0288V23.3558H90.5038V17.3089H93.2601L97.5913 23.3558H100.516L96.0163 17.0558Z" fill="white"/>
<path d="M106.848 23.3558V5.83398H104.373V23.3558H106.848Z" fill="white"/>
<path d="M111.644 23.3558H114.119V5.83398H111.644V23.3558ZM121.206 23.3558V20.8527H115.553V23.3558H121.206Z" fill="white"/>
<path d="M126.938 23.3558V5.83398H124.463V23.3558H126.938Z" fill="white"/>
<path d="M138.455 5.41211L130.13 23.3558H132.83L134.518 19.587L138.455 10.9527L142.365 19.587H142.393L144.08 23.3558H146.78L138.455 5.41211Z" fill="white"/>
<path d="M149.934 23.3558H152.409V13.4839L149.934 10.9808V23.3558ZM162 5.83398V17.8152L149.934 5.41211V8.87147L164.503 23.7495V5.83398H162Z" fill="white"/>
<path d="M179.275 8.30897V5.83398H167.631V8.30897H179.275ZM174.69 23.3558V9.71521H172.187V23.3558H174.69Z" fill="white"/>
</svg>
