<svg width="212" height="45" viewBox="0 0 212 45" fill="none" xmlns="http://www.w3.org/2000/svg">
<path d="M25.6504 45.0005L0 12.88V12.8798L12.8747 0.00506592H27.4641L25.7732 2.46544H13.8939L3.29567 13.0639L25.6675 41.079L34.7296 29.9312L36.6389 31.4834L25.6504 45.0005Z" fill="#182442"/>
<path d="M38.8273 29.1255L37.22 27.2105L49.0912 12.9719L37.6749 2.46495H30.6003V0.00457764H38.635L52.4801 12.7472L38.8273 29.1255Z" fill="#182442"/>
<path d="M16.3939 31.5259L11.7114 25.6063L29.7764 0H38.6351L16.3939 31.5259Z" fill="#182442"/>
<path d="M44.384 38.8574H35.1564L18.479 18.9818L26.3645 17.3821L44.384 38.8574Z" fill="#182442"/>
<path d="M67.45 36.7785C67.45 37.158 67.5093 37.4173 67.6299 37.5562C67.7498 37.6959 68.0127 37.8097 68.4181 37.8988V38.4112H62V37.8988C62.405 37.7972 62.6679 37.674 62.7882 37.5282C62.9085 37.3828 62.9688 37.1329 62.9688 36.7785V19.6331C62.9688 19.2528 62.9052 18.9907 62.7781 18.8445C62.6524 18.6995 62.3925 18.5824 62 18.4937V18H68.4181V18.4937C68.0382 18.5824 67.7818 18.6995 67.6489 18.8445C67.5161 18.9907 67.45 19.2528 67.45 19.6331V26.6199L75.6523 20.051L75.7087 20.013C76.1141 19.6837 76.3166 19.399 76.3166 19.158C76.3166 19.0191 76.2373 18.8894 76.0793 18.7688C75.9209 18.6489 75.7026 18.5569 75.4243 18.4937V18H84.0066V18.4937C82.766 19.2155 81.6647 19.9681 80.7027 20.7527C80.6517 20.7907 80.6198 20.8169 80.6076 20.8288L73.867 26.2404L81.9175 35.9239C82.2597 36.2277 82.636 36.5408 83.0475 36.8639C83.4586 37.1864 83.924 37.5315 84.4428 37.8988V38.4112H76.3924V37.8988C76.6962 37.7214 76.9148 37.5634 77.0477 37.4237C77.1802 37.2848 77.247 37.1329 77.247 36.9681C77.247 36.8291 77.1263 36.6198 76.8861 36.3415C76.7845 36.2277 76.7156 36.1454 76.6771 36.0948L70.5635 28.8796L67.45 31.2911V36.7785Z" fill="#182442"/>
<path d="M101.607 23.2785C101.607 22.8989 101.547 22.6364 101.426 22.4903C101.306 22.3452 101.056 22.2343 100.676 22.1582V21.6458H106.639L106.62 22.1582C106.252 22.2343 106.009 22.3388 105.889 22.4716C105.768 22.6041 105.702 22.8738 105.689 23.2785L105.651 32.1458C105.651 34.5509 104.989 36.2532 103.667 37.2529C102.344 38.2529 100.107 38.7531 96.9554 38.7531C93.8663 38.7531 91.6605 38.25 90.3381 37.2439C89.0152 36.2374 88.3542 34.5376 88.3542 32.1458V23.2785C88.3542 22.9118 88.2874 22.6519 88.1549 22.5C88.0213 22.3481 87.7649 22.2343 87.3857 22.1582V21.6458H93.3281V22.1582C92.9614 22.2343 92.7144 22.3452 92.588 22.4903C92.4612 22.6364 92.3981 22.8989 92.3981 23.2785V31.4047C92.3981 32.8984 92.7525 33.9584 93.4613 34.5853C94.1701 35.2119 95.3475 35.525 96.9931 35.525C98.6262 35.525 99.8032 35.1932 100.525 34.5282C101.246 33.864 101.607 32.7598 101.607 31.2154V23.2785Z" fill="#182442"/>
<path d="M117.785 36.7786C117.785 37.1455 117.851 37.4048 117.985 37.5563C118.117 37.7082 118.374 37.8231 118.753 37.8989V38.4113H112.81V37.8989C113.177 37.8231 113.424 37.7118 113.551 37.5664C113.677 37.4209 113.741 37.1581 113.741 36.7786V23.2785C113.741 22.8989 113.677 22.6364 113.551 22.4903C113.424 22.3452 113.177 22.2343 112.81 22.1582V21.6458H118.753V22.1582C118.374 22.2343 118.117 22.3481 117.985 22.5C117.851 22.6519 117.785 22.9118 117.785 23.2785V28.6139L123.975 23.7532C124.253 23.5506 124.431 23.3894 124.506 23.2691C124.583 23.1488 124.62 23.0127 124.62 22.8609C124.62 22.709 124.538 22.5661 124.374 22.4336C124.209 22.3007 123.994 22.2088 123.728 22.1582V21.6458H131.665V22.1582C130.5 22.8167 129.43 23.5506 128.456 24.3607C128.342 24.4498 128.272 24.5065 128.247 24.5316L123.196 28.424L129.69 35.9617C129.994 36.3164 130.348 36.6486 130.754 36.9585C131.158 37.2691 131.658 37.5825 132.253 37.8989V38.4113H124.867V37.9175C125.133 37.8669 125.336 37.7883 125.474 37.6802C125.614 37.5728 125.683 37.4306 125.683 37.2529C125.683 37.1394 125.645 37.0224 125.57 36.9021C125.493 36.7818 125.336 36.5818 125.095 36.3042L120.272 30.7598L117.785 32.6582V36.7786Z" fill="#182442"/>
<path d="M143.399 26.4308L140.798 31.8036H146.076L143.399 26.4308ZM141.292 23.7532C141.342 23.6523 141.383 23.5506 141.415 23.449C141.447 23.3481 141.463 23.2533 141.463 23.1646C141.463 22.9244 141.374 22.7215 141.197 22.5574C141.019 22.3926 140.754 22.2533 140.399 22.1391V21.6458H146.855V22.1582C146.488 22.2849 146.229 22.4142 146.076 22.5474C145.925 22.6799 145.849 22.8487 145.849 23.0508C145.849 23.1399 145.861 23.2311 145.887 23.3259C145.912 23.421 145.963 23.5632 146.039 23.7532L152.19 35.924C152.57 36.6708 152.886 37.161 153.139 37.3954C153.393 37.6299 153.709 37.7972 154.089 37.8989V38.4113H147.558V37.8989C147.924 37.7843 148.184 37.6579 148.336 37.519C148.488 37.3796 148.564 37.2091 148.564 37.0062C148.564 36.9179 148.551 36.8227 148.526 36.7211C148.5 36.6198 148.45 36.4809 148.374 36.3042L147.33 34.2148H139.583L138.614 36.3042C138.538 36.4809 138.488 36.6198 138.462 36.7211C138.437 36.8227 138.425 36.9179 138.425 37.0062C138.425 37.2216 138.497 37.3954 138.643 37.5283C138.788 37.6615 139.038 37.7843 139.393 37.8989V38.4113H133.525V37.8989C134.209 37.7082 134.779 37.133 135.235 36.171C135.285 36.0568 135.323 35.9746 135.348 35.924L141.292 23.7532Z" fill="#182442"/>
<path d="M162.803 35.2593H166.657C168.606 35.2593 170.09 34.8133 171.109 33.9203C172.128 33.0284 172.638 31.7278 172.638 30.0186C172.638 28.2976 172.135 27.0031 171.128 26.136C170.122 25.2692 168.632 24.8354 166.657 24.8354H162.803V35.2593ZM166.41 21.6458C170.005 21.6458 172.653 22.3258 174.356 23.6867C176.058 25.0476 176.91 27.1583 176.91 30.0186C176.91 32.8797 176.058 34.9936 174.356 36.3606C172.653 37.7276 170.005 38.4113 166.41 38.4113H157.828V37.8989C158.195 37.8231 158.442 37.7118 158.568 37.5664C158.695 37.4209 158.758 37.1581 158.758 36.7786V23.2785C158.758 22.8989 158.695 22.6364 158.568 22.4903C158.442 22.3452 158.195 22.2343 157.828 22.1582V21.6458H166.41Z" fill="#182442"/>
<path d="M186.804 36.7786C186.804 37.1455 186.87 37.4048 187.003 37.5563C187.135 37.7082 187.392 37.8231 187.772 37.8989V38.4113H181.829V37.8989C182.196 37.8231 182.443 37.7118 182.569 37.5664C182.696 37.4209 182.759 37.1581 182.759 36.7786V23.2785C182.759 22.8989 182.696 22.6364 182.569 22.4903C182.443 22.3452 182.196 22.2343 181.829 22.1582V21.6458H187.772V22.1582C187.392 22.2343 187.135 22.3481 187.003 22.5C186.87 22.6519 186.804 22.9118 186.804 23.2785V36.7786Z" fill="#182442"/>
<path d="M201.31 26.4308L198.709 31.8036H203.987L201.31 26.4308ZM199.203 23.7532C199.253 23.6523 199.294 23.5506 199.326 23.449C199.358 23.3481 199.374 23.2533 199.374 23.1646C199.374 22.9244 199.285 22.7215 199.108 22.5574C198.931 22.3926 198.665 22.2533 198.311 22.1391V21.6458H204.766V22.1582C204.399 22.2849 204.14 22.4142 203.987 22.5474C203.836 22.6799 203.76 22.8487 203.76 23.0508C203.76 23.1399 203.772 23.2311 203.798 23.3259C203.823 23.421 203.874 23.5632 203.95 23.7532L210.101 35.924C210.481 36.6708 210.797 37.161 211.051 37.3954C211.304 37.6299 211.62 37.7972 212 37.8989V38.4113H205.469V37.8989C205.835 37.7843 206.095 37.6579 206.247 37.519C206.399 37.3796 206.475 37.2091 206.475 37.0062C206.475 36.9179 206.462 36.8227 206.437 36.7211C206.411 36.6198 206.361 36.4809 206.285 36.3042L205.241 34.2148H197.494L196.525 36.3042C196.449 36.4809 196.399 36.6198 196.373 36.7211C196.348 36.8227 196.336 36.9179 196.336 37.0062C196.336 37.2216 196.408 37.3954 196.554 37.5283C196.699 37.6615 196.949 37.7843 197.304 37.8989V38.4113H191.437V37.8989C192.12 37.7082 192.69 37.133 193.146 36.171C193.196 36.0568 193.234 35.9746 193.259 35.924L199.203 23.7532Z" fill="#182442"/>
</svg>
