<svg width="601" height="553" viewBox="0 0 601 553" fill="none" xmlns="http://www.w3.org/2000/svg">
<path d="M150.08 528H25.64V25.48H119.48L300.36 283.88L480.56 25.48H575.08V528H449.28V286.6L323.48 462.72H275.88L150.08 286.6V528Z" fill="black"/>
<path d="M150.08 528V553H175.08V528H150.08ZM25.64 528H0.640004V553H25.64V528ZM25.64 25.48V0.479985H0.640004V25.48H25.64ZM119.48 25.48L139.961 11.1434L132.496 0.479985H119.48V25.48ZM300.36 283.88L279.879 298.217L300.399 327.53L320.866 298.18L300.36 283.88ZM480.56 25.48V0.479985H467.516L460.054 11.1797L480.56 25.48ZM575.08 25.48H600.08V0.479985H575.08V25.48ZM575.08 528V553H600.08V528H575.08ZM449.28 528H424.28V553H449.28V528ZM449.28 286.6H474.28V208.588L428.937 272.069L449.28 286.6ZM323.48 462.72V487.72H336.345L343.823 477.251L323.48 462.72ZM275.88 462.72L255.537 477.251L263.015 487.72H275.88V462.72ZM150.08 286.6L170.423 272.069L125.08 208.588V286.6H150.08ZM150.08 503H25.64V553H150.08V503ZM50.64 528V25.48H0.640004V528H50.64ZM25.64 50.48H119.48V0.479985H25.64V50.48ZM98.9992 39.8165L279.879 298.217L320.841 269.543L139.961 11.1434L98.9992 39.8165ZM320.866 298.18L501.066 39.7803L460.054 11.1797L279.854 269.58L320.866 298.18ZM480.56 50.48H575.08V0.479985H480.56V50.48ZM550.08 25.48V528H600.08V25.48H550.08ZM575.08 503H449.28V553H575.08V503ZM474.28 528V286.6H424.28V528H474.28ZM428.937 272.069L303.137 448.189L343.823 477.251L469.623 301.131L428.937 272.069ZM323.48 437.72H275.88V487.72H323.48V437.72ZM296.223 448.189L170.423 272.069L129.737 301.131L255.537 477.251L296.223 448.189ZM125.08 286.6V528H175.08V286.6H125.08Z" fill="black"/>
</svg>
