<svg width="24" height="24" viewBox="0 0 24 24" fill="none" xmlns="http://www.w3.org/2000/svg">
<path d="M21.5024 19.7915L20.4306 6.28603C20.3638 5.41594 19.6279 4.73433 18.7553 4.73433H16.6383V4.63917C16.6383 2.08111 14.5572 0 11.9991 0C9.44104 0 7.35993 2.08111 7.35993 4.63917V4.73433H5.24297C4.37029 4.73433 3.6344 5.41589 3.56784 6.2842L2.49572 19.7933C2.41275 20.8749 2.78798 21.9518 3.52514 22.7476C4.26229 23.5435 5.30728 24 6.39211 24H17.6061C18.6908 24 19.7359 23.5435 20.4731 22.7476C21.2102 21.9517 21.5854 20.8749 21.5024 19.7915ZM8.76572 4.63917C8.76572 2.85628 10.2163 1.40578 11.9991 1.40578C13.7819 1.40578 15.2325 2.85633 15.2325 4.63917V4.73433H8.76572V4.63917ZM19.4417 21.7924C18.9627 22.3095 18.3109 22.5942 17.6061 22.5942H6.39215C5.68734 22.5942 5.0355 22.3095 4.55653 21.7924C4.07761 21.2753 3.84351 20.6035 3.89732 19.9027L4.96936 6.39352C4.98023 6.25139 5.10042 6.14011 5.24297 6.14011H7.35993V7.87144C7.35993 8.25961 7.67465 8.57433 8.06282 8.57433C8.451 8.57433 8.76572 8.25961 8.76572 7.87144V6.14011H15.2325V7.87144C15.2325 8.25961 15.5472 8.57433 15.9354 8.57433C16.3236 8.57433 16.6383 8.25961 16.6383 7.87144V6.14011H18.7553C18.8978 6.14011 19.018 6.25144 19.029 6.39539L20.1008 19.9008C20.1547 20.6035 19.9206 21.2753 19.4417 21.7924Z" fill="black"/>
<path d="M15.1682 11.9197C14.8937 11.6452 14.4487 11.6452 14.1742 11.9197L11.0357 15.0583L9.82881 13.8515C9.55436 13.577 9.10928 13.577 8.83478 13.8515C8.56028 14.126 8.56028 14.571 8.83478 14.8455L10.5386 16.5493C10.6759 16.6866 10.8558 16.7553 11.0356 16.7553C11.2154 16.7553 11.3954 16.6866 11.5326 16.5493L15.1681 12.9138C15.4427 12.6393 15.4427 12.1942 15.1682 11.9197Z" fill="black"/>
</svg>
