<svg width="17" height="16" viewBox="0 0 17 16" fill="none" xmlns="http://www.w3.org/2000/svg">
<g clip-path="url(#clip0)">
<path d="M12.9867 9.91174C12.6589 9.57067 12.2635 9.38832 11.8445 9.38832C11.4288 9.38832 11.03 9.56729 10.6887 9.90836L9.62078 10.9721C9.53292 10.9248 9.44505 10.8809 9.36056 10.837C9.2389 10.7762 9.124 10.7188 9.026 10.658C8.02567 10.0232 7.1166 9.19583 6.24469 8.12535C5.82226 7.5918 5.53838 7.14267 5.33224 6.68679C5.60935 6.43352 5.86619 6.17012 6.11627 5.91685C6.2109 5.8223 6.30552 5.72437 6.40015 5.62982C7.10984 4.92066 7.10984 4.00215 6.40015 3.29299L5.47755 2.3711C5.37279 2.26641 5.26465 2.15835 5.16326 2.05029C4.96049 1.84092 4.74759 1.6248 4.52792 1.42219C4.20011 1.098 3.80809 0.925781 3.3958 0.925781C2.9835 0.925781 2.58473 1.098 2.24678 1.42219C2.2434 1.42556 2.2434 1.42556 2.24002 1.42894L1.091 2.58722C0.658429 3.01947 0.411728 3.54626 0.357656 4.15748C0.276549 5.14354 0.567183 6.06206 0.790228 6.66315C1.3377 8.13886 2.15553 9.50651 3.37552 10.9721C4.85573 12.7382 6.63671 14.1329 8.67115 15.1156C9.44843 15.4836 10.4859 15.9193 11.6451 15.9936C11.7161 15.9969 11.7904 16.0003 11.858 16.0003C12.6386 16.0003 13.2943 15.72 13.8079 15.1628C13.8113 15.1561 13.8181 15.1527 13.8215 15.1459C13.9972 14.9332 14.2 14.7407 14.4129 14.5347C14.5582 14.3963 14.7069 14.2511 14.8522 14.0991C15.1868 13.7513 15.3625 13.3461 15.3625 12.9307C15.3625 12.512 15.1834 12.1101 14.8421 11.7724L12.9867 9.91174ZM14.1966 13.4676C14.1932 13.4676 14.1932 13.471 14.1966 13.4676C14.0648 13.6095 13.9296 13.7378 13.7843 13.8796C13.5646 14.089 13.3416 14.3085 13.1321 14.555C12.7907 14.9197 12.3886 15.0919 11.8614 15.0919C11.8107 15.0919 11.7566 15.0919 11.7059 15.0885C10.7022 15.0244 9.76948 14.6327 9.06993 14.2983C7.15715 13.3731 5.47755 12.0595 4.08183 10.3946C2.92943 9.00673 2.15891 7.7235 1.64861 6.34572C1.33432 5.50487 1.21942 4.84975 1.27011 4.23178C1.30391 3.83668 1.45598 3.50912 1.73648 3.22883L2.88888 2.07731C3.05447 1.92197 3.23021 1.83755 3.40256 1.83755C3.61546 1.83755 3.78782 1.96587 3.89596 2.07393C3.89934 2.07731 3.90272 2.08068 3.9061 2.08406C4.11225 2.27655 4.30826 2.47578 4.5144 2.68853C4.61917 2.79659 4.72731 2.90465 4.83545 3.01609L5.75805 3.93798C6.11627 4.29594 6.11627 4.62687 5.75805 4.98483C5.66004 5.08276 5.56542 5.18069 5.46741 5.27524C5.18354 5.56565 4.91318 5.83581 4.61917 6.09921C4.61241 6.10596 4.60565 6.10934 4.60227 6.11609C4.31164 6.40651 4.36571 6.69017 4.42654 6.88265C4.42992 6.89278 4.4333 6.90291 4.43668 6.91304C4.67662 7.49387 5.01457 8.04093 5.52824 8.69267L5.53162 8.69605C6.46436 9.8442 7.44778 10.7391 8.53259 11.4246C8.67115 11.5124 8.81309 11.5833 8.94827 11.6508C9.06993 11.7116 9.18483 11.769 9.28284 11.8298C9.29635 11.8366 9.30987 11.8467 9.32339 11.8535C9.43829 11.9109 9.54643 11.9379 9.65796 11.9379C9.93845 11.9379 10.1142 11.7623 10.1716 11.7049L11.3274 10.55C11.4423 10.4352 11.6248 10.2967 11.8377 10.2967C12.0472 10.2967 12.2196 10.4284 12.3244 10.5432C12.3277 10.5466 12.3277 10.5466 12.3311 10.55L14.1932 12.4107C14.5413 12.7551 14.5413 13.1097 14.1966 13.4676Z" fill="white"/>
<path d="M8.9854 3.80573C9.87082 3.95431 10.6751 4.37305 11.3172 5.01466C11.9593 5.65627 12.375 6.45998 12.5271 7.34473C12.5643 7.56761 12.7569 7.72294 12.9766 7.72294C13.0036 7.72294 13.0273 7.71957 13.0543 7.71619C13.3044 7.67567 13.47 7.43928 13.4294 7.18939C13.2469 6.11891 12.74 5.14298 11.9661 4.36967C11.1922 3.59636 10.2155 3.08982 9.14423 2.90747C8.89415 2.86695 8.66097 3.03242 8.61704 3.27893C8.5731 3.52544 8.73532 3.76521 8.9854 3.80573Z" fill="white"/>
<path d="M16.3255 7.05794C16.0247 5.29519 15.1934 3.69116 13.916 2.41469C12.6385 1.13821 11.0333 0.307495 9.26918 0.00695018C9.02248 -0.0369496 8.7893 0.131896 8.74536 0.37841C8.70481 0.628302 8.8704 0.861308 9.12048 0.905208C10.6953 1.17198 12.1316 1.91828 13.2739 3.0563C14.4161 4.1977 15.1596 5.63288 15.4266 7.20652C15.4637 7.4294 15.6564 7.58474 15.876 7.58474C15.9031 7.58474 15.9267 7.58136 15.9538 7.57798C16.2005 7.54084 16.3694 7.30445 16.3255 7.05794Z" fill="white"/>
</g>
<defs>
<clipPath id="clip0">
<rect width="16.0121" height="16" fill="white" transform="translate(0.332031)"/>
</clipPath>
</defs>
</svg>
