<svg width="150" height="120" viewBox="0 0 150 120" fill="none" xmlns="http://www.w3.org/2000/svg">
<path d="M40.7896 60.9352C43.3784 54.2784 52.9629 63.7088 57.4316 69.2561V49.8405V34.1232C60.0207 23.3984 68.0637 27.4972 71.7616 30.8873V57.6992L75.9221 47.5292L84.7054 49.8405V57.6992L87.0167 49.8405L93.9509 47.5292C95.1836 51.9978 98.0189 59.7332 99.4982 54.9255C100.977 50.1178 107.203 54.7714 110.131 57.6992V87.7471L103.196 98.3794V110.399L84.7054 113.634C80.5449 113.326 71.3918 112.248 68.0634 110.399C64.7351 108.549 64.8275 100.074 65.2898 96.068L57.4316 90.0584L47.2615 76.6525C44.0256 74.187 38.2009 67.5919 40.7896 60.9352Z" fill="#D5E8FE"/>
<path d="M104.249 50.7219C102.981 50.7219 101.769 50.9652 100.656 51.4075C99.5274 47.2711 95.7368 44.2211 91.2474 44.2211C88.7522 44.2211 86.473 45.1631 84.7466 46.7101C83.0203 45.1631 80.7411 44.2211 78.2459 44.2211C77.1067 44.2211 76.0124 44.4175 74.9955 44.778V34.2533C74.9955 28.8766 70.6212 24.5022 65.2444 24.5022C59.8676 24.5022 55.4933 28.8766 55.4933 34.2533V62.9357C53.9242 61.3666 52.6366 60.0793 52.6366 60.0793C49.032 56.4744 43.1962 56.2683 39.3586 59.6032C35.5022 62.9355 34.8803 68.7435 37.9428 72.8257C37.9774 72.8721 38.0134 72.9174 38.0507 72.9616L52.5077 90.2278C54.0776 92.1026 56.3429 93.2645 58.3415 94.2895C59.7959 95.0353 61.994 96.1628 61.994 96.8781V106.195C61.994 111.572 66.3684 115.946 71.7451 115.946H97.7481C103.125 115.946 107.499 111.572 107.499 106.195V99.4775C107.499 98.1916 108.734 96.6425 110.041 95.0026C111.897 92.6745 114 90.0356 114 86.476V60.473C114 55.0962 109.626 50.7219 104.249 50.7219ZM104.957 90.9509C103.102 93.279 100.999 95.9179 100.999 99.4775V106.195C100.999 107.987 99.5404 109.445 97.7481 109.445H71.7451C69.9529 109.445 68.4948 107.987 68.4948 106.195V96.8778C68.4948 92.1906 64.341 90.0603 61.3078 88.5047C59.7877 87.725 58.216 86.9191 57.4918 86.0541L43.1002 68.8659C42.1279 67.5088 42.3449 65.614 43.6158 64.5158C44.8949 63.404 46.8384 63.4742 48.0399 64.6757C48.0399 64.6757 55.9154 72.5514 56.4471 73.0821C58.4862 75.1172 61.9938 73.6743 61.9938 70.7817V34.2533C61.9938 32.4611 63.4519 31.0029 65.2442 31.0029C67.0364 31.0029 68.4945 32.4611 68.4945 34.2533V60.473C68.4945 62.2681 69.9498 63.7234 71.7449 63.7234C73.54 63.7234 74.9953 62.2681 74.9953 60.473V53.9723C74.9953 52.18 76.4534 50.7219 78.2457 50.7219C80.0379 50.7219 81.496 52.18 81.496 53.9723V60.473C81.496 62.2681 82.9513 63.7234 84.7464 63.7234C86.5415 63.7234 87.9968 62.2681 87.9968 60.473V53.9723C87.9968 52.18 89.4549 50.7219 91.2472 50.7219C93.0394 50.7219 94.4975 52.18 94.4975 53.9723V60.473C94.4975 62.2681 95.9528 63.7234 97.7479 63.7234C99.543 63.7234 100.998 62.2681 100.998 60.473C100.998 58.6807 102.456 57.2226 104.249 57.2226C106.041 57.2226 107.499 58.6807 107.499 60.473V86.476H107.499C107.499 87.7618 106.265 89.311 104.957 90.9509Z" fill="#007AFF"/>
<path d="M65.2445 5C63.4494 5 61.9941 6.4553 61.9941 8.25037V14.7511C61.9941 16.5462 63.4494 18.0015 65.2445 18.0015C67.0396 18.0015 68.4949 16.5462 68.4949 14.7511V8.25037C68.4949 6.4553 67.0396 5 65.2445 5Z" fill="#007AFF"/>
<path d="M82.8425 10.1544C81.5733 8.88505 79.5152 8.88505 78.2458 10.1544L73.6493 14.7511C72.3799 16.0205 72.3799 18.0784 73.6493 19.3478C74.9182 20.6172 76.9766 20.6172 78.2458 19.3478L82.8425 14.7511C84.1118 13.4817 84.1118 11.4238 82.8425 10.1544Z" fill="#007AFF"/>
<path d="M56.8387 14.7511L52.2421 10.1544C50.9729 8.88505 48.9148 8.88505 47.6454 10.1544C46.376 11.4238 46.376 13.4817 47.6454 14.7511L52.2421 19.3478C53.5112 20.6172 55.5696 20.6172 56.8387 19.3478C58.1081 18.0784 58.1081 16.0205 56.8387 14.7511Z" fill="#007AFF"/>
<path d="M87.9972 24.5022H81.4965C79.7014 24.5022 78.2461 25.9575 78.2461 27.7526C78.2461 29.5476 79.7014 31.0029 81.4965 31.0029H87.9972C89.7923 31.0029 91.2476 29.5476 91.2476 27.7526C91.2476 25.9575 89.7923 24.5022 87.9972 24.5022Z" fill="#007AFF"/>
<path d="M48.9914 24.5022H42.4906C40.6955 24.5022 39.2402 25.9575 39.2402 27.7526C39.2402 29.5476 40.6955 31.0029 42.4906 31.0029H48.9914C50.7864 31.0029 52.2417 29.5476 52.2417 27.7526C52.2417 25.9575 50.7864 24.5022 48.9914 24.5022Z" fill="#007AFF"/>
</svg>
