<svg width="78" height="78" viewBox="0 0 78 78" fill="none" xmlns="http://www.w3.org/2000/svg">
<circle cx="39" cy="39" r="39" fill="rgba(219, 241, 220, 0.5)"/>
<g clip-path="url(#clip0)">
<path d="M54.479 39.8771L47.502 36.5053V27.5337C47.502 27.1719 47.2938 26.8424 46.9671 26.687L39.4046 23.0909C39.1489 22.9692 38.8519 22.9697 38.5967 23.0922L31.0967 26.6884C30.7758 26.8423 30.5653 27.1714 30.5646 27.5313C30.5646 27.5321 30.5646 27.5329 30.5646 27.5337V36.4851L23.5322 39.8767C23.2127 40.0308 23.002 40.3591 23.002 40.7211V50.2612C23.002 50.6153 23.2015 50.9392 23.5178 51.0985L31.0654 54.8997C31.3511 55.0436 31.7261 55.0392 32.0206 54.8432L39.0011 51.3122L46.0626 54.8983C46.3479 55.0432 46.7212 55.0396 47.0157 54.8462L54.4911 51.0993C54.8083 50.9404 54.9961 50.616 54.9961 50.2612V40.7211C54.9961 40.3615 54.8006 40.0326 54.479 39.8771ZM30.5644 52.5481L24.8769 49.6836V42.243L30.5644 45.1075V52.5481ZM31.4862 43.4723L26.0598 40.7393L31.5 38.1155L36.8893 40.7391L31.4862 43.4723ZM38.0644 49.6848L32.4394 52.5301V45.0913L38.0644 42.246V49.6848ZM38.0644 39.2228L32.4394 36.4872V29.0599L38.0644 31.9109V39.2228ZM33.6217 27.557L39.0036 24.9764L44.4142 27.5493L39.0026 30.2842L33.6217 27.557ZM45.6269 29.0372V36.4666L39.9394 39.2246V31.9115L45.6269 29.0372ZM45.5644 52.5424L39.9394 49.6858V42.2487L45.5644 45.1053V52.5424ZM46.4898 43.4724L41.118 40.7443L46.5437 38.1247L51.9482 40.7365L46.4898 43.4724ZM53.1335 49.6824L47.4394 52.5364V45.0938L53.1335 42.2397V49.6824Z" fill="#033603"/>
</g>
<defs>
<clipPath id="clip0">
<rect width="32" height="32" fill="white" transform="translate(23 23)"/>
</clipPath>
</defs>
</svg>
