<svg width="15" height="15" viewBox="0 0 15 15" fill="none" xmlns="http://www.w3.org/2000/svg">
<g clip-path="url(#clip0)">
<path d="M11.0894 9.29358L12.2025 8.32171C12.3975 8.15171 12.4181 7.85546 12.2475 7.66046C12.0775 7.46546 11.7813 7.44546 11.5856 7.61546L9.535 9.40546C9.43375 9.49421 9.375 9.62296 9.375 9.75858C9.375 9.89421 9.43375 10.023 9.53562 10.1117L11.5863 11.9011C11.6756 11.9786 11.785 12.0167 11.8944 12.0167C12.025 12.0167 12.155 11.9623 12.2475 11.8561C12.4175 11.6611 12.3975 11.3648 12.2025 11.1948L11.1038 10.2361C12.7425 10.2855 14.0619 11.6536 14.0619 13.3373V14.5304C14.0619 14.7892 14.2719 14.9992 14.5306 14.9992C14.7894 14.9992 15 14.7898 15 14.5311V13.338C15 11.1311 13.2525 9.33421 11.0894 9.29358Z" fill="black"/>
<path d="M5.7625 0L2.725 0.0125C2.33125 0.0125 1.9625 0.23125 1.775 0.575L0.1875 3.45L5.45625 3.4375L5.7625 0Z" fill="black"/>
<path d="M12.2992 3.42578L10.693 0.550781C10.4992 0.207031 10.1367 -0.0117188 9.73672 -0.0117188L6.69922 0.000781248L7.01797 3.43828L12.2992 3.42578Z" fill="black"/>
<path d="M12.5004 6.36172C12.3129 6.28672 12.1066 6.24922 11.8941 6.24922C11.4816 6.24922 11.0816 6.39922 10.7629 6.67422L8.71289 8.46172C8.33789 8.78672 8.12539 9.26172 8.12539 9.75547C8.12539 10.2555 8.33789 10.7242 8.71289 11.0555L10.3629 12.493L1.00664 12.518C1.00039 12.518 1.00039 12.518 1.00039 12.518C0.462891 12.518 0.0191406 12.0742 0.0191406 11.5305L-0.00585938 4.38672L5.77539 4.37422H6.71289L12.4941 4.35547L12.5004 6.36172Z" fill="black"/>
</g>
<defs>
<clipPath id="clip0">
<rect width="15" height="15" fill="white"/>
</clipPath>
</defs>
</svg>
