<svg width="144" height="144" viewBox="0 0 144 144" fill="none" xmlns="http://www.w3.org/2000/svg">
<g clip-path="url(#clip0)">
<path d="M136.616 8.44727H91.7189C87.6427 8.44727 84.3345 11.7555 84.3345 15.8316V60.7284C84.3345 64.8047 87.6427 68.1127 91.7189 68.1127H113.207C112.927 79.8688 110.194 89.2763 105.025 96.3505C100.949 101.933 94.7761 106.556 86.5203 110.203C82.7247 111.872 81.0854 116.362 82.8577 120.113L88.1744 131.338C89.8876 134.941 94.1262 136.521 97.7888 134.941C107.566 130.717 115.822 125.371 122.556 118.873C130.767 110.942 136.394 101.992 139.436 92.0085C142.479 82.0248 144 68.4081 144 51.1288V15.8316C144 11.7556 140.692 8.44727 136.616 8.44727Z" fill="#DBF1DC" fill-opacity="0.3"/>
<path d="M15.6602 134.912C25.3189 130.702 33.5303 125.356 40.3091 118.873C48.5943 110.942 54.2507 102.022 57.2931 92.1119C60.3354 82.2021 61.8565 68.5411 61.8565 51.1288V15.8316C61.8565 11.7555 58.5484 8.44727 54.4721 8.44727H9.57532C5.49916 8.44727 2.19097 11.7555 2.19097 15.8316V60.7284C2.19097 64.8047 5.49916 68.1128 9.57532 68.1128H31.0638C30.7831 79.8688 28.0509 89.2763 22.8819 96.3505C18.8057 101.933 12.6324 106.556 4.37674 110.204C0.581188 111.872 -1.05814 116.362 0.714106 120.113L6.01606 131.308C7.72938 134.912 11.9975 136.507 15.6602 134.912Z" fill="#DBF1DC" fill-opacity="0.3"/>
</g>
<defs>
<clipPath id="clip0">
<rect width="144" height="144" fill="white"/>
</clipPath>
</defs>
</svg>
