<svg width="16" height="16" viewBox="0 0 16 16" fill="none" xmlns="http://www.w3.org/2000/svg">
<g clip-path="url(#clip0)">
<path d="M12.9121 0.599609C12.403 0.599609 3.65003 0.599609 3.08882 0.599609L0 4.81161L8.03319 15.3993L16 4.81039L12.9121 0.599609ZM4.3916 5.27434L6.65486 12.0359L1.52465 5.27434H4.3916ZM5.37757 5.27434H10.6261L8.01985 13.1683L5.37757 5.27434ZM11.6107 5.27434H14.481L9.36633 12.0723L11.6107 5.27434ZM12.4383 1.53456L14.4951 4.3394H11.6114L10.691 1.53456H12.4383ZM9.70703 1.53456L10.6274 4.3394H5.37352L6.29385 1.53456H9.70703ZM3.56259 1.53456H5.30981L4.38948 4.3394H1.5057L3.56259 1.53456Z" fill="#033603"/>
</g>
<defs>
<clipPath id="clip0">
<rect width="16" height="16" fill="white"/>
</clipPath>
</defs>
</svg>
