<svg width="391" height="161" viewBox="0 0 391 161" fill="none" xmlns="http://www.w3.org/2000/svg">
<path d="M1 158.437C31.6667 161.104 105.4 150.837 155 88.4371C217 10.4371 309 -5.56292 382 15.4371" stroke="black" stroke-width="3" stroke-linejoin="round" stroke-dasharray="8 6"/>
<path d="M388.849 13.4636L365.802 0.201641C365.435 -0.00668517 364.969 0.055773 364.673 0.361032C364.375 0.666125 364.324 1.13325 364.549 1.4947L371.507 12.7492L362.651 22.5804C362.365 22.8959 362.332 23.3665 362.569 23.7179C362.728 23.9578 362.986 24.1022 363.257 24.1267C363.389 24.1385 363.523 24.1226 363.652 24.0764L388.696 15.1429C389.039 15.0209 389.277 14.7123 389.309 14.3516C389.342 13.9909 389.162 13.6448 388.849 13.4636Z" fill="black"/>
</svg>
