<svg width="9" height="12" viewBox="0 0 9 12" fill="none" xmlns="http://www.w3.org/2000/svg">
<path d="M0.542643 4.88337H8.13897C8.28593 4.88337 8.41314 4.82972 8.52049 4.72231C8.62777 4.61493 8.68164 4.48778 8.68164 4.34082C8.68164 4.19386 8.6278 4.06677 8.52049 3.95924L4.72231 0.161065C4.61499 0.053807 4.48787 0 4.34082 0C4.19377 0 4.06665 0.053807 3.95924 0.161065L0.161065 3.95924C0.0536586 4.06665 0 4.19386 0 4.34082C0 4.48775 0.0536586 4.61493 0.161065 4.72231C0.26859 4.82972 0.395713 4.88337 0.542643 4.88337Z" fill="#033603"/>
<path d="M8.13897 7.05469H0.542643C0.395595 7.05469 0.268471 7.10838 0.161065 7.21566C0.0536586 7.32307 0 7.45019 0 7.59715C0 7.74411 0.0536586 7.87132 0.161065 7.97867L3.95924 11.7768C4.06677 11.8842 4.19389 11.938 4.34082 11.938C4.48775 11.938 4.61499 11.8842 4.72231 11.7768L8.52049 7.97864C8.62777 7.87132 8.68164 7.74411 8.68164 7.59712C8.68164 7.45019 8.6278 7.32307 8.52049 7.21563C8.41317 7.10826 8.28593 7.05469 8.13897 7.05469Z" fill="#033603"/>
</svg>
