<svg width="21" height="20" viewBox="0 0 21 20" fill="none" xmlns="http://www.w3.org/2000/svg">
<g clip-path="url(#clip0)">
<path d="M20.0786 3.79875C19.3343 4.125 18.5412 4.34125 17.7143 4.44625C18.565 3.93875 19.2142 3.14125 19.5195 2.18C18.7264 2.6525 17.8507 2.98625 16.9175 3.1725C16.1644 2.37125 15.0911 1.875 13.9202 1.875C11.6485 1.875 9.81962 3.7175 9.81962 5.97625C9.81962 6.30125 9.84714 6.61375 9.91469 6.91125C6.50335 6.745 3.48482 5.11125 1.45703 2.6225C1.10301 3.23625 0.895357 3.93875 0.895357 4.695C0.895357 6.115 1.62716 7.37375 2.71799 8.1025C2.05874 8.09 1.412 7.89875 0.864083 7.5975C0.864083 7.61 0.864083 7.62625 0.864083 7.6425C0.864083 9.635 2.28641 11.29 4.15157 11.6712C3.81757 11.7625 3.45354 11.8062 3.07576 11.8062C2.81306 11.8062 2.54786 11.7913 2.29892 11.7362C2.83057 13.36 4.33922 14.5538 6.13307 14.5925C4.73702 15.6838 2.96442 16.3412 1.04547 16.3412C0.708966 16.3412 0.386221 16.3263 0.0634766 16.285C1.8811 17.4563 4.03524 18.125 6.35824 18.125C13.909 18.125 18.0371 11.875 18.0371 6.4575C18.0371 6.27625 18.0308 6.10125 18.0221 5.9275C18.8364 5.35 19.5207 4.62875 20.0786 3.79875Z" fill="#EBEBEB"/>
</g>
<defs>
<clipPath id="clip0">
<rect width="20.0152" height="20" fill="white" transform="translate(0.0634766)"/>
</clipPath>
</defs>
</svg>
