<svg width="20" height="20" viewBox="0 0 20 20" fill="none" xmlns="http://www.w3.org/2000/svg">
<path d="M9.9999 11.2656C3.99064 11.2656 0.681152 14.1084 0.681152 19.2705C0.681152 19.6737 1.00791 20.0004 1.41107 20.0004H18.5887C18.9919 20.0004 19.3186 19.6737 19.3186 19.2705C19.3187 14.1087 16.0092 11.2656 9.9999 11.2656ZM2.16756 18.5406C2.45467 14.681 5.08604 12.7255 9.9999 12.7255C14.9138 12.7255 17.5452 14.681 17.8325 18.5406H2.16756Z" fill="black"/>
<path d="M10 0C7.23969 0 5.1582 2.12336 5.1582 4.93895C5.1582 7.83699 7.33024 10.1944 10 10.1944C12.6699 10.1944 14.8419 7.83699 14.8419 4.93918C14.8419 2.12336 12.7604 0 10 0ZM10 8.7348C8.13508 8.7348 6.61805 7.03211 6.61805 4.93918C6.61805 2.92313 8.04043 1.45984 10 1.45984C11.9283 1.45984 13.382 2.95547 13.382 4.93918C13.382 7.03211 11.865 8.7348 10 8.7348Z" fill="black"/>
</svg>
