<svg width="38" height="38" viewBox="0 0 38 38" fill="none" xmlns="http://www.w3.org/2000/svg">
<path d="M19 0.5C8.77877 0.5 0.5 8.77877 0.5 19C0.5 29.2211 8.77877 37.4999 19 37.4999C29.2211 37.4999 37.5 29.2212 37.5 19C37.5 8.77869 29.2212 0.5 19 0.5ZM19 6.05C22.0617 6.05 24.55 8.53822 24.55 11.6C24.55 14.671 22.0617 17.15 19 17.15C15.9382 17.15 13.45 14.671 13.45 11.6C13.45 8.53822 15.9383 6.05 19 6.05ZM19 32.3199C14.3657 32.3199 10.2957 29.9519 7.89997 26.363C7.94619 22.6907 15.3092 20.665 19 20.665C22.6907 20.665 30.0445 22.6907 30.1 26.363C27.7043 29.952 23.6342 32.3199 19 32.3199Z" fill="#007aff4d"/>
</svg>
