<svg width="40" height="40" viewBox="0 0 40 40" fill="none" xmlns="http://www.w3.org/2000/svg">
<circle cx="20" cy="20" r="20" fill="#1BD741"/>
<g clip-path="url(#clip0)">
<path d="M24.5893 21.9228L24.5818 21.9853C22.7493 21.072 22.5576 20.9503 22.3209 21.3053C22.1568 21.5511 21.6784 22.1086 21.5343 22.2736C21.3884 22.4361 21.2434 22.4486 20.9959 22.3361C20.7459 22.2111 19.9434 21.9486 18.9934 21.0986C18.2534 20.4361 17.7568 19.6236 17.6101 19.3736C17.3659 18.952 17.8768 18.892 18.3418 18.012C18.4251 17.837 18.3826 17.6995 18.3209 17.5753C18.2584 17.4503 17.7609 16.2253 17.5526 15.737C17.3526 15.2503 17.1468 15.312 16.9926 15.312C16.5126 15.2703 16.1618 15.277 15.8526 15.5986C14.5076 17.077 14.8468 18.602 15.9976 20.2236C18.2593 23.1836 19.4643 23.7286 21.6676 24.4853C22.2626 24.6745 22.8051 24.6478 23.2343 24.5861C23.7126 24.5103 24.7068 23.9853 24.9143 23.3978C25.1268 22.8103 25.1268 22.3228 25.0643 22.2103C25.0026 22.0978 24.8393 22.0353 24.5893 21.9228Z" fill="white"/>
<path d="M27.1 12.874C20.6925 6.67987 10.0883 11.1724 10.0842 19.9107C10.0842 21.6574 10.5417 23.3607 11.4133 24.8649L10 29.9999L15.2792 28.6232C21.8667 32.1815 29.9967 27.4565 30 19.9157C30 17.269 28.9667 14.7782 27.0875 12.9065L27.1 12.874ZM28.335 19.8882C28.33 26.249 21.3475 30.2215 15.825 26.9749L15.525 26.7965L12.4 27.609L13.2375 24.5715L13.0383 24.259C9.60167 18.7882 13.55 11.6382 20.06 11.6382C22.2717 11.6382 24.3475 12.5007 25.9108 14.0632C27.4733 15.6124 28.335 17.6882 28.335 19.8882Z" fill="white"/>
</g>
<defs>
<clipPath id="clip0">
<rect width="20" height="20" fill="white" transform="translate(10 10)"/>
</clipPath>
</defs>
</svg>
