<svg width="19" height="19" viewBox="0 0 19 19" fill="none" xmlns="http://www.w3.org/2000/svg">
<g clip-path="url(#clip0)">
<path d="M17.7033 4.80633C17.5085 4.08236 16.9377 3.51167 16.2139 3.31672C14.8915 2.9549 9.60171 2.9549 9.60171 2.9549C9.60171 2.9549 4.31217 2.9549 2.98975 3.30301C2.27981 3.49774 1.69509 4.08247 1.50035 4.80633C1.15234 6.12864 1.15234 8.87093 1.15234 8.87093C1.15234 8.87093 1.15234 11.627 1.50035 12.9355C1.69529 13.6594 2.26589 14.2301 2.98986 14.425C4.32609 14.787 9.60191 14.787 9.60191 14.787C9.60191 14.787 14.8915 14.787 16.2139 14.4389C16.9378 14.244 17.5085 13.6733 17.7035 12.9495C18.0514 11.627 18.0514 8.88486 18.0514 8.88486C18.0514 8.88486 18.0653 6.12864 17.7033 4.80633ZM7.91757 11.4044V6.33751L12.3163 8.87093L7.91757 11.4044Z" fill="white"/>
</g>
<defs>
<clipPath id="clip0">
<rect width="18.0258" height="18.0258" fill="white" transform="translate(0.595703 0.0171661)"/>
</clipPath>
</defs>
</svg>
