<svg width="35" height="35" viewBox="0 0 35 35" fill="none" xmlns="http://www.w3.org/2000/svg">
<g clip-path="url(#clip0)">
<path d="M32.7564 6.2821H2.24362C1.0042 6.2821 0 5.2779 0 4.03854C0 2.79919 1.0042 1.79492 2.24362 1.79492H32.7564C33.9958 1.79492 35 2.79912 35 4.03854C35 5.27797 33.9958 6.2821 32.7564 6.2821Z" fill="white"/>
<path d="M20.1923 19.7437H2.24362C1.0042 19.7437 0 18.7394 0 17.5001C0 16.2607 1.0042 15.2565 2.24362 15.2565H20.1923C21.4317 15.2565 22.436 16.2607 22.436 17.5001C22.436 18.7395 21.4317 19.7437 20.1923 19.7437Z" fill="white"/>
<path d="M32.7565 19.7436H29.1668C27.9274 19.7436 26.9232 18.7394 26.9232 17.5C26.9232 16.2605 27.9274 15.2563 29.1668 15.2563H32.7565C33.9959 15.2563 35.0001 16.2605 35.0001 17.5C35.0001 18.7394 33.9959 19.7436 32.7565 19.7436Z" fill="white"/>
<path d="M32.7564 33.2051H2.24362C1.0042 33.2051 0 32.2009 0 30.9615C0 29.7222 1.0042 28.7179 2.24362 28.7179H32.7564C33.9958 28.7179 35 29.7221 35 30.9615C35 32.2009 33.9958 33.2051 32.7564 33.2051Z" fill="white"/>
</g>
<defs>
<clipPath id="clip0">
<rect width="35" height="35" fill="white"/>
</clipPath>
</defs>
</svg>
