<svg width="32" height="39" viewBox="0 0 32 39" fill="none" xmlns="http://www.w3.org/2000/svg">
<path d="M6.3359 29.1565C8.90601 32.2468 12.1063 34.7528 15.7227 36.5069C17.0563 37.1447 18.8366 37.8928 20.7806 38.0171C20.892 38.0245 21.0033 38.0245 21.1025 38.0245C22.2089 38.0245 23.1007 37.646 23.8288 36.8674C23.8345 36.8613 23.84 36.8552 23.8454 36.8489C24.2144 36.4243 24.6055 36.0194 25.0171 35.6359L25.1581 35.4985C25.3777 35.285 25.5851 35.0833 25.7931 34.8595C26.6252 33.9921 26.6186 33.0157 25.7766 32.1818L22.3375 28.7425L22.3323 28.7374C22.1158 28.503 21.6702 28.1223 21.0587 28.1223C20.6076 28.1223 20.1546 28.3368 19.7489 28.7425L17.6142 30.8772C17.5309 30.9606 17.3357 31.1557 17.0328 31.1557C16.9015 31.1535 16.7726 31.1205 16.6565 31.0592L16.6528 31.0569C16.6353 31.046 16.6176 31.0353 16.6 31.0256C16.4023 30.9041 16.1844 30.7955 15.9543 30.6802C15.707 30.5617 15.4659 30.4307 15.2319 30.2876C13.2771 29.0514 11.5052 27.4383 9.81498 25.3559C9.80978 25.3495 9.80429 25.3431 9.79872 25.3369C8.8865 24.1764 8.29253 23.209 7.87646 22.2062L7.86503 22.1717C7.76023 21.8381 7.75956 21.5853 8.06267 21.2822C8.06757 21.2772 8.07232 21.2722 8.07707 21.2673L8.07907 21.2654C8.61345 20.7858 9.09802 20.304 9.65993 19.729C9.78314 19.6099 9.90389 19.4878 10.0208 19.3695C10.0793 19.3102 10.1383 19.2508 10.1976 19.1914C11.0586 18.3305 11.0586 17.3826 10.1976 16.5218L8.49633 14.8205C8.39737 14.7184 8.29861 14.6176 8.20005 14.5181C8.10109 14.4176 8.00327 14.3177 7.90659 14.2184C7.4923 13.7904 7.14036 13.4344 6.77104 13.0891L6.75828 13.0763C6.37286 12.691 5.93074 12.4873 5.47971 12.4873C5.03329 12.4873 4.58233 12.6893 4.17539 13.0713C4.17138 13.075 4.16745 13.0787 4.16366 13.0826L2.03507 15.2107C1.44154 15.7879 1.08137 16.5635 1.02332 17.3894C0.922161 18.6237 1.14734 19.898 1.75297 21.5194C2.71632 24.1224 4.1719 26.5486 6.3359 29.1565ZM20.4837 29.4773C20.6016 29.3593 20.8333 29.1614 21.0588 29.1614C21.2881 29.1614 21.4952 29.3618 21.5737 29.4475C21.5797 29.4541 21.5859 29.4606 21.5924 29.4669L25.0436 32.9181C25.4757 33.3459 25.4814 33.6742 25.0608 34.1214C25.0411 34.1394 25.0228 34.1589 25.006 34.1797C24.9875 34.1994 24.9679 34.2183 24.9492 34.2379L20.336 29.6246L20.4837 29.4773ZM4.89182 13.8232C5.10053 13.6287 5.30366 13.5263 5.47934 13.5263C5.69354 13.5263 5.89333 13.6811 6.02218 13.81L6.04192 13.8298C6.04615 13.8339 6.05031 13.838 6.05461 13.842C6.41041 14.1744 6.75368 14.5218 7.15973 14.9412C7.25819 15.0428 7.35799 15.1447 7.45913 15.2469C7.5565 15.3459 7.65442 15.4458 7.75288 15.5468C7.75466 15.5487 7.75659 15.5505 7.75838 15.5525L9.46266 17.2564C9.92282 17.7165 9.92282 17.9966 9.46266 18.4566C9.41331 18.506 9.36454 18.5554 9.31571 18.605L4.71325 14.002L4.89182 13.8232ZM2.05875 17.4761C2.09689 16.8951 2.35043 16.3493 2.76976 15.9454L3.97849 14.7367L8.58324 19.3415C8.16962 19.759 7.78821 20.1305 7.37979 20.4966L7.37756 20.4986C7.35038 20.5211 7.32526 20.5459 7.30252 20.5728C6.52397 21.3748 6.78804 22.2109 6.87547 22.4877C6.87621 22.4903 6.87703 22.4927 6.87792 22.4951L6.8967 22.5516C6.90046 22.563 6.90466 22.5743 6.90931 22.5856C7.36613 23.692 8.01013 24.7445 8.99746 25.9981C9.00547 26.0082 9.01371 26.018 9.0224 26.0278C10.7809 28.1908 12.6305 29.8715 14.6762 31.1652C14.9396 31.3271 15.2112 31.4753 15.4898 31.6093C15.7036 31.7162 15.9054 31.8171 16.0662 31.9169C16.0761 31.923 16.0862 31.9288 16.0966 31.9343L16.102 31.9377C16.1288 31.9546 16.1562 31.9706 16.1826 31.9838C16.4453 32.1205 16.7368 32.1928 17.0329 32.1947C17.5195 32.1947 17.9623 31.9986 18.349 31.6118L19.6013 30.3596L24.211 34.9691C23.8079 35.3484 23.4243 35.748 23.0617 36.1663C22.5284 36.7326 21.9235 36.9854 21.1023 36.9854C21.0158 36.9854 20.9263 36.9854 20.8484 36.9802C19.0807 36.8672 17.42 36.1673 16.1731 35.5706C12.6906 33.8808 9.60898 31.4672 7.13397 28.4911C5.04902 25.9781 3.64881 23.6482 2.72686 21.1573C2.17683 19.6846 1.97087 18.5487 2.05875 17.4761Z" fill="#033603" stroke="#033603" stroke-width="0.2"/>
<path d="M15.5156 15.1784L21.0868 18.3928C21.1665 18.4384 21.2567 18.4624 21.3485 18.4624C21.4403 18.4624 21.5305 18.4384 21.6101 18.3928L27.1674 15.1784C27.2452 15.1323 27.3094 15.0663 27.3535 14.9873C27.3975 14.9082 27.4197 14.8189 27.418 14.7285V8.30114C27.4199 8.21072 27.3977 8.12142 27.3538 8.04237C27.3099 7.96332 27.2457 7.89735 27.1679 7.85123L21.6066 4.63748C21.5281 4.59189 21.4389 4.56787 21.3481 4.56787C21.2573 4.56787 21.1681 4.59189 21.0896 4.63748L15.5147 7.85115C15.4346 7.89626 15.3677 7.96151 15.3206 8.04044C15.2735 8.11937 15.2478 8.20924 15.2461 8.30114V14.7285C15.248 14.8204 15.2739 14.9103 15.3211 14.9892C15.3684 15.0681 15.4354 15.1333 15.5156 15.1784ZM26.3789 14.4286L21.8516 17.0431V11.8146L26.3789 9.2006V14.4286ZM25.8786 8.30092L21.3513 10.9148L19.5524 9.87621L24.0798 7.26245L25.8786 8.30092ZM21.3513 5.68731L23.0403 6.66254L18.513 9.2763L16.8238 8.30107L21.3513 5.68731ZM16.2852 9.20082L20.8125 11.8146V17.0428L16.2852 14.4286V9.20082Z" fill="#033603" stroke="#033603" stroke-width="0.2"/>
<path d="M15.6954 20.3807L14.7683 23.8068C14.7404 23.9099 14.7449 24.019 14.7813 24.1194C14.8176 24.2197 14.884 24.3065 14.9714 24.3678C15.0588 24.4291 15.1629 24.462 15.2697 24.462C15.3764 24.4621 15.4806 24.4292 15.568 24.3679L19.2142 21.8126C19.9173 21.9573 20.6334 22.0301 21.3513 22.0299C27.149 22.0299 31.8658 17.3127 31.8658 11.5146C31.8658 5.71645 27.149 1 21.3513 1C15.5535 1 10.8359 5.71675 10.8359 11.5146C10.8351 13.2818 11.28 15.0207 12.1293 16.5704C12.9787 18.1202 14.2053 19.4306 15.6954 20.3807ZM21.3509 2.03906C22.6849 2.04056 24.0036 2.32372 25.2207 2.87001C26.4377 3.4163 27.5257 4.21342 28.4134 5.2092C29.3012 6.20498 29.9686 7.37698 30.3722 8.64852C30.7757 9.92006 30.9062 11.2625 30.7552 12.5879C30.6041 13.9134 30.1749 15.192 29.4956 16.3401C28.8163 17.4883 27.9022 18.48 26.8132 19.2505C25.7242 20.021 24.4847 20.5529 23.1759 20.8113C21.8672 21.0697 20.5186 21.0489 19.2184 20.7502C19.1475 20.734 19.074 20.7327 19.0026 20.7467C18.9312 20.7606 18.8635 20.7893 18.8038 20.831L16.1454 22.6939L16.7995 20.2765C16.8293 20.1665 16.822 20.0498 16.7789 19.9443C16.7359 19.8388 16.6593 19.7504 16.561 19.6927C14.7656 18.6407 13.3663 17.0271 12.5791 15.1007C11.792 13.1744 11.6608 11.0425 12.2057 9.03421C12.7507 7.02589 13.9415 5.25276 15.5944 3.98852C17.2473 2.72428 19.2703 2.03921 21.3513 2.03906H21.3509Z" fill="#033603" stroke="#033603" stroke-width="0.2"/>
</svg>
