<svg width="31" height="39" viewBox="0 0 31 39" fill="none" xmlns="http://www.w3.org/2000/svg">
<path d="M30.8783 28.7751L30.8606 28.7444C29.4082 26.2293 26.2253 25.3343 23.6143 26.7069L19.2322 29.0106C19.0876 28.1281 18.5477 27.3667 17.6991 26.8768L13.9889 24.7347C13.4621 24.3644 12.8455 24.1691 12.202 24.1691H7.02579V23.1896C7.02579 22.6879 6.6191 22.2812 6.11746 22.2812H0.908335C0.406692 22.2812 0 22.6879 0 23.1896V35.838C0 36.3397 0.406692 36.7464 0.908335 36.7464H6.11739C6.61904 36.7464 7.02573 36.3397 7.02573 35.838V34.0275H8.17726L14.9402 37.94C15.8922 38.4904 16.9633 38.5499 17.8845 37.9744L30.5749 29.9981C30.9883 29.7383 31.1223 29.198 30.8783 28.7751ZM5.20906 34.9297H1.81667V24.098H5.20906V34.9297ZM16.9177 36.4363C16.5417 36.6726 16.1295 36.5294 15.85 36.3676L8.87595 32.3329C8.7377 32.253 8.5808 32.2109 8.42111 32.2109H7.02579V25.9858H12.202C12.4762 25.9858 12.7392 26.0716 12.9625 26.2341C12.9883 26.2529 16.7908 28.4501 16.7908 28.4501C17.7908 28.9797 17.5694 30.2473 16.7252 30.7597C16.3463 30.9784 15.9303 30.96 15.4888 30.7052L12.0356 28.7114C11.8975 28.6317 11.7408 28.5897 11.5814 28.5897H10.0522C8.84706 28.6377 8.84797 30.3588 10.0522 30.4064H11.338L14.5804 32.2784C15.5562 32.8416 16.6663 32.8894 17.6334 32.3329C18.0554 32.0893 18.4138 31.7485 18.6871 31.3495L24.4596 28.315C25.9433 27.5351 27.6989 27.8435 28.783 28.9788L16.9177 36.4363Z" fill="#033603"/>
<path d="M27.4776 11.5059L24.7085 5.96757C24.5744 5.73228 24.3862 5.58496 24.0891 5.58496H10.2433C9.95382 5.58496 9.76026 5.72859 9.62392 5.96757L6.85476 11.5059C6.72655 11.7782 6.77044 12.0518 6.95215 12.2702L16.6442 23.393C16.7757 23.5439 16.9659 23.6307 17.1662 23.6307C17.3665 23.6307 17.5566 23.5439 17.6882 23.393L27.3802 12.2702C27.5608 12.0529 27.6066 11.7796 27.4776 11.5059ZM22.969 6.96954L21.2018 10.5039L18.5508 6.96954H22.969ZM19.9354 11.1233H14.397L17.1662 7.43107L19.9354 11.1233ZM15.7816 6.96954L13.1306 10.5039L11.3634 6.96954H15.7816ZM10.2433 7.82521L11.8923 11.1233H8.59426L10.2433 7.82521ZM8.99579 12.5079H12.5551L15.9681 20.5098L8.99579 12.5079ZM17.1662 19.7894L14.0606 12.5079H20.2718L17.1662 19.7894ZM18.3643 20.5098L21.7773 12.5079H25.3366L18.3643 20.5098ZM22.4401 11.1233L24.0891 7.82521L25.7381 11.1233H22.4401Z" fill="#033603"/>
<path d="M17.161 0C16.7787 0 16.4688 0.309961 16.4688 0.69229V2.12302C16.4688 2.50535 16.7787 2.81531 17.161 2.81531C17.5434 2.81531 17.8533 2.50535 17.8533 2.12302V0.69229C17.8533 0.309961 17.5434 0 17.161 0Z" fill="#033603"/>
<path d="M14.2233 3.05241L13.2443 2.07338C12.974 1.80301 12.5356 1.80301 12.2653 2.07338C11.9949 2.34374 11.9949 2.78205 12.2653 3.05241L13.2443 4.03145C13.5146 4.30181 13.953 4.30186 14.2233 4.03145C14.4937 3.76109 14.4937 3.32278 14.2233 3.05241Z" fill="#033603"/>
<path d="M22.0593 2.07387C21.789 1.8035 21.3506 1.8035 21.0802 2.07387L20.1012 3.0529C19.8308 3.32326 19.8308 3.76158 20.1012 4.03194C20.3715 4.3023 20.8099 4.30235 21.0802 4.03194L22.0593 3.0529C22.3297 2.78254 22.3297 2.34423 22.0593 2.07387Z" fill="#033603"/>
</svg>
