<svg width="40" height="36" viewBox="0 0 40 36" fill="none" xmlns="http://www.w3.org/2000/svg">
<path d="M36.4606 5.53576C34.9326 5.68313 33.7901 7.00451 33.8649 8.53776L33.9795 13.2388C32.7226 13.3637 31.6225 14.1367 31.0788 15.2768L29.3608 18.8838C29.0937 19.4431 28.704 19.9354 28.221 20.3236L27.864 20.61C26.0481 22.0591 25.0361 24.2902 25.1427 26.6108L24.4407 26.2768C24.1226 26.1251 23.7415 26.2603 23.5901 26.5784L21.7066 30.5332C21.5552 30.8517 21.6901 31.2324 22.0083 31.3838L30.6881 35.5175C30.8407 35.5904 31.0161 35.5997 31.1757 35.543C31.3352 35.4863 31.4657 35.3688 31.5383 35.2158L33.4221 31.2604C33.5735 30.9423 33.4386 30.5616 33.1205 30.4102L32.75 30.2338L32.6575 28.9965C32.6204 28.5133 32.7728 28.0344 33.0822 27.6611L37.5769 22.222C37.586 22.2111 37.5947 22.1999 37.6031 22.1884C38.5297 20.8947 39.0183 19.3387 38.9974 17.7478C38.9968 17.7176 38.994 17.6874 38.9893 17.6575L37.1529 6.07104C37.0999 5.73766 36.7964 5.50304 36.4606 5.53576ZM30.6606 34.0908L23.1333 30.5058L24.4681 27.7029L31.9954 31.2879L30.6606 34.0908ZM36.5793 21.426L32.0985 26.8483C31.5785 27.4751 31.3227 28.2796 31.3847 29.0916L31.4231 29.6016L26.4893 27.2521C26.1388 25.1153 26.9697 22.9558 28.6622 21.6054L29.0193 21.3191C29.6524 20.8103 30.1631 20.1653 30.5133 19.4325L32.231 15.8254C32.6803 14.8857 33.6975 14.3567 34.7251 14.5287L32.2141 19.8014C32.0649 20.1192 32.2001 20.4978 32.5173 20.6489C32.8342 20.7997 33.2137 20.6663 33.3663 20.3501L36.1898 14.4212C36.3412 14.1028 36.2063 13.722 35.8879 13.5706C35.6857 13.4746 35.4751 13.3977 35.2585 13.3403L35.1404 8.49881C35.1404 8.4932 35.1404 8.4876 35.1398 8.4823C35.1071 7.85417 35.4455 7.2653 36.0041 6.97678L37.7218 17.8111C37.7293 19.1063 37.3299 20.3707 36.5793 21.426Z" fill="#033603" stroke="#033603" stroke-width="0.2"/>
<path d="M2.4211 22.222L6.91585 27.6611C7.22524 28.0344 7.3776 28.5133 7.34052 28.9965L7.24798 30.2338L6.87752 30.4102C6.55941 30.5616 6.4245 30.9423 6.57592 31.2604L8.45969 35.2158C8.53229 35.3688 8.66284 35.4863 8.82236 35.543C8.98189 35.5997 9.1573 35.5904 9.31028 35.5175L17.9898 31.3838C18.3079 31.2324 18.4428 30.8517 18.2914 30.5332L16.4076 26.5781C16.2562 26.26 15.8754 26.1248 15.5573 26.2765L14.8553 26.6105C14.9616 24.2899 13.9499 22.0588 12.1341 20.6096L11.777 20.3233C11.2938 19.9351 10.9043 19.4431 10.637 18.8838L8.91895 15.2768C8.37525 14.1367 7.27509 13.3637 6.01821 13.2388L6.13318 8.53776C6.20795 7.00482 5.06542 5.68313 3.53747 5.53576C3.20159 5.50304 2.89812 5.73766 2.84515 6.07104L1.00874 17.6575C1.00376 17.6874 1.00127 17.7176 1.00064 17.7478C0.979767 19.3387 1.46831 20.8947 2.39493 22.1884C2.40334 22.1999 2.41207 22.2111 2.4211 22.222ZM16.8647 30.5061L9.33739 34.0908L8.00261 31.2879L15.5299 27.7029L16.8647 30.5061ZM3.99392 6.97647C4.55257 7.26499 4.89094 7.85417 4.85822 8.48199C4.85822 8.4876 4.85791 8.4932 4.8576 8.49881L4.73951 13.3403C4.52297 13.3974 4.31204 13.4743 4.10983 13.5706C3.79171 13.722 3.65649 14.1031 3.80822 14.4212L6.63169 20.3504C6.78436 20.6667 7.16386 20.8 7.48073 20.6489C7.7976 20.4981 7.93313 20.1195 7.78389 19.8017L5.27293 14.5287C6.30049 14.3564 7.31809 14.8854 7.76706 15.8254L9.48507 19.4325C9.83528 20.1653 10.3456 20.8103 10.9788 21.3191L11.3358 21.6054C13.0283 22.9558 13.8592 25.1153 13.5087 27.2521L8.57497 29.6016L8.6133 29.0916C8.6753 28.2796 8.4195 27.4751 7.89979 26.8483L3.41876 21.426C2.66849 20.3707 2.26874 19.1063 2.27653 17.8111L3.99392 6.97647Z" fill="#033603" stroke="#033603" stroke-width="0.2"/>
<path d="M27.6151 14.7494C27.8796 14.6649 28.0597 14.4197 28.0612 14.1418V4.02817C28.0597 3.75056 27.8796 3.50535 27.6151 3.42092L20.2031 1.03085C20.0753 0.989718 19.9379 0.989718 19.8102 1.03085L12.396 3.42061C12.1312 3.50504 11.9511 3.75025 11.9492 4.02817V14.1418C11.9508 14.4197 12.1309 14.6646 12.3954 14.7494L19.8074 17.1391C19.8709 17.1594 19.9376 17.1697 20.0043 17.1697C20.0716 17.1697 20.1386 17.1594 20.2025 17.1391L27.6151 14.7494ZM20.6433 15.6558V6.88187L26.785 4.90369V13.6776L20.6433 15.6558ZM20.0052 2.3086L25.3365 4.02817L20.0052 5.74712L14.6739 4.02817L20.0052 2.3086ZM13.2254 4.904L19.3671 6.88218V15.6561L13.2254 13.6779V4.904Z" fill="#033603" stroke="#033603" stroke-width="0.2"/>
</svg>
