<svg width="132" height="113" viewBox="0 0 132 113" fill="none" xmlns="http://www.w3.org/2000/svg">
<path d="M96.2643 0H32.5048L0 32.6444L63.7594 103L131.269 32.6444L96.2643 0Z" fill="#033603"/>
<path d="M92.8 5H35.9714L7 33.8412L63.8286 96L124 33.8412L92.8 5Z" stroke="#fff" stroke-width="2.49"/>
<g clip-path="url(#clip0)">
<path d="M64.5009 41.5555C68.5684 41.5555 71.8777 38.2467 71.8777 34.1797C71.8777 30.1126 68.5684 26.8039 64.5009 26.8039C60.4333 26.8039 57.124 30.1126 57.124 34.1797C57.124 38.2467 60.4333 41.5555 64.5009 41.5555ZM64.5009 29.4403C67.1146 29.4403 69.241 31.5664 69.241 34.1797C69.241 36.793 67.1146 38.9192 64.5009 38.9192C61.8871 38.9192 59.7607 36.793 59.7607 34.1797C59.7607 31.5664 61.8872 29.4403 64.5009 29.4403Z" fill="white"/>
<path d="M56.468 47.4334C58.4662 50.1384 57.6634 49.0864 63.4189 57.3038C63.942 58.0536 65.0545 58.0571 65.5806 57.3049C71.3621 49.0486 70.5666 50.0943 72.5323 47.4333C74.5234 44.7375 76.5825 41.95 77.7109 38.6834C79.344 33.9548 78.638 29.2762 75.7233 25.5092C75.7232 25.5092 75.7232 25.5091 75.7232 25.5091C73.0532 22.0595 68.8577 20 64.5001 20C60.1426 20 55.9471 22.0595 53.277 25.5092C50.3623 29.2762 49.6564 33.955 51.2896 38.6836C52.4177 41.9501 54.4768 44.7376 56.468 47.4334ZM55.3623 27.1226C57.5366 24.3135 60.9526 22.6364 64.5001 22.6364C68.0477 22.6364 71.4637 24.3135 73.6379 27.1226L73.6378 27.1225C75.9903 30.1628 76.5516 33.963 75.2185 37.823C74.2219 40.7083 72.2847 43.3308 70.4113 45.8671C68.9527 47.8417 69.3892 47.2377 64.5001 54.246C59.6161 47.2448 60.0472 47.8411 58.589 45.8671C56.7156 43.3308 54.7784 40.7082 53.7818 37.823C52.4487 33.9629 53.0099 30.1628 55.3623 27.1226Z" fill="white"/>
<path d="M57.5509 53.1494C57.1621 52.534 56.3478 52.3501 55.7323 52.739L51.9837 55.1065C51.166 55.6229 51.1652 56.8184 51.9837 57.3354L63.7962 64.7962C64.2263 65.0679 64.7744 65.0678 65.2043 64.7962L77.0168 57.3354C77.8346 56.8189 77.8353 55.6234 77.0168 55.1065L73.2683 52.739C72.6525 52.3501 71.8384 52.534 71.4496 53.1494C71.0607 53.7649 71.2446 54.579 71.8602 54.9679L73.8442 56.2209L64.5002 62.1226L55.1563 56.2209L57.1403 54.9679C57.7559 54.5791 57.9397 53.765 57.5509 53.1494Z" fill="white"/>
</g>
<defs>
<clipPath id="clip0">
<rect width="45" height="45" fill="white" transform="translate(42 20)"/>
</clipPath>
</defs>
</svg>
