<svg width="515" height="486" viewBox="0 0 515 486" fill="none" xmlns="http://www.w3.org/2000/svg">
<g filter="url(#filter0_d)">
<path d="M18.0002 396.765C18.0002 414.027 27.9929 428.95 42.5119 436.042L44.4465 436.928C44.5104 436.955 44.5742 436.983 44.6381 437.01L82.446 454.318L86.1419 456.009L105.999 465.165L106.045 465.184C109.011 466.308 112.132 467.112 115.362 467.56C106.136 459.564 100.305 447.739 100.305 434.561C100.305 428.649 101.446 423.001 103.581 417.856C103.663 417.637 103.891 417.116 103.891 417.116L132.966 353.422L168.812 274.878L195.185 217.097L244.72 108.57L255.908 84.7097C256.428 83.9695 256.966 83.2476 257.505 82.5257C258.198 81.5936 258.919 80.6706 259.658 79.7659C275.939 59.6342 300.067 46.1369 327.389 43.9254C330.009 43.7152 332.655 43.6056 335.329 43.6056C336.588 43.6056 337.838 43.633 339.08 43.6878L340.074 43.8158L338.924 41.8602C336.232 36.4411 331.98 32.0456 327.389 28.1892C324.588 25.8315 321.476 23.8302 318.136 22.231C312.46 19.517 306.099 18 299.383 18L288.286 18.1005H217.68C210.243 18.1005 203.207 19.782 196.91 22.7885C193.214 24.543 189.774 26.7636 186.671 29.3681C181.77 33.4712 177.691 38.5429 174.725 44.2727L172.754 48.586L112.917 179.712L23.7768 375.025C23.7676 375.034 23.7585 375.052 23.7494 375.071L20.4458 382.308C18.858 386.832 18.0002 391.702 18.0002 396.765Z" fill="white"/>
</g>
<g filter="url(#filter1_d)">
<path d="M24.7238 420.077C28.7026 426.382 34.2419 431.591 40.8033 435.164L40.8581 435.191L83.3474 454.327L83.4022 454.391L103.095 463.52L104.866 464.343C105.541 464.635 106.216 464.909 106.901 465.174L106.947 465.193C109.584 466.189 112.34 466.938 115.187 467.404C115.543 467.468 115.899 467.523 116.264 467.569C118.253 467.852 120.288 467.998 122.351 467.998C131.823 467.998 140.593 464.973 147.748 459.837L152.812 455.579L160.825 448.853L205.541 411.313L209.237 408.206L235.044 386.548L257.932 367.221L258.087 367.349L277.178 351.375L219.22 281.905L178.082 316.311L176.539 317.6L133.867 353.431L132.398 354.665L125.609 360.367L114.941 369.322L66.8207 412.062C66.4922 412.364 66.1546 412.665 65.8169 412.949C58.708 419.081 49.4453 422.782 39.3249 422.782C34.178 422.782 29.2501 421.822 24.7238 420.077Z" fill="white"/>
</g>
<g filter="url(#filter2_d)">
<path d="M161.363 330.359C168.673 324.611 177.872 321.184 187.883 321.184C198.222 321.184 207.704 324.839 215.114 330.925C215.415 331.181 215.725 331.437 216.026 331.693L283.292 388.615L310.341 411.315L315.022 415.244L355.057 448.855L363.069 455.581L368.134 459.839C375.288 464.975 384.058 468 393.531 468C395.593 468 397.628 467.854 399.617 467.571C402.848 467.123 405.969 466.319 408.935 465.195L408.98 465.176C409.665 464.911 410.34 464.637 411.015 464.345L412.786 463.522L432.479 454.393L432.534 454.329L461.289 419.978L400.941 369.324L382.014 353.433L337.8 316.313L333.219 312.448L305.778 289.273L286.267 272.806C286.267 272.796 286.249 272.778 286.23 272.769L284.551 271.353C284.232 271.078 283.912 270.804 283.593 270.548C276.603 264.837 267.669 261.419 257.941 261.419C248.222 261.419 239.288 264.837 232.297 270.548C231.969 270.804 231.649 271.078 231.339 271.353L229.66 272.769C229.642 272.778 229.624 272.796 229.624 272.806L210.113 289.273L187.974 307.961L178.091 316.313L161.363 330.359Z" fill="white"/>
</g>
<g filter="url(#filter3_d)">
<path d="M226.714 18.1003L243.205 50.8429L270.281 108.57L382.034 353.422L411.109 417.116C411.109 417.116 411.337 417.637 411.428 417.856C413.554 423.001 414.704 428.648 414.704 434.57C414.704 447.748 408.873 459.573 399.647 467.569C402.877 467.121 405.998 466.317 408.964 465.193L409.01 465.174L428.867 456.018L432.563 454.327L470.371 437.019C470.435 436.992 470.499 436.964 470.563 436.937L472.488 436.041C487.007 428.95 497 414.027 497 396.765C497 391.702 496.142 386.832 494.554 382.308L491.251 375.07C491.242 375.052 491.233 375.034 491.223 375.025L342.246 48.5858L340.275 44.2725C337.309 38.5428 333.23 33.471 328.329 29.3679C325.227 26.7635 321.786 24.5429 318.09 22.7883C311.794 19.7818 304.758 18.1003 297.32 18.1003H226.714Z" fill="white"/>
</g>
<g filter="url(#filter4_d)">
<path d="M168.812 274.878L195.185 217.097L244.72 108.57L255.908 84.7097C256.428 83.9695 256.966 83.2476 257.505 82.5257C258.198 81.5936 258.919 80.6706 259.658 79.7659C275.939 59.6342 300.067 46.1369 327.389 43.9254C330.009 43.7152 332.655 43.6056 335.329 43.6056C336.588 43.6056 337.838 43.633 339.08 43.6878L340.074 43.8158L338.924 41.8601C336.232 36.4411 331.98 32.0456 327.389 28.1892C324.588 25.8315 321.476 23.8302 318.136 22.231C312.46 19.517 306.099 18 299.383 18L288.286 18.1005H217.68C210.243 18.1005 203.207 19.782 196.91 22.7885C193.214 24.543 189.774 26.7636 186.671 29.3681C181.77 33.4712 177.691 38.5429 174.725 44.2727L172.754 48.586L112.917 179.712L81.5618 248.413C168.812 274.878 81.5618 248.413 168.812 274.878Z" fill="white"/>
</g>
<path d="M70.967 271.716L83.743 243.844L172.719 266.233L151.73 312.381L70.967 271.716Z" fill="white"/>
<defs>
<filter id="filter0_d" x="0.557693" y="0.557693" width="356.959" height="484.444" filterUnits="userSpaceOnUse" color-interpolation-filters="sRGB">
<feFlood flood-opacity="0" result="BackgroundImageFix"/>
<feColorMatrix in="SourceAlpha" type="matrix" values="0 0 0 0 0 0 0 0 0 0 0 0 0 0 0 0 0 0 127 0"/>
<feOffset/>
<feGaussianBlur stdDeviation="8.72115"/>
<feColorMatrix type="matrix" values="0 0 0 0 0 0 0 0 0 0 0 0 0 0 0 0 0 0 0.1 0"/>
<feBlend mode="normal" in2="BackgroundImageFix" result="effect1_dropShadow"/>
<feBlend mode="normal" in="SourceGraphic" in2="effect1_dropShadow" result="shape"/>
</filter>
<filter id="filter1_d" x="7.2823" y="264.463" width="287.339" height="220.977" filterUnits="userSpaceOnUse" color-interpolation-filters="sRGB">
<feFlood flood-opacity="0" result="BackgroundImageFix"/>
<feColorMatrix in="SourceAlpha" type="matrix" values="0 0 0 0 0 0 0 0 0 0 0 0 0 0 0 0 0 0 127 0"/>
<feOffset/>
<feGaussianBlur stdDeviation="8.72115"/>
<feColorMatrix type="matrix" values="0 0 0 0 0 0 0 0 0 0 0 0 0 0 0 0 0 0 0.1 0"/>
<feBlend mode="normal" in2="BackgroundImageFix" result="effect1_dropShadow"/>
<feBlend mode="normal" in="SourceGraphic" in2="effect1_dropShadow" result="shape"/>
</filter>
<filter id="filter2_d" x="143.921" y="243.977" width="334.811" height="241.465" filterUnits="userSpaceOnUse" color-interpolation-filters="sRGB">
<feFlood flood-opacity="0" result="BackgroundImageFix"/>
<feColorMatrix in="SourceAlpha" type="matrix" values="0 0 0 0 0 0 0 0 0 0 0 0 0 0 0 0 0 0 127 0"/>
<feOffset/>
<feGaussianBlur stdDeviation="8.72115"/>
<feColorMatrix type="matrix" values="0 0 0 0 0 0 0 0 0 0 0 0 0 0 0 0 0 0 0.1 0"/>
<feBlend mode="normal" in2="BackgroundImageFix" result="effect1_dropShadow"/>
<feBlend mode="normal" in="SourceGraphic" in2="effect1_dropShadow" result="shape"/>
</filter>
<filter id="filter3_d" x="209.273" y="0.658035" width="305.17" height="484.353" filterUnits="userSpaceOnUse" color-interpolation-filters="sRGB">
<feFlood flood-opacity="0" result="BackgroundImageFix"/>
<feColorMatrix in="SourceAlpha" type="matrix" values="0 0 0 0 0 0 0 0 0 0 0 0 0 0 0 0 0 0 127 0"/>
<feOffset/>
<feGaussianBlur stdDeviation="8.72115"/>
<feColorMatrix type="matrix" values="0 0 0 0 0 0 0 0 0 0 0 0 0 0 0 0 0 0 0.1 0"/>
<feBlend mode="normal" in2="BackgroundImageFix" result="effect1_dropShadow"/>
<feBlend mode="normal" in="SourceGraphic" in2="effect1_dropShadow" result="shape"/>
</filter>
<filter id="filter4_d" x="64.1202" y="0.557693" width="293.397" height="291.763" filterUnits="userSpaceOnUse" color-interpolation-filters="sRGB">
<feFlood flood-opacity="0" result="BackgroundImageFix"/>
<feColorMatrix in="SourceAlpha" type="matrix" values="0 0 0 0 0 0 0 0 0 0 0 0 0 0 0 0 0 0 127 0"/>
<feOffset/>
<feGaussianBlur stdDeviation="8.72115"/>
<feColorMatrix type="matrix" values="0 0 0 0 0 0 0 0 0 0 0 0 0 0 0 0 0 0 0.1 0"/>
<feBlend mode="normal" in2="BackgroundImageFix" result="effect1_dropShadow"/>
<feBlend mode="normal" in="SourceGraphic" in2="effect1_dropShadow" result="shape"/>
</filter>
</defs>
</svg>
