<svg width="590" height="556" viewBox="0 0 590 556" fill="none" xmlns="http://www.w3.org/2000/svg">
<g filter="url(#filter0_d)">
<path d="M20.0005 454.306C20.0005 474.1 31.4743 491.211 48.1454 499.342L50.3668 500.358C50.4401 500.39 50.5134 500.421 50.5868 500.453L93.9985 520.299L98.2422 522.237L121.043 532.737L121.096 532.758C124.501 534.046 128.085 534.968 131.794 535.482C121.2 526.313 114.505 512.754 114.505 497.645C114.505 490.865 115.814 484.389 118.266 478.49C118.361 478.239 118.623 477.641 118.623 477.641L152.007 404.607L193.166 314.546L223.448 248.292L280.324 123.851L293.171 96.4919C293.768 95.6431 294.386 94.8153 295.004 93.9875C295.801 92.9188 296.629 91.8604 297.477 90.8231C316.171 67.7393 343.875 52.2628 375.248 49.727C378.255 49.486 381.294 49.3603 384.364 49.3603C385.81 49.3603 387.245 49.3917 388.67 49.4546L389.812 49.6013L388.492 47.3589C385.401 41.1453 380.518 36.1052 375.248 31.6833C372.031 28.9799 368.458 26.6852 364.623 24.8515C358.105 21.7394 350.802 20 343.09 20L330.348 20.1153H249.277C240.737 20.1153 232.658 22.0433 225.428 25.4906C221.185 27.5025 217.234 30.0487 213.672 33.0351C208.045 37.7398 203.361 43.5553 199.955 50.1252L197.692 55.071L128.986 205.425L26.6333 429.378C26.6228 429.389 26.6124 429.41 26.6019 429.431L22.8087 437.729C20.9854 442.916 20.0005 448.501 20.0005 454.306Z" fill="white"/>
</g>
<g filter="url(#filter1_d)">
<path d="M27.7229 481.036C32.2915 488.266 38.6519 494.239 46.1858 498.336L46.2487 498.367L95.0358 520.309L95.0987 520.382L117.711 530.85L119.744 531.793C120.519 532.128 121.295 532.443 122.08 532.747L122.133 532.768C125.161 533.91 128.326 534.769 131.595 535.303C132.003 535.377 132.412 535.44 132.831 535.492C135.115 535.817 137.452 535.984 139.82 535.984C150.697 535.984 160.766 532.516 168.981 526.627L174.797 521.744L183.997 514.032L235.341 470.987L239.584 467.425L269.217 442.591L295.497 420.429L295.675 420.576L317.596 402.26L251.048 322.604L203.811 362.054L202.041 363.532L153.044 404.617L151.357 406.032L143.561 412.571L131.312 422.839L76.0595 471.846C75.6823 472.192 75.2946 472.538 74.9069 472.863C66.7443 479.894 56.1088 484.138 44.4883 484.138C38.5785 484.138 32.9202 483.037 27.7229 481.036Z" fill="white"/>
</g>
<g filter="url(#filter2_d)">
<path d="M184.615 378.162C193.008 371.571 203.57 367.642 215.065 367.642C226.937 367.642 237.824 371.833 246.332 378.812C246.678 379.105 247.034 379.399 247.38 379.692L324.616 444.962L355.674 470.99L361.049 475.495L407.018 514.035L416.218 521.747L422.033 526.63C430.248 532.518 440.318 535.987 451.194 535.987C453.563 535.987 455.899 535.819 458.183 535.494C461.893 534.981 465.476 534.059 468.882 532.77L468.934 532.749C469.72 532.445 470.496 532.131 471.271 531.795L473.304 530.852L495.916 520.385L495.979 520.311L528.996 480.923L459.703 422.842L437.971 404.62L387.203 362.057L381.943 357.625L350.435 331.051L328.032 312.17C328.032 312.159 328.011 312.138 327.99 312.128L326.062 310.503C325.695 310.189 325.329 309.875 324.962 309.581C316.935 303.032 306.677 299.114 295.507 299.114C284.348 299.114 274.09 303.032 266.063 309.581C265.686 309.875 265.319 310.189 264.963 310.503L263.035 312.128C263.014 312.138 262.993 312.159 262.993 312.17L240.59 331.051L215.17 352.48L203.822 362.057L184.615 378.162Z" fill="white"/>
</g>
<g filter="url(#filter3_d)">
<path d="M259.653 20.1152L278.587 57.6591L309.676 123.851L437.994 404.607L471.378 477.641C471.378 477.641 471.64 478.239 471.745 478.49C474.186 484.389 475.506 490.865 475.506 497.655C475.506 512.765 468.811 526.324 458.217 535.492C461.926 534.979 465.51 534.057 468.915 532.768L468.968 532.747L491.769 522.248L496.012 520.309L539.424 500.463C539.498 500.432 539.571 500.4 539.644 500.369L541.855 499.342C558.526 491.211 570 474.1 570 454.306C570 448.501 569.015 442.916 567.192 437.729L563.399 429.431C563.388 429.41 563.378 429.389 563.367 429.378L392.308 55.071L390.045 50.1252C386.64 43.5553 381.956 37.7398 376.329 33.035C372.766 30.0487 368.816 27.5025 364.572 25.4906C357.342 22.0432 349.263 20.1152 340.723 20.1152H259.653Z" fill="white"/>
</g>
<g filter="url(#filter4_d)">
<path d="M193.166 314.546L223.448 248.292L280.324 123.851L293.171 96.4919C293.768 95.6431 294.386 94.8153 295.004 93.9875C295.801 92.9188 296.629 91.8604 297.477 90.8231C316.171 67.7393 343.875 52.2628 375.248 49.727C378.255 49.486 381.294 49.3603 384.364 49.3603C385.81 49.3603 387.245 49.3917 388.67 49.4546L389.812 49.6013L388.492 47.3589C385.401 41.1453 380.518 36.1052 375.248 31.6833C372.031 28.9799 368.458 26.6852 364.623 24.8515C358.105 21.7394 350.802 20 343.09 20L330.348 20.1153H249.277C240.737 20.1153 232.658 22.0433 225.428 25.4906C221.185 27.5025 217.234 30.0487 213.672 33.0351C208.045 37.7398 203.361 43.5553 199.956 50.1252L197.692 55.071L128.986 205.425L92.9832 284.2C193.166 314.546 92.9832 284.2 193.166 314.546Z" fill="white"/>
</g>
<path d="M80.8208 310.92L95.4905 278.961L197.654 304.633L173.554 357.548L80.8208 310.92Z" fill="white"/>
<defs>
<filter id="filter0_d" x="0" y="0" width="409.812" height="555.482" filterUnits="userSpaceOnUse" color-interpolation-filters="sRGB">
<feFlood flood-opacity="0" result="BackgroundImageFix"/>
<feColorMatrix in="SourceAlpha" type="matrix" values="0 0 0 0 0 0 0 0 0 0 0 0 0 0 0 0 0 0 127 0"/>
<feOffset/>
<feGaussianBlur stdDeviation="10"/>
<feColorMatrix type="matrix" values="0 0 0 0 0 0 0 0 0 0 0 0 0 0 0 0 0 0 0.1 0"/>
<feBlend mode="normal" in2="BackgroundImageFix" result="effect1_dropShadow"/>
<feBlend mode="normal" in="SourceGraphic" in2="effect1_dropShadow" result="shape"/>
</filter>
<filter id="filter1_d" x="7.72266" y="302.604" width="329.873" height="253.381" filterUnits="userSpaceOnUse" color-interpolation-filters="sRGB">
<feFlood flood-opacity="0" result="BackgroundImageFix"/>
<feColorMatrix in="SourceAlpha" type="matrix" values="0 0 0 0 0 0 0 0 0 0 0 0 0 0 0 0 0 0 127 0"/>
<feOffset/>
<feGaussianBlur stdDeviation="10"/>
<feColorMatrix type="matrix" values="0 0 0 0 0 0 0 0 0 0 0 0 0 0 0 0 0 0 0.1 0"/>
<feBlend mode="normal" in2="BackgroundImageFix" result="effect1_dropShadow"/>
<feBlend mode="normal" in="SourceGraphic" in2="effect1_dropShadow" result="shape"/>
</filter>
<filter id="filter2_d" x="164.615" y="279.114" width="384.381" height="276.873" filterUnits="userSpaceOnUse" color-interpolation-filters="sRGB">
<feFlood flood-opacity="0" result="BackgroundImageFix"/>
<feColorMatrix in="SourceAlpha" type="matrix" values="0 0 0 0 0 0 0 0 0 0 0 0 0 0 0 0 0 0 127 0"/>
<feOffset/>
<feGaussianBlur stdDeviation="10"/>
<feColorMatrix type="matrix" values="0 0 0 0 0 0 0 0 0 0 0 0 0 0 0 0 0 0 0.1 0"/>
<feBlend mode="normal" in2="BackgroundImageFix" result="effect1_dropShadow"/>
<feBlend mode="normal" in="SourceGraphic" in2="effect1_dropShadow" result="shape"/>
</filter>
<filter id="filter3_d" x="239.652" y="0.115234" width="350.347" height="555.377" filterUnits="userSpaceOnUse" color-interpolation-filters="sRGB">
<feFlood flood-opacity="0" result="BackgroundImageFix"/>
<feColorMatrix in="SourceAlpha" type="matrix" values="0 0 0 0 0 0 0 0 0 0 0 0 0 0 0 0 0 0 127 0"/>
<feOffset/>
<feGaussianBlur stdDeviation="10"/>
<feColorMatrix type="matrix" values="0 0 0 0 0 0 0 0 0 0 0 0 0 0 0 0 0 0 0.1 0"/>
<feBlend mode="normal" in2="BackgroundImageFix" result="effect1_dropShadow"/>
<feBlend mode="normal" in="SourceGraphic" in2="effect1_dropShadow" result="shape"/>
</filter>
<filter id="filter4_d" x="72.9824" y="0" width="336.829" height="334.546" filterUnits="userSpaceOnUse" color-interpolation-filters="sRGB">
<feFlood flood-opacity="0" result="BackgroundImageFix"/>
<feColorMatrix in="SourceAlpha" type="matrix" values="0 0 0 0 0 0 0 0 0 0 0 0 0 0 0 0 0 0 127 0"/>
<feOffset/>
<feGaussianBlur stdDeviation="10"/>
<feColorMatrix type="matrix" values="0 0 0 0 0 0 0 0 0 0 0 0 0 0 0 0 0 0 0.1 0"/>
<feBlend mode="normal" in2="BackgroundImageFix" result="effect1_dropShadow"/>
<feBlend mode="normal" in="SourceGraphic" in2="effect1_dropShadow" result="shape"/>
</filter>
</defs>
</svg>
