<svg width="163" height="37" viewBox="0 0 163 37" fill="none" xmlns="http://www.w3.org/2000/svg">
<g filter="url(#filter0_d)">
<path d="M58.7191 3.9043H39.5996V32.604H45.3314V20.6492H56.3855V14.9175H45.3314V9.63605H58.7191V3.9043Z" fill="white"/>
<path d="M63.4382 32.5631V3.9043H69.1699V32.5631H63.4382Z" fill="white"/>
<path d="M80.2048 3.9043H74.4731V32.5631H90.8905V26.8723H80.2048V3.9043Z" fill="white"/>
<path d="M96.223 32.5631V3.9043H101.955V32.5631H96.223Z" fill="white"/>
<path d="M124.535 3.9043L118.68 14.7128L112.785 3.9043H106.439L115.815 22.0821V32.604H121.546V22.0821L130.881 3.9043H124.535Z" fill="white"/>
<path d="M146.139 3.37207C137.951 3.37207 131.277 10.0455 131.277 18.2337C131.277 26.4219 137.951 33.0953 146.139 33.0953C154.327 33.0953 161 26.4219 161 18.2337C161 10.0455 154.327 3.37207 146.139 3.37207ZM146.139 9.26759C151.093 9.26759 155.105 13.2798 155.105 18.2337C155.105 23.1876 151.093 27.1998 146.139 27.1998C141.185 27.1998 137.173 23.1876 137.173 18.2337C137.173 13.2798 141.185 9.26759 146.139 9.26759Z" fill="white"/>
</g>
<g filter="url(#filter1_d)">
<g filter="url(#filter2_d)">
<path d="M23.4243 5.06972C21.3116 5.08977 19.475 6.26583 18.5166 7.99585C18.4508 8.11443 18.3889 8.2353 18.3322 8.35904H18.331L18.1844 8.67124L15.0749 15.4744L13.4194 19.0966L11.1692 24.0203L8.38974 30.0965C8.38974 30.0965 8.37542 30.1292 8.37026 30.1429C8.23621 30.4654 8.16461 30.8195 8.16461 31.1901C8.16461 32.0161 8.53066 32.7574 9.10982 33.2587C8.90702 33.2306 8.71111 33.1802 8.52493 33.1097L8.52207 33.1086L7.27554 32.5346L7.04353 32.4286L4.6702 31.3436C4.66619 31.3419 4.66218 31.3402 4.65817 31.3385L4.53673 31.2829C3.62532 30.8384 2.99805 29.9029 2.99805 28.8208C2.99805 28.5034 3.0519 28.1981 3.15157 27.9145L3.35894 27.4608C3.35952 27.4597 3.36009 27.4585 3.36066 27.458L9.91066 13.1309L13.6669 4.91104L13.7906 4.64065C13.9768 4.28147 14.2328 3.96354 14.5405 3.70633C14.7352 3.54306 14.9512 3.40386 15.1832 3.29387C15.4679 3.15811 15.7773 3.06531 16.1021 3.02463C16.1909 3.01318 16.4664 3 16.4664 3H20.5314C20.9982 3 21.4399 3.1054 21.8352 3.29387C22.0672 3.40386 22.2831 3.54306 22.4779 3.70633C22.7557 3.93891 22.9918 4.22075 23.1716 4.53811C23.1848 4.56045 23.1974 4.58337 23.2094 4.60628C23.2157 4.61774 23.222 4.62919 23.2278 4.64065L23.3515 4.91104L23.4243 5.06972Z" fill="white"/>
</g>
<g filter="url(#filter3_d)">
<path d="M3.60031 30.5258C3.94402 30.984 4.34502 31.2132 4.88853 31.4423L4.89197 31.444L7.55917 32.6435L7.56261 32.6476L8.79882 33.2198L8.90996 33.2714C8.95235 33.2897 8.99474 33.3069 9.0377 33.3235L9.04057 33.3247C9.20612 33.3871 9.37912 33.4341 9.55785 33.4633C9.58019 33.4673 9.60254 33.4707 9.62545 33.4736C9.75033 33.4914 9.87808 33.5005 10.0075 33.5005C10.6022 33.5005 11.1527 33.3109 11.6018 32.989L11.9197 32.722L12.4227 32.3004L15.2297 29.9471L15.4617 29.7524L17.0817 28.3947L18.5184 27.1831L18.5282 27.1911L19.7266 26.1898L16.0884 21.835L13.506 23.9918L13.4091 24.0725L10.7305 26.3187L10.6383 26.396L10.2121 26.7535L9.54239 27.3149L6.52173 29.9941C6.50111 30.013 6.47991 30.0319 6.45872 30.0497C6.01247 30.4341 5.43102 30.6661 4.79573 30.6661C4.47264 30.6661 3.88444 30.6352 3.60031 30.5258Z" fill="white"/>
</g>
<g filter="url(#filter4_d)">
<path d="M12.4558 24.8719C12.9147 24.5116 13.4921 24.2968 14.1205 24.2968C14.7696 24.2968 15.3648 24.5259 15.8299 24.9074C15.8488 24.9235 15.8683 24.9395 15.8872 24.9555L20.1097 28.5238L21.8076 29.9468L22.1015 30.1931L24.6146 32.3001L25.1176 32.7217L25.4355 32.9886C25.8846 33.3106 26.4351 33.5002 27.0298 33.5002C27.1592 33.5002 27.287 33.491 27.4119 33.4733C27.6147 33.4452 27.8106 33.3948 27.9967 33.3243L27.9996 33.3232C28.0426 33.3066 28.085 33.2894 28.1274 33.2711L28.2385 33.2195L29.4747 32.6472L29.4781 32.6432L31.2832 30.4899L27.4949 27.3145L26.3068 26.3183L23.5314 23.9914L23.2438 23.7491L21.5212 22.2963L20.2965 21.2641C20.2965 21.2635 20.2953 21.2623 20.2942 21.2618L20.1888 21.173C20.1687 21.1558 20.1487 21.1386 20.1286 21.1226C19.6898 20.7645 19.129 20.5503 18.5183 20.5503C17.9082 20.5503 17.3474 20.7645 16.9086 21.1226C16.888 21.1386 16.8679 21.1558 16.8485 21.173L16.7431 21.2618C16.7419 21.2623 16.7408 21.2635 16.7408 21.2641L15.516 22.2963L14.1263 23.4678L13.5059 23.9914L12.4558 24.8719Z" fill="white"/>
</g>
<g filter="url(#filter5_d)">
<path d="M16.4609 3L17.1295 5.05253L18.8291 8.67124L25.8443 24.0203L28.6232 30.0965C28.6232 30.0965 28.6375 30.1292 28.6432 30.1429C28.7767 30.4654 28.8489 30.8195 28.8489 31.1907C28.8489 32.0167 28.4828 32.758 27.9037 33.2592C28.1065 33.2312 28.3024 33.1808 28.4886 33.1103L28.4914 33.1091L29.7379 32.5352L29.97 32.4292L32.3433 31.3442C32.3473 31.3425 32.3513 31.3408 32.3553 31.339L32.4762 31.2829C33.3876 30.8384 34.0149 29.9029 34.0149 28.8208C34.0149 28.5034 33.961 28.1981 33.8613 27.9145L33.654 27.4608C33.6534 27.4597 33.6528 27.4585 33.6523 27.458L23.3466 4.91104L23.2229 4.64065C23.0367 4.28147 22.7807 3.96354 22.473 3.70633C22.2783 3.54306 22.0623 3.40386 21.8303 3.29387C21.435 3.1054 20.9933 3 20.5265 3H16.4609Z" fill="white"/>
</g>
<g filter="url(#filter6_d)">
<path d="M18.5179 7.99585C19.4763 6.26583 21.3129 5.08977 23.4255 5.06972L23.3528 4.91104L23.229 4.64065C23.2233 4.62919 23.217 4.61774 23.2107 4.60628C23.1987 4.58337 23.1861 4.56045 23.1729 4.53811C22.993 4.22075 22.757 3.93891 22.4792 3.70633C22.2844 3.54306 22.0684 3.40386 21.8364 3.29387C21.4412 3.1054 20.9995 3 20.5326 3H16.4677C16.4677 3 16.1921 3.01318 16.1033 3.02463C15.7785 3.06531 15.4692 3.15811 15.1845 3.29387C14.9525 3.40386 14.7365 3.54306 14.5417 3.70633C14.2341 3.96354 13.978 4.28147 13.7919 4.64065L13.6681 4.91104L9.91194 13.1309L5.56055 22.6489L11.1705 24.0203L13.4207 19.0966L15.0762 15.4744L18.1857 8.67124L18.3323 8.35904H18.3334C18.3902 8.2353 18.452 8.11443 18.5179 7.99585Z" fill="white"/>
</g>
<path d="M10.0159 26.5157L4.86027 24.1956L6.20645 21.2455L11.3908 23.5368L10.0159 26.5157Z" fill="white"/>
</g>
<defs>
<filter id="filter0_d" x="38.4365" y="2.36405" width="123.727" height="32.0494" filterUnits="userSpaceOnUse" color-interpolation-filters="sRGB">
<feFlood flood-opacity="0" result="BackgroundImageFix"/>
<feColorMatrix in="SourceAlpha" type="matrix" values="0 0 0 0 0 0 0 0 0 0 0 0 0 0 0 0 0 0 127 0"/>
<feOffset dy="0.15508"/>
<feGaussianBlur stdDeviation="0.581549"/>
<feColorMatrix type="matrix" values="0 0 0 0 0 0 0 0 0 0 0 0 0 0 0 0 0 0 0.2 0"/>
<feBlend mode="normal" in2="BackgroundImageFix" result="effect1_dropShadow"/>
<feBlend mode="normal" in="SourceGraphic" in2="effect1_dropShadow" result="shape"/>
</filter>
<filter id="filter1_d" x="0.284152" y="0.286105" width="36.4446" height="35.9283" filterUnits="userSpaceOnUse" color-interpolation-filters="sRGB">
<feFlood flood-opacity="0" result="BackgroundImageFix"/>
<feColorMatrix in="SourceAlpha" type="matrix" values="0 0 0 0 0 0 0 0 0 0 0 0 0 0 0 0 0 0 127 0"/>
<feOffset/>
<feGaussianBlur stdDeviation="1.35695"/>
<feColorMatrix type="matrix" values="0 0 0 0 0.0627451 0 0 0 0 0.517647 0 0 0 0 1 0 0 0 1 0"/>
<feBlend mode="normal" in2="BackgroundImageFix" result="effect1_dropShadow"/>
<feBlend mode="normal" in="SourceGraphic" in2="effect1_dropShadow" result="shape"/>
</filter>
<filter id="filter2_d" x="1.83495" y="1.99198" width="22.7524" height="32.5849" filterUnits="userSpaceOnUse" color-interpolation-filters="sRGB">
<feFlood flood-opacity="0" result="BackgroundImageFix"/>
<feColorMatrix in="SourceAlpha" type="matrix" values="0 0 0 0 0 0 0 0 0 0 0 0 0 0 0 0 0 0 127 0"/>
<feOffset dy="0.15508"/>
<feGaussianBlur stdDeviation="0.581549"/>
<feColorMatrix type="matrix" values="0 0 0 0 0 0 0 0 0 0 0 0 0 0 0 0 0 0 0.2 0"/>
<feBlend mode="normal" in2="BackgroundImageFix" result="effect1_dropShadow"/>
<feBlend mode="normal" in="SourceGraphic" in2="effect1_dropShadow" result="shape"/>
</filter>
<filter id="filter3_d" x="2.43651" y="20.8269" width="18.4525" height="13.9918" filterUnits="userSpaceOnUse" color-interpolation-filters="sRGB">
<feFlood flood-opacity="0" result="BackgroundImageFix"/>
<feColorMatrix in="SourceAlpha" type="matrix" values="0 0 0 0 0 0 0 0 0 0 0 0 0 0 0 0 0 0 127 0"/>
<feOffset dy="0.15508"/>
<feGaussianBlur stdDeviation="0.581549"/>
<feColorMatrix type="matrix" values="0 0 0 0 0 0 0 0 0 0 0 0 0 0 0 0 0 0 0.2 0"/>
<feBlend mode="normal" in2="BackgroundImageFix" result="effect1_dropShadow"/>
<feBlend mode="normal" in="SourceGraphic" in2="effect1_dropShadow" result="shape"/>
</filter>
<filter id="filter4_d" x="11.292" y="19.5423" width="21.1536" height="15.2761" filterUnits="userSpaceOnUse" color-interpolation-filters="sRGB">
<feFlood flood-opacity="0" result="BackgroundImageFix"/>
<feColorMatrix in="SourceAlpha" type="matrix" values="0 0 0 0 0 0 0 0 0 0 0 0 0 0 0 0 0 0 127 0"/>
<feOffset dy="0.15508"/>
<feGaussianBlur stdDeviation="0.581549"/>
<feColorMatrix type="matrix" values="0 0 0 0 0 0 0 0 0 0 0 0 0 0 0 0 0 0 0.2 0"/>
<feBlend mode="normal" in2="BackgroundImageFix" result="effect1_dropShadow"/>
<feBlend mode="normal" in="SourceGraphic" in2="effect1_dropShadow" result="shape"/>
</filter>
<filter id="filter5_d" x="15.2978" y="1.99198" width="19.8801" height="32.5854" filterUnits="userSpaceOnUse" color-interpolation-filters="sRGB">
<feFlood flood-opacity="0" result="BackgroundImageFix"/>
<feColorMatrix in="SourceAlpha" type="matrix" values="0 0 0 0 0 0 0 0 0 0 0 0 0 0 0 0 0 0 127 0"/>
<feOffset dy="0.15508"/>
<feGaussianBlur stdDeviation="0.581549"/>
<feColorMatrix type="matrix" values="0 0 0 0 0 0 0 0 0 0 0 0 0 0 0 0 0 0 0.2 0"/>
<feBlend mode="normal" in2="BackgroundImageFix" result="effect1_dropShadow"/>
<feBlend mode="normal" in="SourceGraphic" in2="effect1_dropShadow" result="shape"/>
</filter>
<filter id="filter6_d" x="4.39745" y="1.99198" width="20.1912" height="23.3465" filterUnits="userSpaceOnUse" color-interpolation-filters="sRGB">
<feFlood flood-opacity="0" result="BackgroundImageFix"/>
<feColorMatrix in="SourceAlpha" type="matrix" values="0 0 0 0 0 0 0 0 0 0 0 0 0 0 0 0 0 0 127 0"/>
<feOffset dy="0.15508"/>
<feGaussianBlur stdDeviation="0.581549"/>
<feColorMatrix type="matrix" values="0 0 0 0 0 0 0 0 0 0 0 0 0 0 0 0 0 0 0.2 0"/>
<feBlend mode="normal" in2="BackgroundImageFix" result="effect1_dropShadow"/>
<feBlend mode="normal" in="SourceGraphic" in2="effect1_dropShadow" result="shape"/>
</filter>
</defs>
</svg>
