<svg width="162" height="34" viewBox="0 0 162 34" fill="none" xmlns="http://www.w3.org/2000/svg">
<g filter="url(#filter0_d)">
<path d="M57.721 2.9043H38.6016V31.604H44.3333V19.6492H55.3874V13.9175H44.3333V8.63605H57.721V2.9043Z" fill="#262e3a"/>
<path d="M62.4401 31.5631V2.9043H68.1719V31.5631H62.4401Z" fill="#262e3a"/>
<path d="M79.2068 2.9043H73.475V31.5631H89.8924V25.8723H79.2068V2.9043Z" fill="#262e3a"/>
<path d="M95.225 31.5631V2.9043H100.957V31.5631H95.225Z" fill="#262e3a"/>
<path d="M123.537 2.9043L117.682 13.7128L111.787 2.9043H105.441L114.817 21.0821V31.604H120.548V21.0821L129.883 2.9043H123.537Z" fill="#262e3a"/>
<path d="M145.141 2.37207C136.953 2.37207 130.279 9.04547 130.279 17.2337C130.279 25.4219 136.953 32.0953 145.141 32.0953C153.329 32.0953 160.002 25.4219 160.002 17.2337C160.002 9.04547 153.329 2.37207 145.141 2.37207ZM145.141 8.26759C150.095 8.26759 154.107 12.2798 154.107 17.2337C154.107 22.1876 150.095 26.1998 145.141 26.1998C140.187 26.1998 136.175 22.1876 136.175 17.2337C136.175 12.2798 140.187 8.26759 145.141 8.26759Z" fill="#262e3a"/>
</g>
<g filter="url(#filter1_d)">
<path d="M22.4262 4.06972C20.3135 4.08977 18.477 5.26583 17.5186 6.99585C17.4527 7.11443 17.3908 7.2353 17.3341 7.35904H17.333L17.1863 7.67124L14.0769 14.4744L12.4213 18.0966L10.1712 23.0203L7.39169 29.0965C7.39169 29.0965 7.37737 29.1292 7.37221 29.1429C7.23817 29.4654 7.16656 29.8195 7.16656 30.1901C7.16656 31.0161 7.53261 31.7574 8.11177 32.2587C7.90898 32.2306 7.71306 32.1802 7.52689 32.1097L7.52402 32.1086L6.27749 31.5346L6.04549 31.4286L3.67216 30.3436C3.66815 30.3419 3.66414 30.3402 3.66013 30.3385L3.53868 30.2829C2.62727 29.8384 2 28.9029 2 27.8208C2 27.5034 2.05385 27.1981 2.15352 26.9145L2.3609 26.4608C2.36147 26.4597 2.36204 26.4585 2.36262 26.458L8.91262 12.1309L12.6688 3.91104L12.7925 3.64065C12.9787 3.28147 13.2348 2.96354 13.5424 2.70633C13.7372 2.54306 13.9531 2.40386 14.1852 2.29387C14.4699 2.15811 14.7792 2.06531 15.104 2.02463C15.1928 2.01318 15.4683 2 15.4683 2H19.5333C20.0002 2 20.4419 2.1054 20.8371 2.29387C21.0691 2.40386 21.2851 2.54306 21.4799 2.70633C21.7577 2.93891 21.9937 3.22075 22.1736 3.53811C22.1868 3.56045 22.1994 3.58337 22.2114 3.60628C22.2177 3.61774 22.224 3.62919 22.2297 3.64065L22.3535 3.91104L22.4262 4.06972Z" fill="#262e3a"/>
</g>
<g filter="url(#filter2_d)">
<path d="M2.60226 29.5258C2.94597 29.984 3.34697 30.2132 3.89048 30.4423L3.89392 30.444L6.56112 31.6435L6.56456 31.6476L7.80078 32.2198L7.91191 32.2714C7.9543 32.2897 7.99669 32.3069 8.03965 32.3235L8.04252 32.3247C8.20807 32.3871 8.38108 32.4341 8.55981 32.4633C8.58215 32.4673 8.60449 32.4707 8.6274 32.4736C8.75228 32.4914 8.88003 32.5005 9.00949 32.5005C9.60412 32.5005 10.1546 32.3109 10.6037 31.989L10.9217 31.722L11.4246 31.3004L14.2316 28.9471L14.4636 28.7524L16.0837 27.3947L17.5204 26.1831L17.5301 26.1911L18.7285 25.1898L15.0903 20.835L12.5079 22.9918L12.4111 23.0725L9.73244 25.3187L9.64021 25.396L9.214 25.7535L8.54434 26.3149L5.52368 28.9941C5.50306 29.013 5.48187 29.0319 5.46067 29.0497C5.01442 29.4341 4.43297 29.6661 3.79768 29.6661C3.47459 29.6661 2.8864 29.6352 2.60226 29.5258Z" fill="#262e3a"/>
</g>
<g filter="url(#filter3_d)">
<path d="M11.4578 23.8719C11.9166 23.5116 12.4941 23.2968 13.1225 23.2968C13.7715 23.2968 14.3667 23.5259 14.8319 23.9074C14.8508 23.9235 14.8703 23.9395 14.8892 23.9555L19.1117 27.5238L20.8096 28.9468L21.1035 29.1931L23.6166 31.3001L24.1195 31.7217L24.4375 31.9886C24.8866 32.3106 25.4371 32.5002 26.0317 32.5002C26.1612 32.5002 26.2889 32.491 26.4138 32.4733C26.6166 32.4452 26.8125 32.3948 26.9987 32.3243L27.0016 32.3232C27.0445 32.3066 27.0869 32.2894 27.1293 32.2711L27.2404 32.2195L28.4767 31.6472L28.4801 31.6432L30.2852 29.4899L26.4969 26.3145L25.3088 25.3183L22.5333 22.9914L22.2457 22.7491L20.5232 21.2963L19.2984 20.2641C19.2984 20.2635 19.2973 20.2623 19.2961 20.2618L19.1907 20.173C19.1707 20.1558 19.1506 20.1386 19.1306 20.1226C18.6918 19.7645 18.1309 19.5503 17.5203 19.5503C16.9102 19.5503 16.3494 19.7645 15.9106 20.1226C15.8899 20.1386 15.8699 20.1558 15.8504 20.173L15.745 20.2618C15.7439 20.2623 15.7427 20.2635 15.7427 20.2641L14.518 21.2963L13.1282 22.4678L12.5078 22.9914L11.4578 23.8719Z" fill="#262e3a"/>
</g>
<g filter="url(#filter4_d)">
<path d="M15.4629 2L16.1314 4.05253L17.8311 7.67124L24.8462 23.0203L27.6251 29.0965C27.6251 29.0965 27.6395 29.1292 27.6452 29.1429C27.7787 29.4654 27.8508 29.8195 27.8508 30.1907C27.8508 31.0167 27.4848 31.758 26.9056 32.2592C27.1084 32.2312 27.3043 32.1808 27.4905 32.1103L27.4934 32.1091L28.7399 31.5352L28.9719 31.4292L31.3452 30.3442C31.3492 30.3425 31.3533 30.3408 31.3573 30.339L31.4781 30.2829C32.3895 29.8384 33.0168 28.9029 33.0168 27.8208C33.0168 27.5034 32.963 27.1981 32.8633 26.9145L32.6559 26.4608C32.6554 26.4597 32.6548 26.4585 32.6542 26.458L22.3486 3.91104L22.2248 3.64065C22.0387 3.28147 21.7826 2.96354 21.475 2.70633C21.2802 2.54306 21.0642 2.40386 20.8322 2.29387C20.437 2.1054 19.9953 2 19.5284 2H15.4629Z" fill="#262e3a"/>
</g>
<g filter="url(#filter5_d)">
<path d="M17.5199 6.99585C18.4782 5.26583 20.3148 4.08977 22.4275 4.06972L22.3547 3.91104L22.231 3.64065C22.2253 3.62919 22.219 3.61774 22.2127 3.60628C22.2006 3.58337 22.188 3.56045 22.1749 3.53811C21.995 3.22075 21.759 2.93891 21.4811 2.70633C21.2864 2.54306 21.0704 2.40386 20.8384 2.29387C20.4431 2.1054 20.0015 2 19.5346 2H15.4696C15.4696 2 15.1941 2.01318 15.1053 2.02463C14.7805 2.06531 14.4711 2.15811 14.1864 2.29387C13.9544 2.40386 13.7385 2.54306 13.5437 2.70633C13.2361 2.96354 12.98 3.28147 12.7938 3.64065L12.6701 3.91104L8.91389 12.1309L4.5625 21.6489L10.1724 23.0203L12.4226 18.0966L14.0782 14.4744L17.1876 7.67124L17.3343 7.35904H17.3354C17.3921 7.2353 17.454 7.11443 17.5199 6.99585Z" fill="#262e3a"/>
</g>
<path d="M9.01786 25.5157L3.86223 23.1956L5.2084 20.2455L10.3927 22.5368L9.01786 25.5157Z" fill="#262e3a"/>
<defs>
<filter id="filter0_d" x="37.4385" y="1.36405" width="123.727" height="32.0494" filterUnits="userSpaceOnUse" color-interpolation-filters="sRGB">
<feFlood flood-opacity="0" result="BackgroundImageFix"/>
<feColorMatrix in="SourceAlpha" type="matrix" values="0 0 0 0 0 0 0 0 0 0 0 0 0 0 0 0 0 0 127 0"/>
<feOffset dy="0.15508"/>
<feGaussianBlur stdDeviation="0.581549"/>
<feColorMatrix type="matrix" values="0 0 0 0 0 0 0 0 0 0 0 0 0 0 0 0 0 0 0.2 0"/>
<feBlend mode="normal" in2="BackgroundImageFix" result="effect1_dropShadow"/>
<feBlend mode="normal" in="SourceGraphic" in2="effect1_dropShadow" result="shape"/>
</filter>
<filter id="filter1_d" x="0.836902" y="0.991982" width="22.7524" height="32.5849" filterUnits="userSpaceOnUse" color-interpolation-filters="sRGB">
<feFlood flood-opacity="0" result="BackgroundImageFix"/>
<feColorMatrix in="SourceAlpha" type="matrix" values="0 0 0 0 0 0 0 0 0 0 0 0 0 0 0 0 0 0 127 0"/>
<feOffset dy="0.15508"/>
<feGaussianBlur stdDeviation="0.581549"/>
<feColorMatrix type="matrix" values="0 0 0 0 0 0 0 0 0 0 0 0 0 0 0 0 0 0 0.2 0"/>
<feBlend mode="normal" in2="BackgroundImageFix" result="effect1_dropShadow"/>
<feBlend mode="normal" in="SourceGraphic" in2="effect1_dropShadow" result="shape"/>
</filter>
<filter id="filter2_d" x="1.43846" y="19.8269" width="18.4525" height="13.9918" filterUnits="userSpaceOnUse" color-interpolation-filters="sRGB">
<feFlood flood-opacity="0" result="BackgroundImageFix"/>
<feColorMatrix in="SourceAlpha" type="matrix" values="0 0 0 0 0 0 0 0 0 0 0 0 0 0 0 0 0 0 127 0"/>
<feOffset dy="0.15508"/>
<feGaussianBlur stdDeviation="0.581549"/>
<feColorMatrix type="matrix" values="0 0 0 0 0 0 0 0 0 0 0 0 0 0 0 0 0 0 0.2 0"/>
<feBlend mode="normal" in2="BackgroundImageFix" result="effect1_dropShadow"/>
<feBlend mode="normal" in="SourceGraphic" in2="effect1_dropShadow" result="shape"/>
</filter>
<filter id="filter3_d" x="10.2939" y="18.5423" width="21.1536" height="15.2761" filterUnits="userSpaceOnUse" color-interpolation-filters="sRGB">
<feFlood flood-opacity="0" result="BackgroundImageFix"/>
<feColorMatrix in="SourceAlpha" type="matrix" values="0 0 0 0 0 0 0 0 0 0 0 0 0 0 0 0 0 0 127 0"/>
<feOffset dy="0.15508"/>
<feGaussianBlur stdDeviation="0.581549"/>
<feColorMatrix type="matrix" values="0 0 0 0 0 0 0 0 0 0 0 0 0 0 0 0 0 0 0.2 0"/>
<feBlend mode="normal" in2="BackgroundImageFix" result="effect1_dropShadow"/>
<feBlend mode="normal" in="SourceGraphic" in2="effect1_dropShadow" result="shape"/>
</filter>
<filter id="filter4_d" x="14.2998" y="0.991982" width="19.8801" height="32.5854" filterUnits="userSpaceOnUse" color-interpolation-filters="sRGB">
<feFlood flood-opacity="0" result="BackgroundImageFix"/>
<feColorMatrix in="SourceAlpha" type="matrix" values="0 0 0 0 0 0 0 0 0 0 0 0 0 0 0 0 0 0 127 0"/>
<feOffset dy="0.15508"/>
<feGaussianBlur stdDeviation="0.581549"/>
<feColorMatrix type="matrix" values="0 0 0 0 0 0 0 0 0 0 0 0 0 0 0 0 0 0 0.2 0"/>
<feBlend mode="normal" in2="BackgroundImageFix" result="effect1_dropShadow"/>
<feBlend mode="normal" in="SourceGraphic" in2="effect1_dropShadow" result="shape"/>
</filter>
<filter id="filter5_d" x="3.3994" y="0.991982" width="20.1912" height="23.3465" filterUnits="userSpaceOnUse" color-interpolation-filters="sRGB">
<feFlood flood-opacity="0" result="BackgroundImageFix"/>
<feColorMatrix in="SourceAlpha" type="matrix" values="0 0 0 0 0 0 0 0 0 0 0 0 0 0 0 0 0 0 127 0"/>
<feOffset dy="0.15508"/>
<feGaussianBlur stdDeviation="0.581549"/>
<feColorMatrix type="matrix" values="0 0 0 0 0 0 0 0 0 0 0 0 0 0 0 0 0 0 0.2 0"/>
<feBlend mode="normal" in2="BackgroundImageFix" result="effect1_dropShadow"/>
<feBlend mode="normal" in="SourceGraphic" in2="effect1_dropShadow" result="shape"/>
</filter>
</defs>
</svg>
