<svg width="1920" height="916" viewBox="0 0 1920 916" fill="none" xmlns="http://www.w3.org/2000/svg">
<g opacity="0.3">
<path opacity="0.33" d="M38.8887 795.485L186.075 635.12L242.701 698.472L240.883 700.078L186.044 638.756L48.5536 788.547L240.004 704.168L241.004 706.41L38.8887 795.485Z" fill="white"/>
<path opacity="0.56" d="M238.029 700.35C240.817 699.138 244.059 700.381 245.27 703.168C246.482 705.955 245.24 709.197 242.453 710.409C239.665 711.621 236.424 710.379 235.212 707.591C234 704.834 235.242 701.592 238.029 700.35Z" fill="white"/>
<path opacity="0.29" d="M237.514 702.744C239.544 705.016 243.028 705.198 245.27 703.168C247.543 701.138 247.724 697.654 245.694 695.412C243.664 693.14 240.18 692.958 237.938 694.988C235.696 696.988 235.484 700.472 237.514 702.744Z" fill="white"/>
<path opacity="0.23" d="M41.7617 791.546L43.216 790.91L239.999 704.168L240.999 706.41L45.6701 792.486L123.959 888.62L241.423 706.895L243.453 708.228L124.202 892.771L123.141 891.468L41.7617 791.546Z" fill="white"/>
<path opacity="0.59" d="M237.672 704.805C239.308 702.26 242.732 701.533 245.277 703.169C247.822 704.805 248.549 708.229 246.913 710.774C245.277 713.319 241.854 714.046 239.309 712.41C236.764 710.774 236.036 707.35 237.672 704.805Z" fill="white"/>
<path opacity="0.06" d="M242.453 710.44C245.24 709.228 246.482 705.956 245.27 703.199C244.059 700.412 240.786 699.17 238.029 700.382C235.242 701.593 234 704.866 235.212 707.623C236.424 710.38 239.696 711.652 242.453 710.44Z" fill="white"/>
<path opacity="0.54" d="M47.6118 841.902L42.0977 788.094L129.294 895.135L53.2775 850.689L54.4894 848.598L118.872 886.228L45.3395 795.941L50.0356 841.66L47.6118 841.902Z" fill="white"/>
<path opacity="0.69" d="M51.3406 854.535C48.7047 852.99 47.8261 849.627 49.3713 846.991C50.9165 844.355 54.2795 843.476 56.9154 845.021C59.5513 846.566 60.4299 849.929 58.8848 852.565C57.3396 855.171 53.9765 856.05 51.3406 854.535Z" fill="white"/>
<path opacity="0.41" d="M43.3418 842.084C43.6448 845.113 46.3413 847.295 49.3711 846.992C52.4008 846.689 54.5823 843.992 54.2793 840.963C53.9763 837.933 51.2798 835.751 48.2501 836.054C45.2203 836.357 43.0086 839.054 43.3418 842.084Z" fill="white"/>
<path opacity="0.6" d="M-10.4989 207.257C-8.86285 204.712 -5.43921 203.955 -2.89421 205.591C-0.349209 207.227 0.408217 210.65 -1.22785 213.195C-2.86393 215.74 -6.25727 216.498 -8.83256 214.862C-11.4079 213.226 -12.135 209.832 -10.4989 207.257Z" fill="white"/>
<path opacity="0.67" d="M-10.0445 202.53C-8.92353 205.348 -5.71198 206.711 -2.8943 205.59C-0.076622 204.469 1.28675 201.258 0.165743 198.44C-0.95527 195.622 -4.16682 194.259 -6.9845 195.38C-9.80218 196.501 -11.1959 199.712 -10.0445 202.53Z" fill="white"/>
<path opacity="0.34" d="M-116.48 395.678L172.68 450.093L172.226 452.486L-111.996 399.011L26.9485 665.63L173.589 455.849L175.589 457.243L26.6152 670.326L-116.48 395.678Z" fill="white"/>
<path opacity="0.46" d="M169.925 453.606C171.652 451.121 175.106 450.516 177.59 452.242C180.074 453.969 180.68 457.423 178.953 459.908C177.226 462.392 173.772 462.998 171.288 461.271C168.773 459.544 168.167 456.121 169.925 453.606Z" fill="white"/>
<path opacity="0.2" d="M171.169 456.667C174.168 457.243 177.047 455.273 177.592 452.274C178.168 449.275 176.198 446.396 173.199 445.851C170.199 445.275 167.321 447.245 166.776 450.244C166.2 453.213 168.169 456.092 171.169 456.667Z" fill="white"/>
<path opacity="0.61" d="M-224.402 624.698L-114.27 394.618L-113.149 396.769L28.9767 669.539L-220.585 631.939L-220.191 629.516L24.5836 666.418L-114.18 400.072L-222.191 625.759L-224.402 624.698Z" fill="white"/>
<path opacity="0.3" d="M24.0391 669.751L25.766 667.267L178.618 448.639L187.04 631.667L184.616 631.758L176.527 455.911L29.5229 666.206L180.708 636.727L181.163 639.12L24.0391 669.751Z" fill="white"/>
<path opacity="0.1" d="M179.62 632.574C182.589 631.999 185.498 633.938 186.074 636.937C186.649 639.906 184.71 642.815 181.711 643.391C178.742 643.966 175.833 642.027 175.257 639.028C174.682 636.059 176.621 633.15 179.62 632.574Z" fill="white"/>
<path opacity="0.19" d="M180.315 631.697C180.467 634.726 183.042 637.09 186.072 636.938C189.102 636.787 191.465 634.211 191.313 631.182C191.162 628.152 188.587 625.789 185.557 625.94C182.527 626.061 180.164 628.637 180.315 631.697Z" fill="white"/>
<path opacity="0.43" d="M42.8557 794.759L25.4043 666.994L180.71 636.727L181.164 639.121L28.1614 668.964L44.5827 789.276L181.649 639.969L183.437 641.605L42.8557 794.759Z" fill="white"/>
<path opacity="0.35" d="M178.288 637.272C180.348 635.03 183.832 634.879 186.074 636.939C188.316 638.999 188.468 642.484 186.408 644.726C184.347 646.968 180.863 647.119 178.621 645.059C176.379 642.999 176.228 639.514 178.288 637.272Z" fill="white"/>
<path opacity="0.52" d="M181.71 643.392C184.679 642.816 186.648 639.908 186.072 636.938C185.497 633.969 182.588 632 179.619 632.576C176.65 633.151 174.681 636.06 175.256 639.029C175.832 642.028 178.74 643.968 181.71 643.392Z" fill="white"/>
<path opacity="0.03" d="M-81.7559 316.964L28.4972 281.728L53.6139 308.087L51.8264 309.784L27.77 284.515L-64.971 314.146L51.0689 311.632L51.1295 314.056L-81.7559 316.964Z" fill="white"/>
<path opacity="0.14" d="M50.7027 307.361C53.7324 307.3 56.2471 309.693 56.338 312.753C56.3986 315.783 54.0051 318.298 50.9451 318.389C47.9153 318.449 45.4006 316.056 45.3097 312.996C45.2491 309.936 47.6729 307.421 50.7027 307.361Z" fill="white"/>
<path opacity="0.63" d="M48.553 312.541C50.6435 314.752 54.1278 314.813 56.3395 312.722C58.5512 310.632 58.6118 307.148 56.5213 304.936C54.4308 302.724 50.9465 302.664 48.7348 304.754C46.5231 306.845 46.4322 310.329 48.553 312.541Z" fill="white"/>
<path opacity="0.06" d="M-116.965 400.041L-74.1543 314.359H-73.4272L51.0355 311.632L51.0961 313.996L52.1565 316.147L-116.965 400.041ZM-72.6091 316.783L-111.511 394.648L50.884 314.086L-72.6091 316.783Z" fill="white"/>
<path opacity="0.63" d="M50.7027 307.361C53.7324 307.3 56.2471 309.693 56.338 312.753C56.3986 315.783 54.0051 318.298 50.9451 318.389C47.9153 318.449 45.4006 316.056 45.3097 312.996C45.2491 309.936 47.6729 307.421 50.7027 307.361Z" fill="white"/>
<path opacity="0.24" d="M53.822 320.116C56.5488 318.753 57.6698 315.45 56.3064 312.754C54.943 310.027 51.6406 308.906 48.9441 310.269C46.2173 311.633 45.0963 314.935 46.4597 317.632C47.8231 320.328 51.1255 321.449 53.822 320.116Z" fill="white"/>
<path opacity="0.13" d="M-118.021 397.858L51.0999 313.964L52.1906 316.146L-110.417 396.798L174.351 450.425L58.8258 317.479L60.6739 315.873L180.804 454.121L-118.021 397.858Z" fill="white"/>
<path opacity="0.44" d="M48.9425 310.238C51.6693 308.874 54.9717 309.995 56.3048 312.722C57.6682 315.449 56.5472 318.751 53.8204 320.084C51.0936 321.448 47.7912 320.327 46.4581 317.6C45.125 314.873 46.2158 311.601 48.9425 310.238Z" fill="white"/>
<path opacity="0.17" d="M64.0913 313.269C62.0916 310.966 58.6074 310.724 56.3351 312.723C54.0325 314.723 53.7901 318.207 55.7897 320.479C57.7894 322.782 61.2736 323.025 63.5459 321.025C65.8485 319.056 66.0909 315.571 64.0913 313.269Z" fill="white"/>
<path opacity="0.43" d="M-77.6992 320.056L-6.7422 209.349L-4.68195 210.651L-69.0341 311.058L8.40662 257.249L-2.8641 210.985L-0.470589 210.379L11.1637 258.279L-77.6992 320.056Z" fill="white"/>
<path opacity="0.47" d="M-10.4989 207.257C-8.86285 204.712 -5.43921 203.955 -2.89421 205.591C-0.349209 207.227 0.408217 210.65 -1.22785 213.195C-2.86393 215.74 -6.25727 216.498 -8.83256 214.862C-11.4079 213.226 -12.135 209.832 -10.4989 207.257Z" fill="white"/>
<path opacity="0.05" d="M3.73835 209.651C3.01121 206.712 0.0420589 204.894 -2.89681 205.591C-5.83568 206.318 -7.65355 209.287 -6.9567 212.226C-6.22956 215.165 -3.26039 216.983 -0.321517 216.286C2.64765 215.589 4.4655 212.59 3.73835 209.651Z" fill="white"/>
<path opacity="0.06" d="M-80.7305 319.206L4.79972 259.732L6.19343 261.762L-66.0058 311.935L26.1596 282.485L11.8591 262.701L13.8284 261.277L30.0983 283.788L-80.7305 319.206Z" fill="white"/>
<path opacity="0.39" d="M2.13912 256.369C4.62352 254.642 8.07745 255.248 9.80441 257.732C11.5314 260.217 10.9254 263.671 8.44103 265.398C5.95662 267.125 2.5027 266.519 0.775733 264.034C-0.98153 261.55 -0.345289 258.126 2.13912 256.369Z" fill="white"/>
<path opacity="0.69" d="M17.4661 259.006C15.6785 256.552 12.2549 255.976 9.77052 257.764C7.31641 259.551 6.74074 262.975 8.5283 265.459C10.3159 267.913 13.7395 268.489 16.2239 266.701C18.7083 264.914 19.2537 261.46 17.4661 259.006Z" fill="white"/>
<path opacity="0.66" d="M11.4043 755.735L11.4952 755.19L24.7353 672.962L26.7046 673.265L28.674 672.993L45.4588 796.001L11.4043 755.735ZM26.6743 676.265L13.9796 755.008L41.9443 788.033L26.6743 676.265Z" fill="white"/>
<path opacity="0.11" d="M22.0697 674.175C21.6455 671.175 23.7663 668.388 26.7658 667.964C29.7652 667.54 32.5526 669.66 32.9768 672.66C33.401 675.659 31.2801 678.447 28.2807 678.871C25.2509 679.295 22.4938 677.174 22.0697 674.175Z" fill="white"/>
<path opacity="0.66" d="M31.34 674.265C31.8247 671.265 29.7948 668.447 26.7953 667.963C23.7959 667.478 20.9782 669.508 20.4934 672.507C20.0086 675.507 22.0386 678.324 25.0381 678.809C28.0375 679.324 30.8552 677.294 31.34 674.265Z" fill="white"/>
<path opacity="0.22" d="M-223.49 634.909L-221.521 633.485L-188.284 679.446L15.0733 667.448L-220.582 631.939L-220.188 629.516L38.4933 668.509L-189.496 681.961L-223.49 634.909Z" fill="white"/>
<path opacity="0.36" d="M-192.248 679.657L-188.976 679.476L26.7129 666.75L27.0462 669.174L-148.286 707.531L-148.801 705.168L11.352 670.114L-185.522 681.718L-157.072 703.35L-158.557 705.289L-192.248 679.657Z" fill="white"/>
<path opacity="0.53" d="M199.133 965.848L128.6 893.558L126.873 895.285L195.709 965.848H199.133Z" fill="white"/>
<path opacity="0.53" d="M125.329 895.922H122.875V965.88H125.329V895.922Z" fill="white"/>
<path opacity="0.53" d="M118.604 896.194C118.604 893.165 121.058 890.68 124.118 890.68C127.147 890.68 129.632 893.134 129.632 896.194C129.632 899.224 127.178 901.709 124.118 901.709C121.058 901.678 118.604 899.224 118.604 896.194Z" fill="white"/>
<path opacity="0.15" d="M131.864 890.77C129.743 888.589 126.259 888.558 124.077 890.679C121.896 892.8 121.865 896.284 123.986 898.466C126.107 900.647 129.591 900.677 131.773 898.556C133.954 896.436 133.984 892.951 131.864 890.77Z" fill="white"/>
<path opacity="0.65" d="M199.133 965.849L129.509 894.498L286.39 965.849H292.298L129.357 891.741L128.449 893.741L126.873 895.286L195.74 965.849H199.133Z" fill="white"/>
<path opacity="0.55" d="M126.811 897.981C124.054 896.709 122.812 893.467 124.084 890.679C125.357 887.922 128.599 886.68 131.386 887.953C134.143 889.225 135.385 892.467 134.113 895.254C132.84 898.011 129.599 899.223 126.811 897.981Z" fill="white"/>
<path opacity="0.14" d="M131.864 890.77C129.743 888.589 126.259 888.558 124.077 890.679C121.896 892.8 121.865 896.284 123.986 898.466C126.107 900.647 129.591 900.677 131.773 898.556C133.954 896.436 133.984 892.951 131.864 890.77Z" fill="white"/>
<path opacity="0.19" d="M121.236 892.832L241.427 706.895L243.457 708.228L126.932 888.529L304.234 833.509L246.366 708.44L248.577 707.41L307.627 835.024L306.294 835.418L121.236 892.832Z" fill="white"/>
<path opacity="0.53" d="M237.672 704.805C239.308 702.26 242.732 701.533 245.277 703.169C247.822 704.805 248.549 708.229 246.913 710.774C245.277 713.319 241.854 714.046 239.309 712.41C236.764 710.774 236.036 707.35 237.672 704.805Z" fill="white"/>
<path opacity="0.65" d="M252.606 705.864C251.333 703.107 248.061 701.895 245.304 703.168C242.547 704.44 241.335 707.713 242.607 710.47C243.88 713.227 247.152 714.439 249.909 713.166C252.666 711.894 253.878 708.622 252.606 705.864Z" fill="white"/>
<path opacity="0.35" d="M339.227 965.848L308.353 839.053L305.99 839.628L336.712 965.848H339.227Z" fill="white"/>
<path opacity="0.35" d="M292.292 965.85L127.503 890.894L301.291 836.964L300.564 834.631L120.656 890.469L286.384 965.85H292.292Z" fill="white"/>
<path opacity="0.16" d="M299.055 830.631C301.964 829.722 305.054 831.358 305.932 834.266C306.841 837.175 305.205 840.265 302.297 841.144C299.388 842.053 296.298 840.417 295.419 837.508C294.51 834.63 296.146 831.54 299.055 830.631Z" fill="white"/>
<path opacity="0.17" d="M312.566 838.297C311.839 835.358 308.87 833.54 305.931 834.237C302.992 834.964 301.175 837.933 301.871 840.872C302.599 843.811 305.568 845.629 308.507 844.932C311.476 844.235 313.294 841.266 312.566 838.297Z" fill="white"/>
<path opacity="0.35" d="M98.6017 965.849L123.476 896.013L121.173 895.195L95.9961 965.849H98.6017Z" fill="white"/>
<path opacity="0.35" d="M34.2853 965.849L120.815 894.953L119.27 893.044L30.4375 965.849H34.2853Z" fill="white"/>
<path opacity="0.58" d="M116.362 889.922C118.725 887.983 122.179 888.347 124.118 890.68C126.057 893.043 125.693 896.497 123.36 898.436C120.997 900.375 117.543 900.011 115.604 897.678C113.665 895.315 113.998 891.831 116.362 889.922Z" fill="white"/>
<path opacity="0.1" d="M127.416 897.71C128.446 894.831 126.931 891.711 124.083 890.68C121.235 889.65 118.084 891.165 117.054 894.013C116.024 896.861 117.539 900.012 120.387 901.042C123.265 902.072 126.416 900.588 127.416 897.71Z" fill="white"/>
<path opacity="0.1" d="M98.6017 965.849L122.87 897.74V965.849H125.324L125.294 895.922H123.173L121.173 895.195L95.9961 965.849H98.6017Z" fill="white"/>
<path opacity="0.47" d="M118.604 896.194C118.604 893.165 121.058 890.68 124.118 890.68C127.147 890.68 129.632 893.134 129.632 896.194C129.632 899.224 127.178 901.709 124.118 901.709C121.058 901.678 118.604 899.224 118.604 896.194Z" fill="white"/>
<path opacity="0.05" d="M127.416 897.71C128.446 894.831 126.931 891.711 124.083 890.68C121.235 889.65 118.084 891.165 117.054 894.013C116.024 896.861 117.539 900.012 120.387 901.042C123.265 902.072 126.416 900.588 127.416 897.71Z" fill="white"/>
<path opacity="0.04" d="M3.13281 923.645L45.6707 850.9L47.7915 852.112L8.22282 919.797L120.93 890.257L53.2754 850.688L54.4873 848.598L127.232 891.105L3.13281 923.645Z" fill="white"/>
<path opacity="0.46" d="M51.3406 854.535C48.7047 852.99 47.8261 849.627 49.3713 846.991C50.9165 844.355 54.2795 843.476 56.9154 845.021C59.5513 846.566 60.4299 849.929 58.8848 852.565C57.3396 855.171 53.9765 856.05 51.3406 854.535Z" fill="white"/>
<path opacity="0.6" d="M51.3419 854.536C52.8871 851.9 51.9781 848.537 49.3725 846.992C46.7367 845.446 43.3736 846.355 41.8587 848.961C40.3135 851.597 41.2225 854.96 43.8281 856.505C46.4337 858.02 49.7967 857.141 51.3419 854.536Z" fill="white"/>
<path opacity="0.19" d="M7.86308 965.849L6.92386 922.645L118.995 893.287L30.4348 965.849H34.2826L120.813 894.953L119.328 893.105L118.722 890.833L4.43945 920.767L5.43928 965.849H7.86308Z" fill="white"/>
<path opacity="0.69" d="M116.362 889.922C118.725 887.983 122.179 888.347 124.118 890.68C126.057 893.043 125.693 896.497 123.36 898.436C120.997 900.375 117.543 900.011 115.604 897.678C113.665 895.315 113.998 891.831 116.362 889.922Z" fill="white"/>
<path opacity="0.26" d="M120.177 897.407C123.116 896.65 124.874 893.62 124.116 890.681C123.359 887.742 120.329 885.985 117.39 886.742C114.451 887.5 112.694 890.53 113.451 893.468C114.209 896.407 117.208 898.165 120.177 897.407Z" fill="white"/>
<path opacity="0.06" d="M-149.803 711.229L-148.53 709.138L-56.6376 765.068L23.53 669.933L-148.288 707.533L-148.803 705.169L30.044 666.025L-56.1225 768.249L-149.803 711.229Z" fill="white"/>
<path opacity="0.4" d="M-59.4238 768.398L22.501 671.173L24.3491 672.749L-53.3037 764.914L11.6544 754.31L24.743 672.931L27.1668 673.324L13.7753 756.431L12.8966 756.582L-59.4238 768.398Z" fill="white"/>
<path opacity="0.21" d="M20.4653 672.538C20.95 669.539 23.7677 667.509 26.7672 667.993C29.7666 668.478 31.7966 671.296 31.3118 674.295C30.827 677.295 28.0094 679.325 25.0099 678.84C22.0407 678.355 19.9805 675.538 20.4653 672.538Z" fill="white"/>
<path opacity="0.42" d="M27.4361 675.718C29.4055 673.385 29.1025 669.931 26.7696 667.962C24.4367 665.992 20.9827 666.295 19.0134 668.628C17.0441 670.961 17.347 674.415 19.68 676.384C22.0129 678.354 25.4971 678.051 27.4361 675.718Z" fill="white"/>
<path opacity="0.33" d="M-62.3633 766.399L7.35155 755.007L7.74541 757.431L-50.3957 766.914L40.3457 789.91L15.1684 760.157L17.0165 758.582L47.102 794.121L-62.3633 766.399Z" fill="white"/>
<path opacity="0.02" d="M12.0434 763.128C10.0741 760.795 10.377 757.341 12.6797 755.372C14.9823 753.402 18.4665 753.705 20.4358 756.008C22.4052 758.341 22.1022 761.795 19.7996 763.764C17.497 765.733 14.0128 765.461 12.0434 763.128Z" fill="white"/>
<path opacity="0.08" d="M8.16349 761.703C11.163 761.218 13.1929 758.371 12.7081 755.371C12.2234 752.372 9.37541 750.342 6.37594 750.826C3.37648 751.311 1.34654 754.159 1.8313 757.159C2.31606 760.158 5.16403 762.188 8.16349 761.703Z" fill="white"/>
<path opacity="0.16" d="M-61.8828 764.006L38.9477 789.547L38.3417 791.91L-50.8545 769.308L47.8552 844.325L43.0379 797.334L45.4617 797.091L50.885 849.658L-61.8828 764.006Z" fill="white"/>
<path opacity="0.53" d="M38.7976 798.061C38.4946 795.031 40.6761 792.334 43.7058 792.032C46.7356 791.729 49.4321 793.91 49.7351 796.94C50.038 799.969 47.8566 802.666 44.8269 802.969C41.8274 803.272 39.1309 801.09 38.7976 798.061Z" fill="white"/>
<path opacity="0.28" d="M37.0434 795.999C39.9822 796.757 42.9817 794.969 43.7391 792.03C44.4966 789.091 42.709 786.092 39.7701 785.335C36.8313 784.577 33.8318 786.365 33.0744 789.304C32.3169 792.273 34.1045 795.242 37.0434 795.999Z" fill="white"/>
<path opacity="0.39" d="M-59.125 763.038L45.9472 842.872L44.4626 844.811L-53.6108 770.309L5.89369 918.949L45.6745 850.901L47.7953 852.113L5.46952 924.494L-59.125 763.038Z" fill="white"/>
<path opacity="0.41" d="M41.8257 848.961C43.3709 846.325 46.734 845.447 49.3396 846.992C51.9754 848.537 52.8541 851.9 51.3089 854.536C49.7637 857.172 46.4007 858.051 43.7951 856.505C41.1895 854.96 40.3108 851.597 41.8257 848.961Z" fill="white"/>
<path opacity="0.69" d="M41.6424 848.052C44.0662 849.9 47.5202 849.416 49.3683 846.992C51.2165 844.568 50.7317 841.114 48.3079 839.266C45.8841 837.418 42.4302 837.903 40.6123 840.326C38.7642 842.75 39.2489 846.204 41.6424 848.052Z" fill="white"/>
<path opacity="0.63" d="M-129.387 965.848L-56.339 770.035L4.10477 921.038L-107.906 965.848H-101.331L7.25572 922.401L-56.3996 763.278L-131.992 965.848H-129.387Z" fill="white"/>
<path opacity="0.48" d="M151.314 302.906L168.796 91.0352L195.731 118.576L193.337 120.939L171.553 98.7005L156.283 283.819L196.125 131.513L199.397 132.391L154.647 303.452L151.314 302.906Z" fill="white"/>
<path opacity="0.32" d="M190.29 130.392C191.35 126.302 195.531 123.878 199.591 124.939C203.681 125.999 206.105 130.18 205.045 134.24C203.984 138.33 199.803 140.754 195.744 139.694C191.684 138.633 189.23 134.483 190.29 130.392Z" fill="white"/>
<path opacity="0.32" d="M188.828 124.817C191.767 127.816 196.615 127.877 199.614 124.938C202.614 121.999 202.674 117.152 199.735 114.152C196.796 111.153 191.949 111.092 188.949 114.031C185.92 116.97 185.859 121.818 188.828 124.817Z" fill="white"/>
<path opacity="0.02" d="M121.147 451.395C121.359 447.184 124.934 443.942 129.145 444.154C133.356 444.366 136.598 447.941 136.386 452.153C136.174 456.364 132.599 459.606 128.388 459.394C124.176 459.182 120.934 455.606 121.147 451.395Z" fill="white"/>
<path opacity="0.42" d="M139.628 441.579C136.022 439.398 131.326 440.549 129.145 444.155C126.963 447.76 128.115 452.456 131.72 454.638C135.326 456.819 140.022 455.668 142.203 452.062C144.385 448.427 143.233 443.761 139.628 441.579Z" fill="white"/>
<path opacity="0.31" d="M117.451 830.509L116.663 827.752L115.027 825.389L419.367 615.062L410.217 746.16L117.451 830.509ZM415.519 621.849L119.511 826.388L407.036 743.555L415.519 621.849Z" fill="white"/>
<path opacity="0.28" d="M119.48 836.114C115.42 837.265 111.209 834.932 110.027 830.903C108.846 826.843 111.209 822.631 115.239 821.45C119.298 820.298 123.51 822.631 124.691 826.661C125.873 830.721 123.51 834.932 119.48 836.114Z" fill="white"/>
<path opacity="0.24" d="M111.966 820.269C108.512 822.662 107.634 827.419 110.027 830.873C112.421 834.327 117.177 835.205 120.631 832.812C124.085 830.418 124.964 825.662 122.57 822.208C120.177 818.754 115.45 817.875 111.966 820.269Z" fill="white"/>
<path opacity="0.33" d="M894.605 942.35L920.661 870.666L1023.49 920.021L1024.98 916.991L918.783 866L891 942.35H894.605Z" fill="white"/>
<path opacity="0.29" d="M-253 266.913V270.579L173.288 95.3981L13.195 -51H8.19586L167.077 94.3074L-253 266.913Z" fill="white"/>
<path opacity="0.39" d="M161.048 -12.371C164.684 -10.2501 165.926 -5.58429 163.805 -1.94858C161.684 1.68714 157.018 2.92934 153.383 0.808504C149.747 -1.31233 148.505 -5.97817 150.626 -9.61388C152.716 -13.2496 157.382 -14.4918 161.048 -12.371Z" fill="white"/>
<path opacity="0.36" d="M162.596 5.38389L168.201 90.7626L13.1983 -51H8.19922L172.14 98.943L165.959 5.1718L162.596 5.38389Z" fill="white"/>
<path opacity="0.53" d="M161.048 -12.371C164.684 -10.2501 165.926 -5.58429 163.805 -1.94858C161.684 1.68714 157.018 2.92934 153.383 0.808504C149.747 -1.31233 148.505 -5.97817 150.626 -9.61388C152.716 -13.2496 157.382 -14.4918 161.048 -12.371Z" fill="white"/>
<path opacity="0.34" d="M171.897 5.1714C171.624 0.960027 167.988 -2.22122 163.777 -1.94855C159.565 -1.67587 156.384 1.95985 156.657 6.17122C156.93 10.3826 160.565 13.5638 164.777 13.2912C168.988 12.9882 172.169 9.35247 171.897 5.1714Z" fill="white"/>
<path opacity="0.34" d="M722.85 934.935L799.407 581.86L795.552 581L718.818 934.935H722.85Z" fill="white"/>
<path opacity="0.34" d="M701.849 931.366L414.724 744.396L796.646 583.806L796.594 580L407.499 743L696.93 931.913L701.849 931.366Z" fill="white"/>
<path opacity="0.46" d="M792.181 576.998C793.09 572.878 797.15 570.272 801.27 571.181C805.391 572.09 807.996 576.15 807.087 580.27C806.178 584.391 802.119 586.996 797.998 586.087C793.878 585.178 791.272 581.118 792.181 576.998Z" fill="white"/>
<path opacity="0.2" d="M801.016 587.418C805.504 586.461 808.374 582.072 807.418 577.585C806.461 573.098 802.072 570.227 797.585 571.184C793.098 572.141 790.227 576.529 791.184 581.017C792.141 585.504 796.529 588.374 801.016 587.418Z" fill="white"/>
<path opacity="0.61" d="M398.677 965.849L410.13 748.312L670.144 965.849H675.416L409.706 743.555L407.131 741.404L395.314 965.849H398.677Z" fill="white"/>
<path opacity="0.02" d="M805.967 965.848H812.087L915.372 897.254L913.493 894.436L805.967 965.848Z" fill="white"/>
<path opacity="0.34" d="M720.38 960.617L801 594.5L916.988 865.596L920.527 863.903L799.803 581.759L716.41 960.566L720.38 960.617Z" fill="white"/>
<path opacity="0.1" d="M913.402 863.273C916.916 860.94 921.643 861.91 923.976 865.394C926.309 868.909 925.339 873.635 921.855 875.968C918.34 878.301 913.614 877.331 911.281 873.847C908.948 870.333 909.887 865.606 913.402 863.273Z" fill="white"/>
<path opacity="0.43" d="M896.605 935.776L920.844 869.151L917.662 868L893 935.776H896.605Z" fill="white"/>
<path opacity="0.43" d="M816.12 937.412L919.405 868.818L917.526 866L810 937.412H816.12Z" fill="white"/>
<path opacity="0.35" d="M911.47 867.03C912.924 863.061 917.287 861.031 921.256 862.455C925.225 863.909 927.255 868.272 925.831 872.241C924.407 876.21 920.014 878.24 916.045 876.816C912.046 875.361 910.016 870.999 911.47 867.03Z" fill="white"/>
<path opacity="0.52" d="M922.855 875.976C926.369 873.643 927.309 868.916 924.976 865.402C922.643 861.887 917.916 860.948 914.402 863.281C910.887 865.614 909.948 870.34 912.281 873.855C914.614 877.369 919.34 878.309 922.855 875.976Z" fill="white"/>
<path opacity="0.39" d="M137.206 965.85L114.028 842.994L173.805 965.85H177.562L106.029 818.786L133.782 965.85H137.206Z" fill="white"/>
<path opacity="0.49" d="M286.874 965.849L406.55 752.008L395.309 965.849H398.703L410.701 737.708L282.996 965.849H286.874Z" fill="white"/>
<path opacity="0.6" d="M411.198 750.075C415.318 749.197 417.954 745.167 417.075 741.047C416.197 736.926 412.167 734.29 408.047 735.169C403.926 736.048 401.29 740.077 402.169 744.198C403.048 748.318 407.077 750.954 411.198 750.075Z" fill="white"/>
<path opacity="0.24" d="M168.744 98.6394L162.594 5.38333L165.957 5.17125L171.622 91.0953L205.556 57.8891L166.714 4.89857L169.441 2.89893L210.01 58.2527L168.744 98.6394Z" fill="white"/>
<path opacity="0.3" d="M156.682 6.17122C156.41 1.95985 159.591 -1.67587 163.802 -1.94855C168.014 -2.22122 171.649 0.960027 171.922 5.1714C172.195 9.38277 169.013 13.0185 164.802 13.2912C160.591 13.5638 156.955 10.3826 156.682 6.17122Z" fill="white"/>
<path opacity="0.03" d="M174.438 -0.312623C171.953 -3.70596 167.166 -4.4331 163.773 -1.94869C160.379 0.535714 159.652 5.32273 162.137 8.71607C164.621 12.1094 169.408 12.8365 172.801 10.3521C176.195 7.86774 176.952 3.08071 174.438 -0.312623Z" fill="white"/>
<path opacity="0.12" d="M167.777 94.8227L201.438 61.9194L203.801 64.3432L172.564 94.8833L198.348 121.242L205.225 65.0401L208.588 65.4643L200.862 128.635L167.777 94.8227Z" fill="white"/>
<path opacity="0.58" d="M196.983 57.9505C199.983 55.0116 204.83 55.0722 207.769 58.0717C210.708 61.0712 210.648 65.9188 207.648 68.8576C204.649 71.7965 199.801 71.7359 196.862 68.7365C193.923 65.737 193.984 60.8894 196.983 57.9505Z" fill="white"/>
<path opacity="0.32" d="M214.436 66.5546C214.951 62.3735 211.982 58.556 207.801 58.0712C203.62 57.5562 199.803 60.5253 199.318 64.7064C198.803 68.8875 201.772 72.705 205.953 73.1898C210.104 73.7048 213.921 70.7356 214.436 66.5546Z" fill="white"/>
<path opacity="0.48" d="M-253 270.579L160.078 100.822L-175.044 371.561L-253 291.878V296.726L-175.317 376.136L180.256 88.8843L-253 266.913V270.579Z" fill="white"/>
<path opacity="0.28" d="M-181.771 377.014L163.47 98.0942L165.591 100.73L-168.592 370.682L151.442 301.634L167.893 101.942L171.256 102.215L154.593 304.421L153.35 304.694L-181.771 377.014Z" fill="white"/>
<path opacity="0.25" d="M161.96 101.821C162.294 97.6096 165.99 94.489 170.201 94.8525C174.413 95.1858 177.533 98.8821 177.17 103.093C176.837 107.305 173.14 110.426 168.929 110.062C164.717 109.729 161.597 106.032 161.96 101.821Z" fill="white"/>
<path opacity="0.57" d="M169.013 105.578C172.285 102.942 172.8 98.1248 170.164 94.8527C167.528 91.5805 162.711 91.0655 159.439 93.7014C156.166 96.3373 155.651 101.155 158.287 104.427C160.953 107.729 165.74 108.244 169.013 105.578Z" fill="white"/>
<path opacity="0.03" d="M197.766 125.998L205.219 65.0391L208.582 65.4633L201.432 123.877L269.147 151.812L210.43 65.0088L213.248 63.1304L278.236 159.234L197.766 125.998Z" fill="white"/>
<path opacity="0.28" d="M199.285 64.7064C199.8 60.5253 203.587 57.5562 207.768 58.0712C211.949 58.5863 214.918 62.3735 214.403 66.5546C213.888 70.7356 210.101 73.7048 205.92 73.1898C201.739 72.705 198.77 68.8875 199.285 64.7064Z" fill="white"/>
<path opacity="0.07" d="M218.369 60.1013C216.005 56.6171 211.279 55.7081 207.764 58.0411C204.28 60.4043 203.371 65.1307 205.704 68.6452C208.067 72.1295 212.794 73.0384 216.308 70.6752C219.823 68.3422 220.732 63.5855 218.369 60.1013Z" fill="white"/>
<path opacity="0.7" d="M-64.217 652.39L-120.268 551.741L27.4939 530.078L-53.8249 652.784L-56.6426 650.905L20.4952 534.502L-114.935 554.377L-61.2781 650.723L-64.217 652.39Z" fill="white"/>
<path opacity="0.62" d="M111.206 841.114L22.0703 531.714L22.9186 530.987L122.507 447.517L124.688 450.092L25.9181 532.866L108.843 820.663L127.082 451.304L130.475 451.456L111.206 841.114Z" fill="white"/>
<path opacity="0.26" d="M121.147 451.395C121.359 447.184 124.934 443.942 129.145 444.154C133.356 444.366 136.598 447.941 136.386 452.153C136.174 456.364 132.599 459.606 128.388 459.394C124.176 459.182 120.934 455.606 121.147 451.395Z" fill="white"/>
<path opacity="0.49" d="M128.206 454.911C131.448 452.214 131.872 447.397 129.145 444.155C126.448 440.913 121.631 440.489 118.389 443.216C115.147 445.912 114.723 450.73 117.45 453.971C120.147 457.183 124.964 457.607 128.206 454.911Z" fill="white"/>
<path opacity="0.68" d="M45.1279 810.392L-61.2773 657.904L-60.6411 656.935L25.2224 527.382L51.6722 807.968L48.3092 808.301L22.7683 537.229L-57.1872 657.874L47.9153 808.453L45.1279 810.392Z" fill="white"/>
<path opacity="0.15" d="M57.5548 807.06C57.9486 811.241 54.8583 814.967 50.6772 815.361C46.4961 815.755 42.7695 812.665 42.3756 808.484C41.9818 804.302 45.0721 800.576 49.2532 800.182C53.4343 799.758 57.1609 802.848 57.5548 807.06Z" fill="white"/>
<path opacity="0.62" d="M40.0446 813.451C42.4684 816.905 47.2251 817.753 50.6791 815.33C54.133 812.906 54.9813 808.149 52.5575 804.695C50.1337 801.241 45.3769 800.393 41.923 802.817C38.4994 805.24 37.6511 809.997 40.0446 813.451Z" fill="white"/>
<path opacity="0.22" d="M57.2457 818.815L58.094 815.543L107.57 828.51L27.3722 550.136L51.6709 807.969L48.3078 808.302L22.3125 532.442L25.6149 531.836L112.478 833.267L57.2457 818.815Z" fill="white"/>
<path opacity="0.28" d="M56.1302 824.662C52.04 823.601 49.6162 819.42 50.6766 815.36C51.737 811.27 55.9181 808.846 59.978 809.907C64.0682 810.967 66.492 815.148 65.4315 819.208C64.3711 823.298 60.19 825.722 56.1302 824.662Z" fill="white"/>
<path opacity="0.67" d="M42.3759 808.483C42.7698 812.664 46.4964 815.754 50.6775 815.36C54.8586 814.967 57.9489 811.24 57.555 807.059C57.1612 802.878 53.4346 799.787 49.2535 800.181C45.0421 800.545 41.9821 804.271 42.3759 808.483Z" fill="white"/>
<path opacity="0.31" d="M-121.421 546.68L-177.865 371.044L35.9755 450.061L-110.665 550.376L-112.574 547.589L28.6737 450.97L-172.503 376.649L-118.209 545.65L-121.421 546.68Z" fill="white"/>
<path opacity="0.13" d="M-110.179 553.679L-110.664 550.347L-112.572 547.59L34.4015 447.092L25.5546 533.774L24.2518 533.956L-110.179 553.679ZM30.281 453.97L-110.603 550.316L22.4642 530.805L30.281 453.97Z" fill="white"/>
<path opacity="0.49" d="M21.9492 460.545L147.109 307.573L149.714 309.694L42.7031 440.519L165.439 347.202L153.623 310.451L156.834 309.421L169.377 348.444L21.9492 460.545Z" fill="white"/>
<path opacity="0.52" d="M148.077 312.632C146.774 308.633 148.986 304.331 153.015 303.028C157.015 301.725 161.317 303.937 162.62 307.967C163.923 311.966 161.711 316.268 157.681 317.571C153.652 318.843 149.38 316.632 148.077 312.632Z" fill="white"/>
<path opacity="0.48" d="M154.073 313.753C156.739 310.481 156.255 305.694 153.013 303.028C149.741 300.362 144.954 300.846 142.288 304.088C139.621 307.36 140.106 312.147 143.348 314.814C146.62 317.51 151.407 317.025 154.073 313.753Z" fill="white"/>
<path opacity="0.22" d="M26.8281 452.577L160.622 350.868L162.652 353.565L37.8262 448.457L127.962 442.518L163.167 353.928L166.288 355.201L130.325 445.76L129.264 445.851L26.8281 452.577Z" fill="white"/>
<path opacity="0.24" d="M157.501 352.109C159.046 348.201 163.5 346.292 167.408 347.837C171.317 349.382 173.225 353.836 171.68 357.745C170.135 361.653 165.681 363.562 161.773 362.017C157.864 360.441 155.956 356.018 157.501 352.109Z" fill="white"/>
<path opacity="0.29" d="M165.956 358.534C169.319 355.989 169.955 351.202 167.41 347.839C164.865 344.476 160.078 343.84 156.715 346.385C153.352 348.93 152.716 353.717 155.261 357.08C157.806 360.412 162.593 361.079 165.956 358.534Z" fill="white"/>
<path opacity="0.55" d="M23.041 524.896L30.7972 448.94L134.203 442.123L30.6457 528.925L28.4643 526.35L124.084 446.182L33.8876 452.121L26.4344 525.259L23.041 524.896Z" fill="white"/>
<path opacity="0.11" d="M34.738 533.228C31.4962 535.925 26.7091 535.5 23.9824 532.289C21.2859 529.047 21.7101 524.26 24.9216 521.533C28.1634 518.837 32.9505 519.261 35.6772 522.472C38.404 525.714 37.9799 530.532 34.738 533.228Z" fill="white"/>
<path opacity="0.45" d="M17.1936 523.928C16.7694 528.109 19.8295 531.866 24.0105 532.29C28.1916 532.714 31.9485 529.654 32.3727 525.473C32.7969 521.292 29.7368 517.535 25.5557 517.111C21.3444 516.686 17.6177 519.746 17.1936 523.928Z" fill="white"/>
</g>
<g opacity="0.2">
<path opacity="0.38" d="M2119.49 659.311L2119.49 656.57L1921.07 699.048L1919.03 699.483L2075.47 912.609L2077.65 911.005L1923.64 701.221L2119.49 659.311Z" fill="white"/>
<path opacity="0.31" d="M2119.49 656.571L1923.81 698.448L1967.19 611.586L2119.49 628.932L2119.49 626.225L1965.62 608.712L1918.9 702.258L2119.49 659.312L2119.49 656.571Z" fill="white"/>
<path opacity="0.33" d="M1797.51 170.961L1635.15 347.859L1572.69 277.976L1574.69 276.204L1635.18 343.849L1786.85 178.615L1575.66 271.693L1574.56 269.219L1797.51 170.961Z" fill="white"/>
<path opacity="0.56" d="M1577.84 275.904C1574.76 277.241 1571.19 275.871 1569.85 272.796C1568.51 269.721 1569.89 266.145 1572.96 264.808C1576.03 263.472 1579.61 264.842 1580.95 267.917C1582.28 270.958 1580.91 274.534 1577.84 275.904Z" fill="white"/>
<path opacity="0.29" d="M1578.41 273.264C1576.17 270.757 1572.32 270.557 1569.85 272.796C1567.34 275.035 1567.14 278.878 1569.38 281.352C1571.62 283.858 1575.47 284.059 1577.94 281.819C1580.41 279.614 1580.65 275.77 1578.41 273.264Z" fill="white"/>
<path opacity="0.23" d="M1794.34 175.306L1792.74 176.008L1575.67 271.693L1574.56 269.22L1790.03 174.27L1703.67 68.225L1574.09 268.685L1571.86 267.214L1703.4 63.6463L1704.57 65.0834L1794.34 175.306Z" fill="white"/>
<path opacity="0.59" d="M1578.23 270.99C1576.43 273.798 1572.65 274.6 1569.84 272.795C1567.04 270.99 1566.23 267.214 1568.04 264.406C1569.84 261.599 1573.62 260.797 1576.43 262.602C1579.23 264.406 1580.04 268.183 1578.23 270.99Z" fill="white"/>
<path opacity="0.06" d="M1572.96 264.774C1569.89 266.111 1568.51 269.721 1569.85 272.762C1571.19 275.837 1574.8 277.207 1577.84 275.87C1580.91 274.533 1582.28 270.924 1580.95 267.882C1579.61 264.841 1576 263.437 1572.96 264.774Z" fill="white"/>
<path opacity="0.54" d="M1787.89 119.759L1793.97 179.115L1697.78 61.0379L1781.64 110.067L1780.3 112.373L1709.28 70.8637L1790.39 170.459L1785.21 120.026L1787.89 119.759Z" fill="white"/>
<path opacity="0.69" d="M1783.77 105.824C1786.68 107.529 1787.65 111.239 1785.95 114.146C1784.24 117.054 1780.53 118.023 1777.62 116.319C1774.72 114.614 1773.75 110.904 1775.45 107.997C1777.16 105.123 1780.87 104.153 1783.77 105.824Z" fill="white"/>
<path opacity="0.41" d="M1792.6 119.559C1792.26 116.217 1789.29 113.81 1785.95 114.145C1782.61 114.479 1780.2 117.453 1780.53 120.796C1780.87 124.138 1783.84 126.544 1787.18 126.21C1790.53 125.876 1792.97 122.901 1792.6 119.559Z" fill="white"/>
<path opacity="0.5" d="M2083.09 918.424L1870.8 878.452L1871.3 875.812L2076.88 914.514L1921.8 703.292L1868.43 870.999L1865.85 870.164L1920.87 697.41L2083.09 918.424Z" fill="white"/>
<path opacity="0.65" d="M1870.24 883.167C1866.93 882.532 1864.79 879.357 1865.39 876.081C1866.03 872.773 1869.2 870.634 1872.48 871.235C1875.75 871.837 1877.92 875.045 1877.32 878.321C1876.69 881.629 1873.51 883.802 1870.24 883.167Z" fill="white"/>
<path opacity="0.13" d="M1861.44 868.46C1860.44 871.668 1862.18 875.077 1865.39 876.08C1868.6 877.082 1872 875.345 1873.01 872.136C1874.01 868.928 1872.27 865.519 1869.06 864.516C1865.89 863.48 1862.45 865.251 1861.44 868.46Z" fill="white"/>
<path opacity="0.26" d="M1925.71 691.026L1865.52 880.056L1844.5 827.518L1847.01 826.516L1865.25 872.102L1916.96 709.709L1847.84 817.525L1845.57 816.088L1925.71 691.026Z" fill="white"/>
<path opacity="0.6" d="M1851.99 819.833C1850.18 822.64 1846.41 823.475 1843.6 821.671C1840.79 819.866 1839.96 816.089 1841.76 813.282C1843.57 810.475 1847.31 809.639 1850.15 811.444C1852.99 813.249 1853.79 816.992 1851.99 819.833Z" fill="white"/>
<path opacity="0.67" d="M1851.49 825.047C1850.25 821.939 1846.71 820.435 1843.6 821.671C1840.49 822.908 1838.99 826.45 1840.22 829.559C1841.46 832.667 1845 834.171 1848.11 832.934C1851.22 831.698 1852.76 828.155 1851.49 825.047Z" fill="white"/>
<path opacity="0.34" d="M1968.9 611.986L1649.93 551.962L1650.43 549.322L1963.95 608.31L1810.68 314.204L1648.92 545.612L1646.72 544.075L1811.05 309.024L1968.9 611.986Z" fill="white"/>
<path opacity="0.46" d="M1652.96 548.087C1651.06 550.827 1647.25 551.496 1644.51 549.591C1641.77 547.686 1641.1 543.876 1643 541.135C1644.91 538.395 1648.72 537.726 1651.46 539.631C1654.23 541.536 1654.9 545.313 1652.96 548.087Z" fill="white"/>
<path opacity="0.2" d="M1651.59 544.709C1648.28 544.074 1645.11 546.246 1644.51 549.555C1643.87 552.864 1646.04 556.039 1649.35 556.64C1652.66 557.275 1655.84 555.103 1656.44 551.794C1657.07 548.519 1654.9 545.344 1651.59 544.709Z" fill="white"/>
<path opacity="0.61" d="M2087.94 359.355L1966.46 613.155L1965.22 610.782L1808.44 309.892L2083.73 351.368L2083.3 354.041L1813.29 313.334L1966.36 607.139L2085.5 358.185L2087.94 359.355Z" fill="white"/>
<path opacity="0.02" d="M1813.89 309.658L1811.99 312.399L1643.38 553.565L1634.08 351.668L1636.76 351.568L1645.68 545.544L1807.84 313.568L1641.07 346.087L1640.57 343.447L1813.89 309.658Z" fill="white"/>
<path opacity="0.1" d="M1642.27 350.668C1638.99 351.303 1635.79 349.164 1635.15 345.855C1634.52 342.58 1636.65 339.371 1639.96 338.736C1643.24 338.101 1646.45 340.24 1647.08 343.549C1647.72 346.824 1645.58 350.033 1642.27 350.668Z" fill="white"/>
<path opacity="0.19" d="M1641.5 351.636C1641.34 348.293 1638.49 345.687 1635.15 345.854C1631.81 346.021 1629.2 348.862 1629.37 352.204C1629.54 355.546 1632.38 358.153 1635.72 357.986C1639.06 357.852 1641.67 355.011 1641.5 351.636Z" fill="white"/>
<path opacity="0.43" d="M1793.13 171.762L1812.38 312.699L1641.07 346.086L1640.57 343.446L1809.34 310.526L1791.23 177.811L1640.03 342.51L1638.06 340.706L1793.13 171.762Z" fill="white"/>
<path opacity="0.35" d="M1643.74 345.485C1641.47 347.958 1637.62 348.125 1635.15 345.853C1632.68 343.58 1632.51 339.737 1634.78 337.263C1637.05 334.79 1640.9 334.623 1643.37 336.896C1645.84 339.168 1646.01 343.012 1643.74 345.485Z" fill="white"/>
<path opacity="0.52" d="M1639.96 338.735C1636.69 339.37 1634.52 342.578 1635.15 345.853C1635.79 349.129 1639 351.301 1642.27 350.666C1645.55 350.031 1647.72 346.823 1647.08 343.547C1646.45 340.239 1643.24 338.1 1639.96 338.735Z" fill="white"/>
<path opacity="0.3" d="M2082.7 915.618L2022.67 977.313L1869.54 880.325L1870.84 878.253L1871.31 875.846L2082.7 915.618ZM2022.27 973.837L2077.28 917.322L1872.04 878.687L2022.27 973.837Z" fill="white"/>
<path opacity="0.28" d="M1867.26 884.469C1864.42 882.664 1863.58 878.921 1865.39 876.08C1867.19 873.24 1870.93 872.404 1873.77 874.209C1876.61 876.014 1877.45 879.757 1875.65 882.598C1873.84 885.405 1870.1 886.24 1867.26 884.469Z" fill="white"/>
<path opacity="0.68" d="M1872.48 871.235C1869.17 870.6 1865.99 872.773 1865.39 876.081C1864.76 879.39 1866.93 882.565 1870.24 883.167C1873.54 883.802 1876.72 881.629 1877.32 878.321C1877.96 875.045 1875.78 871.87 1872.48 871.235Z" fill="white"/>
<path opacity="0.03" d="M1930.59 698.815L1808.97 737.684L1781.27 708.608L1783.24 706.736L1809.77 734.609L1912.08 701.923L1784.07 704.697L1784.01 702.024L1930.59 698.815Z" fill="white"/>
<path opacity="0.14" d="M1784.48 709.408C1781.14 709.475 1778.36 706.835 1778.26 703.459C1778.19 700.117 1780.83 697.343 1784.21 697.243C1787.55 697.176 1790.33 699.817 1790.43 703.192C1790.49 706.568 1787.82 709.342 1784.48 709.408Z" fill="white"/>
<path opacity="0.63" d="M1786.85 703.695C1784.54 701.255 1780.7 701.188 1778.26 703.494C1775.82 705.8 1775.75 709.644 1778.06 712.083C1780.37 714.523 1784.21 714.59 1786.65 712.284C1789.09 709.978 1789.19 706.135 1786.85 703.695Z" fill="white"/>
<path opacity="0.06" d="M1969.43 607.174L1922.21 701.689L1921.4 701.689L1784.11 704.697L1784.04 702.09L1782.87 699.717L1969.43 607.174ZM1920.5 699.015L1963.41 613.123L1784.28 701.99L1920.5 699.015Z" fill="white"/>
<path opacity="0.63" d="M1784.48 709.408C1781.14 709.475 1778.36 706.835 1778.26 703.459C1778.19 700.117 1780.83 697.343 1784.21 697.243C1787.55 697.176 1790.33 699.817 1790.43 703.192C1790.49 706.568 1787.82 709.342 1784.48 709.408Z" fill="white"/>
<path opacity="0.24" d="M1781.04 695.338C1778.03 696.842 1776.79 700.485 1778.3 703.46C1779.8 706.468 1783.44 707.704 1786.42 706.2C1789.43 704.696 1790.66 701.053 1789.16 698.079C1787.65 695.104 1784.01 693.868 1781.04 695.338Z" fill="white"/>
<path opacity="0.13" d="M1970.6 609.581L1784.04 702.124L1782.84 699.718L1962.21 610.751L1648.08 551.595L1775.52 698.247L1773.48 700.018L1640.96 547.518L1970.6 609.581Z" fill="white"/>
<path opacity="0.44" d="M1786.42 706.235C1783.41 707.739 1779.77 706.503 1778.3 703.495C1776.79 700.487 1778.03 696.844 1781.04 695.373C1784.05 693.87 1787.69 695.106 1789.16 698.114C1790.63 701.122 1789.43 704.731 1786.42 706.235Z" fill="white"/>
<path opacity="0.17" d="M1769.71 702.891C1771.91 705.431 1775.76 705.699 1778.26 703.493C1780.8 701.287 1781.07 697.444 1778.87 694.937C1776.66 692.397 1772.82 692.13 1770.31 694.336C1767.77 696.508 1767.5 700.351 1769.71 702.891Z" fill="white"/>
<path opacity="0.43" d="M1926.12 695.405L1847.84 817.525L1845.57 816.088L1916.56 705.331L1831.13 764.687L1843.57 815.721L1840.93 816.389L1828.09 763.55L1926.12 695.405Z" fill="white"/>
<path opacity="0.47" d="M1851.99 819.833C1850.18 822.64 1846.41 823.475 1843.6 821.671C1840.79 819.866 1839.96 816.089 1841.76 813.282C1843.57 810.475 1847.31 809.639 1850.15 811.444C1852.99 813.249 1853.79 816.992 1851.99 819.833Z" fill="white"/>
<path opacity="0.05" d="M1836.28 817.191C1837.09 820.433 1840.36 822.439 1843.6 821.67C1846.85 820.868 1848.85 817.593 1848.08 814.351C1847.28 811.109 1844 809.104 1840.76 809.872C1837.49 810.641 1835.48 813.95 1836.28 817.191Z" fill="white"/>
<path opacity="0.06" d="M1929.46 696.342L1835.11 761.948L1833.58 759.709L1913.22 704.363L1811.55 736.848L1827.33 758.672L1825.15 760.243L1807.21 735.411L1929.46 696.342Z" fill="white"/>
<path opacity="0.39" d="M1838.05 765.658C1835.31 767.563 1831.5 766.894 1829.59 764.154C1827.69 761.413 1828.36 757.603 1831.1 755.698C1833.84 753.793 1837.65 754.462 1839.55 757.202C1841.49 759.943 1840.79 763.719 1838.05 765.658Z" fill="white"/>
<path opacity="0.69" d="M1821.14 762.749C1823.11 765.456 1826.89 766.091 1829.63 764.119C1832.34 762.147 1832.97 758.371 1831 755.63C1829.03 752.923 1825.25 752.288 1822.51 754.26C1819.77 756.232 1819.17 760.042 1821.14 762.749Z" fill="white"/>
<path opacity="0.66" d="M1827.83 214.809L1827.73 215.411L1813.12 306.116L1810.95 305.781L1808.78 306.082L1790.26 170.392L1827.83 214.809ZM1810.98 302.473L1824.99 215.611L1794.14 179.182L1810.98 302.473Z" fill="white"/>
<path opacity="0.11" d="M1816.06 304.779C1816.53 308.087 1814.19 311.162 1810.88 311.63C1807.57 312.098 1804.5 309.758 1804.03 306.45C1803.56 303.141 1805.9 300.066 1809.21 299.598C1812.55 299.13 1815.6 301.47 1816.06 304.779Z" fill="white"/>
<path opacity="0.66" d="M1805.84 304.679C1805.3 307.988 1807.54 311.096 1810.85 311.631C1814.16 312.166 1817.27 309.927 1817.8 306.618C1818.34 303.309 1816.1 300.201 1812.79 299.666C1809.48 299.098 1806.37 301.337 1805.84 304.679Z" fill="white"/>
<path opacity="0.22" d="M2086.94 348.093L2084.77 349.663L2048.1 298.963L1823.78 312.198L2083.73 351.368L2083.29 354.042L1797.94 311.028L2049.44 296.19L2086.94 348.093Z" fill="white"/>
<path opacity="0.36" d="M2052.47 298.73L2048.87 298.931L1810.94 312.968L1810.57 310.294L2003.98 267.983L2004.55 270.59L1827.88 309.258L2045.06 296.458L2013.67 272.595L2015.31 270.456L2052.47 298.73Z" fill="white"/>
<path opacity="0.53" d="M1620.75 -16.9645L1698.55 62.7783L1700.46 60.8734L1624.52 -16.9645L1620.75 -16.9645Z" fill="white"/>
<path opacity="0.53" d="M1702.16 60.1699L1704.87 60.1699L1704.87 -16.9995L1702.16 -16.9995L1702.16 60.1699Z" fill="white"/>
<path opacity="0.53" d="M1709.58 59.87C1709.58 63.2121 1706.87 65.9526 1703.49 65.9526C1700.15 65.9526 1697.41 63.2455 1697.41 59.87C1697.41 56.5279 1700.12 53.7873 1703.49 53.7873C1706.87 53.8207 1709.58 56.5279 1709.58 59.87Z" fill="white"/>
<path opacity="0.15" d="M1694.95 65.8534C1697.29 68.2598 1701.13 68.2932 1703.54 65.9537C1705.95 63.6142 1705.98 59.7708 1703.64 57.3644C1701.3 54.9581 1697.46 54.9247 1695.05 57.2642C1692.64 59.6037 1692.61 63.4471 1694.95 65.8534Z" fill="white"/>
<path opacity="0.65" d="M1620.75 -16.9659L1697.55 61.7409L1524.49 -16.9659L1517.98 -16.9659L1697.71 64.7822L1698.72 62.5764L1700.46 60.872L1624.49 -16.9658L1620.75 -16.9659Z" fill="white"/>
<path opacity="0.55" d="M1700.52 57.8987C1703.56 59.3024 1704.93 62.8785 1703.53 65.9532C1702.13 68.9945 1698.55 70.3648 1695.48 68.9611C1692.43 67.5574 1691.06 63.9813 1692.47 60.9066C1693.87 57.8653 1697.45 56.5284 1700.52 57.8987Z" fill="white"/>
<path opacity="0.14" d="M1694.95 65.8534C1697.29 68.2598 1701.13 68.2932 1703.54 65.9537C1705.95 63.6142 1705.98 59.7708 1703.64 57.3644C1701.3 54.9581 1697.46 54.9247 1695.05 57.2642C1692.64 59.6037 1692.61 63.4471 1694.95 65.8534Z" fill="white"/>
<path opacity="0.04" d="M2024.78 975.442L1890.99 1081.92L1889.32 1079.78L2020.13 975.709L1866.99 878.687L1886.41 1078.58L1883.74 1078.85L1863.79 873.474L2024.78 975.442Z" fill="white"/>
<path opacity="0.19" d="M1706.67 63.5791L1574.09 268.685L1571.85 267.214L1700.39 68.3248L1504.81 129.018L1568.64 266.98L1566.2 268.116L1501.07 127.347L1502.54 126.912L1706.67 63.5791Z" fill="white"/>
<path opacity="0.53" d="M1578.23 270.99C1576.43 273.798 1572.65 274.6 1569.84 272.795C1567.04 270.99 1566.23 267.214 1568.04 264.406C1569.84 261.599 1573.62 260.797 1576.43 262.602C1579.23 264.406 1580.04 268.183 1578.23 270.99Z" fill="white"/>
<path opacity="0.65" d="M1561.76 269.821C1563.16 272.863 1566.77 274.2 1569.81 272.796C1572.85 271.392 1574.19 267.783 1572.79 264.741C1571.38 261.7 1567.77 260.363 1564.73 261.767C1561.69 263.171 1560.36 266.78 1561.76 269.821Z" fill="white"/>
<path opacity="0.35" d="M1466.21 -16.9651L1500.26 122.902L1502.87 122.267L1468.98 -16.9651L1466.21 -16.9651Z" fill="white"/>
<path opacity="0.35" d="M1517.98 -16.9667L1699.76 65.7172L1508.06 125.207L1508.86 127.78L1707.31 66.1852L1524.5 -16.9667L1517.98 -16.9667Z" fill="white"/>
<path opacity="0.16" d="M1510.52 132.193C1507.31 133.195 1503.9 131.39 1502.93 128.182C1501.93 124.974 1503.74 121.565 1506.94 120.595C1510.15 119.593 1513.56 121.397 1514.53 124.606C1515.53 127.781 1513.73 131.19 1510.52 132.193Z" fill="white"/>
<path opacity="0.17" d="M1495.62 123.736C1496.42 126.978 1499.69 128.983 1502.94 128.214C1506.18 127.412 1508.18 124.137 1507.41 120.895C1506.61 117.653 1503.34 115.648 1500.09 116.417C1496.82 117.185 1494.81 120.461 1495.62 123.736Z" fill="white"/>
<path opacity="0.35" d="M1731.64 -16.9659L1704.2 60.0697L1706.74 60.9722L1734.52 -16.9659L1731.64 -16.9659Z" fill="white"/>
<path opacity="0.35" d="M1802.59 -16.9663L1707.14 61.2392L1708.84 63.3447L1806.83 -16.9663L1802.59 -16.9663Z" fill="white"/>
<path opacity="0.58" d="M1712.05 66.7888C1709.44 68.9277 1705.63 68.5267 1703.49 65.9532C1701.35 63.3464 1701.76 59.5364 1704.33 57.3974C1706.94 55.2585 1710.75 55.6595 1712.88 58.233C1715.02 60.8398 1714.66 64.6832 1712.05 66.7888Z" fill="white"/>
<path opacity="0.1" d="M1699.86 58.1984C1698.72 61.3734 1700.39 64.8158 1703.53 65.9522C1706.67 67.0885 1710.15 65.4174 1711.29 62.2758C1712.42 59.1342 1710.75 55.6584 1707.61 54.5221C1704.43 53.3858 1700.96 55.0234 1699.86 58.1984Z" fill="white"/>
<path opacity="0.1" d="M1731.64 -16.9659L1704.87 58.1647L1704.87 -16.9659L1702.16 -16.9659L1702.2 60.17L1704.54 60.17L1706.74 60.9722L1734.52 -16.9659L1731.64 -16.9659Z" fill="white"/>
<path opacity="0.47" d="M1709.58 59.87C1709.58 63.2121 1706.87 65.9526 1703.49 65.9526C1700.15 65.9526 1697.41 63.2455 1697.41 59.87C1697.41 56.5279 1700.12 53.7873 1703.49 53.7873C1706.87 53.8207 1709.58 56.5279 1709.58 59.87Z" fill="white"/>
<path opacity="0.05" d="M1699.86 58.1984C1698.72 61.3734 1700.39 64.8158 1703.53 65.9522C1706.67 67.0885 1710.15 65.4174 1711.29 62.2758C1712.42 59.1342 1710.75 55.6584 1707.61 54.5221C1704.43 53.3858 1700.96 55.0234 1699.86 58.1984Z" fill="white"/>
<path opacity="0.04" d="M1836.95 29.5894L1790.03 109.834L1787.69 108.497L1831.34 33.8339L1707.01 66.4195L1781.64 110.068L1780.3 112.374L1700.06 65.4837L1836.95 29.5894Z" fill="white"/>
<path opacity="0.46" d="M1783.77 105.824C1786.68 107.529 1787.65 111.239 1785.95 114.146C1784.24 117.054 1780.53 118.023 1777.62 116.319C1774.72 114.614 1773.75 110.904 1775.45 107.997C1777.16 105.123 1780.87 104.153 1783.77 105.824Z" fill="white"/>
<path opacity="0.6" d="M1783.77 105.823C1782.07 108.731 1783.07 112.44 1785.94 114.145C1788.85 115.849 1792.56 114.847 1794.23 111.973C1795.94 109.065 1794.94 105.355 1792.06 103.651C1789.19 101.98 1785.48 102.949 1783.77 105.823Z" fill="white"/>
<path opacity="0.23" d="M1952.18 -16.9672L1835.44 29.7554L1834.41 -16.9673L1831.73 -16.9673L1832.83 33.6992L1959.43 -16.9672L1952.18 -16.9672Z" fill="white"/>
<path opacity="0.19" d="M1831.73 -16.9666L1832.77 30.692L1709.14 63.077L1806.83 -16.9666L1802.59 -16.9666L1707.14 61.2388L1708.78 63.2776L1709.45 65.7842L1835.51 32.7641L1834.41 -16.9666L1831.73 -16.9666Z" fill="white"/>
<path opacity="0.69" d="M1712.05 66.7888C1709.44 68.9277 1705.63 68.5267 1703.49 65.9532C1701.35 63.3464 1701.76 59.5364 1704.33 57.3974C1706.94 55.2585 1710.75 55.6595 1712.88 58.233C1715.02 60.8398 1714.66 64.6832 1712.05 66.7888Z" fill="white"/>
<path opacity="0.26" d="M1707.84 58.5319C1704.6 59.3675 1702.66 62.7096 1703.49 65.9514C1704.33 69.1933 1707.67 71.1317 1710.91 70.2961C1714.16 69.4606 1716.09 66.1185 1715.26 62.8766C1714.42 59.6348 1711.11 57.6964 1707.84 58.5319Z" fill="white"/>
<path opacity="0.06" d="M2005.65 263.904L2004.25 266.21L1902.88 204.515L1814.45 309.457L2003.98 267.982L2004.55 270.588L1807.27 313.769L1902.32 201.006L2005.65 263.904Z" fill="white"/>
<path opacity="0.62" d="M2015.41 217.918L2011.07 270.322L2009.2 269.186L1897 200.94L2008.89 210.264L2008.69 212.938L1908.16 204.583L2008.73 265.777L2012.74 217.717L2015.41 217.918Z" fill="white"/>
<path opacity="0.4" d="M1905.96 200.841L1815.59 308.089L1813.55 306.351L1899.21 204.684L1827.55 216.382L1813.11 306.151L1810.44 305.716L1825.21 214.042L1826.18 213.875L1905.96 200.841Z" fill="white"/>
<path opacity="0.21" d="M1817.83 306.584C1817.3 309.892 1814.19 312.132 1810.88 311.597C1807.57 311.062 1805.33 307.954 1805.87 304.645C1806.4 301.337 1809.51 299.097 1812.82 299.632C1816.09 300.167 1818.37 303.275 1817.83 306.584Z" fill="white"/>
<path opacity="0.42" d="M1810.14 303.076C1807.97 305.649 1808.31 309.459 1810.88 311.631C1813.45 313.804 1817.26 313.469 1819.43 310.896C1821.61 308.323 1821.27 304.513 1818.7 302.34C1816.13 300.168 1812.28 300.502 1810.14 303.076Z" fill="white"/>
<path opacity="0.49" d="M1989.65 -16.9665L2013.04 210.598L1904.46 201.574L1986.01 -16.9665L1983.13 -16.9665L1901.32 202.276L1900.72 203.947L2014.45 213.405L2016.05 213.539L1992.36 -16.9665L1989.65 -16.9665Z" fill="white"/>
<path opacity="0.33" d="M1909.2 203.046L1832.3 215.613L1831.86 212.939L1896 202.478L1795.9 177.112L1823.67 209.931L1821.64 211.669L1788.45 172.466L1909.2 203.046Z" fill="white"/>
<path opacity="0.02" d="M1827.12 206.655C1829.3 209.228 1828.96 213.038 1826.42 215.21C1823.88 217.383 1820.04 217.049 1817.87 214.509C1815.69 211.935 1816.03 208.125 1818.57 205.953C1821.11 203.78 1824.95 204.081 1827.12 206.655Z" fill="white"/>
<path opacity="0.08" d="M1831.4 208.226C1828.09 208.761 1825.85 211.902 1826.39 215.211C1826.92 218.52 1830.07 220.759 1833.37 220.224C1836.68 219.69 1838.92 216.548 1838.39 213.239C1837.85 209.931 1834.71 207.691 1831.4 208.226Z" fill="white"/>
<path opacity="0.16" d="M1908.67 205.686L1797.44 177.512L1798.11 174.905L1896.5 199.837L1787.62 117.086L1792.93 168.922L1790.26 169.19L1784.28 111.204L1908.67 205.686Z" fill="white"/>
<path opacity="0.53" d="M1797.61 168.12C1797.94 171.463 1795.54 174.437 1792.2 174.771C1788.85 175.105 1785.88 172.699 1785.54 169.357C1785.21 166.015 1787.62 163.04 1790.96 162.706C1794.27 162.372 1797.24 164.778 1797.61 168.12Z" fill="white"/>
<path opacity="0.28" d="M1799.55 170.394C1796.3 169.559 1792.99 171.531 1792.16 174.773C1791.32 178.014 1793.3 181.323 1796.54 182.159C1799.78 182.994 1803.09 181.022 1803.92 177.781C1804.76 174.505 1802.79 171.23 1799.55 170.394Z" fill="white"/>
<path opacity="0.39" d="M1905.63 206.754L1789.72 118.69L1791.36 116.551L1899.54 198.733L1833.91 34.7691L1790.02 109.833L1787.68 108.496L1834.37 28.6531L1905.63 206.754Z" fill="white"/>
<path opacity="0.41" d="M1794.27 111.973C1792.57 114.88 1788.86 115.849 1785.98 114.145C1783.07 112.44 1782.1 108.731 1783.81 105.823C1785.51 102.915 1789.22 101.946 1792.1 103.651C1794.97 105.355 1795.94 109.065 1794.27 111.973Z" fill="white"/>
<path opacity="0.69" d="M1794.47 112.975C1791.8 110.936 1787.99 111.471 1785.95 114.145C1783.91 116.818 1784.44 120.628 1787.12 122.667C1789.79 124.706 1793.6 124.171 1795.61 121.497C1797.65 118.824 1797.11 115.014 1794.47 112.975Z" fill="white"/>
<path opacity="0.63" d="M1983.13 -16.9654L1902.56 199.035L1835.88 32.4645L1959.44 -16.9654L1952.19 -16.9654L1832.4 30.9605L1902.62 206.488L1986.01 -16.9654L1983.13 -16.9654Z" fill="white"/>
<path opacity="0.48" d="M1673.49 714.322L1654.21 948.036L1624.5 917.656L1627.14 915.049L1651.17 939.581L1668.01 735.377L1624.06 903.385L1620.45 902.416L1669.82 713.721L1673.49 714.322Z" fill="white"/>
<path opacity="0.03" d="M1630.5 904.621C1629.33 909.133 1624.72 911.807 1620.24 910.637C1615.73 909.467 1613.05 904.855 1614.22 900.377C1615.39 895.865 1620 893.191 1624.48 894.361C1628.96 895.531 1631.67 900.109 1630.5 904.621Z" fill="white"/>
<path opacity="0.32" d="M1632.11 910.771C1628.87 907.463 1623.52 907.396 1620.21 910.638C1616.91 913.88 1616.84 919.227 1620.08 922.536C1623.32 925.844 1628.67 925.911 1631.98 922.669C1635.32 919.428 1635.39 914.08 1632.11 910.771Z" fill="white"/>
<path opacity="0.38" d="M1721.07 128.215L1720.9 131.992L1700.22 550.625L1696.47 550.458L1716.99 135.601L1383.35 366.14L1692.06 552.797L1690.12 555.972L1376.5 366.341L1378.87 364.703L1721.07 128.215Z" fill="white"/>
<path opacity="0.02" d="M1706.77 550.525C1706.54 555.17 1702.59 558.747 1697.95 558.513C1693.3 558.279 1689.73 554.335 1689.96 549.689C1690.19 545.044 1694.14 541.468 1698.78 541.702C1703.43 541.936 1707 545.879 1706.77 550.525Z" fill="white"/>
<path opacity="0.42" d="M1686.38 561.353C1690.36 563.759 1695.54 562.489 1697.95 558.512C1700.35 554.535 1699.08 549.354 1695.11 546.948C1691.13 544.542 1685.95 545.812 1683.54 549.789C1681.14 553.799 1682.41 558.946 1686.38 561.353Z" fill="white"/>
<path opacity="0.31" d="M1710.85 132.327L1711.72 135.368L1713.52 137.975L1377.81 369.985L1387.9 225.372L1710.85 132.327ZM1382.05 362.498L1708.58 136.872L1391.41 228.246L1382.05 362.498Z" fill="white"/>
<path opacity="0.28" d="M1708.61 126.144C1713.09 124.874 1717.73 127.448 1719.04 131.893C1720.34 136.371 1717.73 141.017 1713.29 142.32C1708.81 143.59 1704.16 141.017 1702.86 136.572C1701.56 132.093 1704.16 127.448 1708.61 126.144Z" fill="white"/>
<path opacity="0.24" d="M1716.9 143.623C1720.71 140.983 1721.68 135.735 1719.04 131.925C1716.4 128.115 1711.15 127.146 1707.34 129.787C1703.53 132.427 1702.56 137.674 1705.2 141.484C1707.84 145.294 1713.05 146.263 1716.9 143.623Z" fill="white"/>
<path opacity="0.33" d="M726.932 -16.9654L721.785 -16.9654L706.745 -1.19058L709.452 1.38281L726.932 -16.9654Z" fill="white"/>
<path opacity="0.33" d="M852.765 -16.9649L824.023 62.1096L710.592 7.66649L708.954 11.0086L826.095 67.2563L856.742 -16.9649L852.765 -16.9649Z" fill="white"/>
<path opacity="0.56" d="M714.464 5.59269C711.256 8.96823 705.942 9.06845 702.566 5.86002C699.191 2.65159 699.09 -2.66236 702.299 -6.0379C705.507 -9.41343 710.821 -9.51365 714.197 -6.30522C717.539 -3.09679 717.672 2.21716 714.464 5.59269Z" fill="white"/>
<path opacity="0.29" d="M713.798 1.91653C709.621 -0.0887345 704.574 1.68256 702.569 5.8602C700.564 10.0378 702.335 15.0845 706.513 17.0898C710.69 19.095 715.737 17.3237 717.742 13.1461C719.747 8.96845 717.976 3.95522 713.798 1.91653Z" fill="white"/>
<path opacity="0.23" d="M721.785 -16.9654L706.745 -1.19058L709.452 1.38281L726.932 -16.9654L721.785 -16.9654Z" fill="white"/>
<path opacity="0.59" d="M712.36 -0.890881C711.524 3.68781 707.146 6.72913 702.568 5.8936C697.989 5.05808 694.948 0.679932 695.783 -3.89876C696.619 -8.47746 700.997 -11.5188 705.575 -10.6832C710.154 -9.84772 713.195 -5.46958 712.36 -0.890881Z" fill="white"/>
<path opacity="0.06" d="M702.299 -6.03648C699.09 -2.66095 699.224 2.653 702.566 5.86143C705.942 9.06986 711.256 8.93622 714.464 5.59411C717.672 2.21857 717.539 -3.09538 714.197 -6.30381C710.821 -9.51224 705.507 -9.3786 702.299 -6.03648Z" fill="white"/>
<path opacity="0.29" d="M2119.49 754.026L2119.49 749.982L1649.25 943.223L1825.85 1104.71L1831.37 1104.71L1656.11 944.427L2119.49 754.026Z" fill="white"/>
<path opacity="0.5" d="M1702.96 559.381L1409.96 621.109L1409.19 617.466L1692.94 557.676L1382.09 369.749L1402.94 612.821L1399.23 613.155L1377.74 362.764L1702.96 559.381Z" fill="white"/>
<path opacity="0.65" d="M1411.73 627.461C1407.19 628.43 1402.71 625.523 1401.77 620.977C1400.81 616.432 1403.71 611.954 1408.26 611.018C1412.8 610.049 1417.28 612.956 1418.22 617.502C1419.19 622.013 1416.28 626.492 1411.73 627.461Z" fill="white"/>
<path opacity="0.13" d="M1392.65 613.29C1393.05 617.936 1397.13 621.345 1401.74 620.944C1406.38 620.542 1409.79 616.465 1409.39 611.853C1408.99 607.207 1404.91 603.799 1400.3 604.2C1395.69 604.567 1392.25 608.645 1392.65 613.29Z" fill="white"/>
<path opacity="0.26" d="M1380.58 351.971L1404.08 625.957L1349.2 569.876L1351.87 567.27L1399.46 615.931L1379.28 380.546L1348.16 555.338L1344.49 554.67L1380.58 351.971Z" fill="white"/>
<path opacity="0.6" d="M1354.72 556.038C1353.92 560.616 1349.54 563.658 1344.96 562.856C1340.38 562.053 1337.34 557.675 1338.14 553.097C1338.94 548.518 1343.32 545.477 1347.9 546.279C1352.48 547.114 1355.52 551.492 1354.72 556.038Z" fill="white"/>
<path opacity="0.67" d="M1356.86 562.992C1353.62 559.683 1348.27 559.616 1344.96 562.858C1341.65 566.1 1341.58 571.447 1344.83 574.756C1348.07 578.065 1353.42 578.131 1356.72 574.89C1360.03 571.648 1360.1 566.3 1356.86 562.992Z" fill="white"/>
<path opacity="0.34" d="M1007.08 -7.66L929.447 340.551L931.101 340.503L1010.89 -7.77171L1007.08 -7.66Z" fill="white"/>
<path opacity="0.34" d="M1084.79 -9.93804L1381.94 224.188L930.63 343.276L930.663 344.379L1390.26 226.017L1090.6 -10.1085L1084.79 -9.93804Z" fill="white"/>
<path opacity="0.46" d="M933.642 339.226C932.64 343.771 928.161 346.645 923.616 345.643C919.071 344.64 916.196 340.162 917.199 335.616C918.202 331.071 922.68 328.197 927.225 329.2C931.771 330.202 934.645 334.681 933.642 339.226Z" fill="white"/>
<path opacity="0.2" d="M923.671 329.186C919.125 330.156 916.218 334.601 917.187 339.146C918.156 343.691 922.601 346.599 927.146 345.63C931.692 344.66 934.599 340.215 933.63 335.67C932.661 331.125 928.216 328.217 923.671 329.186Z" fill="white"/>
<path opacity="0.61" d="M1400.63 -16.966L1387.99 222.998L1101.17 -16.9661L1095.36 -16.9661L1388.46 228.245L1391.3 230.618L1404.34 -16.966L1400.63 -16.966Z" fill="white"/>
<path opacity="0.02" d="M951.35 -16.9641L944.598 -16.9641L830.666 58.7013L832.738 61.8096L951.35 -16.9641Z" fill="white"/>
<path opacity="0.02" d="M1017.57 -16.9993L944.88 323.099L830.593 73.337L827.226 74.9477L946.18 334.888L1021.37 -16.9993L1017.57 -16.9993Z" fill="white"/>
<path opacity="0.1" d="M836.718 67.0214C832.841 69.5948 827.628 68.5253 825.054 64.6819C822.481 60.805 823.55 55.5914 827.394 53.0179C831.271 50.4445 836.484 51.5139 839.058 55.3574C841.631 59.2342 840.595 64.448 836.718 67.0214Z" fill="white"/>
<path opacity="0.19" d="M836.254 68.6935C834.282 64.4825 829.269 62.6776 825.058 64.6495C820.847 66.6213 819.042 71.6345 821.014 75.8456C822.986 80.0567 827.999 81.8614 832.21 79.8895C836.421 77.9177 838.226 72.9046 836.254 68.6935Z" fill="white"/>
<path opacity="0.43" d="M852.765 -16.9652L826.028 56.5278L829.537 57.7978L856.742 -16.9652L852.765 -16.9652Z" fill="white"/>
<path opacity="0.43" d="M944.598 -16.9641L830.666 58.7013L832.738 61.8096L951.35 -16.9641L944.598 -16.9641Z" fill="white"/>
<path opacity="0.35" d="M835.817 59.6336C834.213 64.0118 829.401 66.251 825.022 64.6802C820.644 63.076 818.405 58.2633 819.976 53.8851C821.547 49.507 826.393 47.2678 830.771 48.8386C835.182 50.4428 837.422 55.2554 835.817 59.6336Z" fill="white"/>
<path opacity="0.52" d="M827.394 53.0176C823.517 55.591 822.481 60.8047 825.054 64.6815C827.628 68.5584 832.841 69.5945 836.718 67.0211C840.595 64.4476 841.631 59.2339 839.058 55.357C836.484 51.4802 831.271 50.4442 827.394 53.0176Z" fill="white"/>
<path opacity="0.3" d="M1700.96 555.974L1656.91 666.866L1409.32 624.153L1409.89 620.811L1409.19 617.503L1700.96 555.974ZM1654.57 662.655L1694.94 561.054L1411.7 620.745L1654.57 662.655Z" fill="white"/>
<path opacity="0.28" d="M1408.62 630.67C1404.04 629.868 1400.96 625.523 1401.76 620.944C1402.57 616.365 1406.91 613.291 1411.49 614.093C1416.07 614.895 1419.14 619.24 1418.34 623.818C1417.54 628.397 1413.19 631.472 1408.62 630.67Z" fill="white"/>
<path opacity="0.68" d="M1408.26 610.983C1403.71 611.952 1400.81 616.397 1401.77 620.942C1402.74 625.488 1407.19 628.395 1411.73 627.426C1416.28 626.457 1419.19 622.012 1418.22 617.466C1417.28 612.921 1412.8 610.014 1408.26 610.983Z" fill="white"/>
<path opacity="0.03" d="M1390.98 359.322L1255.96 473.756L1205.02 451.263L1206.53 447.854L1255.32 469.411L1368.89 373.158L1206.53 444.813L1205.02 441.404L1390.98 359.322Z" fill="white"/>
<path opacity="0.14" d="M1209.57 450.629C1205.33 452.501 1200.35 450.596 1198.48 446.318C1196.61 442.073 1198.51 437.093 1202.79 435.222C1207.03 433.35 1212.01 435.255 1213.89 439.533C1215.76 443.811 1213.82 448.757 1209.57 450.629Z" fill="white"/>
<path opacity="0.63" d="M1209.57 442.039C1205.33 440.168 1200.35 442.073 1198.48 446.351C1196.61 450.595 1198.51 455.575 1202.79 457.446C1207.03 459.318 1212.01 457.413 1213.89 453.135C1215.76 448.891 1213.82 443.911 1209.57 442.039Z" fill="white"/>
<path opacity="0.06" d="M1391.91 221.395L1381.72 367.512L1380.68 367.98L1206.53 444.848L1205.06 441.539L1202.32 439.133L1391.91 221.395ZM1378.14 365.005L1387.4 232.256L1205.36 441.272L1378.14 365.005Z" fill="white"/>
<path opacity="0.63" d="M1209.57 450.629C1205.33 452.501 1200.35 450.596 1198.48 446.318C1196.61 442.073 1198.51 437.093 1202.79 435.222C1207.03 433.35 1212.01 435.255 1213.89 439.533C1215.76 443.811 1213.82 448.757 1209.57 450.629Z" fill="white"/>
<path opacity="0.24" d="M1197.63 434.485C1194.59 437.995 1194.96 443.308 1198.47 446.35C1201.98 449.391 1207.29 449.023 1210.33 445.514C1213.37 442.005 1213.01 436.691 1209.5 433.65C1206.02 430.608 1200.71 430.976 1197.63 434.485Z" fill="white"/>
<path opacity="0.13" d="M1391.11 223.827L1207.98 446.997L1205.1 444.641L1381.16 230.07L935.089 344.8L1194.97 446.944L1193.43 450.332L932.884 344.865L1391.11 223.827Z" fill="white"/>
<path opacity="0.44" d="M1210.33 445.514C1207.29 449.023 1201.98 449.391 1198.47 446.35C1194.96 443.308 1194.59 437.995 1197.63 434.485C1200.67 430.976 1205.99 430.608 1209.5 433.65C1213.01 436.691 1213.37 442.005 1210.33 445.514Z" fill="white"/>
<path opacity="0.17" d="M1187.18 450.129C1191.32 452.201 1196.4 450.496 1198.47 446.352C1200.55 442.208 1198.84 437.128 1194.7 435.056C1190.55 432.984 1185.47 434.688 1183.4 438.832C1181.33 443.01 1183.03 448.057 1187.18 450.129Z" fill="white"/>
<path opacity="0.43" d="M1383.39 357.352L1348.16 555.338L1344.49 554.67L1376.44 375.132L1298.67 496.584L1341.71 555.305L1338.7 557.511L1294.15 496.751L1383.39 357.352Z" fill="white"/>
<path opacity="0.47" d="M1354.72 556.038C1353.92 560.616 1349.54 563.658 1344.96 562.856C1340.38 562.053 1337.34 557.675 1338.14 553.097C1338.94 548.518 1343.32 545.477 1347.9 546.279C1352.48 547.114 1355.52 551.492 1354.72 556.038Z" fill="white"/>
<path opacity="0.05" d="M1333.19 561.053C1335.93 564.796 1341.21 565.598 1344.95 562.858C1348.7 560.117 1349.5 554.837 1346.76 551.093C1344.02 547.35 1338.74 546.548 1334.99 549.289C1331.25 552.029 1330.42 557.31 1333.19 561.053Z" fill="white"/>
<path opacity="0.06" d="M1388.2 356.783L1302.31 490.935L1299.17 488.93L1371.66 375.699L1258.83 471.35L1290.58 490.902L1288.64 494.077L1252.48 471.818L1388.2 356.783Z" fill="white"/>
<path opacity="0.39" d="M1308.02 494.11C1305.52 498.02 1300.3 499.157 1296.39 496.65C1292.48 494.144 1291.35 488.93 1293.85 485.02C1296.36 481.109 1301.57 479.973 1305.48 482.48C1309.39 484.986 1310.53 490.2 1308.02 494.11Z" fill="white"/>
<path opacity="0.69" d="M1284.83 499.423C1288.77 501.863 1293.99 500.627 1296.39 496.649C1298.83 492.706 1297.59 487.492 1293.62 485.086C1289.67 482.646 1284.46 483.883 1282.05 487.86C1279.65 491.803 1280.88 496.984 1284.83 499.423Z" fill="white"/>
<path opacity="0.39" d="M1689.06 -16.9674L1714.62 118.555L1648.68 -16.9674L1644.54 -16.9674L1723.45 145.259L1692.83 -16.9674L1689.06 -16.9674Z" fill="white"/>
<path opacity="0.49" d="M1523.96 -16.9653L1391.94 218.921L1404.34 -16.9653L1400.6 -16.9653L1387.37 234.696L1528.24 -16.9653L1523.96 -16.9653Z" fill="white"/>
<path opacity="0.12" d="M1655.33 943.858L1618.2 980.153L1615.6 977.48L1650.05 943.791L1621.61 914.715L1614.03 976.711L1610.32 976.243L1618.84 906.56L1655.33 943.858Z" fill="white"/>
<path opacity="0.48" d="M2119.49 749.982L1663.83 937.241L2033.5 638.589L2119.49 726.487L2119.49 721.14L2033.8 633.543L1641.57 950.409L2119.49 754.026L2119.49 749.982Z" fill="white"/>
<path opacity="0.28" d="M2040.92 632.574L1660.08 940.249L1657.74 937.342L2026.38 639.56L1673.35 715.726L1655.2 936.005L1651.49 935.704L1669.88 712.652L1671.25 712.351L2040.92 632.574Z" fill="white"/>
<path opacity="0.03" d="M1622.25 909.469L1614.03 976.712L1610.32 976.244L1618.21 911.808L1543.51 880.994L1608.28 976.746L1605.18 978.818L1533.49 872.806L1622.25 909.469Z" fill="white"/>
<path opacity="0.3" d="M1675.59 706.401L1621.48 913.177L1545.18 881.661L1546.62 878.219L1618.94 908.097L1667.67 721.975L1545.01 871.902L1542.14 869.529L1675.59 706.401Z" fill="white"/>
<path opacity="0.6" d="M1543.07 887.878C1538.76 886.107 1536.72 881.194 1538.49 876.883C1540.27 872.605 1545.18 870.533 1549.49 872.304C1553.77 874.075 1555.84 878.988 1554.07 883.299C1552.3 887.611 1547.38 889.649 1543.07 887.878Z" fill="white"/>
<path opacity="0.01" d="M1537.33 865.052C1534.39 868.662 1534.93 873.942 1538.5 876.883C1542.11 879.825 1547.39 879.29 1550.33 875.714C1553.27 872.104 1552.74 866.824 1549.16 863.883C1545.59 860.942 1540.27 861.476 1537.33 865.052Z" fill="white"/>
<path opacity="0.48" d="M1656.2 660.079L1673.72 714.589L1673.08 715.358L1545.01 871.902L1543.01 870.231L1540.77 868.995L1656.2 660.079ZM1669.54 713.787L1655.3 669.437L1550.09 859.804L1669.54 713.787Z" fill="white"/>
<path opacity="0.1" d="M1550.36 875.712C1547.42 879.322 1542.11 879.823 1538.53 876.882C1534.92 873.941 1534.42 868.627 1537.36 865.051C1540.31 861.441 1545.62 860.907 1549.2 863.881C1552.77 866.822 1553.31 872.136 1550.36 875.712Z" fill="white"/>
<path opacity="0.22" d="M1535.22 865.451C1532.98 869.528 1534.45 874.642 1538.53 876.881C1542.61 879.12 1547.72 877.65 1549.96 873.572C1552.2 869.495 1550.73 864.381 1546.65 862.142C1542.57 859.936 1537.46 861.407 1535.22 865.451Z" fill="white"/>
<path opacity="0.04" d="M1658.64 663.386L1544.01 870.798L1540.73 868.993L1652.83 666.16L1405.21 623.415L1536.39 868.96L1533.08 870.731L1398.33 618.468L1658.64 663.386Z" fill="white"/>
<path opacity="0.24" d="M1549.93 873.607C1547.69 877.684 1542.58 879.155 1538.5 876.916C1534.42 874.676 1532.95 869.563 1535.19 865.486C1537.43 861.408 1542.54 859.938 1546.62 862.177C1550.73 864.416 1552.2 869.53 1549.93 873.607Z" fill="white"/>
<path opacity="0.08" d="M1527.14 873.44C1529.35 877.551 1534.43 879.088 1538.54 876.882C1542.65 874.71 1544.19 869.596 1541.98 865.485C1539.77 861.375 1534.69 859.837 1530.58 862.043C1526.47 864.249 1524.93 869.362 1527.14 873.44Z" fill="white"/>
<path opacity="0.19" d="M674.999 -16.9653L695.419 1.81738L697.959 -0.923175L680.48 -16.9653L674.999 -16.9653Z" fill="white"/>
<path opacity="0.53" d="M712.36 -0.890881C711.524 3.68781 707.146 6.72913 702.568 5.8936C697.989 5.05808 694.948 0.679932 695.783 -3.89876C696.619 -8.47746 700.997 -11.5188 705.575 -10.6832C710.154 -9.84772 713.195 -5.46958 712.36 -0.890881Z" fill="white"/>
<path opacity="0.65" d="M690.672 6.3641C694.081 9.50569 699.428 9.27176 702.57 5.8628C705.711 2.45385 705.477 -2.89353 702.068 -6.03511C698.659 -9.1767 693.312 -8.97619 690.17 -5.53382C687.029 -2.09144 687.263 3.22251 690.672 6.3641Z" fill="white"/>
<path opacity="0.7" d="M1911.25 328.809L1973.07 439.834L1810.08 463.73L1899.78 328.375L1902.89 330.447L1817.8 458.851L1967.19 436.927L1908 330.647L1911.25 328.809Z" fill="white"/>
<path opacity="0.26" d="M1894.06 325.099C1896.64 321.222 1901.85 320.153 1905.73 322.726C1909.6 325.299 1910.67 330.513 1908.1 334.39C1905.53 338.267 1900.31 339.336 1896.44 336.763C1892.56 334.223 1891.52 328.976 1894.06 325.099Z" fill="white"/>
<path opacity="0.53" d="M1917.19 326.002C1914.91 321.958 1909.8 320.487 1905.76 322.76C1901.71 325.033 1900.24 330.146 1902.51 334.19C1904.79 338.234 1909.9 339.704 1913.95 337.432C1917.99 335.193 1919.43 330.046 1917.19 326.002Z" fill="white"/>
<path opacity="0.62" d="M1717.74 120.629L1816.06 461.926L1815.13 462.728L1705.27 554.803L1702.87 551.962L1811.82 460.656L1720.34 143.188L1700.22 550.626L1696.48 550.458L1717.74 120.629Z" fill="white"/>
<path opacity="0.26" d="M1706.77 550.525C1706.54 555.17 1702.59 558.747 1697.95 558.513C1693.3 558.279 1689.73 554.335 1689.96 549.689C1690.19 545.044 1694.14 541.468 1698.78 541.702C1703.43 541.936 1707 545.879 1706.77 550.525Z" fill="white"/>
<path opacity="0.49" d="M1698.98 546.647C1695.41 549.622 1694.94 554.936 1697.95 558.512C1700.92 562.088 1706.24 562.556 1709.81 559.548C1713.39 556.573 1713.86 551.259 1710.85 547.683C1707.87 544.141 1702.56 543.673 1698.98 546.647Z" fill="white"/>
<path opacity="0.68" d="M1790.63 154.518L1908 322.726L1907.3 323.796L1812.58 466.705L1783.41 157.191L1787.12 156.824L1815.29 455.843L1903.49 322.76L1787.55 156.657L1790.63 154.518Z" fill="white"/>
<path opacity="0.15" d="M1776.92 158.194C1776.49 153.582 1779.89 149.471 1784.51 149.036C1789.12 148.602 1793.23 152.011 1793.66 156.623C1794.1 161.235 1790.69 165.346 1786.08 165.78C1781.47 166.248 1777.35 162.839 1776.92 158.194Z" fill="white"/>
<path opacity="0.62" d="M1796.24 151.144C1793.56 147.334 1788.31 146.398 1784.5 149.071C1780.69 151.745 1779.76 156.992 1782.43 160.802C1785.11 164.612 1790.35 165.548 1794.16 162.874C1797.94 160.201 1798.88 154.954 1796.24 151.144Z" fill="white"/>
<path opacity="0.22" d="M1777.26 145.227L1776.32 148.836L1721.75 134.532L1810.21 441.605L1783.41 157.191L1787.12 156.824L1815.79 461.123L1812.15 461.792L1716.33 129.285L1777.26 145.227Z" fill="white"/>
<path opacity="0.28" d="M1778.49 138.777C1783 139.947 1785.68 144.559 1784.51 149.037C1783.34 153.549 1778.72 156.223 1774.25 155.053C1769.73 153.883 1767.06 149.271 1768.23 144.793C1769.4 140.281 1774.01 137.607 1778.49 138.777Z" fill="white"/>
<path opacity="0.67" d="M1793.66 156.624C1793.23 152.012 1789.12 148.603 1784.51 149.037C1779.89 149.471 1776.49 153.582 1776.92 158.194C1777.35 162.807 1781.46 166.216 1786.08 165.781C1790.72 165.38 1794.1 161.269 1793.66 156.624Z" fill="white"/>
<path opacity="0.31" d="M1974.35 445.417L2036.61 639.16L1800.72 551.997L1962.48 441.34L1964.59 444.415L1808.78 550.995L2030.69 632.977L1970.8 446.554L1974.35 445.417Z" fill="white"/>
<path opacity="0.13" d="M1961.95 437.696L1962.48 441.372L1964.59 444.414L1802.46 555.271L1812.22 459.654L1813.66 459.453L1961.95 437.696ZM1807.01 547.685L1962.41 441.406L1815.63 462.929L1807.01 547.685Z" fill="white"/>
<path opacity="0.49" d="M1816.2 540.431L1678.13 709.175L1675.26 706.835L1793.3 562.523L1657.91 665.46L1670.95 706L1667.4 707.136L1653.57 664.09L1816.2 540.431Z" fill="white"/>
<path opacity="0.52" d="M1677.06 703.593C1678.5 708.004 1676.06 712.75 1671.62 714.187C1667.21 715.624 1662.46 713.185 1661.02 708.74C1659.59 704.328 1662.02 699.582 1666.47 698.145C1670.91 696.741 1675.63 699.181 1677.06 703.593Z" fill="white"/>
<path opacity="0.48" d="M1670.45 702.357C1667.51 705.967 1668.04 711.247 1671.62 714.188C1675.23 717.129 1680.51 716.594 1683.45 713.018C1686.39 709.409 1685.86 704.128 1682.28 701.187C1678.67 698.213 1673.39 698.748 1670.45 702.357Z" fill="white"/>
<path opacity="0.22" d="M1810.81 549.221L1663.22 661.416L1660.99 658.442L1798.68 553.767L1699.25 560.317L1660.42 658.04L1656.98 656.637L1696.65 556.741L1697.82 556.641L1810.81 549.221Z" fill="white"/>
<path opacity="0.24" d="M1666.67 660.047C1664.96 664.358 1660.05 666.464 1655.74 664.759C1651.43 663.055 1649.32 658.142 1651.03 653.831C1652.73 649.519 1657.64 647.414 1661.96 649.118C1666.27 650.856 1668.37 655.736 1666.67 660.047Z" fill="white"/>
<path opacity="0.29" d="M1657.34 652.96C1653.63 655.767 1652.93 661.048 1655.74 664.757C1658.54 668.467 1663.83 669.169 1667.54 666.362C1671.24 663.554 1671.95 658.274 1669.14 654.564C1666.33 650.888 1661.05 650.152 1657.34 652.96Z" fill="white"/>
<path opacity="0.55" d="M1814.99 469.447L1806.43 553.234L1692.37 560.754L1806.6 465.002L1809.01 467.843L1703.53 556.275L1803.03 549.725L1811.25 469.046L1814.99 469.447Z" fill="white"/>
<path opacity="0.11" d="M1802.09 460.255C1805.66 457.281 1810.94 457.749 1813.95 461.291C1816.93 464.867 1816.46 470.148 1812.92 473.156C1809.34 476.13 1804.06 475.662 1801.05 472.12C1798.04 468.544 1798.51 463.23 1802.09 460.255Z" fill="white"/>
<path opacity="0.45" d="M1821.44 470.515C1821.91 465.903 1818.53 461.759 1813.92 461.291C1809.31 460.823 1805.16 464.198 1804.7 468.811C1804.23 473.423 1807.6 477.567 1812.22 478.035C1816.86 478.503 1820.97 475.127 1821.44 470.515Z" fill="white"/>
</g>
<g opacity="0.07">
<g filter="url(#filter0_d)">
<path d="M767.372 548.963C767.372 558.487 772.893 566.72 780.914 570.632L781.983 571.121C782.018 571.136 782.053 571.151 782.089 571.166L802.976 580.715L805.018 581.648L815.988 586.699L816.013 586.71C817.652 587.33 819.376 587.773 821.161 588.02C816.064 583.609 812.842 577.085 812.842 569.815C812.842 566.553 813.473 563.438 814.652 560.599C814.698 560.478 814.824 560.191 814.824 560.191L830.886 525.051L850.689 481.719L865.26 449.841L892.625 389.967L898.806 376.804C899.094 376.395 899.391 375.997 899.689 375.599C900.072 375.084 900.47 374.575 900.878 374.076C909.872 362.969 923.202 355.523 938.297 354.303C939.744 354.187 941.206 354.126 942.683 354.126C943.379 354.126 944.07 354.142 944.755 354.172L945.305 354.242L944.669 353.164C943.182 350.174 940.833 347.749 938.297 345.621C936.749 344.321 935.03 343.217 933.185 342.334C930.049 340.837 926.535 340 922.824 340L916.694 340.055H877.687C873.578 340.055 869.691 340.983 866.212 342.642C864.171 343.61 862.27 344.835 860.556 346.272C857.848 348.535 855.595 351.333 853.956 354.495L852.867 356.874L819.81 429.216L770.564 536.969C770.559 536.974 770.554 536.984 770.549 536.995L768.723 540.987C767.846 543.483 767.372 546.17 767.372 548.963Z" fill="white"/>
</g>
<g filter="url(#filter1_d)">
<path d="M771.086 561.824C773.285 565.303 776.345 568.177 779.97 570.148L780 570.163L803.474 580.72L803.504 580.755L814.384 585.792L815.362 586.246C815.735 586.407 816.108 586.558 816.486 586.705L816.511 586.715C817.968 587.264 819.491 587.678 821.064 587.935C821.26 587.97 821.457 588 821.659 588.025C822.758 588.182 823.882 588.262 825.021 588.262C830.254 588.262 835.099 586.594 839.052 583.76L841.85 581.411L846.277 577.7L870.98 556.989L873.022 555.275L887.28 543.327L899.924 532.664L900.01 532.734L910.557 523.922L878.538 485.596L855.81 504.577L854.958 505.288L831.384 525.056L830.572 525.737L826.821 528.883L820.928 533.823L794.343 557.403C794.162 557.569 793.975 557.736 793.789 557.892C789.861 561.275 784.744 563.317 779.153 563.317C776.31 563.317 773.587 562.787 771.086 561.824Z" fill="white"/>
</g>
<g filter="url(#filter2_d)">
<path d="M846.575 512.327C850.613 509.156 855.695 507.265 861.226 507.265C866.938 507.265 872.176 509.282 876.27 512.64C876.436 512.781 876.608 512.922 876.774 513.063L913.936 544.467L928.879 556.99L931.465 559.158L953.583 577.701L958.009 581.412L960.807 583.761C964.76 586.595 969.605 588.263 974.838 588.263C975.977 588.263 977.101 588.183 978.201 588.026C979.985 587.779 981.709 587.336 983.348 586.716L983.373 586.705C983.751 586.559 984.124 586.408 984.497 586.247L985.476 585.793L996.355 580.756L996.385 580.721L1012.27 561.77L978.932 533.824L968.475 525.057L944.049 504.578L941.518 502.446L926.358 489.66L915.579 480.575C915.579 480.57 915.569 480.56 915.559 480.555L914.631 479.774C914.455 479.622 914.278 479.471 914.102 479.33C910.24 476.179 905.304 474.293 899.93 474.293C894.561 474.293 889.625 476.179 885.763 479.33C885.582 479.471 885.405 479.622 885.234 479.774L884.306 480.555C884.296 480.56 884.286 480.57 884.286 480.575L873.507 489.66L861.276 499.97L855.816 504.578L846.575 512.327Z" fill="white"/>
</g>
<g filter="url(#filter3_d)">
<path d="M882.679 340.057L891.789 358.121L906.747 389.969L968.486 525.053L984.549 560.192C984.549 560.192 984.675 560.48 984.725 560.601C985.9 563.439 986.535 566.555 986.535 569.822C986.535 577.092 983.314 583.616 978.216 588.027C980.001 587.78 981.725 587.336 983.364 586.716L983.389 586.706L994.36 581.654L996.401 580.722L1017.29 571.173C1017.32 571.158 1017.36 571.143 1017.39 571.128L1018.46 570.634C1026.48 566.721 1032 558.488 1032 548.965C1032 546.172 1031.53 543.485 1030.65 540.989L1028.82 536.996C1028.82 536.986 1028.81 536.976 1028.81 536.971L946.505 356.876L945.416 354.496C943.777 351.335 941.524 348.537 938.817 346.273C937.102 344.837 935.202 343.611 933.16 342.643C929.681 340.985 925.794 340.057 921.685 340.057H882.679Z" fill="white"/>
</g>
<g filter="url(#filter4_d)">
<path d="M850.689 481.719L865.26 449.841L892.625 389.967L898.806 376.804C899.094 376.395 899.391 375.997 899.689 375.599C900.072 375.084 900.47 374.575 900.878 374.076C909.872 362.969 923.202 355.523 938.297 354.303C939.744 354.187 941.206 354.126 942.683 354.126C943.379 354.126 944.07 354.142 944.755 354.172L945.305 354.242L944.669 353.164C943.182 350.174 940.833 347.749 938.297 345.621C936.749 344.321 935.03 343.217 933.185 342.334C930.049 340.837 926.535 340 922.824 340L916.694 340.055H877.687C873.578 340.055 869.691 340.983 866.212 342.642C864.171 343.61 862.27 344.835 860.556 346.272C857.848 348.535 855.595 351.333 853.956 354.495L852.867 356.874L819.81 429.216L802.487 467.118C850.689 481.719 802.487 467.118 850.689 481.719Z" fill="white"/>
</g>
<path d="M796.638 479.974L803.696 464.598L852.852 476.95L841.256 502.409L796.638 479.974Z" fill="white"/>
</g>
<defs>
<filter id="filter0_d" x="754.142" y="326.769" width="204.395" height="274.483" filterUnits="userSpaceOnUse" color-interpolation-filters="sRGB">
<feFlood flood-opacity="0" result="BackgroundImageFix"/>
<feColorMatrix in="SourceAlpha" type="matrix" values="0 0 0 0 0 0 0 0 0 0 0 0 0 0 0 0 0 0 127 0"/>
<feOffset/>
<feGaussianBlur stdDeviation="6.61571"/>
<feColorMatrix type="matrix" values="0 0 0 0 0 0 0 0 0 0 0 0 0 0 0 0 0 0 0.1 0"/>
<feBlend mode="normal" in2="BackgroundImageFix" result="effect1_dropShadow"/>
<feBlend mode="normal" in="SourceGraphic" in2="effect1_dropShadow" result="shape"/>
</filter>
<filter id="filter1_d" x="757.855" y="472.364" width="165.933" height="129.129" filterUnits="userSpaceOnUse" color-interpolation-filters="sRGB">
<feFlood flood-opacity="0" result="BackgroundImageFix"/>
<feColorMatrix in="SourceAlpha" type="matrix" values="0 0 0 0 0 0 0 0 0 0 0 0 0 0 0 0 0 0 127 0"/>
<feOffset/>
<feGaussianBlur stdDeviation="6.61571"/>
<feColorMatrix type="matrix" values="0 0 0 0 0 0 0 0 0 0 0 0 0 0 0 0 0 0 0.1 0"/>
<feBlend mode="normal" in2="BackgroundImageFix" result="effect1_dropShadow"/>
<feBlend mode="normal" in="SourceGraphic" in2="effect1_dropShadow" result="shape"/>
</filter>
<filter id="filter2_d" x="833.343" y="461.062" width="192.159" height="140.433" filterUnits="userSpaceOnUse" color-interpolation-filters="sRGB">
<feFlood flood-opacity="0" result="BackgroundImageFix"/>
<feColorMatrix in="SourceAlpha" type="matrix" values="0 0 0 0 0 0 0 0 0 0 0 0 0 0 0 0 0 0 127 0"/>
<feOffset/>
<feGaussianBlur stdDeviation="6.61571"/>
<feColorMatrix type="matrix" values="0 0 0 0 0 0 0 0 0 0 0 0 0 0 0 0 0 0 0.1 0"/>
<feBlend mode="normal" in2="BackgroundImageFix" result="effect1_dropShadow"/>
<feBlend mode="normal" in="SourceGraphic" in2="effect1_dropShadow" result="shape"/>
</filter>
<filter id="filter3_d" x="869.446" y="326.826" width="175.784" height="274.433" filterUnits="userSpaceOnUse" color-interpolation-filters="sRGB">
<feFlood flood-opacity="0" result="BackgroundImageFix"/>
<feColorMatrix in="SourceAlpha" type="matrix" values="0 0 0 0 0 0 0 0 0 0 0 0 0 0 0 0 0 0 127 0"/>
<feOffset/>
<feGaussianBlur stdDeviation="6.61571"/>
<feColorMatrix type="matrix" values="0 0 0 0 0 0 0 0 0 0 0 0 0 0 0 0 0 0 0.1 0"/>
<feBlend mode="normal" in2="BackgroundImageFix" result="effect1_dropShadow"/>
<feBlend mode="normal" in="SourceGraphic" in2="effect1_dropShadow" result="shape"/>
</filter>
<filter id="filter4_d" x="789.257" y="326.769" width="169.28" height="168.181" filterUnits="userSpaceOnUse" color-interpolation-filters="sRGB">
<feFlood flood-opacity="0" result="BackgroundImageFix"/>
<feColorMatrix in="SourceAlpha" type="matrix" values="0 0 0 0 0 0 0 0 0 0 0 0 0 0 0 0 0 0 127 0"/>
<feOffset/>
<feGaussianBlur stdDeviation="6.61571"/>
<feColorMatrix type="matrix" values="0 0 0 0 0 0 0 0 0 0 0 0 0 0 0 0 0 0 0.1 0"/>
<feBlend mode="normal" in2="BackgroundImageFix" result="effect1_dropShadow"/>
<feBlend mode="normal" in="SourceGraphic" in2="effect1_dropShadow" result="shape"/>
</filter>
</defs>
</svg>
