<svg width="60" height="67" viewBox="0 0 60 67" fill="none" xmlns="http://www.w3.org/2000/svg">
<circle r="28.75" transform="matrix(0 1 1 0 30 37)" stroke="white" stroke-width="2.5" fill="#C7EBE3" fill-opacity="0.5"/>
<g clip-path="url(#clip0)">
<path d="M30 42.1301C30.3226 42.1301 30.6452 42.007 30.8912 41.7611L38.6307 34.0215C39.1231 33.5291 39.1231 32.7309 38.6307 32.2387C38.1386 31.7466 37.3405 31.7466 36.8481 32.2387L30 39.0872L23.1519 32.239C22.6596 31.7468 21.8616 31.7468 21.3695 32.239C20.8769 32.7311 20.8769 33.5294 21.3695 34.0217L29.1089 41.7614C29.355 42.0072 29.6776 42.1301 30 42.1301Z" fill="white"/>
</g>
<rect width="18" height="2.8" transform="matrix(0 1 1 0 29 0)" fill="white"/>
<defs>
<clipPath id="clip0">
<rect width="18" height="18" fill="white" transform="matrix(-1 0 0 1 39 28)"/>
</clipPath>
</defs>
</svg>
