<svg width="479" height="574" viewBox="0 0 479 574" fill="none" xmlns="http://www.w3.org/2000/svg">
<path d="M302.171 523.2C252.941 523.2 210.055 513.667 173.513 494.6C136.971 475.1 108.55 447.583 88.2489 412.05C68.4553 376.083 58.5586 334.267 58.5586 286.6C58.5586 239.367 68.7092 197.983 89.0101 162.45C109.819 126.483 138.494 98.75 175.036 79.25C211.578 59.75 252.941 50 299.126 50C339.728 50 378.3 56.5 414.842 69.5L414.256 124.75C381.775 110.883 343.281 103.95 312.829 103.95C275.272 103.95 243.045 111.967 216.145 128C189.754 144.033 169.707 165.917 156.004 193.65C142.3 221.383 135.449 252.367 135.449 286.6C135.449 320.833 142.3 351.817 156.004 379.55C169.707 407.283 189.754 429.167 216.145 445.2C243.045 461.233 275.526 469.25 313.59 469.25C346.58 469.25 377.793 462.75 407.229 449.75L414.842 505C382.361 517.133 344.803 523.2 302.171 523.2Z" fill="black"/>
<path d="M173.515 494.6L142.478 537L142.728 537.133L142.979 537.264L173.515 494.6ZM88.2509 412.05L35.2497 433.314L35.4313 433.644L35.6185 433.971L88.2509 412.05ZM89.0122 162.45L36.508 140.306L36.4436 140.417L36.3798 140.529L89.0122 162.45ZM414.844 69.5L478.86 75.342L478.168 37.8613L437.367 23.3462L414.844 69.5ZM397.627 115.654L351.041 169.471L477.689 201.32L478.274 130.592L397.627 115.654ZM216.147 128L182.626 87.0021L182.411 87.1304L182.196 87.2604L216.147 128ZM216.147 445.2L182.196 485.94L182.411 486.07L182.626 486.198L216.147 445.2ZM397.627 454.482L478.274 443.908L477.689 372.14L353.572 406.6L397.627 454.482ZM414.844 505L438.316 550.808L478.074 535.957L477.689 499.158L414.844 505ZM302.173 473.2C262.075 473.2 230.092 465.523 204.052 451.936L142.979 537.264C190.022 561.81 243.81 573.2 302.173 573.2V473.2ZM204.552 452.2C178.01 438.036 156.748 417.897 140.883 390.129L35.6185 433.971C60.3558 477.269 95.9365 512.164 142.478 537L204.552 452.2ZM141.252 390.786C125.778 362.667 117.121 328.361 117.121 286.6H0C0 340.172 11.1375 389.499 35.2497 433.314L141.252 390.786ZM117.121 286.6C117.121 245.5 125.932 211.873 141.644 184.371L36.3798 140.529C11.4903 184.093 0 233.233 0 286.6H117.121ZM141.517 184.594C157.96 156.171 179.579 135.789 206.075 121.65L144.001 36.8501C97.4136 61.7106 61.6809 96.7954 36.508 140.306L141.517 184.594ZM206.075 121.65C232.637 107.475 263.098 100 299.128 100V0C242.789 0 190.522 12.0246 144.001 36.8501L206.075 121.65ZM299.128 100C332.202 100 363.101 105.259 392.32 115.654L437.367 23.3462C393.503 7.74142 347.259 0 299.128 0V100ZM356.684 63.6579L349.071 118.908L478.274 130.592L478.86 75.342L356.684 63.6579ZM433.42 80.0286C394.359 63.3535 353.964 53.95 312.831 53.95L282.831 153.95C302.601 153.95 325.139 158.413 351.041 169.471L433.42 80.0286ZM312.831 53.95C265.082 53.95 220.733 64.288 182.626 87.0021L219.669 168.998C235.359 159.645 255.467 153.95 282.831 153.95L312.831 53.95ZM182.196 87.2604C146.173 109.145 119.59 138.716 102.05 174.215L179.961 213.085C189.827 193.117 203.339 178.921 220.099 168.74L182.196 87.2604ZM102.05 174.215C84.918 208.887 76.8902 246.603 76.8902 286.6H164.011C164.011 258.13 169.687 233.879 179.961 213.085L102.05 174.215ZM76.8902 286.6C76.8902 326.597 84.918 364.313 102.05 398.985L179.961 360.115C169.687 339.321 164.011 315.07 164.011 286.6H76.8902ZM102.05 398.985C119.59 434.484 146.173 464.055 182.196 485.94L220.099 404.46C203.339 394.279 189.827 380.083 179.961 360.115L102.05 398.985ZM182.626 486.198C220.864 508.99 265.519 519.25 313.592 519.25L283.592 419.25C255.537 419.25 235.228 413.477 219.669 404.202L182.626 486.198ZM313.592 519.25C355.989 519.25 396.423 510.816 434.135 494.161L353.572 406.6C332.412 415.945 307.175 419.25 283.592 419.25L313.592 519.25ZM366.59 443.908L356.684 510.842L477.689 499.158L478.274 443.908H366.59ZM391.371 459.192C367.632 468.06 338.331 473.2 302.173 473.2V573.2C351.28 573.2 397.093 566.207 438.316 550.808L391.371 459.192Z" fill="black"/>
</svg>
