<svg width="107" height="107" viewBox="0 0 107 107" fill="none" xmlns="http://www.w3.org/2000/svg">
<circle cx="53.5" cy="53.5" r="53.5" fill="black"/>
<circle cx="53.4986" cy="53.5" r="45.9006" fill="black" stroke="white" stroke-width="3.03977"/>
<path d="M49.0852 39.8574H55.87L44.1608 65.5739H38.8351L27.1259 39.8574H34.093L41.5709 57.2206L49.0852 39.8574ZM66.1397 65.9021C64.2186 65.9021 62.3218 65.6468 60.4493 65.1361C58.5768 64.6254 57.0569 63.9445 55.8896 63.0934L57.9688 58.3514C59.2091 59.1295 60.5344 59.7253 61.9448 60.1387C63.3553 60.5521 64.7779 60.7589 66.2127 60.7589C67.6718 60.7589 68.7783 60.5643 69.5321 60.1752C70.3103 59.7618 70.6994 59.1903 70.6994 58.4608C70.6994 57.8042 70.3468 57.2692 69.6416 56.8558C68.9606 56.4424 67.6475 56.029 65.702 55.6156C63.2945 55.1049 61.4098 54.4969 60.048 53.7917C58.6862 53.0865 57.7256 52.2596 57.1663 51.3112C56.6313 50.3628 56.3638 49.1956 56.3638 47.8094C56.3638 46.2287 56.8016 44.8183 57.677 43.5781C58.5768 42.3135 59.8292 41.3286 61.4342 40.6234C63.0635 39.8939 64.9238 39.5291 67.0152 39.5291C68.8634 39.5291 70.6508 39.7966 72.3773 40.3316C74.1283 40.8423 75.4901 41.511 76.4628 42.3378L74.4201 47.0799C72.0855 45.4749 69.6294 44.6724 67.0517 44.6724C65.8114 44.6724 64.8144 44.9156 64.0605 45.4019C63.3067 45.864 62.9297 46.4841 62.9297 47.2623C62.9297 47.7243 63.0635 48.1012 63.331 48.3931C63.5985 48.6849 64.097 48.9767 64.8266 49.2685C65.5561 49.536 66.6383 49.8157 68.073 50.1075C70.4076 50.6182 72.2436 51.2383 73.5811 51.9678C74.9186 52.6731 75.867 53.4999 76.4263 54.4483C76.9856 55.3967 77.2653 56.5275 77.2653 57.8407C77.2653 60.3698 76.2926 62.3517 74.3471 63.7865C72.4017 65.1969 69.6659 65.9021 66.1397 65.9021Z" fill="white"/>
</svg>
