<svg width="71" height="55" viewBox="0 0 71 55" fill="none" xmlns="http://www.w3.org/2000/svg">
<path d="M51.6941 0.568359H17.9855L0.800781 17.8196L34.5094 54.9997L70.2008 17.8196L51.6941 0.568359Z" fill="#033603"/>
<path d="M7.61086 18.9149L21.133 5.63247H48.7716L63.3416 18.9219L34.6835 48.1332L7.61086 18.9149Z" stroke="white" stroke-width="1.96415"/>
<path d="M32.9355 26.0889C32.9355 26.5986 33.0176 27.0205 33.1816 27.3545C33.4863 27.9697 34.04 28.2773 34.8428 28.2773C35.335 28.2773 35.7627 28.1104 36.126 27.7764C36.4951 27.4365 36.6797 26.9502 36.6797 26.3174C36.6797 25.4795 36.3398 24.9199 35.6602 24.6387C35.2734 24.4805 34.6641 24.4014 33.832 24.4014V22.6084C34.6465 22.5967 35.2148 22.5176 35.5371 22.3711C36.0938 22.125 36.3721 21.627 36.3721 20.877C36.3721 20.3906 36.2285 19.9951 35.9414 19.6904C35.6602 19.3857 35.2617 19.2334 34.7461 19.2334C34.1543 19.2334 33.7178 19.4209 33.4365 19.7959C33.1611 20.1709 33.0293 20.6719 33.041 21.2988H30.7031C30.7266 20.666 30.835 20.0654 31.0283 19.4971C31.2334 18.999 31.5557 18.5391 31.9951 18.1172C32.3232 17.8184 32.7129 17.5898 33.1641 17.4316C33.6152 17.2734 34.1689 17.1943 34.8252 17.1943C36.0439 17.1943 37.0254 17.5107 37.7695 18.1436C38.5195 18.7705 38.8945 19.6143 38.8945 20.6748C38.8945 21.4248 38.6719 22.0576 38.2266 22.5732C37.9453 22.8955 37.6523 23.1152 37.3477 23.2324C37.5762 23.2324 37.9043 23.4287 38.332 23.8213C38.9707 24.4131 39.29 25.2217 39.29 26.2471C39.29 27.3252 38.915 28.2744 38.165 29.0947C37.4209 29.9092 36.3164 30.3164 34.8516 30.3164C33.0469 30.3164 31.793 29.7275 31.0898 28.5498C30.7207 27.9229 30.5156 27.1025 30.4746 26.0889H32.9355Z" fill="white"/>
</svg>
