<svg width="18" height="20" viewBox="0 0 18 20" fill="none" xmlns="http://www.w3.org/2000/svg">
<path d="M17.2674 19.1646L16.0504 5.61135C16.0172 5.24122 15.707 4.95772 15.3354 4.95772H12.8257V3.8258C12.8257 1.71625 11.1095 0 9.00005 0C6.8907 0 5.17473 1.71625 5.17473 3.8258V4.95772H2.66328C2.29172 4.95772 1.98151 5.24122 1.9483 5.61135L0.726503 19.2179C0.708509 19.4187 0.7757 19.6177 0.91171 19.7665C1.04772 19.9152 1.24001 19.9999 1.44149 19.9999H16.5573C16.5579 19.9999 16.5586 19.9999 16.5592 19.9999C16.9557 19.9999 17.2771 19.6785 17.2771 19.282C17.277 19.2421 17.2737 19.2028 17.2674 19.1646ZM6.61045 3.8258C6.61045 2.50791 7.68245 1.43572 9.00015 1.43572C10.3179 1.43572 11.39 2.50791 11.39 3.8258V4.95772H6.61045V3.8258ZM2.22673 18.5643L3.3196 6.39343H5.17473V7.67716C5.17473 8.0736 5.49605 8.39501 5.89259 8.39501C6.28914 8.39501 6.61045 8.0736 6.61045 7.67716V6.39343H11.39V7.67716C11.39 8.0736 11.7114 8.39501 12.1079 8.39501C12.5044 8.39501 12.8258 8.0736 12.8258 7.67716V6.39343H14.6792L15.772 18.5643H2.22673Z" fill="black"/>
</svg>
