<svg width="132" height="113" viewBox="0 0 132 113" fill="none" xmlns="http://www.w3.org/2000/svg">
<path d="M96.2643 0H32.5048L0 32.6444L63.7594 103L131.269 32.6444L96.2643 0Z" fill="#033603"/>
<path d="M92.8 5H35.9714L7 33.8412L63.8286 96L124 33.8412L92.8 5Z" stroke="#fff" stroke-width="2.49"/>
<path d="M75.6128 46.7785C74.7939 45.9259 73.8062 45.47 72.7593 45.47C71.7209 45.47 70.7247 45.9174 69.8721 46.7701L67.2043 49.4294C66.9848 49.3112 66.7653 49.2015 66.5543 49.0917C66.2503 48.9398 65.9633 48.7962 65.7185 48.6443C63.2196 47.0571 60.9486 44.9888 58.7705 42.3126C57.7152 40.9787 57.006 39.8559 56.4911 38.7162C57.1833 38.083 57.8249 37.4245 58.4497 36.7913C58.6861 36.555 58.9224 36.3101 59.1588 36.0737C60.9317 34.3009 60.9317 32.0046 59.1588 30.2317L56.8541 27.927C56.5924 27.6652 56.3222 27.3951 56.0689 27.1249C55.5624 26.6015 55.0305 26.0612 54.4818 25.5547C53.6629 24.7442 52.6836 24.3137 51.6536 24.3137C50.6237 24.3137 49.6275 24.7442 48.7833 25.5547C48.7748 25.5631 48.7748 25.5631 48.7664 25.5716L45.896 28.4673C44.8154 29.5479 44.1991 30.8649 44.064 32.3929C43.8614 34.8581 44.5875 37.1544 45.1446 38.6571C46.5123 42.3464 48.5553 45.7655 51.603 49.4294C55.3007 53.8447 59.7498 57.3314 64.832 59.7881C66.7738 60.7083 69.3655 61.7974 72.2612 61.9831C72.4385 61.9915 72.6242 62 72.7931 62C74.7433 62 76.3811 61.2993 77.6643 59.9063C77.6727 59.8894 77.6896 59.881 77.6981 59.8641C78.1371 59.3322 78.6436 58.851 79.1755 58.336C79.5385 57.9899 79.9099 57.6269 80.2729 57.247C81.1087 56.3774 81.5477 55.3643 81.5477 54.3259C81.5477 53.2791 81.1003 52.2745 80.2476 51.4302L75.6128 46.7785ZM78.6351 55.6683C78.6267 55.6683 78.6267 55.6767 78.6351 55.6683C78.3059 56.0228 77.9682 56.3436 77.6052 56.6982C77.0564 57.2216 76.4993 57.7704 75.9758 58.3867C75.1232 59.2984 74.1185 59.729 72.8015 59.729C72.6749 59.729 72.5398 59.729 72.4132 59.7206C69.9058 59.5602 67.5758 58.5808 65.8282 57.7451C61.0499 55.4319 56.8541 52.1478 53.3674 47.9858C50.4886 44.516 48.5638 41.308 47.289 37.8635C46.5039 35.7614 46.2168 34.1236 46.3434 32.5786C46.4279 31.5909 46.8078 30.772 47.5085 30.0713L50.3873 27.1925C50.801 26.8041 51.24 26.5931 51.6705 26.5931C52.2024 26.5931 52.6329 26.9139 52.9031 27.184C52.9115 27.1925 52.92 27.2009 52.9284 27.2094C53.4434 27.6906 53.9331 28.1887 54.448 28.7205C54.7097 28.9907 54.9799 29.2608 55.25 29.5394L57.5548 31.8442C58.4497 32.739 58.4497 33.5664 57.5548 34.4613C57.31 34.7061 57.0736 34.9509 56.8288 35.1873C56.1196 35.9133 55.4442 36.5887 54.7097 37.2472C54.6929 37.2641 54.676 37.2725 54.6675 37.2894C53.9415 38.0155 54.0766 38.7246 54.2285 39.2058C54.237 39.2312 54.2454 39.2565 54.2539 39.2818C54.8533 40.7339 55.6975 42.1015 56.9807 43.7309L56.9892 43.7393C59.3192 46.6097 61.7759 48.8469 64.4859 50.5607C64.832 50.7802 65.1866 50.9575 65.5243 51.1263C65.8282 51.2783 66.1153 51.4218 66.3601 51.5738C66.3938 51.5906 66.4276 51.616 66.4614 51.6329C66.7484 51.7764 67.0186 51.8439 67.2972 51.8439C67.9979 51.8439 68.4369 51.4049 68.5804 51.2614L71.4677 48.3741C71.7547 48.0871 72.2106 47.741 72.7424 47.741C73.2659 47.741 73.6964 48.0702 73.9581 48.3573C73.9666 48.3657 73.9666 48.3657 73.975 48.3741L78.6267 53.0258C79.4963 53.8869 79.4963 54.7734 78.6351 55.6683Z" fill="white"/>
<path d="M65.6168 31.5149C67.8287 31.8864 69.838 32.9332 71.442 34.5373C73.046 36.1413 74.0844 38.1506 74.4643 40.3624C74.5572 40.9196 75.0384 41.308 75.5872 41.308C75.6547 41.308 75.7138 41.2995 75.7813 41.2911C76.4061 41.1898 76.8197 40.5988 76.7184 39.9741C76.2626 37.2979 74.9962 34.8581 73.0629 32.9248C71.1296 30.9915 68.6898 29.7252 66.0136 29.2693C65.3889 29.168 64.8064 29.5817 64.6966 30.1979C64.5869 30.8142 64.9921 31.4136 65.6168 31.5149Z" fill="white"/>
<path d="M83.9532 39.6448C83.2019 35.238 81.1251 31.2279 77.9339 28.0367C74.7427 24.8455 70.7326 22.7687 66.3258 22.0174C65.7095 21.9076 65.127 22.3297 65.0172 22.946C64.9159 23.5708 65.3296 24.1533 65.9543 24.263C69.8884 24.93 73.4764 26.7957 76.3298 29.6407C79.1833 32.4942 81.0406 36.0822 81.7076 40.0163C81.8004 40.5735 82.2817 40.9618 82.8304 40.9618C82.8979 40.9618 82.957 40.9534 83.0246 40.945C83.6409 40.8521 84.063 40.2611 83.9532 39.6448Z" fill="white"/>
</svg>
