<svg width="70" height="70" viewBox="0 0 70 70" fill="none" xmlns="http://www.w3.org/2000/svg">
<path d="M48.8278 24.7653L38.7988 34.7949L48.8278 44.8245C49.8959 45.8921 49.8959 47.6235 48.8278 48.6911C48.2943 49.2252 47.5941 49.4922 46.8945 49.4922C46.1949 49.4922 45.4948 49.2252 44.9612 48.6911L34.9316 38.662L24.902 48.6911C24.3685 49.2252 23.6684 49.4922 22.9688 49.4922C22.2691 49.4922 21.569 49.2252 21.0355 48.6911C19.9673 47.6235 19.9673 45.8921 21.0355 44.8245L31.0645 34.7949L21.0355 24.7653C19.9673 23.6977 19.9673 21.9663 21.0355 20.8987C22.103 19.8306 23.8345 19.8306 24.902 20.8987L34.9316 30.9278L44.9612 20.8987C46.0288 19.8306 47.7602 19.8306 48.8278 20.8987C49.8959 21.9663 49.8959 23.6977 48.8278 24.7653ZM59.7488 10.2512C53.1382 3.64067 44.3487 0 35 0C25.6513 0 16.8618 3.64067 10.2512 10.2512C3.64067 16.8618 0 25.6513 0 35C0 44.3487 3.64067 53.1382 10.2512 59.7488C16.8618 66.3593 25.6513 70 35 70C41.4001 70 47.6625 68.2558 53.1099 64.9558C54.4018 64.1734 54.8146 62.4922 54.0322 61.2009C53.2498 59.909 51.5681 59.4962 50.2767 60.2785C45.6838 63.0605 40.4009 64.5312 35 64.5312C18.7166 64.5312 5.46875 51.2834 5.46875 35C5.46875 18.7166 18.7166 5.46875 35 5.46875C51.2834 5.46875 64.5312 18.7166 64.5312 35C64.5312 40.8228 62.7998 46.4902 59.5239 51.3908C58.6844 52.6458 59.0219 54.3441 60.2775 55.1836C61.5325 56.0226 63.2308 55.6857 64.0704 54.4301C67.9492 48.6275 70 41.9086 70 35C70 25.6513 66.3593 16.8618 59.7488 10.2512Z" fill="black"/>
</svg>
