<svg width="78" height="78" viewBox="0 0 78 78" fill="none" xmlns="http://www.w3.org/2000/svg">
<circle cx="39" cy="39" r="39" fill="rgba(219, 241, 220, 0.5)"/>
<circle cx="39" cy="39" r="38.5" stroke="#033603" stroke-opacity="0.5"/>
<g clip-path="url(#clip0)">
<path d="M39.0685 64C29.5769 64 21.8555 56.2785 21.8555 46.7869C21.8555 38.9322 27.161 32.0775 34.7577 30.1179C35.1963 30.0049 35.6433 30.269 35.7563 30.707C35.8693 31.1456 35.6057 31.5925 35.1672 31.7056C28.2946 33.478 23.4947 39.6794 23.4947 46.7869C23.4947 55.3742 30.4812 62.3607 39.0685 62.3607C47.6558 62.3607 54.6423 55.3742 54.6423 46.7869C54.6423 39.7408 49.894 33.553 43.095 31.7384C42.6575 31.6216 42.3981 31.1728 42.5144 30.7352C42.6307 30.298 43.0786 30.0387 43.5176 30.1545C51.0327 32.1601 56.2815 38.9998 56.2815 46.7869C56.2815 56.2785 48.5596 64 39.0685 64ZM39.0685 59.1573C32.2471 59.1573 26.6981 53.6079 26.6981 46.7869C26.6981 39.966 32.2471 34.4165 39.0685 34.4165C45.8895 34.4165 51.4389 39.966 51.4389 46.7869C51.4389 53.6079 45.8895 59.1573 39.0685 59.1573ZM39.0685 36.0562C33.1514 36.0562 28.3373 40.8698 28.3373 46.7869C28.3373 52.7041 33.1514 57.5181 39.0685 57.5181C44.9852 57.5181 49.7992 52.7041 49.7992 46.7869C49.7992 40.8698 44.9852 36.0562 39.0685 36.0562Z" fill="#033603"/>
<path d="M39.0699 35.7209C38.8415 35.7209 38.6224 35.6252 38.4677 35.4578L29.0005 25.2116C28.7801 24.9724 28.7214 24.6248 28.8518 24.327C28.9822 24.0287 29.2768 23.8359 29.6027 23.8359H48.5366C48.8626 23.8359 49.1571 24.0287 49.2875 24.3265C49.4184 24.6248 49.3597 24.9724 49.1388 25.2116L39.6716 35.4573C39.5169 35.6252 39.2983 35.7209 39.0699 35.7209ZM31.476 25.4752L39.0699 33.6933L46.6633 25.4752H31.476Z" fill="#033603"/>
<path d="M48.5365 25.4753H29.6026C29.302 25.4753 29.0257 25.3107 28.8822 25.0462C28.7392 24.7821 28.7518 24.4609 28.9155 24.2085L32.1147 19.2904C32.2662 19.0577 32.5246 18.918 32.8023 18.918H45.3373C45.615 18.918 45.8734 19.0582 46.0244 19.2904L49.2241 24.2085C49.3878 24.4604 49.4004 24.7821 49.2574 25.0462C49.1139 25.3107 48.8371 25.4753 48.5365 25.4753ZM31.1138 23.8361H47.0253L44.8927 20.5572H33.2469L31.1138 23.8361Z" fill="#033603"/>
<path d="M39.07 35.7215C38.7238 35.7215 38.4148 35.5043 38.298 35.1779L34.7118 25.1367C34.6223 24.8867 34.6603 24.6085 34.8122 24.3909L38.3983 19.2683C38.5545 19.045 38.8083 18.9095 39.0831 18.9184C39.3551 18.9226 39.6075 19.0619 39.7557 19.2894L43.1031 24.4125C43.24 24.6217 43.2738 24.8824 43.1945 25.1202L39.8471 35.161C39.7369 35.4926 39.4278 35.7177 39.0784 35.7215C39.0756 35.7215 39.0728 35.7215 39.07 35.7215ZM36.3984 24.9842L39.0432 32.39L41.514 24.9777L39.0465 21.2006L36.3984 24.9842Z" fill="#033603"/>
<path d="M39.0698 17.3605C38.6172 17.3605 38.25 16.9938 38.25 16.5412V14.8198C38.25 14.3668 38.6172 14 39.0698 14C39.5225 14 39.8892 14.3668 39.8892 14.8198V16.5412C39.8892 16.9938 39.5225 17.3605 39.0698 17.3605Z" fill="#033603"/>
<path d="M46.4872 17.402C46.3432 17.402 46.1983 17.3641 46.066 17.2853C45.6777 17.0522 45.552 16.5484 45.7851 16.1606L46.6457 14.7263C46.8784 14.3375 47.3821 14.2122 47.7704 14.4453C48.1588 14.678 48.2845 15.1817 48.0514 15.5696L47.1907 17.0043C47.0369 17.2599 46.7658 17.402 46.4872 17.402Z" fill="#033603"/>
<path d="M50.2159 21.9508C50.0358 21.9508 49.8552 21.8922 49.7042 21.7712C49.3506 21.4888 49.2934 20.9729 49.5762 20.6192L50.7239 19.185C51.0062 18.8304 51.5231 18.7741 51.8758 19.0569C52.2294 19.3393 52.2866 19.8552 52.0038 20.2089L50.8561 21.6431C50.6943 21.8457 50.4561 21.9508 50.2159 21.9508Z" fill="#033603"/>
<path d="M31.6504 17.4016C31.3718 17.4016 31.1002 17.26 30.9469 17.0039L30.0858 15.5692C29.8527 15.1808 29.9788 14.6776 30.3667 14.4449C30.755 14.2123 31.2588 14.338 31.4914 14.7259L32.3521 16.1601C32.5852 16.5485 32.4595 17.0517 32.0711 17.2848C31.9393 17.3636 31.7939 17.4016 31.6504 17.4016Z" fill="#033603"/>
<path d="M27.9228 21.9525C27.6822 21.9525 27.444 21.8474 27.2826 21.6448L26.1349 20.2105C25.8521 19.8569 25.9088 19.3409 26.263 19.0586C26.6161 18.7758 27.1321 18.833 27.4149 19.1866L28.5626 20.6209C28.8454 20.9745 28.7882 21.4905 28.4341 21.7728C28.283 21.8938 28.1025 21.9525 27.9228 21.9525Z" fill="#033603"/>
</g>
<defs>
<clipPath id="clip0">
<rect width="50" height="50" fill="white" transform="translate(14 14)"/>
</clipPath>
</defs>
</svg>
