<svg width="23" height="23" viewBox="0 0 23 23" fill="none" xmlns="http://www.w3.org/2000/svg">
<g clip-path="url(#clip0)">
<path d="M18.6464 11.2383C21.0036 9.11915 21.1966 5.49036 19.0775 3.13313C17.1339 0.971161 13.8807 0.603879 11.5041 2.27814C8.91322 0.449669 5.33069 1.06771 3.50222 3.65852C1.82444 6.03582 2.19023 9.29237 4.35359 11.2382C1.66557 12.6552 -0.0121111 15.4487 6.58415e-05 18.4873V20.9516C6.58415e-05 21.4052 0.367829 21.773 0.821506 21.773H22.1785C22.6322 21.773 22.9999 21.4052 22.9999 20.9516V18.4873C23.0121 15.4487 21.3344 12.6552 18.6464 11.2383ZM14.7856 2.88025C17.0507 2.87775 18.889 4.71195 18.8916 6.97706C18.8934 8.59251 17.9467 10.0585 16.4737 10.7216C16.4104 10.7503 16.3472 10.7766 16.2831 10.8037C16.0804 10.8855 15.8713 10.9506 15.658 10.9984C15.6169 11.0074 15.5758 11.0124 15.534 11.0206C15.2956 11.0663 15.0538 11.0907 14.8111 11.0937C14.7018 11.0937 14.5918 11.0855 14.4825 11.0756C14.4415 11.0756 14.4004 11.0756 14.3593 11.0674C13.8924 11.0125 13.4383 10.8786 13.0163 10.6715C13.0007 10.6641 12.9826 10.6649 12.967 10.6584C12.8848 10.6189 12.8027 10.5844 12.7296 10.5401C12.7362 10.5318 12.7403 10.5228 12.7468 10.5146C13.1235 10.0306 13.4205 9.48961 13.6266 8.912L13.652 8.84298C13.7457 8.56709 13.8185 8.28457 13.8697 7.99771C13.8771 7.95584 13.8829 7.91555 13.8895 7.87041C13.937 7.5784 13.9619 7.28322 13.9642 6.98736C13.9618 6.69208 13.9369 6.39743 13.8895 6.10595C13.8829 6.06326 13.8771 6.02379 13.8697 5.97864C13.8185 5.69183 13.7457 5.40926 13.652 5.13338L13.6266 5.06436C13.4205 4.48675 13.1235 3.94576 12.7468 3.46176C12.7402 3.45353 12.7362 3.44453 12.7296 3.4363C13.3537 3.07224 14.0632 2.8803 14.7856 2.88025ZM4.10717 6.98741C4.10134 4.72499 5.93063 2.88622 8.19304 2.8804C9.25355 2.87765 10.2738 3.28633 11.0392 4.02041C11.0868 4.06642 11.1337 4.11239 11.1796 4.16004C11.3207 4.30785 11.4508 4.46571 11.569 4.63234C11.6051 4.68326 11.638 4.73751 11.6717 4.79006C11.7865 4.96675 11.8872 5.15215 11.9731 5.34453C11.9937 5.39136 12.0092 5.43901 12.0273 5.48579C12.1139 5.69857 12.182 5.91843 12.231 6.14291C12.2368 6.16755 12.2384 6.1922 12.2434 6.21766C12.3474 6.7277 12.3474 7.25352 12.2434 7.76356C12.2384 7.78902 12.2368 7.81366 12.231 7.8383C12.1821 8.06278 12.1139 8.28264 12.0273 8.49543C12.0092 8.54226 11.9936 8.58991 11.9731 8.63669C11.8871 8.82878 11.7864 9.01389 11.6717 9.19033C11.638 9.24289 11.6051 9.29714 11.569 9.34806C11.4508 9.51473 11.3207 9.67255 11.1796 9.82036C11.1336 9.86801 11.0868 9.91402 11.0392 9.95999C10.7066 10.2769 10.3231 10.5357 9.9048 10.7255C9.83828 10.7559 9.7709 10.7839 9.70275 10.8077C9.50474 10.8863 9.301 10.9494 9.09327 10.9966C9.04153 11.0081 8.98811 11.0147 8.93555 11.0237C8.71251 11.0653 8.48635 11.088 8.25951 11.0919H8.16917C7.94233 11.0881 7.71617 11.0653 7.49313 11.0237C7.44058 11.0147 7.38715 11.0081 7.33541 10.9966C7.12768 10.9494 6.9239 10.8863 6.72594 10.8077C6.65774 10.7806 6.5904 10.7527 6.52389 10.7255C5.05428 10.062 4.10904 8.59982 4.10717 6.98741ZM14.7856 20.1302H1.6429V18.4873C1.63086 15.7038 3.38464 13.2186 6.0112 12.2971C7.42123 12.8841 9.00726 12.8841 10.4173 12.2971C10.6916 12.3973 10.9589 12.5156 11.2174 12.6511C11.3883 12.739 11.546 12.8392 11.7103 12.9403C11.8171 13.0068 11.9255 13.0717 12.0282 13.1448C12.1867 13.2573 12.3362 13.3797 12.4832 13.5054C12.5777 13.5876 12.6713 13.6697 12.76 13.7518C12.8956 13.88 13.0229 14.0155 13.1453 14.1544C13.2332 14.2546 13.3186 14.3564 13.3999 14.4616C13.5075 14.5996 13.6102 14.7409 13.7055 14.8862C13.7877 15.0094 13.8608 15.1376 13.933 15.2657C14.0152 15.407 14.0907 15.5483 14.1597 15.6953C14.2287 15.8424 14.2895 16.0034 14.3486 16.1603C14.4004 16.2966 14.4554 16.4322 14.4981 16.571C14.5556 16.7615 14.5959 16.9587 14.6361 17.1558C14.6607 17.2724 14.6928 17.3866 14.7108 17.5049C14.7595 17.8301 14.7845 18.1585 14.7856 18.4873V20.1302H14.7856ZM21.3571 20.1302H16.4285V18.4873C16.4285 18.2302 16.4137 17.9756 16.3907 17.7234C16.3841 17.6495 16.3727 17.5764 16.3645 17.5024C16.3423 17.3209 16.3168 17.141 16.2823 16.9628C16.2675 16.8867 16.2519 16.8102 16.2355 16.7336C16.1961 16.5507 16.1503 16.3694 16.0983 16.1898C16.0811 16.1306 16.0654 16.0707 16.0474 16.0124C15.8174 15.2771 15.4841 14.5782 15.0576 13.9367L15.0255 13.8898C14.8843 13.6801 14.7334 13.4772 14.5729 13.2812L14.5672 13.2738C14.4029 13.0701 14.2246 12.8721 14.0374 12.6848C14.048 12.6848 14.0595 12.6848 14.0711 12.6848C14.3028 12.7153 14.5363 12.7317 14.7701 12.7341H14.8153C15.0317 12.7322 15.2477 12.7182 15.4626 12.6922C15.5299 12.684 15.5965 12.6716 15.6638 12.661C15.8385 12.6342 16.011 12.5994 16.1813 12.5567C16.2298 12.5443 16.2791 12.5328 16.3284 12.5189C16.5518 12.4581 16.7713 12.3834 16.9855 12.2955C19.614 13.2161 21.3693 15.7024 21.3571 18.4874V20.1302H21.3571Z" fill="black"/>
</g>
<defs>
<clipPath id="clip0">
<rect width="23" height="23" fill="white"/>
</clipPath>
</defs>
</svg>
