<svg width="60" height="60" viewBox="0 0 60 60" fill="none" xmlns="http://www.w3.org/2000/svg">
<g clip-path="url(#clip0)">
<path d="M12.3111 37.6465C8.16676 37.6465 4.79492 41.0177 4.79492 45.1627C4.79492 49.3076 8.16688 52.6788 12.3111 52.6788C16.4553 52.6788 19.8273 49.3069 19.8273 45.1627C19.8273 41.0184 16.4553 37.6465 12.3111 37.6465ZM12.3111 48.7918C10.3102 48.7918 8.68262 47.1642 8.68262 45.1634C8.68262 43.1625 10.3102 41.5342 12.3111 41.5342C14.312 41.5342 15.9396 43.1625 15.9396 45.1634C15.9396 47.1642 14.312 48.7918 12.3111 48.7918Z" fill="#033603"/>
<path d="M45.8746 37.6465C41.7296 37.6465 38.3584 41.0177 38.3584 45.1627C38.3584 49.3076 41.7304 52.6788 45.8746 52.6788C50.0189 52.6788 53.3907 49.3069 53.3907 45.1627C53.3909 41.0184 50.0195 37.6465 45.8746 37.6465ZM45.8746 48.7918C43.8737 48.7918 42.2461 47.1642 42.2461 45.1634C42.2461 43.1625 43.8737 41.5342 45.8746 41.5342C47.8754 41.5342 49.5038 43.1625 49.5038 45.1634C49.5038 47.1642 47.8754 48.7918 45.8746 48.7918Z" fill="#033603"/>
<path d="M7.38656 16.9766C6.65895 16.9766 5.99215 17.3829 5.65852 18.0301L0.215742 28.5917C0.0738281 28.867 0 29.1723 0 29.482V45.1624C0 46.2361 0.870234 47.1062 1.94379 47.1062H6.67383V43.2185H3.8877V29.9537L8.57168 20.8643H23.3909V16.9766H7.38656Z" fill="#033603"/>
<path d="M40.2377 43.2188H18.0779V47.1064H40.2377V43.2188Z" fill="#033603"/>
<path d="M58.0565 7.32227H23.3913C22.3176 7.32227 21.4475 8.1925 21.4475 9.26605V45.1623H25.3352V11.21H56.1127V43.2186H51.4475V47.1063H58.0565C59.1302 47.1063 60.0003 46.236 60.0003 45.1625V9.26617C60.0003 8.1925 59.1301 7.32227 58.0565 7.32227Z" fill="#033603"/>
<path d="M23.3909 27.6016H1.94385V31.4893H23.3909V27.6016Z" fill="#033603"/>
<path d="M50.2434 19.1825C49.5299 18.379 48.3009 18.3071 47.4993 19.0205L37.863 27.5799L34.0401 23.7078C33.2859 22.9438 32.0548 22.9361 31.2915 23.6903C30.5275 24.4446 30.5198 25.6756 31.274 26.4395L36.3922 31.6231C36.7713 32.0074 37.2734 32.2018 37.7761 32.2018C38.2362 32.2018 38.6969 32.0391 39.0656 31.7112L50.0807 21.9265C50.8836 21.2138 50.9561 19.9852 50.2434 19.1825Z" fill="#033603"/>
</g>
<defs>
<clipPath id="clip0">
<rect width="60" height="60" fill="white"/>
</clipPath>
</defs>
</svg>
