<svg width="60" height="60" viewBox="0 0 60 60" fill="none" xmlns="http://www.w3.org/2000/svg">
<g clip-path="url(#clip0)">
<path d="M0.880529 37.0419C0.91849 37.3799 1.1266 37.6759 1.43147 37.8259C1.55044 37.8849 1.67839 37.9049 1.80651 37.9139L1.80549 37.9269L27.395 39.6929L25.962 52.3862V52.3882C25.9479 52.5182 25.9669 52.6462 26.003 52.7712C26.012 52.8023 26.021 52.8292 26.033 52.8592C26.08 52.9792 26.141 53.0943 26.234 53.1902C26.3291 53.2891 26.442 53.3663 26.566 53.4191C26.689 53.4712 26.8221 53.4991 26.957 53.4991C26.98 53.4991 27.0029 53.4981 27.0259 53.4971L58.1936 51.346L58.1926 51.333C58.3205 51.324 58.4486 51.304 58.5676 51.245C58.8727 51.095 59.0806 50.799 59.1186 50.461L59.9945 42.6998C60.0186 42.4848 59.9666 42.2768 59.8635 42.0959L59.8695 42.0918L55.7814 34.9297C55.7404 34.8587 55.6914 34.7927 55.6353 34.7336L45.9532 24.6213C45.8962 24.5624 45.8332 24.5103 45.7642 24.4663L38.7871 20.0713L38.7831 20.0772C38.608 19.9672 38.4031 19.9062 38.185 19.9203L31.9358 20.3512L30.5338 7.92503L30.5258 7.92605C30.5118 7.7981 30.4799 7.67202 30.4158 7.5561C30.2518 7.25817 29.9478 7.06311 29.6078 7.04006L21.8156 6.502C21.5995 6.48793 21.3936 6.54894 21.2175 6.65994L21.2135 6.65401L14.2364 11.0501C14.1674 11.0931 14.1044 11.146 14.0475 11.2051L4.36533 21.3174C4.30839 21.3763 4.25924 21.4424 4.21925 21.5134L0.131473 28.6757L0.137405 28.6798C0.0343675 28.8608 -0.0186765 29.0687 0.006405 29.2838L0.880529 37.0419ZM17.8588 15.8976L22.4589 18.3245L11.8437 29.4107L9.21961 24.9206L17.8588 15.8976ZM42.1392 29.3158L50.7785 38.3391L48.1544 42.8281L37.5392 31.7419L42.1392 29.3158ZM11.7496 32.1658L26.2749 37.6129L5.11337 36.1519L11.7496 32.1658ZM48.2474 45.584L54.8845 49.5701L33.7222 51.0311L48.2474 45.584ZM57.3046 48.6903L49.7115 44.1291L52.3645 39.5901L57.9367 43.1001L57.3046 48.6903ZM46.5783 44.0741L28.79 50.7452L36.2271 33.2639L46.5783 44.0741ZM28.7179 45.8022L31.0969 24.7247L34.791 31.5279L28.7179 45.8022ZM29.5831 20.9747C29.519 21.0906 29.488 21.2167 29.4731 21.3446L29.4651 21.3436L28.8601 26.7007L25.205 18.1105L28.8991 11.3073L29.9481 20.5995C29.799 20.6896 29.67 20.8156 29.5831 20.9747ZM28.4059 30.7399L27.8069 36.05L13.4206 30.655L23.7718 19.8448L28.4059 30.7399ZM7.63457 26.1708L10.2876 30.7109L2.69453 35.271L2.0636 29.6809L7.63457 26.1708ZM54.1034 36.028L56.1474 39.6091L52.6594 37.4121L43.1472 27.4767L41.1033 23.8957L44.5913 26.0927L54.1034 36.028ZM37.6952 21.9586L40.9592 27.6767L36.3081 30.1298L32.0821 22.3457L37.6952 21.9586ZM27.916 8.92846L23.6899 16.7125L19.0388 14.2595L22.3028 8.54038L27.916 8.92846ZM5.89462 22.6097L15.4068 12.6744L18.8948 10.4774L16.8508 14.0585L7.33867 23.9936L3.85065 26.1906L5.89462 22.6097Z" fill="#033603"/>
<path d="M37.999 10.5H39.9991V12.5001H37.999V10.5Z" fill="#033603"/>
<path d="M39.9993 8.5H41.9993V10.5001H39.9993V8.5Z" fill="#033603"/>
<path d="M41.9993 10.5H43.9994V12.5001H41.9993V10.5Z" fill="#033603"/>
<path d="M39.9993 12.5H41.9993V14.5001H39.9993V12.5Z" fill="#033603"/>
<path d="M42.999 16.5H44.9991V18.5001H42.999V16.5Z" fill="#033603"/>
<path d="M5.99829 46.5H7.99837V48.5001H5.99829V46.5Z" fill="#033603"/>
<path d="M7.99829 48.5H9.99837V50.5001H7.99829V48.5Z" fill="#033603"/>
<path d="M9.99829 46.5H11.9984V48.5001H9.99829V46.5Z" fill="#033603"/>
<path d="M7.99829 44.5H9.99837V46.5001H7.99829V44.5Z" fill="#033603"/>
<path d="M10.9988 40.5H12.9989V42.5001H10.9988V40.5Z" fill="#033603"/>
<path d="M54.9988 22.5H56.9989V24.5001H54.9988V22.5Z" fill="#033603"/>
</g>
<defs>
<clipPath id="clip0">
<rect width="60" height="60" fill="white"/>
</clipPath>
</defs>
</svg>
