<svg width="60" height="60" viewBox="0 0 60 60" fill="none" xmlns="http://www.w3.org/2000/svg">
<g clip-path="url(#clip0)">
<path d="M53.233 30.3067L46.7053 20.2263C46.1994 19.445 45.3416 18.9785 44.4108 18.9785H15.6099C14.6805 18.9785 13.8235 19.4439 13.3174 20.2232L6.76943 30.3048C6.10029 31.3349 6.20365 32.695 7.0208 33.6121L27.9578 57.1175C28.476 57.6993 29.2199 58.033 29.9989 58.033C29.999 58.033 29.9989 58.033 29.999 58.033C30.778 58.033 31.5221 57.6994 32.0403 57.1177L52.9796 33.6108C53.7956 32.6947 53.8998 31.3361 53.233 30.3067ZM43.0884 21.3221L37.5986 29.8112L32.1056 21.3221H43.0884ZM35.4449 30.797H24.553L29.9989 22.3807L35.4449 30.797ZM27.8922 21.3224L22.4143 29.7881L16.9383 21.3224H27.8922ZM14.7713 22.2874L20.2756 30.797H9.24443L14.7713 22.2874ZM9.73943 33.1407H21.5338L27.77 53.3831L9.73943 33.1407ZM29.9989 52.6575L23.9862 33.1407H36.0117L29.9989 52.6575ZM32.2277 53.3838L38.4642 33.1409H50.2596L32.2277 53.3838ZM39.7524 30.797L45.2517 22.2933L50.7582 30.797H39.7524Z" fill="#033603"/>
<path d="M3.55465 30.7969H1.17188C0.524766 30.7969 0 31.3215 0 31.9688C0 32.616 0.524766 33.1406 1.17188 33.1406H3.55465C4.20176 33.1406 4.72652 32.616 4.72652 31.9688C4.72652 31.3215 4.20176 30.7969 3.55465 30.7969Z" fill="#033603"/>
<path d="M58.8281 30.7969H56.4453C55.7982 30.7969 55.2734 31.3215 55.2734 31.9688C55.2734 32.616 55.7982 33.1406 56.4453 33.1406H58.8281C59.4752 33.1406 60 32.616 60 31.9688C60 31.3215 59.4752 30.7969 58.8281 30.7969Z" fill="#033603"/>
<path d="M51.2279 10.7612C50.7702 10.3036 50.0284 10.3036 49.5705 10.7612L45.6779 14.6538C45.2203 15.1114 45.2203 15.8534 45.6779 16.3111C45.9069 16.5399 46.2068 16.6543 46.5067 16.6543C46.8067 16.6543 47.1064 16.5398 47.3353 16.3111L51.2279 12.4184C51.6856 11.9608 51.6856 11.2189 51.2279 10.7612Z" fill="#033603"/>
<path d="M14.3726 14.6324L10.4801 10.7397C10.0226 10.2821 9.28079 10.2821 8.82271 10.7397C8.36509 11.1973 8.36509 11.9393 8.82271 12.397L12.7153 16.2896C12.9442 16.5184 13.2441 16.6328 13.544 16.6328C13.8438 16.6328 14.1437 16.5183 14.3726 16.2896C14.8302 15.8321 14.8302 15.0899 14.3726 14.6324Z" fill="#033603"/>
<path d="M30.0298 1.96875C29.3827 1.96875 28.8579 2.4934 28.8579 3.14062V10.7775C28.8579 11.4247 29.3826 11.9494 30.0298 11.9494C30.6769 11.9494 31.2017 11.4247 31.2017 10.7775V3.14062C31.2017 2.49352 30.6769 1.96875 30.0298 1.96875Z" fill="#033603"/>
<path d="M30.8577 13.9137C30.6398 13.6957 30.3375 13.5703 30.0293 13.5703C29.7211 13.5703 29.4187 13.6957 29.2008 13.9137C28.9828 14.1316 28.8574 14.434 28.8574 14.7422C28.8574 15.0516 28.9827 15.3527 29.2008 15.5707C29.4187 15.7898 29.7211 15.9141 30.0293 15.9141C30.3375 15.9141 30.6398 15.7898 30.8577 15.5707C31.0768 15.3527 31.2012 15.0504 31.2012 14.7422C31.2012 14.434 31.0768 14.1318 30.8577 13.9137Z" fill="#033603"/>
</g>
<defs>
<clipPath id="clip0">
<rect width="60" height="60" fill="white"/>
</clipPath>
</defs>
</svg>
