<svg width="60" height="60" viewBox="0 0 60 60" fill="none" xmlns="http://www.w3.org/2000/svg">
<g clip-path="url(#clip0)">
<path d="M37.7682 47.068C36.8961 47.068 36.1395 46.4198 36.0264 45.5322C35.9042 44.569 36.5853 43.6892 37.548 43.5665C43.1025 42.8588 48.0766 41.3537 51.5537 39.3277C54.7338 37.4751 56.4848 35.297 56.4848 33.195C56.4848 30.8783 54.4358 28.9827 52.7165 27.7998C51.9168 27.2496 51.7144 26.1555 52.2647 25.3553C52.8149 24.5556 53.9094 24.3533 54.7091 24.9035C58.1707 27.2848 60.0004 30.1518 60.0004 33.1955C60.0004 36.6497 57.6919 39.8207 53.3239 42.3654C49.3922 44.656 44.0908 46.2774 37.9925 47.0542C37.917 47.0634 37.8419 47.068 37.7682 47.068Z" fill="#033603"/>
<path d="M29.5715 44.5487L24.884 39.8612C24.1974 39.1745 23.0846 39.1745 22.3979 39.8612C21.7117 40.5473 21.7117 41.6606 22.3979 42.3468L23.7675 43.7164C18.5161 43.174 13.7453 41.9513 10.0511 40.1747C5.89783 38.1775 3.51562 35.6328 3.51562 33.1938C3.51562 31.1252 5.22125 28.9751 8.31802 27.1394C9.15344 26.6446 9.42902 25.5661 8.93417 24.7311C8.43887 23.8957 7.36038 23.6202 6.52542 24.115C1.13205 27.312 0 30.8167 0 33.1938C0 37.094 3.02856 40.6984 8.52768 43.3434C12.7959 45.3955 18.317 46.7702 24.332 47.3021L22.3979 49.2362C21.7117 49.9223 21.7117 51.0356 22.3979 51.7223C22.7412 52.0651 23.1912 52.2368 23.6412 52.2368C24.0907 52.2368 24.5407 52.0651 24.884 51.7223L29.5715 47.0348C30.2577 46.3481 30.2577 45.2348 29.5715 44.5487Z" fill="#033603"/>
<path d="M18.4097 29.6746V29.2516C18.4097 27.7598 17.4965 27.4705 16.2719 27.4705C15.5148 27.4705 15.2699 26.8026 15.2699 26.1347C15.2699 25.4664 15.5148 24.7985 16.2719 24.7985C17.1179 24.7985 18.0087 24.6873 18.0087 22.8837C18.0087 21.5923 17.274 21.2806 16.3607 21.2806C15.2699 21.2806 14.7133 21.5479 14.7133 22.4163C14.7133 23.173 14.3791 23.6852 13.0877 23.6852C11.4846 23.6852 11.2846 23.351 11.2846 22.2822C11.2846 20.5459 12.5311 18.2969 16.3607 18.2969C19.1888 18.2969 21.3261 19.3209 21.3261 22.327C21.3261 23.9521 20.7251 25.4664 19.6118 25.9786C20.9256 26.4684 21.8828 27.448 21.8828 29.2516V29.6746C21.8828 33.3262 19.3669 34.7068 16.2495 34.7068C12.4199 34.7068 10.9504 32.369 10.9504 30.4986C10.9504 29.4965 11.3734 29.2292 12.5979 29.2292C14.0229 29.2292 14.3791 29.5409 14.3791 30.3873C14.3791 31.4338 15.3592 31.6787 16.3607 31.6787C17.875 31.6787 18.4097 31.122 18.4097 29.6746Z" fill="#033603"/>
<path d="M35.3981 29.2516V29.4521C35.3981 33.2818 33.0154 34.7068 29.9429 34.7068C26.8704 34.7068 24.4653 33.2818 24.4653 29.4521V23.5515C24.4653 19.7219 26.9368 18.2969 30.1434 18.2969C33.9063 18.2969 35.3981 20.6347 35.3981 22.4827C35.3981 23.5515 34.8859 23.8853 33.7726 23.8853C32.8154 23.8853 31.969 23.6403 31.969 22.6163C31.969 21.7704 31.0786 21.325 30.0322 21.325C28.7184 21.325 27.9388 22.0153 27.9388 23.5515V25.5552C28.6516 24.7761 29.6536 24.5756 30.7225 24.5756C33.2603 24.5756 35.3981 25.6888 35.3981 29.2516ZM27.9388 29.697C27.9388 31.2333 28.696 31.9012 29.9429 31.9012C31.1899 31.9012 31.9246 31.2333 31.9246 29.697V29.4965C31.9246 27.871 31.1899 27.2475 29.9205 27.2475C28.7184 27.2475 27.9388 27.8266 27.9388 29.296V29.697Z" fill="#033603"/>
<path d="M38.0925 29.4521V23.5515C38.0925 19.7219 40.4747 18.2969 43.5477 18.2969C46.6202 18.2969 49.0248 19.7219 49.0248 23.5515V29.4521C49.0248 33.2818 46.6202 34.7068 43.5477 34.7068C40.4747 34.7068 38.0925 33.2818 38.0925 29.4521ZM45.5513 23.5515C45.5513 22.0153 44.7946 21.325 43.5477 21.325C42.3008 21.325 41.566 22.0153 41.566 23.5515V29.4521C41.566 30.9884 42.3008 31.6787 43.5477 31.6787C44.7946 31.6787 45.5513 30.9884 45.5513 29.4521V23.5515Z" fill="#033603"/>
<path d="M53.2444 18.2812C50.3362 18.2812 47.9709 15.9155 47.9709 13.0078C47.9709 10.1001 50.3362 7.73438 53.2444 7.73438C56.1521 7.73438 58.5178 10.1001 58.5178 13.0078C58.5178 15.9155 56.1521 18.2812 53.2444 18.2812ZM53.2444 11.25C52.2748 11.25 51.4866 12.0387 51.4866 13.0078C51.4866 13.9774 52.2748 14.7656 53.2444 14.7656C54.2135 14.7656 55.0022 13.9774 55.0022 13.0078C55.0022 12.0387 54.2135 11.25 53.2444 11.25Z" fill="#033603"/>
</g>
<defs>
<clipPath id="clip0">
<rect width="60" height="60" fill="white"/>
</clipPath>
</defs>
</svg>
