<svg width="24" height="24" viewBox="0 0 24 24" fill="none" xmlns="http://www.w3.org/2000/svg">
<g clip-path="url(#clip0)">
<path d="M9.61792 6.73486H14.0832C14.4715 6.73486 14.7863 6.42005 14.7863 6.03174C14.7863 5.64343 14.4715 5.32861 14.0832 5.32861H9.61792C9.22961 5.32861 8.91479 5.64343 8.91479 6.03174C8.91479 6.42005 9.22956 6.73486 9.61792 6.73486Z" fill="#033603"/>
<path d="M17.1577 -0.00012207H0.703125C0.314812 -0.00012207 0 0.31469 0 0.703003V23.2968C0 23.6851 0.314812 23.9999 0.703125 23.9999H17.1577C17.546 23.9999 17.8608 23.6851 17.8608 23.2968V0.703003C17.8608 0.31469 17.546 -0.00012207 17.1577 -0.00012207ZM16.4545 22.5936H1.40625V1.40613H16.4545V22.5936Z" fill="#033603"/>
<path d="M24 17.039V2.38633C24 1.07046 22.9294 -0.00012207 21.6136 -0.00012207C20.2976 -0.00012207 19.2271 1.07046 19.2271 2.38633V17.039C19.2271 17.4058 19.5081 17.7067 19.8666 17.7389L19.269 19.3898C19.2062 19.5634 19.2141 19.7547 19.2912 19.9224L20.9745 23.59C21.0891 23.8398 21.3388 23.9998 21.6136 23.9998C21.8883 23.9998 22.138 23.8398 22.2526 23.59L23.9359 19.9224C24.0129 19.7546 24.0209 19.5633 23.9581 19.3898L23.3605 17.7389C23.7189 17.7067 24 17.4059 24 17.039ZM20.6333 16.3359V5.85485H22.5938V16.3359H20.6333V16.3359ZM21.6136 1.40613C22.154 1.40613 22.5938 1.84586 22.5938 2.38633V4.4486H20.6333V2.38633C20.6333 1.84586 21.0731 1.40613 21.6136 1.40613ZM21.6136 21.6112L20.6894 19.5976L21.361 17.7421H21.8661L22.5377 19.5976L21.6136 21.6112Z" fill="#033603"/>
<path d="M4.25162 7.36849C4.38348 7.50035 4.5623 7.57446 4.74877 7.57446C4.93524 7.57446 5.11412 7.50035 5.24593 7.36854L7.38169 5.23278C7.65629 4.95818 7.65629 4.51301 7.38169 4.23842C7.10715 3.96382 6.66193 3.96382 6.38734 4.23842L4.74877 5.87698L4.23943 5.36754C3.96493 5.09295 3.51971 5.09295 3.24507 5.36754C2.97048 5.64213 2.97048 6.08731 3.24507 6.3619L4.25162 7.36849Z" fill="#033603"/>
<path d="M9.61792 11.0007H14.0832C14.4715 11.0007 14.7863 10.6859 14.7863 10.2976C14.7863 9.90929 14.4715 9.59448 14.0832 9.59448H9.61792C9.22961 9.59448 8.91479 9.90929 8.91479 10.2976C8.91479 10.6859 9.22956 11.0007 9.61792 11.0007Z" fill="#033603"/>
<path d="M4.25162 11.6342C4.38348 11.7661 4.5623 11.8402 4.74877 11.8402C4.93524 11.8402 5.11412 11.7661 5.24593 11.6343L7.38169 9.49853C7.65629 9.22393 7.65629 8.77876 7.38169 8.50416C7.10715 8.22957 6.66193 8.22957 6.38734 8.50416L4.74877 10.1427L4.23943 9.63338C3.96493 9.35879 3.51971 9.35879 3.24507 9.63338C2.97048 9.90798 2.97048 10.3532 3.24507 10.6277L4.25162 11.6342Z" fill="#033603"/>
<path d="M9.61792 15.2665H14.0832C14.4715 15.2665 14.7863 14.9517 14.7863 14.5634C14.7863 14.175 14.4715 13.8602 14.0832 13.8602H9.61792C9.22961 13.8602 8.91479 14.175 8.91479 14.5634C8.91479 14.9517 9.22956 15.2665 9.61792 15.2665Z" fill="#033603"/>
<path d="M9.61792 19.6957H14.0832C14.4715 19.6957 14.7863 19.3809 14.7863 18.9926C14.7863 18.6042 14.4715 18.2894 14.0832 18.2894H9.61792C9.22961 18.2894 8.91479 18.6042 8.91479 18.9926C8.91479 19.3809 9.22956 19.6957 9.61792 19.6957Z" fill="#033603"/>
<path d="M4.25164 15.9002C4.38349 16.032 4.56232 16.1061 4.74879 16.1061C4.93526 16.1061 5.11414 16.032 5.24595 15.9002L7.38172 13.7645C7.65631 13.4899 7.65631 13.0447 7.38172 12.7701C7.10717 12.4955 6.66195 12.4956 6.38736 12.7701L4.74879 14.4087L4.23945 13.8993C3.96495 13.6247 3.51973 13.6247 3.24509 13.8993C2.97045 14.1739 2.97049 14.619 3.24509 14.8936L4.25164 15.9002Z" fill="#033603"/>
</g>
<defs>
<clipPath id="clip0">
<rect width="24" height="24" fill="white" transform="translate(0 -0.00012207)"/>
</clipPath>
</defs>
</svg>
