<svg width="24" height="24" viewBox="0 0 24 24" fill="none" xmlns="http://www.w3.org/2000/svg">
<path d="M19.034 7.82349C19.1247 7.86044 19.2207 7.87889 19.3167 7.87889C19.4128 7.87889 19.5088 7.86044 19.5995 7.82349C19.7781 7.75071 23.9744 6.00573 23.9744 2.93165C23.9744 1.32117 22.6459 0.0109863 21.0128 0.0109863C20.3987 0.0109863 19.8089 0.19752 19.3167 0.537055C18.8245 0.19752 18.2348 0.0109863 17.6206 0.0109863C15.9876 0.0109863 14.6591 1.32117 14.6591 2.93165C14.6591 6.00573 18.8553 7.75071 19.034 7.82349ZM17.6206 1.50963C18.057 1.50963 18.4676 1.69724 18.7469 2.02431C18.8893 2.19099 19.0975 2.287 19.3167 2.287C19.536 2.287 19.7442 2.19099 19.8865 2.02431C20.1659 1.69724 20.5764 1.50963 21.0128 1.50963C21.8195 1.50963 22.4758 2.14753 22.4758 2.93165C22.4758 4.49543 20.412 5.79302 19.3218 6.30799C18.5031 5.91178 16.1577 4.62792 16.1577 2.93165C16.1577 2.14753 16.814 1.50963 17.6206 1.50963Z" fill="#033603"/>
<path d="M16.3145 8.2559C15.0862 6.56656 13.4071 5.38774 11.4367 4.83765C9.75558 4.37204 8.01225 4.38862 6.39531 4.88556C4.88182 5.3507 3.50359 6.22211 2.40968 7.40557C1.31928 8.58523 0.559468 10.0221 0.212392 11.5607C-0.156413 13.1958 -0.0433598 14.9077 0.539423 16.5118C1.5984 19.4928 4.18486 21.7205 7.29014 22.3256C7.29248 22.3261 7.29477 22.3265 7.29711 22.3269C7.87222 22.4333 8.3929 22.4818 8.63329 22.4818C9.0471 22.4818 9.38261 22.1463 9.38261 21.7325C9.38261 21.3187 9.0471 20.9831 8.63329 20.9831C8.52024 20.9831 8.09664 20.9506 7.573 20.8539C4.98626 20.3485 2.83211 18.4918 1.95072 16.0077C1.95006 16.0058 1.94941 16.004 1.94875 16.0021C0.986252 13.3553 1.56997 10.5218 3.51019 8.42282C5.4573 6.31629 8.2709 5.51597 11.0352 6.28149C12.3809 6.65718 13.5661 7.38852 14.5162 8.42076C10.9504 9.16806 8.26425 12.3368 8.26425 16.1215C8.26425 20.4598 11.7937 23.9893 16.1321 23.9893C20.4705 23.9893 24 20.4598 24 16.1215C24 11.8441 20.569 8.35318 16.3145 8.2559ZM16.1322 22.4906C14.9537 22.4906 13.8493 22.1686 12.9015 21.6084C16.2231 20.0127 18.3046 16.479 17.9733 12.7364C17.9432 12.3688 17.8708 11.7972 17.6967 11.1568L17.6933 11.1442C17.5988 10.7562 17.2143 10.5081 16.8188 10.5871C16.413 10.6681 16.1496 11.0627 16.2305 11.4685C16.2323 11.4778 16.2385 11.5055 16.2505 11.5498C16.395 12.0816 16.455 12.5563 16.4798 12.8609C16.4799 12.8627 16.4801 12.8645 16.4803 12.8663C16.7796 16.237 14.7264 19.4051 11.5577 20.5484C10.4474 19.4015 9.76294 17.8399 9.76294 16.1213C9.76294 12.6093 12.6202 9.75211 16.1322 9.75211C19.6441 9.75211 22.5014 12.6093 22.5014 16.1213C22.5014 19.6333 19.6441 22.4906 16.1322 22.4906ZM17.6944 11.1494C17.6974 11.1616 17.6991 11.1703 17.7002 11.1755C17.6984 11.1667 17.6965 11.158 17.6944 11.1494Z" fill="#033603"/>
</svg>
