<svg width="15" height="15" viewBox="0 0 15 15" fill="none" xmlns="http://www.w3.org/2000/svg">
<g clip-path="url(#clip0)">
<path d="M2.57937 10.3416C1.98565 10.2409 1.42317 10.6437 1.32248 11.2374C1.31207 11.2999 1.30859 11.3589 1.30859 11.4179C1.30859 12.0186 1.79816 12.5082 2.39882 12.5082C3.00296 12.5047 3.48905 12.0186 3.48905 11.4179C3.48905 11.3554 3.48558 11.2964 3.47517 11.2374C3.39878 10.7791 3.03768 10.418 2.57937 10.3416Z" fill="black"/>
<path d="M0.107821 7.85393C0.0418521 7.88171 -0.00328478 7.95115 0.000187289 8.02406V10.6455C0.000187289 10.6524 0.000187289 10.6594 0.000187289 10.6663C0.00365936 10.7601 0.0800449 10.8295 0.173791 10.826H0.70849C0.889037 10.3017 1.29874 9.89551 1.81955 9.71496C2.75354 9.39553 3.77085 9.89204 4.09029 10.826H4.5486V7.38867H1.20152L0.107821 7.85393Z" fill="black"/>
<path d="M4.54436 5.13769C4.54436 5.13769 4.54436 5.13422 4.54436 5.13075C4.54089 5.03006 4.45756 4.95367 4.36034 4.95715H2.70417C2.63472 4.95715 2.56876 4.99881 2.53751 5.06131L1.69727 6.69318H4.54436V5.13769Z" fill="black"/>
<path d="M12.4262 10.3242C11.8915 10.3242 11.4366 10.7096 11.3498 11.2374C11.3394 11.2999 11.3359 11.3589 11.3359 11.4179C11.3359 12.0186 11.8255 12.5082 12.4262 12.5082C13.0268 12.5047 13.5164 12.0186 13.5164 11.4144C13.5199 11.3589 13.5129 11.3033 13.506 11.2478C13.4192 10.7166 12.9643 10.3277 12.4262 10.3242Z" fill="black"/>
<path d="M5.24279 7.94333H14.6174V2.49219H4.20117V4.26294H4.36436C4.36783 4.26294 4.3713 4.26294 4.37478 4.26294C4.85739 4.26641 5.24626 4.65528 5.24279 5.1379V7.94333Z" fill="black"/>
<path d="M14.8251 8.63867H5.24219V10.8261H10.7315C10.9121 10.3018 11.3218 9.89555 11.8426 9.71501C12.7766 9.39558 13.7939 9.89208 14.1133 10.8261H14.8216C14.8286 10.8261 14.8355 10.8261 14.8425 10.8261C14.9362 10.8191 15.0057 10.7393 14.9987 10.649V8.83658C14.9987 8.73242 14.9293 8.63867 14.8251 8.63867Z" fill="black"/>
</g>
<defs>
<clipPath id="clip0">
<rect width="15" height="15" fill="white"/>
</clipPath>
</defs>
</svg>
