<svg width="78" height="78" viewBox="0 0 78 78" fill="none" xmlns="http://www.w3.org/2000/svg">
<circle cx="39" cy="39" r="39" fill="rgba(219, 241, 220, 0.5)"/>
<g clip-path="url(#clip0)">
<path d="M24.53 41.6044C24.2028 41.7579 24.0585 42.1443 24.2043 42.4746L25.6985 45.6823C25.7719 45.842 25.9059 45.9663 26.0706 46.0277C26.1427 46.0539 26.2193 46.0674 26.2962 46.0674C26.3925 46.0682 26.4876 46.0477 26.5751 46.0079L37.8649 40.7347L36.8423 51.4265C36.8225 51.637 36.9036 51.8439 37.0611 51.9845C37.556 52.3942 38.1729 52.6275 38.8146 52.6485C38.9916 52.6483 39.1676 52.6261 39.3391 52.5824C40.2557 52.3433 40.9663 51.5266 41.4511 50.1317L45.8939 36.9761L54.693 32.8717C57.283 31.6632 58.6178 29.2127 57.7214 27.3C57.2127 26.3003 56.2384 25.6202 55.1247 25.4869C53.8873 25.3002 52.6227 25.4948 51.4988 26.0451L41.3446 30.8065L30.4271 26.5363C29.0522 26.0185 27.9633 26.0318 27.1996 26.5831C26.5589 27.1089 26.1943 27.8992 26.2099 28.7279C26.2166 28.9382 26.3224 29.1326 26.4955 29.2528L33.8469 34.3064L29.6368 36.2988L22.5771 34.5055C22.2878 34.4343 21.9867 34.5647 21.8401 34.8243L20.0805 37.9918C19.9892 38.1596 19.9748 38.3589 20.0412 38.5382C20.1071 38.7176 20.2473 38.8597 20.4259 38.9283L25.6524 41.0868L24.53 41.6044ZM27.5711 28.396C27.6102 28.1152 27.7522 27.8596 27.9697 27.6787C28.3485 27.4063 29.0391 27.4462 29.9621 27.7914L39.6846 31.5835L35.2482 33.6555L27.5711 28.396ZM21.5945 37.9854L22.75 35.9334L29.5436 37.62C29.6901 37.657 29.8446 37.6431 29.9822 37.5805L52.0634 27.2669C52.9413 26.8339 53.93 26.6763 54.8991 26.8152C55.5787 26.8778 56.1841 27.27 56.5196 27.8644C57.0769 29.06 55.9814 30.8065 54.1284 31.6698L46.4781 35.2562L46.9431 33.8811C47.0606 33.5274 46.8686 33.1451 46.5149 33.0278C46.1607 32.9105 45.7787 33.1025 45.6614 33.4563L40.1958 49.7197C39.8703 50.6431 39.4652 51.1944 39.0137 51.3136C38.734 51.3675 38.4445 51.3126 38.2034 51.1612L39.5317 37.2149C39.5664 36.8482 39.2975 36.5227 38.9305 36.488C38.5638 36.4529 38.2384 36.7222 38.2034 37.0888L37.9977 39.2205L26.6015 44.5332L25.6657 42.5409L27.538 41.6645C27.779 41.5583 27.9344 41.3199 27.9344 41.0568C27.9344 40.7936 27.779 40.5552 27.538 40.4492L21.5945 37.9854Z" fill="#033603" stroke="#033603" stroke-width="0.5"/>
</g>
<defs>
<clipPath id="clip0">
<rect width="38" height="38" fill="white" transform="translate(20 20)"/>
</clipPath>
</defs>
</svg>
