<svg width="132" height="107" viewBox="0 0 132 107" fill="none" xmlns="http://www.w3.org/2000/svg">
<path d="M96.2643 0H32.5048L0 32.6444L63.7594 103L131.269 32.6444L96.2643 0Z" fill="#033603"/>
<path d="M92.8 5H35.9714L7 33.8412L63.8286 96L124 33.8412L92.8 5Z" stroke="#fff" stroke-width="2.49"/>
<path d="M81.4844 23.7656H48.5156C46.5795 23.7656 45 25.3434 45 27.2812V50.7188C45 52.65 46.5725 54.2344 48.5156 54.2344H81.4844C83.4156 54.2344 85 52.6619 85 50.7188V27.2812C85 25.35 83.4275 23.7656 81.4844 23.7656ZM80.9989 26.1094L65.0745 42.0338L49.0124 26.1094H80.9989ZM47.3438 50.2334V27.7554L58.6312 38.946L47.3438 50.2334ZM49.001 51.8906L60.2955 40.5961L64.2531 44.5197C64.7113 44.9739 65.4505 44.9724 65.9068 44.5161L69.7656 40.6573L80.999 51.8906H49.001ZM82.6562 50.2334L71.4229 39L82.6562 27.7666V50.2334Z" fill="white"/>
</svg>
