<svg width="70" height="70" viewBox="0 0 70 70" fill="none" xmlns="http://www.w3.org/2000/svg">
<g clip-path="url(#clip0)">
<path d="M58.3226 25.7309C55.0874 12.8428 42.017 5.01756 29.1289 8.25279C19.0571 10.7811 11.7438 19.486 10.9903 29.8428C3.83893 31.0222 -1.00243 37.7755 0.176913 44.9269C1.22529 51.2845 6.73418 55.9405 13.1776 55.915H24.1139V51.5405H13.1776C8.34565 51.5405 4.42854 47.6233 4.42854 42.7914C4.42854 37.9595 8.34565 34.0424 13.1776 34.0424C14.3856 34.0424 15.3648 33.0632 15.3648 31.8551C15.3539 20.9832 24.1586 12.1609 35.0305 12.1501C44.4417 12.1406 52.5432 18.794 54.3637 28.0274C54.5435 28.9493 55.2916 29.6536 56.2229 29.7772C62.2026 30.6287 66.3596 36.1665 65.5082 42.146C64.7436 47.5155 60.1591 51.5134 54.7355 51.5405H45.9865V55.915H54.7355C63.1915 55.8894 70.0256 49.0138 69.9999 40.5578C69.9785 33.5189 65.1606 27.4013 58.3226 25.7309Z" fill="#C3E1C5"/>
<path d="M33.4951 34.6769L24.7461 43.4259L27.8301 46.5099L32.8608 41.5011V62.4769H37.2354V41.5011L42.2442 46.5099L45.3282 43.4259L36.5792 34.6769C35.726 33.8287 34.3483 33.8287 33.4951 34.6769Z" fill="#C3E1C5"/>
</g>
<defs>
<clipPath id="clip0">
<rect width="70" height="70" fill="white"/>
</clipPath>
</defs>
</svg>
