<svg width="150" height="120" viewBox="0 0 150 120" fill="none" xmlns="http://www.w3.org/2000/svg">
<g clip-path="url(#clip0)">
<path d="M93.0886 6.80151L53.203 6.80151L59.7595 18.8218L58.1204 56.5219L42.2754 81.109L109.48 77.8307L90.3567 55.4292L85.4393 18.8218L93.0886 6.80151Z" fill="#D5E8FE"/>
<path d="M78.5424 84.0737L108.778 84.0917C111.719 84.0934 113.703 81.0854 112.542 78.3829C107.719 67.1489 101.139 59.5545 94.359 54.9636C94.1436 54.8178 93.9366 54.6812 93.7383 54.553L91.0342 20.7568C94.0252 18.117 96.0766 14.9217 97.3534 11.491C98.0324 9.66669 98.3629 8.15139 98.473 7.13882C98.7362 4.71816 96.8409 2.60424 94.406 2.60266L54.6188 2.57602C52.1722 2.57442 50.2703 4.70509 50.549 7.13596C50.7763 9.11986 51.3351 11.0305 52.1737 12.8585C53.5959 15.9586 55.6343 18.5303 57.8412 20.5734L55.0713 54.6654C54.8861 54.7961 54.6921 54.9356 54.4897 55.0838C47.6606 60.0866 41.0942 67.7181 36.5139 78.3391C35.3489 81.0405 37.329 84.0523 40.271 84.0538L70.3554 84.0689L70.3375 114.155C70.3362 116.416 72.168 118.25 74.4288 118.251C76.6896 118.253 78.5236 116.421 78.5249 114.16L78.5424 84.0737ZM46.8891 75.8699C50.4815 69.6312 54.8722 64.9528 59.3279 61.6887C60.1605 61.0787 60.7405 60.7079 60.9966 60.5639C62.1823 59.8966 62.959 58.6839 63.0691 57.3279L66.1717 19.1431C66.2875 17.7177 65.6511 16.3352 64.4931 15.4963C64.4584 15.471 64.3339 15.3746 64.1384 15.2115C62.735 14.0402 61.3498 12.5167 60.3106 10.7671L88.6911 10.7861C87.6795 12.6033 86.2723 14.2454 84.3977 15.5871C83.2293 16.4232 82.5849 17.8105 82.6995 19.2424L85.748 57.3411C85.8651 58.804 86.7564 60.0923 88.0839 60.7178C88.3217 60.8299 88.9088 61.1608 89.7687 61.7431C94.1361 64.7002 98.5072 69.3066 102.21 75.9003L72.5533 75.8828L46.8891 75.8699Z" fill="#007AFF"/>
</g>
<defs>
<clipPath id="clip0">
<rect width="150" height="120" fill="white"/>
</clipPath>
</defs>
</svg>
