<svg width="35" height="35" viewBox="0 0 35 35" fill="none" xmlns="http://www.w3.org/2000/svg">
<path d="M32.5195 4.92196C30.8657 3.30709 28.5808 2.5 25.6638 2.5C24.8566 2.5 24.0327 2.63997 23.1931 2.91976C22.3531 3.19976 21.5717 3.57752 20.8497 4.05276C20.1267 4.52786 19.5054 4.97402 18.9842 5.39057C18.4636 5.80725 17.9687 6.25006 17.5 6.71867C17.0311 6.25006 16.5363 5.80725 16.0157 5.39057C15.4946 4.97402 14.8731 4.52813 14.1503 4.05276C13.4276 3.57731 12.6463 3.19983 11.8065 2.91976C10.9668 2.64003 10.1431 2.5 9.33582 2.5C6.41905 2.5 4.13404 3.3073 2.48045 4.92196C0.826864 6.53649 0 8.77594 0 11.6405C0 12.5129 0.153237 13.4117 0.459095 14.3357C0.764953 15.2602 1.1135 16.0481 1.50405 16.699C1.89453 17.3498 2.33734 17.9845 2.83215 18.6031C3.32695 19.2216 3.68856 19.6478 3.91616 19.8822C4.14396 20.1166 4.32306 20.286 4.45324 20.3903L16.6406 32.1481C16.875 32.3825 17.1614 32.5 17.4999 32.5C17.8384 32.5 18.1251 32.3825 18.3594 32.1481L30.5273 20.4289C33.5092 17.4476 34.9999 14.518 34.9999 11.6402C35 8.77546 34.1732 6.53622 32.5195 4.92196ZM28.828 18.5933L17.5 29.5112L6.1526 18.5736C3.71764 16.1393 2.50036 13.8278 2.50036 11.6402C2.50036 10.5857 2.64033 9.65459 2.92012 8.8475C3.20012 8.04027 3.55817 7.39879 3.99435 6.92355C4.4306 6.44818 4.96111 6.06112 5.5861 5.76142C6.21143 5.46199 6.82335 5.26011 7.42221 5.15599C8.02106 5.05201 8.65898 4.99995 9.33616 4.99995C10.0131 4.99995 10.7425 5.16578 11.5237 5.4979C12.3048 5.82989 13.0242 6.24658 13.6817 6.74781C14.3393 7.24939 14.9024 7.71806 15.3714 8.1541C15.84 8.59055 16.2305 8.99068 16.5431 9.3553C16.7773 9.64187 17.0966 9.78512 17.5001 9.78512C17.9037 9.78512 18.2226 9.64187 18.4571 9.3553C18.7696 8.99068 19.1604 8.59035 19.629 8.1541C20.0978 7.71806 20.661 7.24959 21.3183 6.74781C21.976 6.24658 22.6953 5.82989 23.4769 5.4979C24.2578 5.16584 24.9873 4.99995 25.6644 4.99995C26.3414 4.99995 26.9791 5.05201 27.5783 5.15599C28.1773 5.26004 28.7892 5.46199 29.4144 5.76142C30.0394 6.06105 30.5699 6.44838 31.0061 6.92355C31.4422 7.39879 31.8004 8.04027 32.0804 8.8475C32.3599 9.65459 32.4999 10.5857 32.4999 11.6402C32.4998 13.8278 31.2761 16.1457 28.828 18.5933Z" fill="black"/>
</svg>
