<svg width="150" height="120" viewBox="0 0 150 120" fill="none" xmlns="http://www.w3.org/2000/svg">
<g clip-path="url(#clip0)">
<circle cx="75.6115" cy="60.6111" r="54.3889" fill="#D5E8FE"/>
<path d="M113.891 21.1091C103.503 10.7211 89.6908 5 75 5C60.3092 5 46.4971 10.7211 36.1091 21.1091C25.7211 31.4971 20 45.3092 20 60C20 74.6908 25.7211 88.5029 36.1091 98.8909C46.4971 109.279 60.3092 115 75 115C89.6908 115 103.503 109.279 113.891 98.8909C124.279 88.5029 130 74.6908 130 60C130 45.3092 124.279 31.4971 113.891 21.1091ZM75 108.654C48.1722 108.654 26.3463 86.8278 26.3463 60C26.3463 33.1722 48.1722 11.3463 75 11.3463C101.828 11.3463 123.654 33.1722 123.654 60C123.654 86.8278 101.828 108.654 75 108.654Z" fill="#007AFF"/>
<path d="M105.117 30.9945C97.221 23.0989 86.7216 18.75 75.5556 18.75C64.3895 18.75 53.8902 23.0989 45.9945 30.9945C38.0989 38.8902 33.75 49.3895 33.75 60.5556C33.75 71.7216 38.0989 82.221 45.9945 90.1166C53.8902 98.0122 64.3895 102.361 75.5556 102.361C86.7216 102.361 97.221 98.0122 105.117 90.1166C113.012 82.221 117.361 71.7216 117.361 60.5556C117.361 49.3895 113.012 38.8902 105.117 30.9945ZM75.5556 97.0661C55.4238 97.0661 39.045 80.6874 39.045 60.5556C39.045 40.4238 55.4238 24.045 75.5556 24.045C95.6874 24.045 112.066 40.4238 112.066 60.5556C112.066 80.6874 95.6874 97.0661 75.5556 97.0661Z" fill="#007AFF" stroke="#007AFF" stroke-width="0.5"/>
<path d="M87.4222 45H64.5742V49.5393H72.6315C75.5905 49.5393 78.1142 51.4368 79.0511 54.0786H64.5742V58.6179H79.0511C78.1142 61.2598 75.5905 63.1572 72.6315 63.1572H64.5742V67.6965L77.8776 81L81.0873 77.7902L70.9938 67.6967H72.6315C78.1119 67.6967 82.6973 63.7916 83.7517 58.618H87.4222V54.0787H83.7517C83.4101 52.4024 82.6977 50.8596 81.7045 49.5394H87.4222V45Z" fill="#007AFF"/>
</g>
<defs>
<clipPath id="clip0">
<rect width="110" height="110" fill="white" transform="translate(20 5)"/>
</clipPath>
</defs>
</svg>
