<svg width="16" height="16" viewBox="0 0 16 16" fill="none" xmlns="http://www.w3.org/2000/svg">
<g clip-path="url(#clip0)">
<circle cx="8" cy="8" r="8" fill="#DBF1DC"/>
<path d="M8.61572 4.97461C8.61572 5.20378 8.53516 5.40072 8.37402 5.56543C8.21289 5.72656 8.01953 5.80713 7.79395 5.80713C7.56478 5.80713 7.36963 5.72656 7.2085 5.56543C7.04736 5.40072 6.9668 5.20378 6.9668 4.97461C6.9668 4.73828 7.04736 4.53955 7.2085 4.37842C7.37321 4.21729 7.56836 4.13672 7.79395 4.13672C8.01595 4.13672 8.20752 4.21729 8.36865 4.37842C8.53337 4.53955 8.61572 4.73828 8.61572 4.97461ZM9.35693 11.9839L9.30322 12.0376C8.96305 12.0125 8.47249 12 7.83154 12C7.19059 12 6.70182 12.0125 6.36523 12.0376L6.31152 11.9839V11.6562L6.36523 11.6025C6.70898 11.5918 6.92204 11.5649 7.00439 11.522C7.07601 11.4897 7.1154 11.4038 7.12256 11.2642C7.14762 10.7987 7.16016 10.2992 7.16016 9.76562V8.99756C7.16016 8.3029 7.1333 7.89111 7.07959 7.76221C7.05094 7.69059 6.97396 7.64583 6.84863 7.62793C6.80566 7.62077 6.6499 7.61182 6.38135 7.60107L6.32764 7.54736V7.24658L6.38135 7.1875C7.06885 7.12663 7.76172 6.97803 8.45996 6.7417L8.57275 6.81152C8.5262 7.46322 8.50293 8.01286 8.50293 8.46045V10.1738C8.50293 10.4352 8.51546 10.7987 8.54053 11.2642C8.54769 11.4038 8.58708 11.4897 8.65869 11.522C8.74105 11.5649 8.9541 11.5918 9.29785 11.6025L9.35693 11.6562V11.9839Z" fill="#033603"/>
</g>
<defs>
<clipPath id="clip0">
<rect width="16" height="16" fill="white"/>
</clipPath>
</defs>
</svg>
