<svg width="18" height="19" viewBox="0 0 18 19" fill="none" xmlns="http://www.w3.org/2000/svg">
<g clip-path="url(#clip0)">
<path d="M17.386 5.92284C17.3458 5.01067 17.1983 4.38356 16.987 3.84016C16.769 3.26336 16.4336 2.74695 15.9943 2.31765C15.565 1.88168 15.0452 1.54291 14.475 1.32832C13.9285 1.11702 13.3047 0.969508 12.3925 0.929291C11.4735 0.885667 11.1818 0.87558 8.85098 0.87558C6.52019 0.87558 6.22845 0.885667 5.31287 0.925885C4.40071 0.966102 3.7736 1.11374 3.23033 1.32492C2.6534 1.54291 2.13699 1.87827 1.7077 2.31765C1.27172 2.74695 0.933081 3.26677 0.718368 3.83689C0.507062 4.38356 0.359554 5.00726 0.319336 5.91943C0.275712 6.83841 0.265625 7.13015 0.265625 9.46095C0.265625 11.7917 0.275712 12.0835 0.31593 12.9991C0.356147 13.9112 0.503787 14.5383 0.715093 15.0817C0.933081 15.6585 1.27172 16.1749 1.7077 16.6042C2.13699 17.0402 2.65681 17.379 3.22693 17.5936C3.7736 17.8049 4.3973 17.9524 5.3096 17.9926C6.22504 18.033 6.51691 18.0429 8.8477 18.0429C11.1785 18.0429 11.4702 18.033 12.3858 17.9926C13.298 17.9524 13.9251 17.8049 14.4684 17.5936C15.6221 17.1475 16.5343 16.2353 16.9803 15.0817C17.1915 14.5351 17.3391 13.9112 17.3793 12.9991C17.4196 12.0835 17.4297 11.7917 17.4297 9.46095C17.4297 7.13015 17.4262 6.83841 17.386 5.92284ZM15.8401 12.932C15.8031 13.7704 15.6623 14.2231 15.5449 14.525C15.2565 15.2729 14.6629 15.8664 13.915 16.1549C13.6132 16.2723 13.1572 16.4131 12.322 16.4499C11.4165 16.4903 11.145 16.5002 8.85439 16.5002C6.56381 16.5002 6.28884 16.4903 5.38663 16.4499C4.54822 16.4131 4.09547 16.2723 3.79364 16.1549C3.42147 16.0174 3.08269 15.7994 2.80772 15.5143C2.52266 15.2359 2.30467 14.9006 2.16712 14.5284C2.04974 14.2266 1.90892 13.7704 1.8721 12.9354C1.83176 12.0299 1.8218 11.7582 1.8218 9.46763C1.8218 7.17705 1.83176 6.90208 1.8721 6C1.90892 5.16158 2.04974 4.70884 2.16712 4.40701C2.30467 4.0347 2.52266 3.69606 2.81113 3.42095C3.08938 3.13589 3.42474 2.91791 3.79705 2.78048C4.09888 2.66311 4.55503 2.52228 5.39003 2.48534C6.29552 2.44512 6.56722 2.43503 8.85766 2.43503C11.1516 2.43503 11.4232 2.44512 12.3254 2.48534C13.1638 2.52228 13.6166 2.66311 13.9184 2.78048C14.2906 2.91791 14.6294 3.13589 14.9043 3.42095C15.1894 3.69933 15.4074 4.0347 15.5449 4.40701C15.6623 4.70884 15.8031 5.16486 15.8401 6C15.8803 6.90549 15.8904 7.17705 15.8904 9.46763C15.8904 11.7582 15.8803 12.0265 15.8401 12.932Z" fill="white"/>
<path d="M8.85147 5.0507C6.41679 5.0507 4.44141 7.02596 4.44141 9.46077C4.44141 11.8956 6.41679 13.8708 8.85147 13.8708C11.2863 13.8708 13.2615 11.8956 13.2615 9.46077C13.2615 7.02596 11.2863 5.0507 8.85147 5.0507ZM8.85147 12.3215C7.27197 12.3215 5.99077 11.0404 5.99077 9.46077C5.99077 7.88114 7.27197 6.60007 8.85147 6.60007C10.4311 6.60007 11.7122 7.88114 11.7122 9.46077C11.7122 11.0404 10.4311 12.3215 8.85147 12.3215Z" fill="white"/>
<path d="M14.4655 4.87652C14.4655 5.44507 14.0045 5.90607 13.4358 5.90607C12.8672 5.90607 12.4062 5.44507 12.4062 4.87652C12.4062 4.30784 12.8672 3.84697 13.4358 3.84697C14.0045 3.84697 14.4655 4.30784 14.4655 4.87652Z" fill="white"/>
</g>
<defs>
<clipPath id="clip0">
<rect width="17.1674" height="17.1674" fill="white" transform="translate(0.236328 0.875534)"/>
</clipPath>
</defs>
</svg>
