<svg width="144" height="144" viewBox="0 0 144 144" fill="none" xmlns="http://www.w3.org/2000/svg">
<g clip-path="url(#clip0)">
<path d="M7.38444 8.44727H52.2812C56.3574 8.44727 59.6656 11.7555 59.6656 15.8316V60.7284C59.6656 64.8047 56.3574 68.1127 52.2812 68.1127H30.7928C31.0734 79.8688 33.8056 89.2763 38.9747 96.3505C43.0508 101.933 49.224 106.556 57.4798 110.203C61.2754 111.872 62.9147 116.362 61.1425 120.113L55.8257 131.338C54.1126 134.941 49.874 136.521 46.2113 134.941C36.4345 130.717 28.1786 125.371 21.4442 118.873C13.2327 110.942 7.60598 101.992 4.56363 92.0085C1.52113 82.0248 9.91821e-05 68.4081 9.91821e-05 51.1288V15.8316C9.91821e-05 11.7556 3.30843 8.44727 7.38444 8.44727Z" fill="#DBF1DC" fill-opacity="0.3"/>
<path d="M128.34 134.912C118.681 130.702 110.47 125.356 103.691 118.873C95.4058 110.942 89.7494 102.022 86.707 92.1119C83.6647 82.2021 82.1437 68.5411 82.1437 51.1288V15.8316C82.1437 11.7555 85.4517 8.44727 89.528 8.44727H134.425C138.501 8.44727 141.809 11.7555 141.809 15.8316V60.7284C141.809 64.8047 138.501 68.1128 134.425 68.1128H112.936C113.217 79.8688 115.949 89.2763 121.118 96.3505C125.194 101.933 131.368 106.556 139.623 110.204C143.419 111.872 145.058 116.362 143.286 120.113L137.984 131.308C136.271 134.912 132.003 136.507 128.34 134.912Z" fill="#DBF1DC" fill-opacity="0.3"/>
</g>
<defs>
<clipPath id="clip0">
<rect width="144" height="144" fill="white" transform="matrix(-1 0 0 1 144 0)"/>
</clipPath>
</defs>
</svg>
