<svg width="19" height="19" viewBox="0 0 19 19" fill="none" xmlns="http://www.w3.org/2000/svg">
<path d="M3.43616 1.74757C2.25599 1.74757 1.48438 2.52253 1.48438 3.5411C1.48438 4.53718 2.23301 5.33424 3.39087 5.33424H3.41327C4.61652 5.33424 5.36535 4.53718 5.36535 3.5411C5.34285 2.52253 4.61652 1.74757 3.43616 1.74757Z" fill="white"/>
<path d="M1.68945 6.7513H5.13958V17.1311H1.68945V6.7513Z" fill="white"/>
<path d="M13.6064 6.50758C11.7451 6.50758 10.4971 8.25652 10.4971 8.25652V6.7512H7.04688V17.1311H10.4969V11.3345C10.4969 11.0242 10.5194 10.7144 10.6106 10.4925C10.86 9.87284 11.4276 9.23089 12.3807 9.23089C13.6291 9.23089 14.1285 10.1828 14.1285 11.5782V17.1311H17.5783V11.1794C17.5783 7.99119 15.8761 6.50758 13.6064 6.50758Z" fill="white"/>
</svg>
