<svg width="65" height="65" viewBox="0 0 65 65" fill="none" xmlns="http://www.w3.org/2000/svg">
<circle cx="32.5" cy="32.5" r="32.5" fill="white"/>
<circle cx="32.5" cy="32.5" r="32.25" stroke="#262E3A" stroke-opacity="0.2" stroke-width="0.5"/>
<path d="M32.5 18C26.711 18 22 22.7437 22 28.5758C22 36.8627 31.513 45.419 31.9178 45.7783C32.0847 45.9265 32.2923 46 32.5 46C32.7077 46 32.9153 45.9265 33.0822 45.7795C33.487 45.419 43 36.8627 43 28.5758C43 22.7437 38.289 18 32.5 18ZM32.5 34.3333C29.2835 34.3333 26.6667 31.7165 26.6667 28.5C26.6667 25.2835 29.2835 22.6667 32.5 22.6667C35.7165 22.6667 38.3333 25.2835 38.3333 28.5C38.3333 31.7165 35.7165 34.3333 32.5 34.3333Z" fill="#262E3A"/>
</svg>
