<svg width="224" height="38" viewBox="0 0 224 38" fill="none" xmlns="http://www.w3.org/2000/svg">
<rect x="41.4236" y="5.45752" width="5.21597" height="25.8985" transform="rotate(-43.771 41.4236 5.45752)" fill="#033603"/>
<rect x="35.1733" y="25.927" width="5.21597" height="15.7446" transform="rotate(-43.771 35.1733 25.927)" fill="#033603"/>
<rect x="14.6533" y="3.60815" width="5.21597" height="14.9893" transform="rotate(-43.771 14.6533 3.60815)" fill="#033603"/>
<rect y="18.2551" width="5.21597" height="24.1393" transform="rotate(-45.0168 0 18.2551)" fill="#033603"/>
<rect x="41.9088" y="4.98584" width="5.21597" height="39.0167" transform="rotate(45 41.9088 4.98584)" fill="#033603"/>
<rect x="57.2156" y="18.9231" width="5.21597" height="15.8568" transform="rotate(45 57.2156 18.9231)" fill="#033603"/>
<rect x="18.2276" y="0.0251465" width="5.21597" height="22.988" transform="rotate(45 18.2276 0.0251465)" fill="#033603"/>
<path d="M80.9653 16.3426C77.5387 15.6433 76.0702 14.8741 76.0702 13.1957C76.0702 11.2377 77.7485 10.1188 80.7205 10.1188C83.4478 10.1188 85.1961 11.3076 86.315 12.3915L87.8185 9.59434C85.1262 7.11181 81.6996 7.00692 80.7905 7.00692C75.7205 7.00692 72.9583 9.76916 72.9583 13.3006C72.9583 16.2377 74.6716 18.4056 80.7205 19.4195C83.6926 19.944 85.6856 21.0279 85.6856 22.7762C85.6856 24.8391 83.9024 26.1678 80.6156 26.1678C78.0632 26.1678 75.5807 24.979 73.7625 22.951L72.224 25.7482C72.5387 26.1329 75.3009 29.2797 80.5457 29.2797C85.6506 29.2797 88.7975 26.4126 88.7975 22.6363C88.7975 18.965 86.1751 17.3216 80.9653 16.3426ZM106.097 10.3286V7.25167H91.6212V10.3286H106.097ZM100.397 29.035V12.0769H97.2856V29.035H100.397ZM119.369 21.2028C122.585 20.3286 124.438 17.6014 124.438 14.2097C124.438 10.1188 121.816 7.25167 116.152 7.25167H109.438V10.3636H117.236C119.473 10.3636 121.327 11.5524 121.327 14.4195C121.327 17.2167 119.438 18.4056 117.166 18.4056H109.438V29.035H112.515V21.5175H115.942L121.327 29.035H124.963L119.369 21.2028ZM132.835 29.035V7.25167H129.758V29.035H132.835ZM138.797 29.035H141.874V7.25167H138.797V29.035ZM150.685 29.035V25.9231H143.657V29.035H150.685ZM157.81 29.035V7.25167H154.733V29.035H157.81ZM172.129 6.72719L161.779 29.035H165.136L167.234 24.3496L172.129 13.6153L176.989 24.3496H177.024L179.122 29.035H182.479L172.129 6.72719ZM186.4 29.035H189.477V16.7622L186.4 13.6503V29.035ZM201.4 7.25167V22.1468L186.4 6.72719V11.0279L204.512 29.5245V7.25167H201.4ZM222.876 10.3286V7.25167H208.401V10.3286H222.876ZM217.177 29.035V12.0769H214.065V29.035H217.177Z" fill="#033603"/>
</svg>
