<svg width="150" height="120" viewBox="0 0 150 120" fill="none" xmlns="http://www.w3.org/2000/svg">
<path d="M90.9256 50.0637H58.8921C58.0974 40.6275 64.6862 35.5369 68.08 34.1711C79.9995 31.0671 84.8417 36.0335 88.6907 39.0134C91.7699 41.3973 91.4637 47.3736 90.9256 50.0637Z" fill="#D5E8FE"/>
<path d="M62.8026 108.534H30.769C29.9744 99.0982 36.5632 94.0076 39.9569 92.6418C51.8764 89.5378 56.7187 94.5042 60.5677 97.4841C63.6469 99.868 63.3406 105.844 62.8026 108.534Z" fill="#D5E8FE"/>
<path d="M119.42 107.79H87.3862C86.5916 98.3533 93.1804 93.2627 96.5741 91.897C108.494 88.7929 113.336 93.7594 117.185 96.7392C120.264 99.1231 119.958 105.099 119.42 107.79Z" fill="#D5E8FE"/>
<circle cx="46.8447" cy="77.0069" r="7.94631" fill="#D5E8FE"/>
<circle cx="103.464" cy="77.0069" r="7.94631" fill="#D5E8FE"/>
<circle cx="75.1533" cy="18.8992" r="7.94631" fill="#D5E8FE"/>
<path d="M27.7248 115H65.7373C67.7944 115 69.4621 113.332 69.4621 111.275V107.125C69.4621 98.5143 64.6489 91.0062 57.5717 87.15C60.0852 84.4816 61.6305 80.8913 61.6305 76.9447C61.6305 68.7293 54.9467 62.0454 46.7312 62.0454C38.5157 62.0454 31.8318 68.7293 31.8318 76.9447C31.8318 80.8913 33.3771 84.4816 35.8907 87.15C28.8132 91.0062 24 98.5143 24 107.125V111.275C24 113.332 25.6677 115 27.7248 115V115ZM39.2815 76.9447C39.2815 72.837 42.6234 69.4951 46.7312 69.4951C50.8389 69.4951 54.1808 72.837 54.1808 76.9447C54.1808 81.0525 50.8389 84.3944 46.7312 84.3944C42.6234 84.3944 39.2815 81.0525 39.2815 76.9447ZM46.7312 91.8441C54.7115 91.8441 62.0124 98.1001 62.0124 107.55H31.4497C31.4497 98.1492 38.7081 91.8441 46.7312 91.8441Z" fill="#007AFF"/>
<path d="M114.419 87.15C116.933 84.4816 118.478 80.8913 118.478 76.9447C118.478 68.7293 111.794 62.0454 103.579 62.0454C95.3631 62.0454 88.6792 68.7293 88.6792 76.9447C88.6792 80.8913 90.2246 84.4816 92.7381 87.15C85.6609 91.0062 80.8477 98.514 80.8477 107.125V111.275C80.8477 113.332 82.5154 115 84.5725 115H122.585C124.642 115 126.309 113.332 126.309 111.275V107.125C126.309 98.5143 121.496 91.0062 114.419 87.15ZM96.1287 76.9447C96.1287 72.837 99.4706 69.4951 103.578 69.4951C107.686 69.4951 111.028 72.837 111.028 76.9447C111.028 81.0525 107.686 84.3944 103.578 84.3944C99.4706 84.3944 96.1287 81.0525 96.1287 76.9447ZM118.86 107.55H88.2971C88.2971 98.1492 95.5555 91.8441 103.578 91.8441C111.558 91.8441 118.86 98.0993 118.86 107.55Z" fill="#007AFF"/>
<rect x="72.1465" y="62.1077" width="6.45638" height="14.8993" rx="3.22819" fill="#007AFF"/>
<rect x="73.8145" y="72.0715" width="6.45638" height="14.8993" rx="3.22819" transform="rotate(38.8234 73.8145 72.0715)" fill="#007AFF"/>
<rect width="6.45638" height="14.8993" rx="3.22819" transform="matrix(-0.779082 0.626922 0.626922 0.779082 76.6777 72.0405)" fill="#007AFF"/>
<path d="M97.7707 53.2299V49.0799C97.7707 40.4689 92.9575 32.9608 85.8803 29.1046C88.3935 26.4362 89.9388 22.8459 89.9388 18.8993C89.9388 10.6838 83.255 4 75.0395 4C66.824 4 60.1402 10.6838 60.1402 18.8993C60.1402 22.8459 61.6855 26.4362 64.199 29.1046C57.1218 32.9608 52.3086 40.4689 52.3086 49.0799V53.2299C52.3086 55.287 53.9763 56.9547 56.0334 56.9547H94.0458C96.103 56.9547 97.7707 55.287 97.7707 53.2299ZM67.5898 18.8993C67.5898 14.7916 70.9318 11.4497 75.0395 11.4497C79.1473 11.4497 82.4892 14.7916 82.4892 18.8993C82.4892 23.0071 79.1473 26.349 75.0395 26.349C70.9318 26.349 67.5898 23.0071 67.5898 18.8993ZM90.321 49.505H59.758C59.758 40.1038 67.0165 33.7987 75.0395 33.7987C83.0193 33.7987 90.321 40.0539 90.321 49.505Z" fill="#007AFF"/>
</svg>
