<svg width="11" height="11" viewBox="0 0 11 11" fill="none" xmlns="http://www.w3.org/2000/svg">
<g clip-path="url(#clip0)">
<path d="M6.7931 1.84766L0.740739 7.90045C0.710289 7.93099 0.688303 7.96955 0.677833 8.01099L0.00698755 10.7036C-0.0130794 10.7847 0.0107392 10.8709 0.069893 10.93C0.114651 10.9748 0.175637 10.9996 0.238019 10.9996C0.257126 10.9996 0.276669 10.9972 0.295689 10.9924L2.98832 10.3215C3.03029 10.311 3.06841 10.2891 3.09886 10.2587L9.15174 4.2063L6.7931 1.84766Z" fill="white"/>
<path d="M10.6487 1.02299L9.97496 0.349268C9.52468 -0.101016 8.73988 -0.10058 8.29012 0.349268L7.46484 1.17454L9.82341 3.5331L10.6487 2.70783C10.8736 2.48299 10.9975 2.18373 10.9975 1.86545C10.9975 1.54718 10.8736 1.24792 10.6487 1.02299Z" fill="white"/>
</g>
<defs>
<clipPath id="clip0">
<rect width="11" height="11" fill="white"/>
</clipPath>
</defs>
</svg>
