<svg width="20" height="20" viewBox="0 0 20 20" fill="none" xmlns="http://www.w3.org/2000/svg">
<g clip-path="url(#clip0)">
<path d="M15.8074 12.3797C15.3979 11.9537 14.9041 11.7259 14.3806 11.7259C13.8614 11.7259 13.3633 11.9495 12.937 12.3755L11.6031 13.7041C11.4934 13.6451 11.3836 13.5902 11.2781 13.5354C11.1261 13.4595 10.9826 13.3878 10.8602 13.3119C9.61075 12.5189 8.47527 11.4855 7.38621 10.1484C6.85857 9.48197 6.504 8.92099 6.24651 8.35157C6.59264 8.03522 6.91345 7.70622 7.22581 7.38987C7.344 7.27177 7.46219 7.14945 7.58039 7.03135C8.46683 6.14558 8.46683 4.9983 7.58039 4.11254L6.42802 2.96104C6.29716 2.83028 6.16208 2.69531 6.03545 2.56034C5.78218 2.29882 5.51625 2.02888 5.24188 1.7758C4.83243 1.37088 4.34277 1.15576 3.8278 1.15576C3.31282 1.15576 2.81472 1.37088 2.39261 1.7758C2.38839 1.78002 2.38839 1.78002 2.38417 1.78423L0.948981 3.23099C0.408675 3.77088 0.100533 4.42888 0.0329944 5.19233C-0.0683129 6.42397 0.294705 7.57125 0.5733 8.32204C1.25712 10.1653 2.27864 11.8735 3.80247 13.7041C5.65133 15.9101 7.87587 17.6521 10.417 18.8795C11.3879 19.3393 12.6837 19.8834 14.1316 19.9762C14.2202 19.9804 14.3131 19.9846 14.3975 19.9846C15.3726 19.9846 16.1915 19.6346 16.8331 18.9386C16.8373 18.9302 16.8458 18.9259 16.85 18.9175C17.0695 18.6518 17.3228 18.4114 17.5887 18.1541C17.7702 17.9811 17.9559 17.7997 18.1374 17.6099C18.5553 17.1755 18.7748 16.6693 18.7748 16.1505C18.7748 15.6275 18.5511 15.1256 18.1248 14.7038L15.8074 12.3797ZM17.3185 16.8212C17.3143 16.8212 17.3143 16.8254 17.3185 16.8212C17.1539 16.9983 16.9851 17.1586 16.8036 17.3358C16.5292 17.5973 16.2506 17.8715 15.9889 18.1794C15.5626 18.6349 15.0602 18.85 14.4017 18.85C14.3384 18.85 14.2709 18.85 14.2076 18.8458C12.9539 18.7657 11.7889 18.2764 10.9151 17.8588C8.52592 16.7031 6.42802 15.0623 4.68469 12.9829C3.24528 11.2493 2.28286 9.64647 1.64547 7.92555C1.2529 6.87529 1.10938 6.05701 1.1727 5.28512C1.21491 4.79163 1.40486 4.38249 1.75522 4.0324L3.19463 2.59408C3.40146 2.40005 3.62096 2.29461 3.83624 2.29461C4.10217 2.29461 4.31745 2.45489 4.45252 2.58986C4.45675 2.59408 4.46097 2.5983 4.46519 2.60251C4.72268 2.84294 4.9675 3.0918 5.22499 3.35753C5.35585 3.4925 5.49092 3.62747 5.626 3.76667L6.77837 4.91816C7.22581 5.36526 7.22581 5.77862 6.77837 6.22572C6.65596 6.34804 6.53777 6.47036 6.41535 6.58847C6.06078 6.95121 5.72309 7.28864 5.35585 7.61764C5.34741 7.62608 5.33896 7.6303 5.33474 7.63873C4.97172 8.00148 5.03926 8.35578 5.11524 8.59621C5.11946 8.60886 5.12368 8.62151 5.12791 8.63417C5.42761 9.35965 5.84972 10.043 6.49133 10.857L6.49555 10.8612C7.66059 12.2953 8.88894 13.4131 10.2439 14.2693C10.417 14.379 10.5943 14.4676 10.7631 14.5519C10.9151 14.6279 11.0586 14.6996 11.181 14.7755C11.1979 14.7839 11.2148 14.7966 11.2317 14.805C11.3752 14.8767 11.5103 14.9105 11.6496 14.9105C11.9999 14.9105 12.2194 14.6911 12.2912 14.6194L13.7348 13.1769C13.8783 13.0335 14.1063 12.8605 14.3722 12.8605C14.6339 12.8605 14.8492 13.025 14.98 13.1685C14.9843 13.1727 14.9843 13.1727 14.9885 13.1769L17.3143 15.501C17.7491 15.9312 17.7491 16.3741 17.3185 16.8212Z" fill="black"/>
<path d="M10.8089 4.75362C11.9148 4.93921 12.9195 5.46223 13.7215 6.26364C14.5235 7.06505 15.0427 8.06892 15.2327 9.17402C15.2791 9.4524 15.5197 9.64643 15.7941 9.64643C15.8279 9.64643 15.8574 9.64221 15.8912 9.63799C16.2035 9.58738 16.4104 9.29212 16.3597 8.97999C16.1318 7.64291 15.4986 6.42392 14.532 5.45801C13.5653 4.49211 12.3454 3.85942 11.0073 3.63165C10.6949 3.58103 10.4037 3.78771 10.3488 4.09562C10.2939 4.40353 10.4965 4.703 10.8089 4.75362Z" fill="black"/>
<path d="M19.9756 8.81574C19.6 6.61397 18.5616 4.61045 16.966 3.01607C15.3704 1.42169 13.3653 0.384078 11.1619 0.00868114C10.8538 -0.0461521 10.5625 0.164745 10.5076 0.472654C10.457 0.784782 10.6638 1.07582 10.9762 1.13065C12.9432 1.46387 14.7372 2.39603 16.1639 3.81748C17.5907 5.24314 18.5193 7.03577 18.8528 9.00133C18.8992 9.27971 19.1398 9.47374 19.4142 9.47374C19.448 9.47374 19.4775 9.46952 19.5113 9.4653C19.8195 9.4189 20.0305 9.12365 19.9756 8.81574Z" fill="black"/>
</g>
<defs>
<clipPath id="clip0">
<rect width="20" height="19.9848" fill="white"/>
</clipPath>
</defs>
</svg>
