<svg width="80" height="80" viewBox="0 0 80 80" fill="none" xmlns="http://www.w3.org/2000/svg">
<path d="M53.1948 38.4354L36.583 26.36C35.9734 25.9181 35.1641 25.8515 34.4959 26.1949C33.8224 26.5357 33.4017 27.2278 33.4017 27.9759V52.1189C33.4017 52.8749 33.8224 53.5644 34.4959 53.9052C34.7807 54.0489 35.0922 54.1208 35.4063 54.1208C35.8163 54.1208 36.2316 53.9903 36.583 53.7321L53.1948 41.6673C53.7192 41.2813 54.0253 40.685 54.0253 40.0514C54.028 39.4071 53.7139 38.8135 53.1948 38.4354Z" fill="white"/>
<path d="M40.0013 0.00390625C17.9056 0.00390625 0 17.9095 0 40.0052C0 62.093 17.9056 79.9932 40.0013 79.9932C62.0918 79.9932 80 62.0904 80 40.0052C80.0027 17.9095 62.0918 0.00390625 40.0013 0.00390625ZM40.0013 73.3193C21.6006 73.3193 6.68197 58.4086 6.68197 40.0052C6.68197 21.6098 21.6006 6.68056 40.0013 6.68056C58.3994 6.68056 73.3154 21.6072 73.3154 40.0052C73.318 58.4086 58.3994 73.3193 40.0013 73.3193Z" fill="white"/>
</svg>
