<svg width="150" height="120" viewBox="0 0 150 120" fill="none" xmlns="http://www.w3.org/2000/svg">
<path d="M47.3038 23.3045C66.8795 5.39482 95.0281 13.7596 106.656 20.1807L117.068 11.3301L125.919 44.1297L88.4336 44.6503L98.8462 32.6759C98.3256 31.8081 94.3688 29.0315 82.7067 24.8664C71.0446 20.7014 55.634 32.1552 49.3865 38.4028C44.8744 44.6503 38.5574 61.7269 49.3865 80.0531C60.2156 98.3792 82.0125 96.019 91.5574 92.5482C107.385 90.4656 113.077 71.2024 113.944 61.8311H126.96C126.96 63.74 126.44 69.5364 124.357 77.4499C121.754 87.3419 105.094 103.481 91.5574 107.646C78.0211 111.811 62.9228 107.126 49.3865 100.358C38.5574 94.943 32.7263 76.2351 31.1643 67.558C28.3877 60.2691 27.7282 41.2141 47.3038 23.3045Z" fill="#D5E8FE"/>
<path d="M83.5185 51H64.4785V54.7828H71.193C73.6588 54.7828 75.7619 56.364 76.5426 58.5655H64.4785V62.3483H76.5426C75.7619 64.5498 73.6588 66.131 71.193 66.131H64.4785V69.9138L75.5646 81L78.2394 78.3251L69.8282 69.9139H71.193C75.7599 69.9139 79.5811 66.6597 80.4597 62.3483H83.5185V58.5656H80.4597C80.1751 57.1687 79.5814 55.883 78.7537 54.7828H83.5185V51Z" fill="#007AFF"/>
<path d="M110.789 61.2227C110.789 79.0046 96.3447 93.4492 78.5625 93.4492C60.7803 93.4492 46.3359 79.0044 46.3359 61.2227C46.3359 43.4405 60.781 28.9961 78.5625 28.9961C83.9978 28.9961 89.2731 30.3595 94.0033 32.9645L81.43 48.332H131.126L118.705 3L106.381 17.8599C98.049 12.4858 88.4934 9.66016 78.5625 9.66016C64.7897 9.66016 51.8413 15.0235 42.1024 24.7622C32.3636 34.501 27 47.4497 27 61.2227C27 90.7003 51.3555 113 78.5625 113C92.1969 113 105.145 107.56 115.023 97.6827C124.761 87.9436 130.125 74.9952 130.125 61.2227V58H110.789V61.2227ZM123.567 64.4453C121.877 88.5598 101.444 106.555 78.5625 106.555C54.6564 106.555 33.4453 86.9079 33.4453 61.2227C33.4453 49.1714 38.1384 37.8412 46.6599 29.3196C55.1815 20.7983 66.5115 16.1055 78.5625 16.1055C88.1299 16.1055 97.3027 19.1077 105.089 24.7873L107.539 26.5748L115.764 16.6252L122.679 41.8867H95.0311L103.512 31.5216C100.049 29.1001 91.9258 22.5508 78.5625 22.5508C57.2178 22.5508 39.8906 39.8784 39.8906 61.2227C39.8906 82.5674 57.2182 99.8945 78.5625 99.8945C99.0897 99.8945 115.494 83.995 117.102 64.4453H123.567Z" fill="#007AFF"/>
</svg>
