<svg width="150" height="120" viewBox="0 0 150 120" fill="none" xmlns="http://www.w3.org/2000/svg">
<path d="M74.0756 113.673C37.8294 102.947 27.8432 54.3409 27.3809 31.3788L74.0756 8.26255L120.77 27.6802C120.924 8.26261 121.14 -18.1823 120.77 31.3788C120.4 80.94 89.4864 106.892 74.0756 113.673Z" fill="#D5E8FE"/>
<path d="M123.946 31.4202C123.885 30.2513 123.2 29.2052 122.153 28.6818L76.4537 5.83188C75.5385 5.3744 74.4615 5.3744 73.5463 5.83188L27.8466 28.6818C26.7997 29.2052 26.1149 30.2513 26.0542 31.4202C26.0195 32.0855 25.2679 47.9269 30.6643 66.3188C33.8574 77.2009 38.554 86.7054 44.6238 94.5684C52.2727 104.477 62.1038 111.766 73.8438 116.234C74.2164 116.376 74.608 116.446 75 116.446C75.392 116.446 75.7836 116.376 76.1562 116.234C87.8962 111.766 97.7273 104.477 105.376 94.5684C111.446 86.7054 116.143 77.2007 119.336 66.3188C124.732 47.9269 123.981 32.0855 123.946 31.4202V31.4202ZM113.044 64.6683C106.426 87.0643 93.6301 102.21 75 109.705C56.3699 102.21 43.5736 87.0643 36.9558 64.6683C32.8668 50.8303 32.4906 38.2331 32.5097 33.6192L75 12.3738L117.49 33.6188C117.509 38.235 117.133 50.8313 113.044 64.6683Z" fill="#007AFF"/>
<path d="M108.751 36.9032L76.1964 20.626C75.2812 20.1685 74.2042 20.1687 73.289 20.626L40.7346 36.9032C39.5678 37.4864 38.8626 38.7108 38.9438 40.0128C39.2971 45.6825 40.3031 54.3784 43.0902 63.6067C48.6624 82.0574 58.8272 95.0416 73.302 102.198C73.756 102.423 74.2494 102.535 74.7427 102.535C75.2359 102.535 75.7296 102.423 76.1834 102.198C90.6582 95.0416 100.823 82.0574 106.395 63.6067C109.182 54.3793 110.188 45.6832 110.542 40.013C110.623 38.711 109.918 37.4864 108.751 36.9032V36.9032ZM100.172 61.727C95.3314 77.7543 86.7803 89.1507 74.7429 95.627C62.7055 89.1507 54.1544 77.7543 49.3141 61.727C47.0347 54.1799 46.0276 46.9921 45.589 41.7448L74.7429 27.1677L103.897 41.7448C103.458 46.9926 102.451 54.1805 100.172 61.727Z" fill="#007AFF"/>
<path d="M68.3917 71.273C69.5889 72.4703 71.5298 72.4703 72.7269 71.273L87.9706 56.0295C89.1676 54.8323 89.1676 52.8914 87.9706 51.6943C86.7733 50.4971 84.8322 50.4971 83.6352 51.6943L70.5593 64.7702L66.362 60.5729C65.1648 59.3757 63.2238 59.3757 62.0268 60.5729C60.8297 61.7701 60.8295 63.7111 62.0268 64.9081L68.3917 71.273Z" fill="#007AFF"/>
</svg>
