<svg width="17" height="21" viewBox="0 0 17 21" fill="none" xmlns="http://www.w3.org/2000/svg">
<path fill-rule="evenodd" clip-rule="evenodd" d="M8.5 20C12.6421 20 16 16.6421 16 12.5C16 8.35786 12.6421 5 8.5 5C4.35786 5 1 8.35786 1 12.5C1 16.6421 4.35786 20 8.5 20ZM8.5 18C11.5376 18 14 15.5376 14 12.5C14 9.46243 11.5376 7 8.5 7C5.46243 7 3 9.46243 3 12.5C3 15.5376 5.46243 18 8.5 18Z" fill="#033603"/>
<path d="M12.8561 1.41789L12.5613 1.13868C12.4686 1.05148 12.3451 1.00344 12.2132 1.00344C12.0813 1.00344 11.9577 1.05148 11.865 1.13868L8.50201 4.30193L5.13518 1.13517C5.04255 1.04797 4.91896 1 4.7871 1C4.65525 1 4.53159 1.04797 4.43888 1.13517L4.144 1.41266C3.952 1.59312 3.952 1.88706 4.144 2.06752L8.15262 5.85148C8.24525 5.93861 8.36869 6 8.50172 6H8.50326C8.63518 6 8.75862 5.93854 8.85126 5.85148L12.8561 2.07777C12.9489 1.99064 12.9999 1.87103 13 1.74701C13 1.62292 12.9489 1.50496 12.8561 1.41789Z" fill="#033603"/>
<path fill-rule="evenodd" clip-rule="evenodd" d="M8.5 20C12.6421 20 16 16.6421 16 12.5C16 8.35786 12.6421 5 8.5 5C4.35786 5 1 8.35786 1 12.5C1 16.6421 4.35786 20 8.5 20ZM8.5 18C11.5376 18 14 15.5376 14 12.5C14 9.46243 11.5376 7 8.5 7C5.46243 7 3 9.46243 3 12.5C3 15.5376 5.46243 18 8.5 18Z" stroke="#033603" stroke-width="0.2"/>
<path d="M12.8561 1.41789L12.5613 1.13868C12.4686 1.05148 12.3451 1.00344 12.2132 1.00344C12.0813 1.00344 11.9577 1.05148 11.865 1.13868L8.50201 4.30193L5.13518 1.13517C5.04255 1.04797 4.91896 1 4.7871 1C4.65525 1 4.53159 1.04797 4.43888 1.13517L4.144 1.41266C3.952 1.59312 3.952 1.88706 4.144 2.06752L8.15262 5.85148C8.24525 5.93861 8.36869 6 8.50172 6H8.50326C8.63518 6 8.75862 5.93854 8.85126 5.85148L12.8561 2.07777C12.9489 1.99064 12.9999 1.87103 13 1.74701C13 1.62292 12.9489 1.50496 12.8561 1.41789Z" stroke="#033603" stroke-width="0.2"/>
</svg>
