<svg width="25" height="25" viewBox="0 0 25 25" fill="none" xmlns="http://www.w3.org/2000/svg">
<g clip-path="url(#clip0)">
<path d="M12.4995 6.52393C9.20441 6.52393 6.52344 9.20489 6.52344 12.5C6.52344 15.7952 9.20441 18.4761 12.4995 18.4761C15.7947 18.4761 18.4756 15.7952 18.4756 12.5C18.4756 9.20489 15.7947 6.52393 12.4995 6.52393ZM12.4995 16.9821C10.0282 16.9821 8.01746 14.9714 8.01746 12.5C8.01746 10.0287 10.0282 8.01795 12.4995 8.01795C14.9709 8.01795 16.9816 10.0287 16.9816 12.5C16.9816 14.9714 14.9709 16.9821 12.4995 16.9821V16.9821Z" fill="black"/>
<path d="M24.4118 9.65347L22.4903 9.23576C22.3232 8.72421 22.1163 8.22525 21.8719 7.7446L22.9357 6.08997C23.1256 5.79433 23.0839 5.40619 22.8355 5.15785L19.8421 2.16446C19.5938 1.91612 19.2057 1.87435 18.91 2.06432L17.2554 3.12805C16.7747 2.88372 16.2758 2.67677 15.7642 2.50969L15.3465 0.588226C15.2719 0.244904 14.9679 0 14.6166 0H10.3834C10.0321 0 9.72805 0.244904 9.65347 0.588226L9.23576 2.50969C8.72421 2.67677 8.22525 2.88372 7.7446 3.12805L6.08997 2.06432C5.79433 1.87435 5.40619 1.91612 5.15785 2.16446L2.16446 5.15785C1.91612 5.40619 1.87435 5.79433 2.06432 6.08997L3.12805 7.7446C2.88372 8.22525 2.67677 8.72421 2.50969 9.23576L0.588226 9.65347C0.244904 9.72824 0 10.0321 0 10.3834V14.6166C0 14.9679 0.244904 15.2718 0.588226 15.3465L2.50969 15.7642C2.67677 16.2758 2.88372 16.7747 3.12805 17.2554L2.06432 18.91C1.87435 19.2057 1.91612 19.5938 2.16446 19.8421L5.15785 22.8355C5.40619 23.0839 5.79433 23.1256 6.08997 22.9357L7.7446 21.8719C8.22525 22.1163 8.72421 22.3232 9.23576 22.4903L9.65347 24.4118C9.72805 24.7551 10.0321 25 10.3834 25H14.6166C14.9679 25 15.2719 24.7551 15.3465 24.4118L15.7642 22.4903C16.2758 22.3232 16.7747 22.1163 17.2554 21.8719L18.91 22.9357C19.2057 23.1256 19.5938 23.0841 19.8421 22.8355L22.8355 19.8421C23.0839 19.5938 23.1256 19.2057 22.9357 18.91L21.8719 17.2554C22.1163 16.7747 22.3232 16.2758 22.4903 15.7642L24.4118 15.3465C24.7551 15.2718 25 14.9679 25 14.6166V10.3834C25 10.0321 24.7551 9.72824 24.4118 9.65347V9.65347ZM23.506 14.0144L21.7442 14.3974C21.4735 14.4564 21.2576 14.6601 21.1832 14.9267C20.9896 15.6212 20.7111 16.2928 20.3556 16.9228C20.2194 17.164 20.2278 17.4608 20.3777 17.6939L21.3533 19.2114L19.2116 21.3533L17.6939 20.3777C17.4608 20.2278 17.164 20.2194 16.923 20.3556C16.2928 20.7111 15.6212 20.9896 14.9267 21.1832C14.6601 21.2576 14.4564 21.4735 14.3974 21.7442L14.0144 23.506H10.9856L10.6026 21.7442C10.5436 21.4735 10.3399 21.2576 10.0733 21.1832C9.37881 20.9896 8.70724 20.7111 8.07724 20.3556C7.83596 20.2194 7.53918 20.228 7.3061 20.3777L5.78861 21.3533L3.64685 19.2114L4.62227 17.6939C4.77219 17.4608 4.78077 17.164 4.64458 16.9228C4.28905 16.2928 4.01058 15.6212 3.8168 14.9267C3.74241 14.6601 3.52669 14.4564 3.25603 14.3974L1.49403 14.0144V10.9856L3.25584 10.6026C3.5265 10.5436 3.74241 10.3399 3.8168 10.0733C4.01039 9.37881 4.28886 8.70724 4.64439 8.07724C4.78058 7.83596 4.77219 7.53918 4.62227 7.3061L3.64666 5.78861L5.78842 3.64666L7.3061 4.62227C7.53918 4.77219 7.83596 4.78058 8.07705 4.64439C8.70724 4.28886 9.37881 4.01039 10.0733 3.8168C10.3399 3.74241 10.5436 3.5265 10.6026 3.25584L10.9856 1.49403H14.0144L14.3974 3.25584C14.4564 3.5265 14.6601 3.74241 14.9267 3.8168C15.6212 4.01039 16.2928 4.28886 16.9228 4.64439C17.164 4.78058 17.4608 4.772 17.6939 4.62227L19.2114 3.64666L21.3531 5.78861L20.3777 7.3061C20.2278 7.53918 20.2192 7.83596 20.3554 8.07724C20.7111 8.70724 20.9894 9.37881 21.1832 10.0733C21.2576 10.3399 21.4733 10.5436 21.744 10.6026L23.506 10.9856V14.0144Z" fill="black"/>
</g>
<defs>
<clipPath id="clip0">
<rect width="25" height="25" fill="white"/>
</clipPath>
</defs>
</svg>
