<svg width="15" height="15" viewBox="0 0 15 15" fill="none" xmlns="http://www.w3.org/2000/svg">
<g clip-path="url(#clip0)">
<path d="M13.8717 4.06988L13.8712 4.05821C13.8647 3.91413 13.8604 3.76169 13.8577 3.59209C13.8455 2.76503 13.188 2.0809 12.3608 2.03467C10.6362 1.93842 9.30207 1.37606 8.16213 0.264959L8.1524 0.255689C7.78059 -0.0852296 7.21971 -0.0852296 6.84778 0.255689L6.83805 0.264959C5.69811 1.37606 4.36396 1.93842 2.63934 2.03478C1.81228 2.0809 1.1547 2.76503 1.14246 3.5922C1.13994 3.76066 1.13548 3.9131 1.12895 4.05821L1.12827 4.08533C1.09474 5.84394 1.05308 8.03261 1.78527 10.0192C2.18787 11.1116 2.79761 12.0613 3.59744 12.8419C4.50839 13.7308 5.70154 14.4366 7.14372 14.9394C7.19064 14.9558 7.2394 14.9691 7.28906 14.979C7.3591 14.993 7.4296 15 7.50009 15C7.57059 15 7.6412 14.993 7.71112 14.979C7.76079 14.9691 7.80988 14.9557 7.85703 14.9392C9.29749 14.4355 10.4894 13.7294 11.3995 12.8405C12.199 12.0597 12.8088 11.1098 13.2117 10.0171C13.9466 8.0246 13.9051 5.83181 13.8717 4.06988ZM12.3859 9.7126C11.6137 11.8064 10.0372 13.2444 7.56658 14.1084C7.55777 14.1114 7.54839 14.114 7.53866 14.1159C7.51314 14.121 7.48716 14.121 7.4613 14.1158C7.45168 14.1139 7.4423 14.1114 7.4336 14.1084C4.96031 13.246 3.38286 11.8088 2.61119 9.71489C1.93633 7.88373 1.97456 5.87461 2.00832 4.10215L2.00854 4.09231C2.01541 3.93999 2.01999 3.78046 2.02251 3.60514C2.028 3.2379 2.32051 2.93406 2.68844 2.91357C3.66439 2.8591 4.52177 2.6705 5.30958 2.33702C6.09636 2.004 6.79514 1.53456 7.44562 0.901935C7.47869 0.874011 7.52161 0.873897 7.55456 0.901935C8.20516 1.53456 8.90393 2.004 9.6906 2.33702C10.4784 2.6705 11.3358 2.8591 12.3119 2.91357C12.6798 2.93406 12.9723 3.2379 12.9777 3.60525C12.9803 3.78149 12.9849 3.94102 12.9918 4.09231C13.0254 5.86683 13.0627 7.87755 12.3859 9.7126Z" fill="black"/>
<path d="M7.49993 3.76367C5.43862 3.76367 3.76172 5.44069 3.76172 7.50188C3.76172 9.56319 5.43862 11.2402 7.49993 11.2402C9.56113 11.2402 11.2381 9.56319 11.2381 7.50188C11.2381 5.44069 9.56113 3.76367 7.49993 3.76367ZM7.49993 10.3599C5.92397 10.3599 4.64188 9.07785 4.64188 7.50188C4.64188 5.92592 5.92397 4.64384 7.49993 4.64384C9.07578 4.64384 10.3579 5.92592 10.3579 7.50188C10.3579 9.07785 9.07578 10.3599 7.49993 10.3599Z" fill="black"/>
<path d="M8.57408 6.33994L6.83778 8.07624L6.36651 7.60497C6.19462 7.43308 5.91596 7.43308 5.74407 7.60497C5.57229 7.77686 5.57229 8.05552 5.74407 8.2273L6.52661 9.00985C6.61256 9.09579 6.72517 9.13871 6.83778 9.13871C6.95039 9.13871 7.063 9.09579 7.14894 9.00985L9.19652 6.96227C9.3683 6.79038 9.3683 6.51172 9.19652 6.33994C9.02463 6.16794 8.74597 6.16794 8.57408 6.33994Z" fill="black"/>
</g>
<defs>
<clipPath id="clip0">
<rect width="15" height="15" fill="white"/>
</clipPath>
</defs>
</svg>
