<svg width="40" height="40" viewBox="0 0 40 40" fill="none" xmlns="http://www.w3.org/2000/svg">
<circle cx="20" cy="20" r="20" fill="#01A9EB"/>
<g clip-path="url(#clip0)">
<path d="M24.12 30C23.243 30 22.3741 29.8056 21.5903 29.4359C21.0329 29.5273 20.5534 29.5703 20.0984 29.5703C14.8102 29.5703 10.5078 25.32 10.5078 20.0957C10.5078 19.5869 10.5583 19.0576 10.6616 18.4857C10.228 17.6622 10 16.743 10 15.8086C10 12.6057 12.6382 10 15.8812 10C16.8904 10 17.8764 10.2548 18.7511 10.7394C19.1495 10.6882 19.5854 10.6641 20.0984 10.6641C22.6538 10.6641 25.0526 11.6426 26.853 13.4192C28.6557 15.1982 29.6484 17.5694 29.6484 20.096C29.6484 20.7654 29.6028 21.3332 29.5059 21.8582C29.834 22.5911 30 23.3746 30 24.1914C30 27.3943 27.3622 30 24.12 30ZM21.837 27.8049L22.077 27.9324C22.6981 28.2628 23.4045 28.4375 24.12 28.4375C26.5007 28.4375 28.4375 26.5327 28.4375 24.1914C28.4375 23.5275 28.2875 22.8951 27.9915 22.3116L27.8645 22.061L27.926 21.787C28.0351 21.3011 28.0859 20.7639 28.0859 20.096C28.0859 15.7568 24.5027 12.2266 20.0984 12.2266C19.5485 12.2266 19.1118 12.2571 18.7238 12.3228L18.4322 12.3721L18.181 12.216C17.4931 11.7885 16.6978 11.5625 15.8812 11.5625C13.4999 11.5625 11.5625 13.4673 11.5625 15.8086C11.5625 16.5639 11.767 17.3053 12.1538 17.9527L12.3096 18.2137L12.2482 18.5114C12.1284 19.091 12.0703 19.6092 12.0703 20.0957C12.0703 24.4585 15.6717 28.0078 20.0984 28.0078C20.5261 28.0078 20.9937 27.9588 21.5698 27.8537L21.837 27.8049ZM25.0391 22.1431C25.0391 21.5813 24.9281 21.0982 24.7069 20.7072C24.4856 20.318 24.1745 19.9921 23.7831 19.7377C23.3983 19.4887 22.926 19.2754 22.3805 19.1008C21.8413 18.9297 21.2315 18.7723 20.5682 18.6305C20.0433 18.51 19.6614 18.4161 19.4337 18.3537C19.2113 18.2928 18.99 18.2065 18.7743 18.0994C18.5663 17.9961 18.4026 17.8717 18.2848 17.7313C18.1749 17.5974 18.0859 17.4426 18.0859 17.2571C18.0859 16.9539 18.2877 16.6985 18.6302 16.4758C18.9847 16.2442 19.4623 16.1484 20.0497 16.1484C20.6816 16.1484 21.1435 16.2337 21.4185 16.4415C21.7024 16.6548 21.9498 16.9594 22.1538 17.3462C22.3306 17.6483 22.4899 17.859 22.6433 17.9939C22.8082 18.1383 23.0464 18.2031 23.3499 18.2031C23.6836 18.2031 23.9676 18.0946 24.1913 17.8629C24.415 17.6323 24.5703 17.3674 24.5703 17.0763C24.5703 16.7743 24.4412 16.4618 24.2711 16.1478C24.1022 15.8363 23.8354 15.5373 23.4743 15.2565C23.1169 14.9782 22.6605 14.7531 22.1213 14.5863C21.5836 14.4193 20.9395 14.3359 20.2071 14.3359C19.2923 14.3359 18.4825 14.4615 17.8033 14.7119C17.1138 14.9649 16.5775 15.3358 16.2123 15.8099C15.8421 16.2878 15.625 16.8428 15.625 17.4588C15.625 18.1052 15.8328 18.6533 16.1847 19.0916C16.5317 19.5222 17.0049 19.8665 17.5938 20.1155C18.1682 20.358 18.8902 20.5724 19.7409 20.7538C20.3664 20.8852 20.8725 21.0097 21.2456 21.1249C21.6014 21.2349 21.8971 21.3965 22.121 21.6043C22.3329 21.8018 22.449 22.0547 22.449 22.3766C22.449 22.7834 22.2372 23.1171 21.8291 23.3939C21.4117 23.6772 20.8568 23.7891 20.1791 23.7891C19.6857 23.7891 19.2854 23.7502 18.9883 23.6096C18.6926 23.4718 18.461 23.2928 18.3012 23.0824C18.1326 22.8612 17.9744 22.5835 17.8291 22.252C17.6994 21.949 17.5388 21.713 17.3489 21.5543C17.1513 21.3885 16.9083 21.2891 16.6269 21.2891C16.2843 21.2891 15.9964 21.411 15.7712 21.6203C15.5449 21.8321 15.4297 22.0915 15.4297 22.3897C15.4297 22.8677 15.6062 23.3632 15.9557 23.8612C16.2985 24.3552 16.7537 24.7565 17.3045 25.052C18.0739 25.4587 19.0617 25.6641 20.2393 25.6641C21.2192 25.6641 22.0816 25.5132 22.7997 25.2167C23.5258 24.9174 24.0857 24.4949 24.4652 23.9612C24.846 23.4261 25.0383 22.8143 25.0391 22.1431Z" fill="white"/>
</g>
<defs>
<clipPath id="clip0">
<rect width="20" height="20" fill="white" transform="translate(10 10)"/>
</clipPath>
</defs>
</svg>
