<svg width="114" height="51" viewBox="0 0 114 51" fill="none" xmlns="http://www.w3.org/2000/svg">
<g opacity="0.5">
<rect x="70.5463" y="7.46094" width="7.13243" height="35.4142" transform="rotate(-43.771 70.5463 7.46094)" fill="#DBF1DC"/>
<rect x="61.9994" y="35.4531" width="7.13243" height="21.5294" transform="rotate(-43.771 61.9994 35.4531)" fill="#DBF1DC"/>
<rect x="33.9369" y="4.93359" width="7.13243" height="20.4967" transform="rotate(-43.771 33.9369 4.93359)" fill="#DBF1DC"/>
<rect x="13.9008" y="24.9629" width="7.13243" height="33.0086" transform="rotate(-45.0168 13.9008 24.9629)" fill="#DBF1DC"/>
<rect x="71.2086" y="6.81836" width="7.13243" height="53.3522" transform="rotate(45 71.2086 6.81836)" fill="#DBF1DC"/>
<rect x="92.1387" y="25.875" width="7.13243" height="21.6829" transform="rotate(45 92.1387 25.875)" fill="#DBF1DC"/>
<rect x="38.8258" y="0.0332031" width="7.13243" height="31.4342" transform="rotate(45 38.8258 0.0332031)" fill="#DBF1DC"/>
</g>
<path d="M7.47323 23.9098C4.92139 23.389 3.82775 22.8161 3.82775 21.5663C3.82775 20.1081 5.07763 19.2748 7.29095 19.2748C9.322 19.2748 10.624 20.1601 11.4572 20.9674L12.5769 18.8842C10.5719 17.0354 8.02005 16.9573 7.34303 16.9573C3.56736 16.9573 1.51027 19.0144 1.51027 21.6444C1.51027 23.8317 2.78619 25.4461 7.29095 26.2012C9.50428 26.5918 10.9885 27.399 10.9885 28.701C10.9885 30.2373 9.66051 31.2268 7.21284 31.2268C5.31198 31.2268 3.4632 30.3414 2.10917 28.8312L0.963447 30.9143C1.1978 31.2007 3.25489 33.5443 7.16076 33.5443C10.9625 33.5443 13.306 31.409 13.306 28.5968C13.306 25.8627 11.3531 24.6389 7.47323 23.9098ZM26.189 19.431V17.1396H15.4089V19.431H26.189ZM21.9447 33.362V20.733H19.6272V33.362H21.9447ZM36.0727 27.5292C38.4683 26.8782 39.8484 24.8472 39.8484 22.3214C39.8484 19.2748 37.8955 17.1396 33.6771 17.1396H28.6776V19.4571H34.4843C36.1508 19.4571 37.5309 20.3424 37.5309 22.4776C37.5309 24.5608 36.1248 25.4461 34.4323 25.4461H28.6776V33.362H30.9691V27.7636H33.5209L37.5309 33.362H40.239L36.0727 27.5292ZM46.1012 33.362V17.1396H43.8098V33.362H46.1012ZM50.5413 33.362H52.8328V17.1396H50.5413V33.362ZM59.3946 33.362V31.0445H54.1608V33.362H59.3946ZM64.7009 33.362V17.1396H62.4095V33.362H64.7009ZM75.3643 16.749L67.6567 33.362H70.1565L71.7188 29.8727L75.3643 21.8787L78.9838 29.8727H79.0098L80.5721 33.362H83.0719L75.3643 16.749ZM85.992 33.362H88.2834V24.2222L85.992 21.9048V33.362ZM97.1627 17.1396V28.2323L85.992 16.749V19.9518L99.4802 33.7265V17.1396H97.1627ZM113.157 19.431V17.1396H102.376V19.431H113.157ZM108.912 33.362V20.733H106.595V33.362H108.912Z" fill="#033603"/>
</svg>
