<svg width="166" height="26" viewBox="0 0 166 26" fill="none" xmlns="http://www.w3.org/2000/svg">
<path d="M10.6547 11.1C6.85473 10.35 5.20473 9.5 5.20473 7.6C5.20473 5.45 7.05473 4.2 10.4047 4.2C13.4047 4.2 15.3547 5.5 16.6047 6.75L18.2547 3.6C15.2547 0.849999 11.4547 0.749999 10.4547 0.749999C4.80473 0.749999 1.75473 3.85 1.75473 7.75C1.75473 11 3.65473 13.4 10.4047 14.55C13.7047 15.1 15.9047 16.3 15.9047 18.25C15.9047 20.55 13.9047 22.05 10.3047 22.05C7.45473 22.05 4.65473 20.7 2.65473 18.45L0.95473 21.55C1.30473 22 4.40473 25.5 10.2047 25.5C15.8547 25.5 19.3547 22.3 19.3547 18.1C19.3547 14.05 16.4047 12.2 10.6547 11.1ZM38.1507 4.4V0.999999H22.0507V4.4H38.1507ZM31.8007 25.2V6.4H28.3507V25.2H31.8007ZM52.4126 16.5C56.0126 15.55 58.0626 12.5 58.0626 8.75C58.0626 4.2 55.1626 0.999999 48.8626 0.999999H41.4126V4.5H50.0626C52.5626 4.5 54.6126 5.8 54.6126 8.95C54.6126 12.1 52.5126 13.4 49.9626 13.4H41.4126V25.2H44.8626V16.85H48.6126L54.6126 25.2H58.6626L52.4126 16.5ZM67.075 25.2V0.999999H63.625V25.2H67.075ZM73.4697 25.2H76.9197V0.999999H73.4697V25.2ZM86.6697 25.2V21.75H78.8697V25.2H86.6697ZM94.1864 25.2V0.999999H90.7364V25.2H94.1864ZM109.681 0.449999L98.1811 25.2H101.881L104.231 20L109.681 8.05L115.081 20L117.431 25.2H121.181L109.681 0.449999ZM125.122 25.2H128.572V11.6L125.122 8.15V25.2ZM141.772 0.999999V17.55L125.122 0.449999V5.2L145.222 25.75V0.999999H141.772ZM165.218 4.4V0.999999H149.118V4.4H165.218ZM158.868 25.2V6.4H155.418V25.2H158.868Z" fill="#033603"/>
</svg>
