<svg width="60" height="60" viewBox="0 0 60 60" fill="none" xmlns="http://www.w3.org/2000/svg">
<circle r="28.75" transform="matrix(0 1 1 0 30 30)" stroke="white" stroke-width="2.5" fill="#C7EBE3" fill-opacity="0.5"/>
<g clip-path="url(#clip0)">
<path d="M28.4375 57.437V24.3466L22.9825 29.8281C22.3737 30.4398 21.3844 30.4421 20.7728 29.8334C20.1611 29.2246 20.1588 28.2352 20.7675 27.6236L28.8925 19.4592C28.893 19.4587 28.8935 19.4583 28.894 19.4578C29.5027 18.8477 30.4952 18.8458 31.106 19.4577C31.1065 19.4582 31.107 19.4586 31.1075 19.4591L39.2325 27.6234C39.8411 28.235 39.839 29.2244 39.2272 29.8332C38.6155 30.442 37.6262 30.4396 37.0175 29.828L31.5625 24.3466V57.437C31.5625 58.3 30.863 58.9995 30 58.9995C29.137 58.9995 28.4375 58.3 28.4375 57.437Z" fill="white"/>
</g>
<defs>
<clipPath id="clip0">
<rect width="40" height="40" fill="white" transform="matrix(0 1 1 0 10 19)"/>
</clipPath>
</defs>
</svg>
