<svg width="25" height="25" viewBox="0 0 25 25" fill="none" xmlns="http://www.w3.org/2000/svg">
<path d="M17.9477 12.5444C17.4673 12.316 16.9771 12.1193 16.4783 11.9545C18.0937 10.742 19.1406 8.81128 19.1406 6.64062C19.1406 2.979 16.1616 0 12.5 0C8.83831 0 5.85936 2.979 5.85936 6.64062C5.85936 8.81367 6.90857 10.7463 8.52698 11.9585C7.04417 12.4467 5.65281 13.2063 4.43504 14.208C2.20203 16.0448 0.649444 18.6067 0.0633601 21.422C-0.120331 22.3041 0.099737 23.2102 0.667022 23.9078C1.23152 24.6019 2.06858 25 2.96351 25H14.9902C15.5296 25 15.9668 24.5628 15.9668 24.0234C15.9668 23.4841 15.5296 23.0469 14.9902 23.0469H2.96351C2.54661 23.0469 2.2951 22.8142 2.18231 22.6755C1.98753 22.436 1.91214 22.1242 1.97547 21.8201C2.9889 16.9521 7.28265 13.3962 12.2411 13.2763C12.327 13.2796 12.4133 13.2812 12.5 13.2812C12.5875 13.2812 12.6747 13.2795 12.7614 13.2762C14.2809 13.3118 15.7424 13.6586 17.1093 14.3084C17.5964 14.5398 18.1789 14.3328 18.4105 13.8456C18.642 13.3585 18.4349 12.7759 17.9477 12.5444ZM12.7382 11.3221C12.6589 11.3207 12.5795 11.32 12.5 11.32C12.4212 11.32 12.3424 11.3208 12.2637 11.3222C9.78831 11.1987 7.81248 9.14609 7.81248 6.64062C7.81248 4.05591 9.91526 1.95312 12.5 1.95312C15.0847 1.95312 17.1875 4.05591 17.1875 6.64062C17.1875 9.14546 15.2126 11.1977 12.7382 11.3221Z" fill="#033603"/>
<path d="M24.0234 19.3848H21.3379V16.6992C21.3379 16.1599 20.9007 15.7227 20.3613 15.7227C19.822 15.7227 19.3848 16.1599 19.3848 16.6992V19.3848H16.6992C16.1599 19.3848 15.7227 19.822 15.7227 20.3613C15.7227 20.9007 16.1599 21.3379 16.6992 21.3379H19.3848V24.0234C19.3848 24.5628 19.822 25 20.3613 25C20.9007 25 21.3379 24.5628 21.3379 24.0234V21.3379H24.0234C24.5628 21.3379 25 20.9007 25 20.3613C25 19.822 24.5628 19.3848 24.0234 19.3848Z" fill="#033603"/>
</svg>
