<svg width="479" height="573" viewBox="0 0 479 573" fill="none" xmlns="http://www.w3.org/2000/svg">
<path d="M73.4923 485.481L73.5122 485.505L73.5323 485.53C111.09 531.35 177.525 552.134 239.756 552.134C316.553 552.134 368.464 530.901 405.654 485.53L405.67 485.51L405.687 485.49C442.343 440.524 458.829 372.815 458.829 286.227C458.829 199.666 442.354 132.038 405.672 87.2707C368.495 41.6786 316.577 20.3195 239.756 20.3195C177.525 20.3195 111.09 41.1042 73.5323 86.924L73.5122 86.9485L73.4923 86.973C37.0413 131.742 20.6827 199.471 20.6827 286.227C20.6827 372.982 37.0413 440.712 73.4923 485.481ZM336.356 142.055L336.374 142.081L336.393 142.107C355.396 168.168 366.842 215.269 366.842 287.854C366.842 358.833 355.422 405.082 336.431 430.946C326.906 443.918 315.689 453.231 301.013 459.509C286.039 465.915 266.466 469.582 239.756 469.582C226.991 469.582 211.815 468.093 197.703 465.118C183.246 462.069 171.708 457.832 164.94 453.333C150.139 443.337 137.232 425.914 127.503 398.523C117.9 371.27 112.669 333.595 112.669 284.6C112.669 213.368 124.103 167.174 143.042 141.56L143.062 141.534L143.081 141.508C160.721 117.484 200.124 102.872 239.756 102.872C266.44 102.872 285.978 106.586 300.924 113.069C315.575 119.424 326.804 128.865 336.356 142.055Z" fill="black" stroke="black" stroke-width="38.6347"/>
</svg>
